<?xml version="1.0" encoding="utf-8"?>
<!-- Generator: Adobe Adobe Illustrator 24.2.0, SVG Export Plug-In . SVG Version: 6.00 Build 0)  -->
<svg version="1.1" xmlns="http://www.w3.org/2000/svg" xmlns:xlink="http://www.w3.org/1999/xlink" x="0px" y="0px" width="5350px"
	 height="2500px" viewBox="0 0 5350 2500" style="enable-background:new 0 0 5350 2500;" xml:space="preserve">
<style type="text/css">
	.st0{display:none;}
	.st1{display:inline;fill:none;stroke:#BDBDBD;stroke-width:20;stroke-linejoin:round;stroke-miterlimit:10;}
	.st2{clip-path:url(#SVGID_2_);}
	.st3{clip-path:url(#SVGID_4_);fill:#FFFFFF;stroke:#000000;stroke-miterlimit:10;}
	.st4{clip-path:url(#SVGID_4_);fill:#FFFFFF;}
	.st5{clip-path:url(#SVGID_6_);}
	.st6{clip-path:url(#SVGID_8_);fill:#FFFFFF;stroke:#000000;stroke-miterlimit:10;}
	.st7{clip-path:url(#SVGID_8_);fill:#FFFFFF;}
	.st8{clip-path:url(#SVGID_10_);}
	.st9{clip-path:url(#SVGID_12_);fill:#FFFFFF;stroke:#000000;stroke-miterlimit:10;}
	.st10{clip-path:url(#SVGID_12_);fill:#FFFFFF;}
	.st11{clip-path:url(#SVGID_14_);}
	.st12{clip-path:url(#SVGID_16_);fill:#FFFFFF;stroke:#000000;stroke-miterlimit:10;}
	.st13{clip-path:url(#SVGID_16_);fill:#FFFFFF;}
	.st14{clip-path:url(#SVGID_18_);}
	.st15{fill:none;stroke:#000000;stroke-width:3;stroke-linecap:round;stroke-linejoin:round;stroke-miterlimit:10;}
	.st16{font-family:'ArialMT';}
	.st17{font-size:79.1299px;}
	.st18{fill:none;stroke:#000000;stroke-width:3;stroke-linecap:round;stroke-miterlimit:10;}
	.st19{fill:none;stroke:#000000;stroke-width:3;stroke-miterlimit:10;}
	.st20{fill:none;stroke:#000000;stroke-miterlimit:10;}
	.st21{font-size:93.7799px;}
	.st22{clip-path:url(#SVGID_66_);}
	.st23{clip-path:url(#SVGID_68_);fill:url(#SVGID_69_);}
	.st24{clip-path:url(#SVGID_71_);fill:#FFFFFF;stroke:#000000;stroke-miterlimit:10;}
	.st25{clip-path:url(#SVGID_73_);fill:url(#SVGID_74_);}
	.st26{clip-path:url(#SVGID_76_);fill:none;stroke:#000000;stroke-miterlimit:10;}
	.st27{clip-path:url(#SVGID_76_);fill:#FFFFFF;stroke:#000000;stroke-miterlimit:10;}
	.st28{clip-path:url(#SVGID_76_);}
	.st29{clip-path:url(#SVGID_76_);fill:#FFFFFF;}
	.st30{clip-path:url(#SVGID_78_);}
	.st31{clip-path:url(#SVGID_80_);fill:url(#SVGID_81_);}
	.st32{clip-path:url(#SVGID_83_);fill:#FFFFFF;stroke:#000000;stroke-miterlimit:10;}
	.st33{clip-path:url(#SVGID_85_);fill:url(#SVGID_86_);}
	.st34{clip-path:url(#SVGID_88_);fill:none;stroke:#000000;stroke-miterlimit:10;}
	.st35{clip-path:url(#SVGID_88_);fill:#FFFFFF;stroke:#000000;stroke-miterlimit:10;}
	.st36{clip-path:url(#SVGID_88_);}
	.st37{clip-path:url(#SVGID_88_);fill:#FFFFFF;}
	.st38{clip-path:url(#SVGID_90_);}
	.st39{clip-path:url(#SVGID_92_);fill:url(#SVGID_93_);}
	.st40{clip-path:url(#SVGID_95_);fill:#FFFFFF;stroke:#000000;stroke-miterlimit:10;}
	.st41{clip-path:url(#SVGID_97_);fill:url(#SVGID_98_);}
	.st42{clip-path:url(#SVGID_100_);fill:none;stroke:#000000;stroke-miterlimit:10;}
	.st43{clip-path:url(#SVGID_100_);fill:#FFFFFF;stroke:#000000;stroke-miterlimit:10;}
	.st44{clip-path:url(#SVGID_100_);}
	.st45{clip-path:url(#SVGID_100_);fill:#FFFFFF;}
	.st46{clip-path:url(#SVGID_102_);}
	.st47{clip-path:url(#SVGID_104_);fill:url(#SVGID_105_);}
	.st48{clip-path:url(#SVGID_107_);fill:#FFFFFF;stroke:#000000;stroke-miterlimit:10;}
	.st49{clip-path:url(#SVGID_109_);fill:url(#SVGID_110_);}
	.st50{clip-path:url(#SVGID_112_);fill:none;stroke:#000000;stroke-miterlimit:10;}
	.st51{clip-path:url(#SVGID_112_);fill:#FFFFFF;stroke:#000000;stroke-miterlimit:10;}
	.st52{clip-path:url(#SVGID_112_);}
	.st53{clip-path:url(#SVGID_112_);fill:#FFFFFF;}
	.st54{clip-path:url(#SVGID_114_);}
	.st55{clip-path:url(#SVGID_116_);fill:#FFFFFF;stroke:#000000;stroke-width:2;stroke-miterlimit:10;}
	.st56{clip-path:url(#SVGID_116_);fill:none;stroke:#000000;stroke-width:2;stroke-miterlimit:10;}
	.st57{clip-path:url(#SVGID_116_);}
	.st58{fill:#FFFFFF;stroke:#000000;stroke-width:2;stroke-miterlimit:10;}
	.st59{display:none;clip-path:url(#SVGID_116_);fill:#FFFFFF;stroke:#000000;stroke-width:2;stroke-miterlimit:10;}
	.st60{display:none;clip-path:url(#SVGID_116_);fill:none;stroke:#000000;stroke-width:2;stroke-miterlimit:10;}
	.st61{clip-path:url(#SVGID_116_);fill:#FFFFFF;stroke:#000000;stroke-miterlimit:10;}
	.st62{clip-path:url(#SVGID_116_);fill:none;}
	.st63{fill:none;stroke:#000000;stroke-width:20;stroke-miterlimit:10;}
</style>
<g id="Asix_1_" class="st0">
	<path id="Asix" class="st1" d="M1372.73,1481.41l3157.72-849.53L1372.73,1481.41z"/>
</g>
<g id="Stands">
	<g id="_x31_">
		<g>
			<defs>
				<rect id="SVGID_1_" x="388.56" y="912.09" width="2433.7" height="2433.7"/>
			</defs>
			<clipPath id="SVGID_2_">
				<use xlink:href="#SVGID_1_"  style="overflow:visible;"/>
			</clipPath>
			<g class="st2">
				<defs>
					<rect id="SVGID_3_" x="388.56" y="912.09" width="2433.7" height="2433.7"/>
				</defs>
				<clipPath id="SVGID_4_">
					<use xlink:href="#SVGID_3_"  style="overflow:visible;"/>
				</clipPath>
				<path class="st3" d="M1599.12,1774.51l2.75,592.33l12.84,5.66l13.26-2.64l3.43-595.4l-9.08,1.09
					c-4.74,0.57-9.54,0.57-14.28,0.01L1599.12,1774.51z"/>
				<path class="st3" d="M1595.18,1710.81l-0.17,62.41l13.89,1.73c4.57,0.57,9.21,0.47,13.74-0.29l12.23-2.04l0.58-64.31
					c0-0.34-0.32-0.6-0.69-0.55l-12.18,1.59c-5.17,0.67-10.4,0.68-15.57,0.01l-8.59-1.11
					C1596.72,1708.03,1595.18,1709.24,1595.18,1710.81z"/>
				<path class="st4" d="M1593.32,2085.86l0.5,42.04c0.01,0.5,0.42,0.9,0.92,0.88l11.19,2.03c6.17,1.12,12.48,1.17,18.68,0.15
					l12.31-2.03c0.48-0.01-0.01-1.78,0-2.26l0.65-40.65c0.09-6.23-4.94-11.32-11.17-11.28l-22.28,0.12
					C1598.1,2074.91,1593.25,2079.84,1593.32,2085.86"/>
				<path class="st3" d="M1593.32,2085.86l0.5,42.04c0.01,0.5,0.42,0.9,0.92,0.88l11.19,2.03c6.17,1.12,12.48,1.17,18.68,0.15
					l12.31-2.03c0.48-0.01-0.01-1.78,0-2.26l0.65-40.65c0.09-6.23-4.94-11.32-11.17-11.28l-22.28,0.12
					C1598.1,2074.91,1593.25,2079.84,1593.32,2085.86z"/>
				<polygon class="st3" points="1631.41,2371.56 1835.7,2316.77 1850.38,2330.81 1630.17,2392.74 				"/>
				<polygon class="st3" points="1372.27,2330.73 1388.8,2315.64 1601.51,2363.53 1601.03,2382.13 				"/>
				<path class="st3" d="M1593.32,2106.95l-386.89,349.86l1.46,3.4c1.93,4.52,5.75,7.96,10.45,9.42l1.32,0.41l373.67-341.09V2106.95
					z"/>
				<path class="st3" d="M1637.57,2106.95l360.82,342.88l-0.52,1.48c-1.83,5.31-6.92,8.8-12.53,8.56l-348.42-333.19L1637.57,2106.95
					z"/>
				<path class="st3" d="M1633,2411.09l18.54-8.03c0.25-0.11,0.29-0.45,0.05-0.6l-18.76-12.26L1633,2411.09z"/>
				<path class="st3" d="M1605.65,1565.16v49.89l5.99,0.88c2.66,0.39,5.49,0.39,8.15-0.01l4.51-0.68l-0.74-50.13
					c0-0.1-0.19-0.17-0.39-0.15l-8.57,0.01l-8.46,0C1605.9,1564.94,1605.65,1565.03,1605.65,1565.16z"/>
				<path class="st3" d="M1603.66,2418.68l0.44,75.98c0.05,0.92,17.72,1.86,21.52,0.94l2.08-0.51l-1.03-76.62l-4.9,0.49
					c-5.53,0.54-11.69,0.48-17.06-0.16L1603.66,2418.68z"/>
				<path class="st3" d="M1601.37,1708.17l-0.24-22.99l10.06,1.28c2.33,0.3,4.69,0.3,7.02,0l10.02-1.28l-0.24,23.01l-10.32,1.35
					c-1.61,0.21-3.25,0.22-4.87,0.02L1601.37,1708.17z"/>
				<path class="st3" d="M1599.11,1609.13l-1.47,75.31l14.27,1.99c1.85,0.19,3.71,0.2,5.55,0.03l16-2.01l-1.85-74.58
					c-0.01-0.41-0.35-0.71-0.72-0.64l-16.21,2.61l-14.97-3.21C1599.4,1608.55,1599.11,1608.8,1599.11,1609.13z"/>
				<path class="st4" d="M1596.55,2414.97l8.28,3.52c5.66,2.4,12.07,2.38,17.7-0.08l10.53-4.58l-1.2-46.79
					c-0.03-1.05-1.14-1.71-2.07-1.25l-7.53,2.76c-4.27,1.56-8.93,1.72-13.3,0.48l-10.3-2.94c-0.73-0.33-1.55,0.19-1.56,0.98
					L1596.55,2414.97z"/>
				<path class="st3" d="M1596.55,2414.97l8.28,3.52c5.66,2.4,12.07,2.38,17.7-0.08l10.53-4.58l-1.2-46.79
					c-0.03-1.05-1.14-1.71-2.07-1.25l-7.53,2.76c-4.27,1.56-8.93,1.72-13.3,0.48l-10.3-2.94c-0.73-0.33-1.55,0.19-1.56,0.98
					L1596.55,2414.97z"/>
				<path class="st3" d="M1607.52,1565.03v-7.09c0-0.38,0.29-0.68,0.64-0.68l13.33,0.07c0.12,0.01,0.21,0.1,0.21,0.22v7.37
					L1607.52,1565.03z"/>
				<polygon class="st3" points="1610.26,1540.54 1610.53,1557.26 1619.35,1557.24 1619.1,1540.24 1614.84,1542.18 				"/>
				<path class="st3" d="M1607.52,1525.26l0.47,14.51l4.74,1.62c1.48,0.51,3.08,0.41,4.5-0.26l3.9-1.86l0.56-14.06h-6.38
					L1607.52,1525.26z"/>
				<polygon class="st3" points="1612.22,1516.68 1612.03,1523.7 1618.08,1523.54 1617.47,1516.57 				"/>
			</g>
		</g>
	</g>
	<g id="_x32_">
		<g>
			<defs>
				<rect id="SVGID_5_" x="1344.91" y="912.09" width="2433.7" height="2433.7"/>
			</defs>
			<clipPath id="SVGID_6_">
				<use xlink:href="#SVGID_5_"  style="overflow:visible;"/>
			</clipPath>
			<g class="st5">
				<defs>
					<rect id="SVGID_7_" x="1349.95" y="912.09" width="2433.7" height="2433.7"/>
				</defs>
				<clipPath id="SVGID_8_">
					<use xlink:href="#SVGID_7_"  style="overflow:visible;"/>
				</clipPath>
				<path class="st6" d="M2560.1,1698.32l2.82,667.81l13.17,6.38l13.6-2.97l3.51-671.26l-9.31,1.23c-4.86,0.64-9.79,0.64-14.65,0.01
					L2560.1,1698.32z"/>
				<path class="st6" d="M2556.06,1626.5l-0.17,70.36l14.25,1.95c4.69,0.64,9.45,0.53,14.1-0.32l12.54-2.3l0.6-72.5
					c0-0.38-0.33-0.68-0.71-0.62l-12.5,1.8c-5.3,0.76-10.67,0.76-15.97,0.01l-8.81-1.25
					C2557.63,1623.37,2556.06,1624.73,2556.06,1626.5z"/>
				<path class="st7" d="M2554.72,2085.86l0.5,42.04c0.01,0.5,0.42,0.9,0.92,0.88l11.19,2.03c6.17,1.12,12.48,1.17,18.68,0.15
					l12.31-2.03c0.48-0.01-0.01-1.78,0-2.26l0.65-40.65c0.09-6.23-4.94-11.32-11.17-11.28l-22.28,0.12
					C2559.5,2074.91,2554.65,2079.84,2554.72,2085.86"/>
				<path class="st6" d="M2554.72,2085.86l0.5,42.04c0.01,0.5,0.42,0.9,0.92,0.88l11.19,2.03c6.17,1.12,12.48,1.17,18.68,0.15
					l12.31-2.03c0.48-0.01-0.01-1.78,0-2.26l0.65-40.65c0.09-6.23-4.94-11.32-11.17-11.28l-22.28,0.12
					C2559.5,2074.91,2554.65,2079.84,2554.72,2085.86z"/>
				<polygon class="st6" points="2592.8,2371.56 2797.09,2316.77 2811.77,2330.81 2592.07,2393.74 				"/>
				<polygon class="st6" points="2333.66,2330.73 2350.19,2315.64 2562.9,2363.53 2562.43,2382.13 				"/>
				<path class="st6" d="M2554.72,2106.95l-386.89,349.86l1.46,3.4c1.93,4.52,5.75,7.96,10.45,9.42l1.32,0.41l373.67-341.09V2106.95
					z"/>
				<path class="st6" d="M2598.96,2106.95l360.82,342.88l-0.52,1.48c-1.83,5.31-6.92,8.8-12.53,8.56l-348.42-333.19L2598.96,2106.95
					z"/>
				<path class="st6" d="M2568.2,1303.95v-6.8c0-0.36,0.3-0.65,0.65-0.65l13.67,0.07c0.12,0,0.21,0.1,0.21,0.21v7.06L2568.2,1303.95
					z"/>
				<path class="st6" d="M2594.39,2411.09l18.54-8.03c0.25-0.11,0.29-0.45,0.05-0.6l-18.76-12.26L2594.39,2411.09z"/>
				<path class="st6" d="M2565.06,2407.19l0.44,79.45c0.05,0.96,17.72,1.95,21.52,0.99l2.08-0.53l-1.03-80.12l-4.9,0.51
					c-5.53,0.56-11.69,0.5-17.06-0.16L2565.06,2407.19z"/>
				<path class="st6" d="M2562.41,1623.53l-0.24-25.92l10.32,1.45c2.39,0.34,4.81,0.34,7.2,0l10.28-1.45l-0.24,25.94l-10.59,1.52
					c-1.65,0.24-3.33,0.25-4.99,0.02L2562.41,1623.53z"/>
				<path class="st6" d="M2567.42,1297.62v265.84l5.75,4.71c2.55,2.09,5.27,2.06,7.82-0.08l4.33-3.64l-0.72-267.1
					c0-0.54-0.19-0.93-0.38-0.77l-8.22-0.03l-8.13,0.11C2567.65,1296.46,2567.42,1296.95,2567.42,1297.62z"/>
				<path class="st6" d="M2568.2,1265.82l0.49,13.91l4.86,1.56c1.51,0.49,3.16,0.39,4.61-0.25l4-1.79l0.58-13.48h-6.55
					L2568.2,1265.82z"/>
				<path class="st7" d="M2557.94,2414.97l8.28,3.52c5.66,2.4,12.07,2.38,17.7-0.08l10.53-4.58l-1.2-46.79
					c-0.03-1.05-1.14-1.71-2.07-1.25l-7.53,2.76c-4.27,1.56-8.93,1.72-13.3,0.48l-10.3-2.94c-0.73-0.33-1.55,0.19-1.56,0.98
					L2557.94,2414.97z"/>
				<path class="st6" d="M2560.09,1524.92l-1.5,72.2l14.64,1.9c1.9,0.18,3.8,0.19,5.69,0.02l16.41-1.93l-1.89-71.51
					c-0.01-0.39-0.36-0.68-0.74-0.62l-16.63,2.5l-15.36-3.08C2560.39,1524.36,2560.09,1524.6,2560.09,1524.92z"/>
				<path class="st6" d="M2557.94,2414.97l8.28,3.52c5.66,2.4,12.07,2.38,17.7-0.08l10.53-4.58l-1.2-46.79
					c-0.03-1.05-1.14-1.71-2.07-1.25l-7.53,2.76c-4.27,1.56-8.93,1.72-13.3,0.48l-10.3-2.94c-0.73-0.33-1.55,0.19-1.56,0.98
					L2557.94,2414.97z"/>
				<polygon class="st6" points="2571.01,1280.47 2571.29,1296.5 2580.33,1296.48 2580.28,1280.09 2575.71,1282.04 				"/>
				<polygon class="st6" points="2573.01,1257.59 2572.82,1264.33 2579.03,1264.18 2578.4,1257.49 				"/>
			</g>
		</g>
	</g>
	<g id="_x33_">
		<g>
			<defs>
				<rect id="SVGID_9_" x="2315.94" y="832.21" width="2433.7" height="2433.7"/>
			</defs>
			<clipPath id="SVGID_10_">
				<use xlink:href="#SVGID_9_"  style="overflow:visible;"/>
			</clipPath>
			<g class="st8">
				<defs>
					<rect id="SVGID_11_" x="2317.53" y="912.09" width="2433.7" height="2433.7"/>
				</defs>
				<clipPath id="SVGID_12_">
					<use xlink:href="#SVGID_11_"  style="overflow:visible;"/>
				</clipPath>
				<path class="st9" d="M3527.68,1698.32l2.82,667.81l13.17,6.38l13.6-2.97l3.51-671.26l-9.31,1.23
					c-4.86,0.64-9.79,0.64-14.65,0.01L3527.68,1698.32z"/>
				<path class="st9" d="M3523.64,1626.5l-0.17,70.36l14.25,1.95c4.69,0.64,9.45,0.53,14.1-0.32l12.54-2.3l0.6-72.5
					c0-0.38-0.33-0.68-0.71-0.62l-12.5,1.8c-5.3,0.76-10.67,0.76-15.97,0.01l-8.81-1.25
					C3525.21,1623.37,3523.64,1624.73,3523.64,1626.5z"/>
				<path class="st10" d="M3522.3,2085.86l0.5,42.04c0.01,0.5,0.42,0.9,0.92,0.88l11.19,2.03c6.17,1.12,12.48,1.17,18.68,0.15
					l12.31-2.03c0.48-0.01-0.01-1.78,0-2.26l0.65-40.65c0.09-6.23-4.94-11.32-11.17-11.28l-22.28,0.12
					C3527.07,2074.91,3522.23,2079.84,3522.3,2085.86"/>
				<path class="st9" d="M3522.3,2085.86l0.5,42.04c0.01,0.5,0.42,0.9,0.92,0.88l11.19,2.03c6.17,1.12,12.48,1.17,18.68,0.15
					l12.31-2.03c0.48-0.01-0.01-1.78,0-2.26l0.65-40.65c0.09-6.23-4.94-11.32-11.17-11.28l-22.28,0.12
					C3527.07,2074.91,3522.23,2079.84,3522.3,2085.86z"/>
				<polygon class="st9" points="3560.38,2371.56 3764.67,2316.77 3779.35,2330.81 3561.5,2392.74 				"/>
				<polygon class="st9" points="3301.24,2330.73 3317.77,2315.64 3530.48,2363.53 3530,2382.13 				"/>
				<path class="st9" d="M3522.3,2106.95l-386.89,349.86l1.46,3.4c1.93,4.52,5.75,7.96,10.45,9.42l1.32,0.41l373.67-341.09V2106.95z
					"/>
				<path class="st9" d="M3566.54,2106.95l360.82,342.88l-0.52,1.48c-1.83,5.31-6.92,8.8-12.53,8.56l-348.42-333.19L3566.54,2106.95
					z"/>
				<path class="st9" d="M3561.97,2411.09l18.54-8.03c0.25-0.11,0.29-0.45,0.05-0.6l-18.76-12.26L3561.97,2411.09z"/>
				<path class="st9" d="M3532.64,2414.19l0.44,78c0.05,0.94,17.72,1.91,21.52,0.97l2.08-0.52l-1.03-78.66l-4.9,0.5
					c-5.53,0.55-11.69,0.49-17.06-0.16L3532.64,2414.19z"/>
				<path class="st9" d="M3529.99,1623.53l-0.24-25.92l10.32,1.45c2.39,0.34,4.81,0.34,7.2,0l10.28-1.45l-0.24,25.94l-10.59,1.52
					c-1.65,0.24-3.33,0.25-4.99,0.02L3529.99,1623.53z"/>
				<path class="st9" d="M3535.29,1049.22l-0.03,476.6l5.91,5.22c2.61,3.73,5.39,3.67,7.99-0.14l4.22-4.87l-0.52-477.3
					c0-0.96-1.05-0.07-1.24,0.2l-7.3,0.05l-8.04,0C3536.27,1049,3535.29,1048.02,3535.29,1049.22z"/>
				<path class="st9" d="M3527.67,1524.92l-1.5,72.2l14.64,1.9c1.9,0.18,3.8,0.19,5.69,0.02l16.41-1.93l-1.89-71.51
					c-0.01-0.39-0.36-0.68-0.74-0.62l-16.63,2.5l-15.36-3.08C3527.97,1524.36,3527.67,1524.6,3527.67,1524.92z"/>
				<path class="st9" d="M3537.08,1010.91l0.49,13.91l4.86,1.56c1.51,0.49,3.16,0.39,4.61-0.25l4-1.79l0.58-13.48h-6.55
					L3537.08,1010.91z"/>
				<path class="st9" d="M3537.08,1049.04v-6.8c0-0.36,0.3-0.65,0.65-0.65l13.67,0.07c0.12,0,0.21,0.1,0.21,0.21v7.06
					L3537.08,1049.04z"/>
				<path class="st10" d="M3525.52,2414.97l8.28,3.52c5.66,2.4,12.07,2.38,17.7-0.08l10.53-4.58l-1.2-46.79
					c-0.03-1.05-1.14-1.71-2.07-1.25l-7.53,2.76c-4.27,1.56-8.93,1.72-13.3,0.48l-10.3-2.94c-0.73-0.33-1.55,0.19-1.56,0.98
					L3525.52,2414.97z"/>
				<path class="st9" d="M3525.52,2414.97l8.28,3.52c5.66,2.4,12.07,2.38,17.7-0.08l10.53-4.58l-1.2-46.79
					c-0.03-1.05-1.14-1.71-2.07-1.25l-7.53,2.76c-4.27,1.56-8.93,1.72-13.3,0.48l-10.3-2.94c-0.73-0.33-1.55,0.19-1.56,0.98
					L3525.52,2414.97z"/>
				<polygon class="st9" points="3539.89,1025.57 3540.16,1041.59 3549.21,1041.57 3549.25,1025.14 3544.59,1027.13 				"/>
				<polygon class="st9" points="3541.89,1002.68 3541.7,1009.42 3547.9,1009.27 3547.28,1002.59 				"/>
			</g>
		</g>
	</g>
	<g id="_x34_">
		<g>
			<defs>
				<rect id="SVGID_13_" x="3278.24" y="-724.09" width="2433.7" height="3990"/>
			</defs>
			<clipPath id="SVGID_14_">
				<use xlink:href="#SVGID_13_"  style="overflow:visible;"/>
			</clipPath>
			<g class="st11">
				<defs>
					<rect id="SVGID_15_" x="3275.34" y="185.29" width="2433.7" height="3160"/>
				</defs>
				<clipPath id="SVGID_16_">
					<use xlink:href="#SVGID_15_"  style="overflow:visible;"/>
				</clipPath>
				<path class="st12" d="M4485.48,1697.82l2.82,667.81l13.17,6.38l13.6-2.97l3.51-671.26l-9.31,1.23
					c-4.86,0.64-9.79,0.64-14.65,0.01L4485.48,1697.82z"/>
				<path class="st12" d="M4481.44,1626l-0.17,70.36l14.25,1.95c4.69,0.64,9.45,0.53,14.1-0.32l12.54-2.3l0.6-72.5
					c0-0.38-0.33-0.68-0.71-0.62l-12.5,1.8c-5.3,0.76-10.67,0.76-15.98,0.01l-8.81-1.25
					C4483.02,1622.87,4481.44,1624.23,4481.44,1626z"/>
				<path class="st13" d="M4480.1,2085.36l0.5,42.04c0.01,0.5,0.42,0.9,0.92,0.88l11.19,2.03c6.17,1.12,12.48,1.17,18.68,0.15
					l12.31-2.03c0.48-0.01-0.01-1.78,0-2.26l0.65-40.65c0.09-6.23-4.94-11.32-11.17-11.28l-22.28,0.12
					C4484.88,2074.41,4480.03,2079.34,4480.1,2085.36"/>
				<path class="st12" d="M4480.1,2085.36l0.5,42.04c0.01,0.5,0.42,0.9,0.92,0.88l11.19,2.03c6.17,1.12,12.48,1.17,18.68,0.15
					l12.31-2.03c0.48-0.01-0.01-1.78,0-2.26l0.65-40.65c0.09-6.23-4.94-11.32-11.17-11.28l-22.28,0.12
					C4484.88,2074.41,4480.03,2079.34,4480.1,2085.36z"/>
				<polygon class="st12" points="4518.19,2371.06 4722.48,2316.27 4737.16,2330.31 4513.45,2393.24 				"/>
				<polygon class="st12" points="4259.05,2330.23 4275.58,2315.14 4488.29,2363.03 4487.81,2381.63 				"/>
				<path class="st12" d="M4480.1,2106.45l-386.89,349.86l1.46,3.4c1.93,4.52,5.75,7.96,10.45,9.42l1.32,0.41l373.67-341.09V2106.45
					z"/>
				<path class="st12" d="M4524.35,2106.45l360.82,342.88l-0.52,1.48c-1.83,5.31-6.92,8.8-12.53,8.56l-348.42-333.19
					L4524.35,2106.45z"/>
				<path class="st12" d="M4519.78,2410.59l18.54-8.03c0.25-0.11,0.29-0.45,0.05-0.6l-18.76-12.26L4519.78,2410.59z"/>
				<path class="st12" d="M4490.45,2406.23l0.44,80.39c0.05,0.97,17.72,1.97,21.52,1l2.08-0.54l-1.03-81.07l-4.9,0.52
					c-5.53,0.57-11.69,0.51-17.06-0.16L4490.45,2406.23z"/>
				<path class="st12" d="M4487.8,1623.03l-0.24-25.92l10.32,1.45c2.39,0.34,4.81,0.34,7.2,0l10.28-1.45l-0.24,25.94l-10.59,1.52
					c-1.65,0.24-3.33,0.25-4.99,0.02L4487.8,1623.03z"/>
				<path class="st12" d="M4493.1,805.46v735.69l5.88,13.03c2.61,5.8,5.39,5.71,7.99-0.21l4.42-10.08l-0.73-739.18
					c0-1.5-1.05-0.2-1.24,0.23l-6.79,0.07l-7.75,0.08C4494.64,804.56,4493.1,803.6,4493.1,805.46z"/>
				<path class="st12" d="M4494.88,747.8l0.49,20.9l4.86,2.34c1.51,0.73,3.16,0.59,4.61-0.38l4-2.68l0.58-20.25h-6.55L4494.88,747.8
					z"/>
				<path class="st12" d="M4494.88,805.09v-10.21c0-0.54,0.3-0.98,0.65-0.97l13.67,0.1c0.12,0.01,0.21,0.15,0.21,0.32v10.61
					L4494.88,805.09z"/>
				<path class="st12" d="M4485.47,1524.42l-1.5,72.2l14.64,1.9c1.9,0.18,3.8,0.19,5.69,0.02l16.41-1.93l-1.89-71.51
					c-0.01-0.39-0.36-0.68-0.74-0.62l-16.63,2.5l-15.36-3.08C4485.77,1523.86,4485.48,1524.1,4485.47,1524.42z"/>
				<path class="st13" d="M4483.33,2414.47l8.28,3.52c5.66,2.4,12.07,2.38,17.7-0.08l10.53-4.58l-1.2-46.79
					c-0.03-1.05-1.14-1.71-2.07-1.25l-7.53,2.76c-4.27,1.56-8.93,1.72-13.3,0.48l-10.3-2.94c-0.73-0.33-1.55,0.19-1.56,0.98
					L4483.33,2414.47z"/>
				<path class="st12" d="M4483.33,2414.47l8.28,3.52c5.66,2.4,12.07,2.38,17.7-0.08l10.53-4.58l-1.2-46.79
					c-0.03-1.05-1.14-1.71-2.07-1.25l-7.53,2.76c-4.27,1.56-8.93,1.72-13.3,0.48l-10.3-2.94c-0.73-0.33-1.55,0.19-1.56,0.98
					L4483.33,2414.47z"/>
				<polygon class="st12" points="4497.69,769.82 4497.97,793.89 4507.01,793.86 4506.78,769.36 4502.39,772.18 				"/>
				<polygon class="st12" points="4499.69,735.44 4499.51,745.56 4505.71,745.34 4505.08,735.3 				"/>
			</g>
		</g>
	</g>
</g>
<g id="Kvoty">
	<g>
		<g>
			<defs>
				
					<rect id="SVGID_17_" x="1407.15" y="-1682.54" transform="matrix(0.0872 -0.9962 0.9962 0.0872 1379.0911 4000.001)" width="2930.03" height="5860.07"/>
			</defs>
			<clipPath id="SVGID_18_">
				<use xlink:href="#SVGID_17_"  style="overflow:visible;"/>
			</clipPath>
			<g id="Horni" class="st14">
				<path class="st15" d="M505.28,1487.11L4351.17,453.27L505.28,1487.11z"/>
				<line class="st15" x1="488.66" y1="1426.9" x2="611.36" y2="1871.09"/>
				<line class="st15" x1="1448.35" y1="1169.89" x2="1547.34" y2="1541.23"/>
				<line class="st15" x1="2405.33" y1="912.64" x2="2504.12" y2="1281.32"/>
				<line class="st15" x1="3375.95" y1="651.72" x2="3467.77" y2="994.37"/>
				<line class="st15" x1="4335.25" y1="393.84" x2="4417.66" y2="701.41"/>
				<text transform="matrix(0.9659 -0.2588 0.2588 0.9659 921.3495 1341.8365)" class="st16 st17">1 m</text>
				<text transform="matrix(0.9659 -0.2588 0.2588 0.9659 1891.453 1082.5453)" class="st16 st17">1 m</text>
				<text transform="matrix(0.9659 -0.2588 0.2588 0.9659 2840.198 828.8314)" class="st16 st17">1 m</text>
				<text transform="matrix(0.9659 -0.2588 0.2588 0.9659 3804.6028 569.674)" class="st16 st17">1 m</text>
				<line x1="506.37" y1="1486.87" x2="533.99" y2="1463.69"/>
				<line class="st18" x1="506.37" y1="1486.87" x2="533.99" y2="1463.69"/>
				<line x1="506.37" y1="1486.87" x2="541.88" y2="1493.13"/>
				<line class="st18" x1="506.37" y1="1486.87" x2="541.88" y2="1493.13"/>
				<line x1="1463.96" y1="1229.71" x2="1491.59" y2="1206.53"/>
				<line class="st18" x1="1463.96" y1="1229.71" x2="1491.59" y2="1206.53"/>
				<line x1="1463.96" y1="1229.71" x2="1499.48" y2="1235.97"/>
				<line class="st18" x1="1463.96" y1="1229.71" x2="1499.48" y2="1235.97"/>
				<line x1="2421.38" y1="971.84" x2="2449" y2="948.66"/>
				<line class="st18" x1="2421.38" y1="971.84" x2="2449" y2="948.66"/>
				<line x1="2421.38" y1="971.84" x2="2456.89" y2="978.1"/>
				<line class="st18" x1="2421.38" y1="971.84" x2="2456.89" y2="978.1"/>
				<line x1="2421.37" y1="971.96" x2="2393.74" y2="995.14"/>
				<line class="st18" x1="2421.37" y1="971.96" x2="2393.74" y2="995.14"/>
				<line x1="2421.37" y1="971.96" x2="2385.86" y2="965.7"/>
				<line class="st18" x1="2421.37" y1="971.96" x2="2385.86" y2="965.7"/>
				<line x1="1463.97" y1="1229.59" x2="1436.35" y2="1252.77"/>
				<line class="st18" x1="1463.97" y1="1229.59" x2="1436.35" y2="1252.77"/>
				<line x1="1463.97" y1="1229.59" x2="1428.46" y2="1223.33"/>
				<line class="st18" x1="1463.97" y1="1229.59" x2="1428.46" y2="1223.33"/>
				<line x1="3391.65" y1="711.18" x2="3364.02" y2="734.36"/>
				<line class="st18" x1="3391.65" y1="711.18" x2="3364.02" y2="734.36"/>
				<line x1="3391.65" y1="711.18" x2="3356.13" y2="704.92"/>
				<line class="st18" x1="3391.65" y1="711.18" x2="3356.13" y2="704.92"/>
				<line x1="4350.62" y1="453.24" x2="4323" y2="476.42"/>
				<line class="st18" x1="4350.62" y1="453.24" x2="4323" y2="476.42"/>
				<line x1="4350.62" y1="453.24" x2="4315.11" y2="446.98"/>
				<line class="st18" x1="4350.62" y1="453.24" x2="4315.11" y2="446.98"/>
				<line x1="3391.78" y1="711.1" x2="3419.41" y2="687.92"/>
				<line class="st18" x1="3391.78" y1="711.1" x2="3419.41" y2="687.92"/>
				<line x1="3391.78" y1="711.1" x2="3427.3" y2="717.36"/>
				<line class="st18" x1="3391.78" y1="711.1" x2="3427.3" y2="717.36"/>
			</g>
			<g id="Spodni" class="st14">
				<g>
					<line class="st19" x1="988.43" y1="1746.59" x2="988.43" y2="2482.49"/>
					<line class="st15" x1="576.94" y1="1746.76" x2="1060.75" y2="1746.59"/>
					<g>
						<line x1="988.62" y1="2484.47" x2="973.17" y2="2450.71"/>
						<line class="st18" x1="988.62" y1="2484.47" x2="973.17" y2="2450.71"/>
						<line x1="988.62" y1="2484.47" x2="1003.68" y2="2450.51"/>
						<line class="st18" x1="988.62" y1="2484.47" x2="1003.68" y2="2450.51"/>
					</g>
					<g>
						<line x1="988.23" y1="1747.99" x2="1003.68" y2="1780.61"/>
						<line class="st18" x1="988.23" y1="1747.99" x2="1003.68" y2="1780.61"/>
						<line x1="988.23" y1="1747.99" x2="973.17" y2="1780.79"/>
						<line class="st18" x1="988.23" y1="1747.99" x2="973.17" y2="1780.79"/>
					</g>
					<line class="st20" x1="988.42" y1="2482.49" x2="988.23" y2="1747.99"/>
					<text transform="matrix(1 0 0 1 1037.8867 2153.9548)" class="st16 st21">≈ 0,75 m</text>
				</g>
				<g>
					<g>
						<line x1="2049.58" y1="1436.9" x2="2065.03" y2="1466.67"/>
						<line class="st18" x1="2049.58" y1="1436.9" x2="2065.03" y2="1466.67"/>
						<line x1="2049.58" y1="1436.9" x2="2034.53" y2="1466.84"/>
						<line class="st18" x1="2049.58" y1="1436.9" x2="2034.53" y2="1466.84"/>
					</g>
					<g>
						<line x1="2049.98" y1="2484.98" x2="2034.53" y2="2454.15"/>
						<line class="st18" x1="2049.98" y1="2484.98" x2="2034.53" y2="2454.15"/>
						<line x1="2049.98" y1="2484.98" x2="2065.03" y2="2453.98"/>
						<line class="st18" x1="2049.98" y1="2484.98" x2="2065.03" y2="2453.98"/>
					</g>
					<line class="st15" x1="2049.78" y1="1436.87" x2="2049.78" y2="2500"/>
					<line class="st18" x1="1526.42" y1="1436.87" x2="2112.42" y2="1436.87"/>
					<text transform="matrix(1 0 0 1 2105.8059 1996.8046)" class="st16 st21">≈ 1 m</text>
				</g>
				<g>
					<g>
						<line x1="3002.5" y1="1179.23" x2="3017.96" y2="1207.74"/>
						<line class="st18" x1="3002.5" y1="1179.23" x2="3017.96" y2="1207.74"/>
						<line x1="3002.5" y1="1179.23" x2="2987.45" y2="1207.9"/>
						<line class="st18" x1="3002.5" y1="1179.23" x2="2987.45" y2="1207.9"/>
					</g>
					<g>
						<line x1="3004.97" y1="2481.56" x2="2989.52" y2="2452.04"/>
						<line class="st18" x1="3004.97" y1="2481.56" x2="2989.52" y2="2452.04"/>
						<line x1="3004.97" y1="2481.56" x2="3020.03" y2="2451.87"/>
						<line class="st18" x1="3004.97" y1="2481.56" x2="3020.03" y2="2451.87"/>
					</g>
					<line class="st15" x1="3002.7" y1="1178.53" x2="3004.77" y2="2488.02"/>
					<line class="st18" x1="2479.13" y1="1178.53" x2="3065.13" y2="1178.53"/>
					<text transform="matrix(1 0 0 1 3065.1333 1865.5063)" class="st16 st21">≈ 1,2 m</text>
				</g>
				<g>
					<g>
						<line x1="3971.13" y1="926.65" x2="3986.58" y2="954.17"/>
						<line class="st18" x1="3971.13" y1="926.65" x2="3986.58" y2="954.17"/>
						<line x1="3971.13" y1="926.65" x2="3956.08" y2="954.33"/>
						<line class="st18" x1="3971.13" y1="926.65" x2="3956.08" y2="954.33"/>
					</g>
					<g>
						<line x1="3971.53" y1="2476.25" x2="3956.07" y2="2447.76"/>
						<line class="st18" x1="3971.53" y1="2476.25" x2="3956.07" y2="2447.76"/>
						<line x1="3971.53" y1="2476.25" x2="3986.58" y2="2447.6"/>
						<line class="st18" x1="3971.53" y1="2476.25" x2="3986.58" y2="2447.6"/>
					</g>
					<line class="st15" x1="3970.8" y1="926.21" x2="3971.33" y2="2482.49"/>
					<line class="st18" x1="3447.05" y1="926.2" x2="4033.06" y2="926.2"/>
					<text transform="matrix(1 0 0 1 4023.0557 1740.5066)" class="st16 st21">≈ 1,5 m</text>
				</g>
				<g>
					<g>
						<line x1="4926.11" y1="660.18" x2="4941.56" y2="687.41"/>
						<line class="st18" x1="4926.11" y1="660.18" x2="4941.56" y2="687.41"/>
						<line x1="4926.11" y1="660.18" x2="4911.06" y2="687.56"/>
						<line class="st18" x1="4926.11" y1="660.18" x2="4911.06" y2="687.56"/>
					</g>
					<g>
						<line x1="4926.51" y1="2476.28" x2="4911.06" y2="2448.09"/>
						<line class="st18" x1="4926.51" y1="2476.28" x2="4911.06" y2="2448.09"/>
						<line x1="4926.51" y1="2476.28" x2="4941.56" y2="2447.93"/>
						<line class="st18" x1="4926.51" y1="2476.28" x2="4941.56" y2="2447.93"/>
					</g>
					<line class="st15" x1="4926.31" y1="660.05" x2="4926.32" y2="2482.49"/>
					<line class="st18" x1="4403.24" y1="660.08" x2="4989.25" y2="660.09"/>
					<text transform="matrix(1 0 0 1 4999.9995 1616.0337)" class="st16 st21">≈ 1,8 m</text>
				</g>
			</g>
			<g class="st14">
				<defs>
					
						<rect id="SVGID_19_" x="1407.15" y="-1682.54" transform="matrix(0.0872 -0.9962 0.9962 0.0872 1379.0911 4000.001)" width="2930.03" height="5860.07"/>
				</defs>
				<clipPath id="SVGID_20_">
					<use xlink:href="#SVGID_19_"  style="overflow:visible;"/>
				</clipPath>
			</g>
			<g class="st14">
				<defs>
					
						<rect id="SVGID_21_" x="769.28" y="624.1" transform="matrix(0.0872 -0.9962 0.9962 0.0872 -376.7263 3206.0857)" width="1583.54" height="2369.01"/>
				</defs>
				<clipPath id="SVGID_22_">
					<use xlink:href="#SVGID_21_"  style="overflow:visible;"/>
				</clipPath>
			</g>
			<g class="st14">
				<defs>
					
						<rect id="SVGID_23_" x="1714.65" y="689.51" transform="matrix(0.0872 -0.9962 0.9962 0.0872 403.8566 4223.3613)" width="1583.54" height="2403.6"/>
				</defs>
				<clipPath id="SVGID_24_">
					<use xlink:href="#SVGID_23_"  style="overflow:visible;"/>
				</clipPath>
			</g>
			<g class="st14">
				<defs>
					
						<rect id="SVGID_25_" x="2518.89" y="622" transform="matrix(0.0872 -0.9962 0.9962 0.0872 1339.1985 5112.4971)" width="1880.74" height="2407.02"/>
				</defs>
				<clipPath id="SVGID_26_">
					<use xlink:href="#SVGID_25_"  style="overflow:visible;"/>
				</clipPath>
			</g>
			<g class="st14">
				<defs>
					
						<rect id="SVGID_27_" x="3262.91" y="494.35" transform="matrix(0.0872 -0.9962 0.9962 0.0872 2338.8396 5946.8164)" width="2302.84" height="2405.72"/>
				</defs>
				<clipPath id="SVGID_28_">
					<use xlink:href="#SVGID_27_"  style="overflow:visible;"/>
				</clipPath>
			</g>
			<g class="st14">
				<defs>
					<path id="SVGID_29_" d="M1525.67,1411.47l-3.59-0.25c-3.49-0.24-7.08,0.11-10.54,1.04c-0.47,0.13-0.94,0.26-1.41,0.41
						c-1.66,0.52-3.26,1.23-4.75,2.09l-0.09,0.05c-2.37,1.37-4.27,3.26-5.46,5.42l8.53,30.64l4.73-2.61
						c1.91-1.05,3.95-1.9,6.08-2.53l3.25-0.96c0.43-0.13,0.86-0.24,1.29-0.34l4.52-1.06c1.16-0.27,2.34-0.44,3.52-0.51l4.91-0.26
						l-9.05-29.78c-0.23-0.75-0.97-1.27-1.9-1.36C1525.71,1411.48,1525.69,1411.47,1525.67,1411.47"/>
				</defs>
				<clipPath id="SVGID_30_">
					<use xlink:href="#SVGID_29_"  style="overflow:visible;"/>
				</clipPath>
			</g>
			<g class="st14">
				<defs>
					
						<rect id="SVGID_31_" x="1435.38" y="1383.54" transform="matrix(0.9659 -0.2588 0.2588 0.9659 -341.0047 460.1248)" width="283.24" height="283.24"/>
				</defs>
				<clipPath id="SVGID_32_">
					<use xlink:href="#SVGID_31_"  style="overflow:visible;"/>
				</clipPath>
			</g>
			<g class="st14">
				<defs>
					<path id="SVGID_33_" d="M1510.78,1463.89c0.83-0.48,1.33-1.27,1.33-2.07l0-0.54l-0.08-0.27c-0.25-0.91-1.08-1.6-2.17-1.8
						l-0.56-0.21L1510.78,1463.89z"/>
				</defs>
				<clipPath id="SVGID_34_">
					<use xlink:href="#SVGID_33_"  style="overflow:visible;"/>
				</clipPath>
			</g>
			<g class="st14">
				<defs>
					
						<rect id="SVGID_35_" x="1435.38" y="1383.54" transform="matrix(0.9659 -0.2588 0.2588 0.9659 -341.0047 460.1248)" width="283.24" height="283.24"/>
				</defs>
				<clipPath id="SVGID_36_">
					<use xlink:href="#SVGID_35_"  style="overflow:visible;"/>
				</clipPath>
			</g>
			<g class="st14">
				<defs>
					<path id="SVGID_37_" d="M2482.61,1150.93l-3.59-0.25c-3.49-0.24-7.08,0.11-10.54,1.04c-0.47,0.13-0.94,0.26-1.41,0.41
						c-1.67,0.52-3.26,1.23-4.75,2.09l-0.09,0.05c-2.37,1.37-4.27,3.26-5.46,5.42l8.53,30.64l4.73-2.61
						c1.91-1.05,3.95-1.9,6.08-2.53l3.25-0.96c0.43-0.13,0.86-0.24,1.29-0.34l4.52-1.06c1.16-0.27,2.34-0.44,3.53-0.51l4.91-0.26
						l-9.05-29.78c-0.23-0.75-0.97-1.27-1.9-1.36C2482.65,1150.94,2482.63,1150.94,2482.61,1150.93"/>
				</defs>
				<clipPath id="SVGID_38_">
					<use xlink:href="#SVGID_37_"  style="overflow:visible;"/>
				</clipPath>
			</g>
			<g class="st14">
				<defs>
					<polygon id="SVGID_39_" points="2360.5,1164.48 2433.8,1438.07 2707.39,1364.76 2662.58,1197.54 2634.08,1091.18 					"/>
				</defs>
				<clipPath id="SVGID_40_">
					<use xlink:href="#SVGID_39_"  style="overflow:visible;"/>
				</clipPath>
			</g>
			<g class="st14">
				<defs>
					<path id="SVGID_41_" d="M2466.24,1198.47l1.48,4.88c0.82-0.49,1.33-1.27,1.33-2.07l0-0.54l-0.07-0.27
						c-0.25-0.91-1.08-1.6-2.17-1.8L2466.24,1198.47L2466.24,1198.47z"/>
				</defs>
				<clipPath id="SVGID_42_">
					<use xlink:href="#SVGID_41_"  style="overflow:visible;"/>
				</clipPath>
			</g>
			<g class="st14">
				<defs>
					<polygon id="SVGID_43_" points="2360.5,1164.48 2433.8,1438.07 2707.39,1364.76 2662.58,1197.54 2634.08,1091.18 					"/>
				</defs>
				<clipPath id="SVGID_44_">
					<use xlink:href="#SVGID_43_"  style="overflow:visible;"/>
				</clipPath>
			</g>
			<g class="st14">
				<defs>
					<path id="SVGID_45_" d="M3454.39,888.05l-3.59-0.25c-3.49-0.24-7.08,0.11-10.54,1.04c-0.47,0.13-0.94,0.26-1.41,0.41
						c-1.66,0.52-3.26,1.23-4.75,2.09l-0.09,0.05c-2.37,1.37-4.27,3.26-5.46,5.42l8.53,30.64l4.73-2.61
						c1.91-1.05,3.95-1.9,6.08-2.53l3.25-0.96c0.43-0.13,0.86-0.24,1.29-0.34l4.52-1.06c1.16-0.27,2.34-0.44,3.53-0.5l4.91-0.26
						l-9.05-29.78c-0.23-0.75-0.97-1.27-1.9-1.36C3454.42,888.05,3454.41,888.05,3454.39,888.05"/>
				</defs>
				<clipPath id="SVGID_46_">
					<use xlink:href="#SVGID_45_"  style="overflow:visible;"/>
				</clipPath>
			</g>
			<g class="st14">
				<defs>
					<polygon id="SVGID_47_" points="3332.27,901.6 3368.92,1038.39 3405.58,1175.19 3679.16,1101.88 3605.86,828.29 					"/>
				</defs>
				<clipPath id="SVGID_48_">
					<use xlink:href="#SVGID_47_"  style="overflow:visible;"/>
				</clipPath>
			</g>
			<g class="st14">
				<defs>
					<path id="SVGID_49_" d="M3439.5,940.47c0.82-0.49,1.33-1.27,1.33-2.07l0-0.54l-0.07-0.27c-0.25-0.91-1.08-1.59-2.17-1.8
						l-0.56-0.21L3439.5,940.47z"/>
				</defs>
				<clipPath id="SVGID_50_">
					<use xlink:href="#SVGID_49_"  style="overflow:visible;"/>
				</clipPath>
			</g>
			<g class="st14">
				<defs>
					<polygon id="SVGID_51_" points="3332.27,901.6 3368.92,1038.39 3405.58,1175.19 3679.16,1101.88 3605.86,828.29 					"/>
				</defs>
				<clipPath id="SVGID_52_">
					<use xlink:href="#SVGID_51_"  style="overflow:visible;"/>
				</clipPath>
			</g>
			<g class="st14">
				<defs>
					<path id="SVGID_53_" d="M4415.84,633.53l-3.59-0.25c-3.49-0.24-7.08,0.11-10.54,1.04c-0.47,0.13-0.94,0.26-1.41,0.41
						c-1.67,0.53-3.26,1.23-4.75,2.09l-0.09,0.05c-2.37,1.37-4.27,3.26-5.46,5.42l8.53,30.64l4.73-2.61
						c1.91-1.05,3.95-1.9,6.07-2.53l3.25-0.96c0.43-0.13,0.86-0.24,1.3-0.34l4.52-1.06c1.16-0.27,2.34-0.44,3.52-0.5l4.91-0.26
						l-9.05-29.78c-0.23-0.75-0.97-1.28-1.9-1.36C4415.87,633.54,4415.86,633.53,4415.84,633.53"/>
				</defs>
				<clipPath id="SVGID_54_">
					<use xlink:href="#SVGID_53_"  style="overflow:visible;"/>
				</clipPath>
			</g>
			<g class="st14">
				<defs>
					
						<rect id="SVGID_55_" x="4325.55" y="605.61" transform="matrix(0.9659 -0.2588 0.2588 0.9659 -41.1808 1181.6479)" width="283.24" height="283.24"/>
				</defs>
				<clipPath id="SVGID_56_">
					<use xlink:href="#SVGID_55_"  style="overflow:visible;"/>
				</clipPath>
			</g>
			<g class="st14">
				<defs>
					<path id="SVGID_57_" d="M4399.46,681.07l1.48,4.88c0.82-0.48,1.33-1.27,1.33-2.07l0-0.54l-0.07-0.27
						c-0.25-0.91-1.08-1.59-2.17-1.8L4399.46,681.07L4399.46,681.07z"/>
				</defs>
				<clipPath id="SVGID_58_">
					<use xlink:href="#SVGID_57_"  style="overflow:visible;"/>
				</clipPath>
			</g>
			<g class="st14">
				<defs>
					
						<rect id="SVGID_59_" x="4325.55" y="605.61" transform="matrix(0.9659 -0.2588 0.2588 0.9659 -41.1808 1181.6479)" width="283.24" height="283.24"/>
				</defs>
				<clipPath id="SVGID_60_">
					<use xlink:href="#SVGID_59_"  style="overflow:visible;"/>
				</clipPath>
			</g>
			<g class="st14">
				<defs>
					
						<rect id="SVGID_61_" x="-192.3" y="1187.23" transform="matrix(0.0872 -0.9962 0.9962 0.0872 -1340.3586 2156.5271)" width="1397.67" height="1244.81"/>
				</defs>
				<clipPath id="SVGID_62_">
					<use xlink:href="#SVGID_61_"  style="overflow:visible;"/>
				</clipPath>
			</g>
			<g class="st14">
				<defs>
					
						<rect id="SVGID_63_" x="1407.15" y="-1682.54" transform="matrix(0.0872 -0.9962 0.9962 0.0872 1379.0911 4000.001)" width="2930.03" height="5860.07"/>
				</defs>
				<clipPath id="SVGID_64_">
					<use xlink:href="#SVGID_63_"  style="overflow:visible;"/>
				</clipPath>
			</g>
		</g>
	</g>
</g>
<g id="Mics">
	<g id="_x31__1_">
		<g>
			<defs>
				
					<rect id="SVGID_65_" x="1434.08" y="1392.46" transform="matrix(0.9659 -0.2588 0.2588 0.9659 -343.6902 460.5267)" width="286.19" height="286.19"/>
			</defs>
			<clipPath id="SVGID_66_">
				<use xlink:href="#SVGID_65_"  style="overflow:visible;"/>
			</clipPath>
			<g class="st22">
				<defs>
					<path id="SVGID_67_" d="M1521.69,1420.43l3.62,0.25c0.96,0.07,1.73,0.6,1.97,1.38l9.15,30.09l-4.96,0.26
						c-1.19,0.06-2.39,0.23-3.56,0.51l-4.57,1.08c-0.44,0.1-0.88,0.22-1.31,0.35l-3.28,0.97c-2.14,0.63-4.21,1.49-6.14,2.55
						l-4.78,2.63l-8.62-30.96c1.21-2.19,3.13-4.09,5.52-5.48l0.09-0.05c1.5-0.87,3.11-1.58,4.8-2.11c0.47-0.15,0.95-0.29,1.42-0.42
						C1514.54,1420.54,1518.16,1420.18,1521.69,1420.43"/>
				</defs>
				<clipPath id="SVGID_68_">
					<use xlink:href="#SVGID_67_"  style="overflow:visible;"/>
				</clipPath>
				
					<linearGradient id="SVGID_69_" gradientUnits="userSpaceOnUse" x1="1225.1055" y1="1401.0731" x2="1226.6666" y2="1401.0731" gradientTransform="matrix(-21.7999 -16.5755 16.5755 -21.7999 5019.0103 52302.6562)">
					<stop  offset="0" style="stop-color:#FFFFFF"/>
					<stop  offset="1" style="stop-color:#FFFFFF"/>
				</linearGradient>
				<polygon class="st23" points="1550.26,1434.83 1512.39,1406.04 1484.33,1442.94 1522.2,1471.73 				"/>
			</g>
			<g class="st22">
				<defs>
					
						<rect id="SVGID_70_" x="1434.08" y="1392.46" transform="matrix(0.9659 -0.2588 0.2588 0.9659 -343.6902 460.5267)" width="286.19" height="286.19"/>
				</defs>
				<clipPath id="SVGID_71_">
					<use xlink:href="#SVGID_70_"  style="overflow:visible;"/>
				</clipPath>
				<path class="st24" d="M1536.43,1452.15l-9.15-30.09c-0.23-0.77-1-1.31-1.97-1.37l-3.62-0.25c-4.01-0.28-8.14,0.22-12.07,1.47
					c-1.68,0.53-3.29,1.24-4.8,2.11l-0.09,0.05c-2.39,1.39-4.31,3.29-5.52,5.48l8.62,30.96l4.78-2.63c1.93-1.06,3.99-1.92,6.14-2.56
					l3.28-0.97c0.43-0.13,0.87-0.24,1.31-0.35l4.57-1.08c1.17-0.28,2.37-0.45,3.56-0.51L1536.43,1452.15z"/>
				<path class="st24" d="M1536.7,1452.74l31.93,106.45l0,0.01l2.1,9.36l0.29,1.31c0.02,0.09-0.09,0.17-0.19,0.15l0,0
					c-3.7-0.82-7.71-0.76-11.6,0.18l-3.45,0.84l-0.75,0.2l-7.13,2.13c-1.83,0.55-3.59,1.28-5.24,2.19c-0.81,0.45-1.47,1.07-1.89,1.8
					l-0.63,1.09c-0.06,0.1-0.23,0.1-0.26,0l-32.8-115.1c-0.14-0.51-0.08-1.06,0.18-1.57c0.4-0.78,1.07-1.46,1.91-1.96l2.58-1.52
					c2.23-1.32,4.68-2.33,7.24-2.98c0.31-0.09,0.62-0.17,0.93-0.26l4.76-1.44c0.71-0.18,1.41-0.36,2.11-0.54l0.67-0.14
					c1.54-0.32,6.31-0.77,7.86-0.74l1.24,0.41C1536.61,1452.65,1536.66,1452.7,1536.7,1452.74z"/>
				<path class="st24" d="M1545.45,1591.58l-4.85-13.24c0.57-1.08,1.54-2.02,2.75-2.66l2.03-1.08c3.78-1.49,5.02-1.74,6.43-2.14
					l8.86-2.34c4.32-0.73,5.84-0.88,8.57-0.23l1.26,0.3l3.05,14.38c0.04,0.18-0.16,0.36-0.38,0.35l-4.52-0.24
					c-1.63-0.09-3.28,0.03-4.92,0.35l-5.67,1.11c-0.99,0.19-1.97,0.45-2.92,0.77l-2.1,0.7c-2.07,0.69-4.01,1.7-5.68,2.98l-1.42,1.08
					C1545.77,1591.79,1545.51,1591.75,1545.45,1591.58z"/>
			</g>
			<g class="st22">
				<defs>
					<path id="SVGID_72_" d="M1509.34,1468.92c1.11,0.21,1.94,0.9,2.2,1.82l0.08,0.27l0,0.55c0,0.81-0.51,1.6-1.34,2.09l-1.5-4.94
						L1509.34,1468.92z"/>
				</defs>
				<clipPath id="SVGID_73_">
					<use xlink:href="#SVGID_72_"  style="overflow:visible;"/>
				</clipPath>
				
					<linearGradient id="SVGID_74_" gradientUnits="userSpaceOnUse" x1="1200.5214" y1="1368.3523" x2="1202.0825" y2="1368.3523" gradientTransform="matrix(-10.3258 1.1072 -1.1072 -10.3258 15423.0342 14270.9756)">
					<stop  offset="0" style="stop-color:#000000"/>
					<stop  offset="0.1413" style="stop-color:#000000"/>
					<stop  offset="1" style="stop-color:#000000"/>
				</linearGradient>
				<polygon class="st25" points="1511.63,1468.07 1508.73,1468.38 1509.31,1473.78 1512.21,1473.46 				"/>
			</g>
			<g class="st22">
				<defs>
					
						<rect id="SVGID_75_" x="1434.08" y="1392.46" transform="matrix(0.9659 -0.2588 0.2588 0.9659 -343.6902 460.5267)" width="286.19" height="286.19"/>
				</defs>
				<clipPath id="SVGID_76_">
					<use xlink:href="#SVGID_75_"  style="overflow:visible;"/>
				</clipPath>
				<path class="st26" d="M1508.77,1468.71l0.57,0.21c1.11,0.21,1.94,0.9,2.2,1.82l0.08,0.27l0,0.55c0,0.81-0.51,1.6-1.34,2.09
					L1508.77,1468.71z"/>
				<path class="st27" d="M1570.41,1585.35l5.65,21.26l-7.19,0.94c-0.73,0.09-1.45,0.23-2.17,0.41l-3.21,0.81
					c-1.56,0.39-3.08,0.95-4.52,1.65l-4.81,2.35l-3.89-13.14l-2.61-8.82c-0.06-0.22,0.06-0.46,0.31-0.59l2.64-1.37
					c0.59-0.26,1.19-0.49,1.8-0.7l4.89-1.43c0.29-0.1,0.58-0.18,0.88-0.25l6.12-1.48c1.24-0.29,2.51-0.33,3.7-0.1L1570.41,1585.35z"
					/>
				<path class="st28" d="M1578.4,1647.39c0.68-0.2,1.21,0.37,1.62,0.8c2.78,2.95,14.22,13.5,27.9,3.71
					c15.76-11.28,6.88-65.45,0.56-76.99c-5.3-9.67-20.7-30.47-21.72-36.42c-1.02-5.95,1.55-19.18,15.82-16.29
					c14.27,2.88,2.21,6.19,2.21,6.19s-5.62-2.79-8.31,0.16c-2.69,2.95-3.91,7.26-0.71,14.16c3.2,6.9,14.18,18.76,20.02,31.33
					c4.68,10.08,13.35,54.63,2.74,74.68c0,0-11.13,14.98-25.22,12.48c-15.45-2.73-17.96-9.56-19.89-11.95
					c-0.08-0.1-0.02-0.25,0.14-0.29L1578.4,1647.39z"/>
				<path class="st28" d="M1547.39,1600.93l2.83-1.25l-2.01-7.02l-0.73,0.91c-0.58,0.64-0.87,1.42-0.81,2.17l0.39,5.05
					C1547.07,1600.92,1547.24,1600.99,1547.39,1600.93"/>
				<path class="st26" d="M1547.39,1600.93l2.83-1.25l-2.01-7.02l-0.73,0.91c-0.58,0.64-0.87,1.42-0.81,2.17l0.39,5.05
					C1547.07,1600.92,1547.24,1600.99,1547.39,1600.93z"/>
				<path class="st27" d="M1576.13,1606.91l1.7,5.17c0.3,0.85,0.51,1.73,0.62,2.62l1.08,8.6c0.02,0.19-0.14,0.37-0.37,0.41
					l-7.79,1.5c-1.23,0.24-2.43,0.58-3.59,1.04l-7.44,2.91c-0.2,0.08-0.43,0.02-0.51-0.14l-2.72-5.87c-0.47-0.9-0.93-2.07-1.18-3.05
					l-1.66-7.17l5.27-2.64c0.91-0.46,1.87-0.83,2.87-1.09l3.61-0.93c1.41-0.36,2.84-0.58,4.28-0.66L1576.13,1606.91z"/>
				<path class="st29" d="M1594.88,1514.84L1594.88,1514.84c-0.03,2.14-1.76,4.15-4.25,4.92l-30.66,9.59l-10.36-32.05l30.07-8.8
					c2.52-0.74,5.18-0.22,6.79,1.34l0.1,0.22l2.92,8.76L1594.88,1514.84z"/>
				<path class="st27" d="M1594.88,1514.84L1594.88,1514.84c-0.03,2.14-1.76,4.15-4.25,4.92l-30.66,9.59l-10.36-32.05l30.07-8.8
					c2.52-0.74,5.18-0.22,6.79,1.34l0.1,0.22l2.92,8.76L1594.88,1514.84z"/>
				<path class="st27" d="M1580.83,1644.21l-2.17-19.93l-6.24,1.12c-1.85,0.33-3.67,0.86-5.41,1.56l-6.2,2.5l9.2,17.69
					c0.08,0.15,0.3,0.21,0.49,0.13l3.61-1.55c0.74-0.32,1.52-0.54,2.32-0.66l4.16-0.61
					C1580.74,1644.44,1580.85,1644.33,1580.83,1644.21z"/>
				<path class="st29" d="M1524.07,1492.56l2.74,11.09c0.08,0.34,0.49,0.53,0.91,0.42l6.86-1.81c0.55-0.15,1.12-0.26,1.68-0.35
					l12.78-1.95c1.1-0.17,2.09-0.76,2.66-1.59l0.69-1.01c0.64-0.94,0.84-2.01,0.54-2.99l-2.5-8.3c-0.3-0.99-1.28-1.69-2.52-1.8
					c-1.26-0.11-2.55-0.03-3.82,0.24l-6.7,1.41c-0.26,0.05-0.49,0.19-0.64,0.38l-1.44,1.79c-0.1,0.12-0.24,0.22-0.4,0.27
					l-10.16,3.21C1524.27,1491.72,1523.97,1492.15,1524.07,1492.56"/>
				<path class="st27" d="M1524.07,1492.56l2.74,11.09c0.08,0.34,0.49,0.53,0.91,0.42l6.86-1.81c0.55-0.15,1.12-0.26,1.68-0.35
					l12.78-1.95c1.1-0.17,2.09-0.76,2.66-1.59l0.69-1.01c0.64-0.94,0.84-2.01,0.54-2.99l-2.5-8.3c-0.3-0.99-1.28-1.69-2.52-1.8
					c-1.26-0.11-2.55-0.03-3.82,0.24l-6.7,1.41c-0.26,0.05-0.49,0.19-0.64,0.38l-1.44,1.79c-0.1,0.12-0.24,0.22-0.4,0.27
					l-10.16,3.21C1524.27,1491.72,1523.97,1492.15,1524.07,1492.56z"/>
				<path class="st29" d="M1541.66,1546.15c-0.78,0.15-1.53-0.13-1.85-0.69c-2.03-3.56-3.78-9.22-3.78-9.22
					c-0.12-0.52,0.25-1.07,0.86-1.3l6.66-2.53c1.49-0.57,3.04-1,4.6-1.29l9.92-1.83c1.02-0.19,2.06-0.3,3.09-0.33l3.1-0.09
					c1.48-0.04,2.72,0.72,3.07,1.89l2.73,9.13c0.27,0.9-0.4,1.89-1.51,2.22l-4.62,1.4l-9.09,2.49c-0.1,0.02-0.19,0.01-0.28-0.02
					l-3.84-1.5c-0.08-0.03-0.17-0.03-0.26,0L1541.66,1546.15z"/>
				<path class="st27" d="M1541.66,1546.15c-0.78,0.15-1.53-0.13-1.85-0.69c-2.03-3.56-3.78-9.22-3.78-9.22
					c-0.12-0.52,0.25-1.07,0.86-1.3l6.66-2.53c1.49-0.57,3.04-1,4.6-1.29l9.92-1.83c1.02-0.19,2.06-0.3,3.09-0.33l3.1-0.09
					c1.48-0.04,2.72,0.72,3.07,1.89l2.73,9.13c0.27,0.9-0.4,1.89-1.51,2.22l-4.62,1.4l-9.09,2.49c-0.1,0.02-0.19,0.01-0.28-0.02
					l-3.84-1.5c-0.08-0.03-0.17-0.03-0.26,0L1541.66,1546.15z"/>
				<path class="st29" d="M1554.29,1486.6l1.83,6.35c0.06,0.2-0.08,0.42-0.33,0.51l-12.33,4.39c-1.3,0.46-2.69-0.06-3.01-1.14
					l-1.52-5.11c-0.4-1.35,0.76-2.81,2.46-3.1l12.38-2.17C1554.01,1486.3,1554.23,1486.41,1554.29,1486.6"/>
				<path class="st27" d="M1554.29,1486.6l1.83,6.35c0.06,0.2-0.08,0.42-0.33,0.51l-12.33,4.39c-1.3,0.46-2.69-0.06-3.01-1.14
					l-1.52-5.11c-0.4-1.35,0.76-2.81,2.46-3.1l12.38-2.17C1554.01,1486.3,1554.23,1486.41,1554.29,1486.6z"/>
				<path class="st29" d="M1557.49,1541.13l13.89-4.11c0.47-0.14,0.77-0.54,0.69-0.93l-1.04-5.28c-0.03-0.16-0.2-0.26-0.4-0.24
					l-15.17,1.72c-1.68,0.19-2.9,1.58-2.56,2.92l1.12,4.42C1554.34,1540.91,1555.92,1541.59,1557.49,1541.13"/>
				<path class="st27" d="M1557.49,1541.13l13.89-4.11c0.47-0.14,0.77-0.54,0.69-0.93l-1.04-5.28c-0.03-0.16-0.2-0.26-0.4-0.24
					l-15.17,1.72c-1.68,0.19-2.9,1.58-2.56,2.92l1.12,4.42C1554.34,1540.91,1555.92,1541.59,1557.49,1541.13z"/>
				<path class="st29" d="M1523.15,1425.39l1.65,0.01c1.81,0.01,3.49,0.53,4.77,1.49l-1.64-5.15l-2.31-0.1
					c-2.27-0.1-4.58,0.04-6.87,0.4l-1.55,0.24c-1.55,0.24-3.09,0.58-4.61,1.01l-0.66,0.19c-3.79,1.07-7.35,2.76-10.46,4.97
					l-2.7,1.92l1.13,4.18l1.54-1.65c1.39-1.5,3.14-2.75,5.11-3.66c1.31-0.61,4.58-1.78,4.58-1.78l8.27,27.67l6.35-1.69l-8.36-27.63
					l3.01-0.28C1521.32,1425.43,1522.24,1425.39,1523.15,1425.39"/>
				<path class="st27" d="M1523.15,1425.39l1.65,0.01c1.81,0.01,3.49,0.53,4.77,1.49l-1.64-5.15l-2.31-0.1
					c-2.27-0.1-4.58,0.04-6.87,0.4l-1.55,0.24c-1.55,0.24-3.09,0.58-4.61,1.01l-0.66,0.19c-3.79,1.07-7.35,2.76-10.46,4.97
					l-2.7,1.92l1.13,4.18l1.54-1.65c1.39-1.5,3.14-2.75,5.11-3.66c1.31-0.61,4.58-1.78,4.58-1.78l8.27,27.67l6.35-1.69l-8.36-27.63
					l3.01-0.28C1521.32,1425.43,1522.24,1425.39,1523.15,1425.39z"/>
				<path class="st29" d="M1612.45,1487.51L1612.45,1487.51c-3.1-1.42-6.92-1.63-10.53-0.57l-0.86,0.25
					c-3.15,0.92-5.91,2.73-7.78,5.09l-0.85,1.07c-1.1,1.39-1.45,3.05-0.94,4.53l5.24,15.26l23.24-7.29l-5.09-15.75
					C1614.51,1488.98,1613.65,1488.06,1612.45,1487.51"/>
				<path class="st27" d="M1612.45,1487.51L1612.45,1487.51c-3.1-1.42-6.92-1.63-10.53-0.57l-0.86,0.25
					c-3.15,0.92-5.91,2.73-7.78,5.09l-0.85,1.07c-1.1,1.39-1.45,3.05-0.94,4.53l5.24,15.26l23.24-7.29l-5.09-15.75
					C1614.51,1488.98,1613.65,1488.06,1612.45,1487.51z"/>
				<polygon class="st29" points="1622.78,1525.89 1616.07,1507.08 1599.42,1512.3 1606.01,1531.36 				"/>
				<polygon class="st27" points="1622.78,1525.89 1616.07,1507.08 1599.42,1512.3 1606.01,1531.36 				"/>
				<path class="st27" d="M1579.49,1644.62l0.33,2.55c0.01,0.06-0.05,0.11-0.12,0.12l-1.89,0.15c-1.2,0.1-2.38,0.46-3.42,1.05
					l-1.39,0.8c-0.12,0.07-0.27,0.04-0.33-0.05l-1.41-2.28l1.95-0.84c0.62-0.25,2.17-0.97,2.83-0.98L1579.49,1644.62z"/>
				<path class="st29" d="M1553.68,1521.14l-4.24-14c-0.33-1.08,0.24-2.29,1.41-2.99l13.76-8.33c2.98-1.8,6.36-3.02,9.85-3.54
					l14.33-2.15l8.16,23.3l-13.63,6.3c-2.81,1.3-5.88,2.06-8.96,2.23l-17.69,0.95C1555.25,1522.99,1554.02,1522.27,1553.68,1521.14"
					/>
				<path class="st27" d="M1553.68,1521.14l-4.24-14c-0.33-1.08,0.24-2.29,1.41-2.99l13.76-8.33c2.98-1.8,6.36-3.02,9.85-3.54
					l14.33-2.15l8.16,23.3l-13.63,6.3c-2.81,1.3-5.88,2.06-8.96,2.23l-17.69,0.95C1555.25,1522.99,1554.02,1522.27,1553.68,1521.14z
					"/>
				<path class="st28" d="M1544.78,1492.34l12.6,11.52c0.47,0.43,0.22,1.18-0.49,1.43l-0.22,0.08c-0.41,0.15-0.86,0.07-1.14-0.18
					l-12.38-11.6c-0.51-0.47-0.15-1.28,0.64-1.46C1544.17,1492.04,1544.54,1492.13,1544.78,1492.34"/>
				<path class="st26" d="M1544.78,1492.34l12.6,11.52c0.47,0.43,0.22,1.18-0.49,1.43l-0.22,0.08c-0.41,0.15-0.86,0.07-1.14-0.18
					l-12.38-11.6c-0.51-0.47-0.15-1.28,0.64-1.46C1544.17,1492.04,1544.54,1492.13,1544.78,1492.34z"/>
				<path class="st28" d="M1565.4,1516.83l-3.45,17.39c-0.13,0.66-1.02,1.07-1.7,0.8l-0.22-0.08c-0.4-0.16-0.61-0.51-0.53-0.89
					l3.67-17.3c0.15-0.71,1.16-1.11,1.83-0.73C1565.31,1516.19,1565.47,1516.5,1565.4,1516.83"/>
				<path class="st26" d="M1565.4,1516.83l-3.45,17.39c-0.13,0.66-1.02,1.07-1.7,0.8l-0.22-0.08c-0.4-0.16-0.61-0.51-0.53-0.89
					l3.67-17.3c0.15-0.71,1.16-1.11,1.83-0.73C1565.31,1516.19,1565.47,1516.5,1565.4,1516.83z"/>
				<path class="st28" d="M1552,1490.04L1552,1490.04c-0.75,0.18-1.09,0.94-0.61,1.39l11.24,10.74c0.26,0.25,0.69,0.32,1.09,0.18
					l0.15-0.05c0.67-0.24,0.92-0.94,0.48-1.36l-11.39-10.69C1552.73,1490.03,1552.36,1489.95,1552,1490.04"/>
				<path class="st26" d="M1552,1490.04L1552,1490.04c-0.75,0.18-1.09,0.94-0.61,1.39l11.24,10.74c0.26,0.25,0.69,0.32,1.09,0.18
					l0.15-0.05c0.67-0.24,0.92-0.94,0.48-1.36l-11.39-10.69C1552.73,1490.03,1552.36,1489.95,1552,1490.04z"/>
				<path class="st28" d="M1572.03,1515.5L1572.03,1515.5c-0.61-0.45-1.52-0.12-1.66,0.61l-3.43,17.22c-0.08,0.4,0.11,0.79,0.47,1
					l0.14,0.08c0.62,0.34,1.43-0.02,1.56-0.69l3.29-17.3C1572.46,1516.07,1572.32,1515.72,1572.03,1515.5"/>
				<path class="st26" d="M1572.03,1515.5L1572.03,1515.5c-0.61-0.45-1.52-0.12-1.66,0.61l-3.43,17.22c-0.08,0.4,0.11,0.79,0.47,1
					l0.14,0.08c0.62,0.34,1.43-0.02,1.56-0.69l3.29-17.3C1572.46,1516.07,1572.32,1515.72,1572.03,1515.5z"/>
			</g>
		</g>
	</g>
	<g id="_x32__1_">
		<g>
			<defs>
				
					<rect id="SVGID_77_" x="2395.17" y="1132.05" transform="matrix(0.9659 -0.2588 0.2588 0.9659 -243.5438 700.4012)" width="286.19" height="286.19"/>
			</defs>
			<clipPath id="SVGID_78_">
				<use xlink:href="#SVGID_77_"  style="overflow:visible;"/>
			</clipPath>
			<g class="st30">
				<defs>
					<path id="SVGID_79_" d="M2482.78,1160.02l3.62,0.25c0.96,0.07,1.73,0.6,1.97,1.37l9.15,30.09l-4.96,0.26
						c-1.19,0.06-2.39,0.23-3.56,0.51l-4.57,1.08c-0.44,0.1-0.88,0.22-1.31,0.35l-3.28,0.97c-2.14,0.63-4.21,1.49-6.14,2.55
						l-4.78,2.63l-8.62-30.96c1.21-2.19,3.13-4.09,5.52-5.48l0.09-0.05c1.5-0.87,3.11-1.58,4.8-2.11c0.47-0.15,0.95-0.29,1.42-0.42
						C2475.63,1160.14,2479.25,1159.78,2482.78,1160.02"/>
				</defs>
				<clipPath id="SVGID_80_">
					<use xlink:href="#SVGID_79_"  style="overflow:visible;"/>
				</clipPath>
				
					<linearGradient id="SVGID_81_" gradientUnits="userSpaceOnUse" x1="1202.9247" y1="1429.8835" x2="1204.4858" y2="1429.8835" gradientTransform="matrix(-21.7999 -16.5755 16.5755 -21.7999 5019.0103 52302.6562)">
					<stop  offset="0" style="stop-color:#FFFFFF"/>
					<stop  offset="1" style="stop-color:#FFFFFF"/>
				</linearGradient>
				<polygon class="st31" points="2511.35,1174.42 2473.48,1145.63 2445.42,1182.53 2483.28,1211.32 				"/>
			</g>
			<g class="st30">
				<defs>
					
						<rect id="SVGID_82_" x="2395.17" y="1132.05" transform="matrix(0.9659 -0.2588 0.2588 0.9659 -243.5438 700.4012)" width="286.19" height="286.19"/>
				</defs>
				<clipPath id="SVGID_83_">
					<use xlink:href="#SVGID_82_"  style="overflow:visible;"/>
				</clipPath>
				<path class="st32" d="M2497.52,1191.74l-9.15-30.09c-0.23-0.77-1-1.31-1.97-1.37l-3.62-0.25c-4.01-0.28-8.14,0.22-12.07,1.47
					c-1.68,0.53-3.29,1.24-4.8,2.11l-0.09,0.05c-2.39,1.39-4.31,3.29-5.52,5.48l8.62,30.96l4.78-2.63c1.93-1.06,3.99-1.92,6.14-2.56
					l3.28-0.97c0.43-0.13,0.87-0.24,1.31-0.35l4.57-1.08c1.17-0.28,2.37-0.45,3.56-0.51L2497.52,1191.74z"/>
				<path class="st32" d="M2497.79,1192.34l31.93,106.45l0,0.01l2.1,9.36l0.29,1.31c0.02,0.09-0.09,0.17-0.19,0.15l0,0
					c-3.7-0.82-7.71-0.76-11.6,0.18l-3.45,0.84l-0.75,0.2l-7.13,2.13c-1.83,0.55-3.59,1.28-5.24,2.19c-0.81,0.45-1.47,1.07-1.89,1.8
					l-0.63,1.09c-0.06,0.1-0.23,0.1-0.26,0l-32.8-115.1c-0.14-0.51-0.08-1.06,0.18-1.57c0.4-0.78,1.07-1.46,1.91-1.96l2.58-1.52
					c2.23-1.32,4.68-2.33,7.24-2.98c0.31-0.09,0.62-0.17,0.93-0.26l4.76-1.44c0.71-0.18,1.41-0.36,2.11-0.54l0.67-0.14
					c1.54-0.32,6.31-0.77,7.86-0.74l1.24,0.41C2497.7,1192.25,2497.75,1192.3,2497.79,1192.34z"/>
				<path class="st32" d="M2506.54,1331.17l-4.85-13.24c0.57-1.08,1.54-2.02,2.75-2.66l2.03-1.08c3.77-1.49,5.02-1.74,6.43-2.14
					l8.86-2.34c4.32-0.73,5.84-0.88,8.57-0.23l1.26,0.3l3.05,14.38c0.04,0.18-0.16,0.36-0.38,0.35l-4.52-0.24
					c-1.63-0.09-3.28,0.03-4.92,0.35l-5.67,1.11c-0.99,0.19-1.97,0.45-2.92,0.77l-2.1,0.7c-2.07,0.69-4.01,1.7-5.68,2.98l-1.42,1.08
					C2506.86,1331.39,2506.6,1331.34,2506.54,1331.17z"/>
			</g>
			<g class="st30">
				<defs>
					<path id="SVGID_84_" d="M2470.42,1208.51c1.11,0.21,1.94,0.9,2.2,1.82l0.08,0.27l0,0.55c0,0.81-0.51,1.6-1.34,2.09l-1.5-4.94
						L2470.42,1208.51z"/>
				</defs>
				<clipPath id="SVGID_85_">
					<use xlink:href="#SVGID_84_"  style="overflow:visible;"/>
				</clipPath>
				
					<linearGradient id="SVGID_86_" gradientUnits="userSpaceOnUse" x1="1105.8298" y1="1383.418" x2="1107.3911" y2="1383.418" gradientTransform="matrix(-10.3258 1.1072 -1.1072 -10.3258 15423.0342 14270.9756)">
					<stop  offset="0" style="stop-color:#000000"/>
					<stop  offset="0.1413" style="stop-color:#000000"/>
					<stop  offset="1" style="stop-color:#000000"/>
				</linearGradient>
				<polygon class="st33" points="2472.72,1207.66 2469.82,1207.97 2470.4,1213.37 2473.3,1213.06 				"/>
			</g>
			<g class="st30">
				<defs>
					
						<rect id="SVGID_87_" x="2395.17" y="1132.05" transform="matrix(0.9659 -0.2588 0.2588 0.9659 -243.5438 700.4012)" width="286.19" height="286.19"/>
				</defs>
				<clipPath id="SVGID_88_">
					<use xlink:href="#SVGID_87_"  style="overflow:visible;"/>
				</clipPath>
				<path class="st34" d="M2469.85,1208.3l0.57,0.21c1.11,0.21,1.94,0.9,2.2,1.82l0.08,0.27l0,0.55c0,0.81-0.51,1.6-1.34,2.09
					L2469.85,1208.3z"/>
				<path class="st35" d="M2531.5,1324.95l5.65,21.26l-7.19,0.94c-0.73,0.09-1.45,0.23-2.17,0.41l-3.21,0.81
					c-1.56,0.39-3.08,0.95-4.52,1.65l-4.81,2.35l-3.89-13.14l-2.61-8.82c-0.06-0.22,0.06-0.46,0.31-0.59l2.64-1.37
					c0.59-0.26,1.19-0.49,1.8-0.7l4.89-1.43c0.29-0.1,0.58-0.18,0.88-0.25l6.12-1.48c1.24-0.29,2.51-0.33,3.7-0.1L2531.5,1324.95z"
					/>
				<path class="st36" d="M2539.49,1386.99c0.68-0.2,1.22,0.37,1.62,0.8c2.78,2.95,14.22,13.5,27.9,3.71
					c15.76-11.28,6.88-65.45,0.56-76.99c-5.3-9.67-20.7-30.47-21.72-36.42c-1.02-5.95,1.55-19.18,15.82-16.29
					c14.27,2.88,2.21,6.19,2.21,6.19s-5.62-2.79-8.31,0.16c-2.69,2.95-3.91,7.26-0.71,14.16c3.2,6.9,14.18,18.76,20.02,31.33
					c4.68,10.08,13.35,54.63,2.74,74.68c0,0-11.13,14.98-25.22,12.48c-15.45-2.73-17.96-9.56-19.89-11.95
					c-0.08-0.1-0.02-0.25,0.14-0.29L2539.49,1386.99z"/>
				<path class="st36" d="M2508.47,1340.52l2.83-1.25l-2.01-7.02l-0.73,0.91c-0.58,0.64-0.87,1.42-0.81,2.17l0.39,5.05
					C2508.16,1340.52,2508.32,1340.59,2508.47,1340.52"/>
				<path class="st34" d="M2508.47,1340.52l2.83-1.25l-2.01-7.02l-0.73,0.91c-0.58,0.64-0.87,1.42-0.81,2.17l0.39,5.05
					C2508.16,1340.52,2508.32,1340.59,2508.47,1340.52z"/>
				<path class="st35" d="M2537.21,1346.5l1.7,5.17c0.3,0.85,0.51,1.73,0.62,2.62l1.08,8.6c0.02,0.19-0.14,0.37-0.37,0.41l-7.79,1.5
					c-1.23,0.24-2.43,0.58-3.59,1.04l-7.44,2.91c-0.2,0.08-0.43,0.02-0.51-0.14l-2.72-5.87c-0.47-0.9-0.93-2.07-1.18-3.05
					l-1.66-7.17l5.27-2.64c0.91-0.46,1.87-0.83,2.87-1.09l3.61-0.93c1.41-0.36,2.84-0.58,4.28-0.66L2537.21,1346.5z"/>
				<path class="st37" d="M2555.97,1254.43L2555.97,1254.43c-0.03,2.14-1.76,4.15-4.25,4.92l-30.66,9.59l-10.36-32.05l30.07-8.8
					c2.52-0.74,5.18-0.22,6.79,1.34l0.1,0.22l2.92,8.76L2555.97,1254.43z"/>
				<path class="st35" d="M2555.97,1254.43L2555.97,1254.43c-0.03,2.14-1.76,4.15-4.25,4.92l-30.66,9.59l-10.36-32.05l30.07-8.8
					c2.52-0.74,5.18-0.22,6.79,1.34l0.1,0.22l2.92,8.76L2555.97,1254.43z"/>
				<path class="st35" d="M2541.92,1383.8l-2.17-19.93l-6.24,1.12c-1.85,0.33-3.67,0.86-5.41,1.56l-6.2,2.5l9.2,17.69
					c0.08,0.15,0.3,0.21,0.49,0.13l3.61-1.55c0.74-0.32,1.52-0.54,2.32-0.66l4.16-0.61
					C2541.83,1384.03,2541.93,1383.92,2541.92,1383.8z"/>
				<path class="st37" d="M2485.15,1232.15l2.74,11.09c0.08,0.34,0.49,0.53,0.91,0.42l6.86-1.81c0.55-0.15,1.12-0.26,1.68-0.35
					l12.78-1.95c1.1-0.17,2.09-0.76,2.66-1.59l0.69-1.01c0.64-0.94,0.84-2.01,0.54-2.99l-2.5-8.3c-0.3-0.99-1.28-1.69-2.52-1.8
					c-1.26-0.11-2.55-0.03-3.82,0.24l-6.7,1.41c-0.26,0.05-0.49,0.19-0.64,0.38l-1.44,1.79c-0.1,0.12-0.24,0.22-0.4,0.27
					l-10.16,3.21C2485.35,1231.32,2485.05,1231.75,2485.15,1232.15"/>
				<path class="st35" d="M2485.15,1232.15l2.74,11.09c0.08,0.34,0.49,0.53,0.91,0.42l6.86-1.81c0.55-0.15,1.12-0.26,1.68-0.35
					l12.78-1.95c1.1-0.17,2.09-0.76,2.66-1.59l0.69-1.01c0.64-0.94,0.84-2.01,0.54-2.99l-2.5-8.3c-0.3-0.99-1.28-1.69-2.52-1.8
					c-1.26-0.11-2.55-0.03-3.82,0.24l-6.7,1.41c-0.26,0.05-0.49,0.19-0.64,0.38l-1.44,1.79c-0.1,0.12-0.24,0.22-0.4,0.27
					l-10.16,3.21C2485.35,1231.32,2485.05,1231.75,2485.15,1232.15z"/>
				<path class="st37" d="M2502.75,1285.74c-0.78,0.15-1.53-0.13-1.85-0.69c-2.03-3.56-3.78-9.22-3.78-9.22
					c-0.12-0.52,0.25-1.07,0.86-1.3l6.66-2.53c1.49-0.57,3.04-1,4.6-1.29l9.92-1.83c1.02-0.19,2.06-0.3,3.09-0.33l3.1-0.09
					c1.48-0.04,2.72,0.72,3.07,1.89l2.73,9.13c0.27,0.9-0.4,1.89-1.51,2.22l-4.62,1.4l-9.09,2.49c-0.1,0.02-0.19,0.01-0.28-0.02
					l-3.84-1.5c-0.08-0.03-0.17-0.03-0.26,0L2502.75,1285.74z"/>
				<path class="st35" d="M2502.75,1285.74c-0.78,0.15-1.53-0.13-1.85-0.69c-2.03-3.56-3.78-9.22-3.78-9.22
					c-0.12-0.52,0.25-1.07,0.86-1.3l6.66-2.53c1.49-0.57,3.04-1,4.6-1.29l9.92-1.83c1.02-0.19,2.06-0.3,3.09-0.33l3.1-0.09
					c1.48-0.04,2.72,0.72,3.07,1.89l2.73,9.13c0.27,0.9-0.4,1.89-1.51,2.22l-4.62,1.4l-9.09,2.49c-0.1,0.02-0.19,0.01-0.28-0.02
					l-3.84-1.5c-0.08-0.03-0.17-0.03-0.26,0L2502.75,1285.74z"/>
				<path class="st37" d="M2515.38,1226.2l1.83,6.35c0.06,0.2-0.08,0.42-0.33,0.51l-12.33,4.39c-1.3,0.46-2.69-0.06-3.01-1.14
					l-1.52-5.11c-0.4-1.35,0.76-2.81,2.46-3.1l12.38-2.17C2515.1,1225.89,2515.32,1226.01,2515.38,1226.2"/>
				<path class="st35" d="M2515.38,1226.2l1.83,6.35c0.06,0.2-0.08,0.42-0.33,0.51l-12.33,4.39c-1.3,0.46-2.69-0.06-3.01-1.14
					l-1.52-5.11c-0.4-1.35,0.76-2.81,2.46-3.1l12.38-2.17C2515.1,1225.89,2515.32,1226.01,2515.38,1226.2z"/>
				<path class="st37" d="M2518.57,1280.72l13.89-4.11c0.47-0.14,0.77-0.54,0.69-0.93l-1.04-5.28c-0.03-0.16-0.2-0.26-0.4-0.24
					l-15.17,1.72c-1.68,0.19-2.9,1.58-2.56,2.92l1.12,4.42C2515.43,1280.5,2517.01,1281.19,2518.57,1280.72"/>
				<path class="st35" d="M2518.57,1280.72l13.89-4.11c0.47-0.14,0.77-0.54,0.69-0.93l-1.04-5.28c-0.03-0.16-0.2-0.26-0.4-0.24
					l-15.17,1.72c-1.68,0.19-2.9,1.58-2.56,2.92l1.12,4.42C2515.43,1280.5,2517.01,1281.19,2518.57,1280.72z"/>
				<path class="st37" d="M2484.24,1164.99l1.65,0.01c1.81,0.01,3.49,0.53,4.77,1.49l-1.64-5.15l-2.31-0.1
					c-2.27-0.1-4.58,0.04-6.87,0.4l-1.55,0.24c-1.55,0.24-3.09,0.58-4.61,1.01l-0.66,0.19c-3.79,1.07-7.35,2.76-10.46,4.97
					l-2.7,1.92l1.13,4.18l1.54-1.65c1.39-1.5,3.14-2.75,5.11-3.66c1.31-0.61,4.58-1.78,4.58-1.78l8.27,27.67l6.35-1.69l-8.36-27.63
					l3.01-0.28C2482.41,1165.03,2483.33,1164.98,2484.24,1164.99"/>
				<path class="st35" d="M2484.24,1164.99l1.65,0.01c1.81,0.01,3.49,0.53,4.77,1.49l-1.64-5.15l-2.31-0.1
					c-2.27-0.1-4.58,0.04-6.87,0.4l-1.55,0.24c-1.55,0.24-3.09,0.58-4.61,1.01l-0.66,0.19c-3.79,1.07-7.35,2.76-10.46,4.97
					l-2.7,1.92l1.13,4.18l1.54-1.65c1.39-1.5,3.14-2.75,5.11-3.66c1.31-0.61,4.58-1.78,4.58-1.78l8.27,27.67l6.35-1.69l-8.36-27.63
					l3.01-0.28C2482.41,1165.03,2483.33,1164.98,2484.24,1164.99z"/>
				<path class="st37" d="M2573.53,1227.1L2573.53,1227.1c-3.1-1.42-6.92-1.63-10.53-0.57l-0.86,0.25
					c-3.15,0.92-5.91,2.73-7.78,5.09l-0.85,1.07c-1.1,1.39-1.45,3.05-0.94,4.53l5.24,15.26l23.24-7.29l-5.09-15.75
					C2575.6,1228.58,2574.73,1227.65,2573.53,1227.1"/>
				<path class="st35" d="M2573.53,1227.1L2573.53,1227.1c-3.1-1.42-6.92-1.63-10.53-0.57l-0.86,0.25
					c-3.15,0.92-5.91,2.73-7.78,5.09l-0.85,1.07c-1.1,1.39-1.45,3.05-0.94,4.53l5.24,15.26l23.24-7.29l-5.09-15.75
					C2575.6,1228.58,2574.73,1227.65,2573.53,1227.1z"/>
				<polygon class="st37" points="2583.87,1265.49 2577.15,1246.68 2560.51,1251.9 2567.1,1270.95 				"/>
				<polygon class="st35" points="2583.87,1265.49 2577.15,1246.68 2560.51,1251.9 2567.1,1270.95 				"/>
				<path class="st34" d="M2540.58,1384.22l0.33,2.55c0.01,0.06-0.05,0.11-0.12,0.12l-1.89,0.15c-1.2,0.1-2.38,0.46-3.42,1.05
					l-1.39,0.8c-0.12,0.07-0.27,0.04-0.33-0.05l-1.41-2.28l1.95-0.84c0.62-0.25,2.17-0.97,2.83-0.98L2540.58,1384.22z"/>
				<path class="st37" d="M2514.77,1260.74l-4.24-14c-0.33-1.08,0.24-2.29,1.41-2.99l13.76-8.33c2.98-1.8,6.36-3.02,9.85-3.54
					l14.33-2.15l8.16,23.3l-13.63,6.3c-2.81,1.3-5.88,2.06-8.96,2.23l-17.69,0.95C2516.33,1262.58,2515.11,1261.86,2514.77,1260.74"
					/>
				<path class="st35" d="M2514.77,1260.74l-4.24-14c-0.33-1.08,0.24-2.29,1.41-2.99l13.76-8.33c2.98-1.8,6.36-3.02,9.85-3.54
					l14.33-2.15l8.16,23.3l-13.63,6.3c-2.81,1.3-5.88,2.06-8.96,2.23l-17.69,0.95C2516.33,1262.58,2515.11,1261.86,2514.77,1260.74z
					"/>
				<path class="st36" d="M2505.87,1231.94l12.6,11.52c0.47,0.43,0.22,1.18-0.49,1.43l-0.22,0.08c-0.41,0.15-0.86,0.07-1.14-0.18
					l-12.38-11.6c-0.51-0.47-0.15-1.28,0.64-1.46C2505.25,1231.64,2505.63,1231.72,2505.87,1231.94"/>
				<path class="st34" d="M2505.87,1231.94l12.6,11.52c0.47,0.43,0.22,1.18-0.49,1.43l-0.22,0.08c-0.41,0.15-0.86,0.07-1.14-0.18
					l-12.38-11.6c-0.51-0.47-0.15-1.28,0.64-1.46C2505.25,1231.64,2505.63,1231.72,2505.87,1231.94z"/>
				<path class="st36" d="M2526.49,1256.42l-3.45,17.39c-0.13,0.66-1.02,1.07-1.7,0.8l-0.22-0.08c-0.4-0.16-0.61-0.51-0.52-0.89
					l3.67-17.3c0.15-0.71,1.16-1.11,1.83-0.73C2526.4,1255.78,2526.55,1256.09,2526.49,1256.42"/>
				<path class="st34" d="M2526.49,1256.42l-3.45,17.39c-0.13,0.66-1.02,1.07-1.7,0.8l-0.22-0.08c-0.4-0.16-0.61-0.51-0.52-0.89
					l3.67-17.3c0.15-0.71,1.16-1.11,1.83-0.73C2526.4,1255.78,2526.55,1256.09,2526.49,1256.42z"/>
				<path class="st36" d="M2513.09,1229.63L2513.09,1229.63c-0.75,0.18-1.09,0.94-0.61,1.39l11.24,10.74
					c0.26,0.25,0.69,0.32,1.09,0.18l0.15-0.05c0.67-0.24,0.92-0.94,0.48-1.36l-11.39-10.69
					C2513.81,1229.63,2513.45,1229.55,2513.09,1229.63"/>
				<path class="st34" d="M2513.09,1229.63L2513.09,1229.63c-0.75,0.18-1.09,0.94-0.61,1.39l11.24,10.74
					c0.26,0.25,0.69,0.32,1.09,0.18l0.15-0.05c0.67-0.24,0.92-0.94,0.48-1.36l-11.39-10.69
					C2513.81,1229.63,2513.45,1229.55,2513.09,1229.63z"/>
				<path class="st36" d="M2533.12,1255.1L2533.12,1255.1c-0.61-0.45-1.52-0.12-1.66,0.61l-3.43,17.22c-0.08,0.4,0.11,0.79,0.47,1
					l0.14,0.08c0.62,0.34,1.43-0.02,1.56-0.69l3.29-17.3C2533.55,1255.66,2533.41,1255.31,2533.12,1255.1"/>
				<path class="st34" d="M2533.12,1255.1L2533.12,1255.1c-0.61-0.45-1.52-0.12-1.66,0.61l-3.43,17.22c-0.08,0.4,0.11,0.79,0.47,1
					l0.14,0.08c0.62,0.34,1.43-0.02,1.56-0.69l3.29-17.3C2533.55,1255.66,2533.41,1255.31,2533.12,1255.1z"/>
			</g>
		</g>
	</g>
	<g id="_x33__1_">
		<g>
			<defs>
				
					<rect id="SVGID_89_" x="3363.54" y="878.4" transform="matrix(0.9659 -0.2588 0.2588 0.9659 -144.898 942.3907)" width="286.19" height="286.19"/>
			</defs>
			<clipPath id="SVGID_90_">
				<use xlink:href="#SVGID_89_"  style="overflow:visible;"/>
			</clipPath>
			<g class="st38">
				<defs>
					<path id="SVGID_91_" d="M3451.15,906.37l3.62,0.25c0.96,0.07,1.73,0.6,1.97,1.37l9.15,30.09l-4.96,0.26
						c-1.19,0.06-2.39,0.23-3.56,0.51l-4.57,1.08c-0.44,0.1-0.88,0.22-1.31,0.35l-3.28,0.97c-2.14,0.63-4.21,1.49-6.14,2.55
						l-4.78,2.63l-8.62-30.96c1.21-2.19,3.13-4.09,5.52-5.48l0.09-0.05c1.5-0.87,3.11-1.58,4.8-2.11c0.47-0.15,0.95-0.29,1.42-0.42
						C3444,906.49,3447.62,906.13,3451.15,906.37"/>
				</defs>
				<clipPath id="SVGID_92_">
					<use xlink:href="#SVGID_91_"  style="overflow:visible;"/>
				</clipPath>
				
					<linearGradient id="SVGID_93_" gradientUnits="userSpaceOnUse" x1="1180.3829" y1="1458.6584" x2="1181.9441" y2="1458.6584" gradientTransform="matrix(-21.7999 -16.5755 16.5755 -21.7999 5019.0103 52302.6562)">
					<stop  offset="0" style="stop-color:#FFFFFF"/>
					<stop  offset="1" style="stop-color:#FFFFFF"/>
				</linearGradient>
				<polygon class="st39" points="3479.71,920.77 3441.85,891.98 3413.79,928.88 3451.65,957.67 				"/>
			</g>
			<g class="st38">
				<defs>
					
						<rect id="SVGID_94_" x="3363.54" y="878.4" transform="matrix(0.9659 -0.2588 0.2588 0.9659 -144.898 942.3907)" width="286.19" height="286.19"/>
				</defs>
				<clipPath id="SVGID_95_">
					<use xlink:href="#SVGID_94_"  style="overflow:visible;"/>
				</clipPath>
				<path class="st40" d="M3465.89,938.09l-9.15-30.09c-0.23-0.77-1-1.31-1.97-1.37l-3.62-0.25c-4.01-0.28-8.14,0.22-12.07,1.47
					c-1.68,0.53-3.29,1.24-4.8,2.11l-0.09,0.05c-2.39,1.39-4.31,3.29-5.52,5.48l8.62,30.96l4.78-2.63c1.93-1.06,3.99-1.92,6.14-2.56
					l3.28-0.97c0.43-0.13,0.87-0.24,1.31-0.35l4.57-1.08c1.17-0.28,2.37-0.45,3.56-0.51L3465.89,938.09z"/>
				<path class="st40" d="M3466.16,938.69l31.93,106.45l0,0.01l2.1,9.36l0.29,1.31c0.02,0.09-0.09,0.17-0.19,0.15l0,0
					c-3.7-0.82-7.71-0.76-11.6,0.18l-3.45,0.84l-0.75,0.2l-7.13,2.13c-1.83,0.55-3.59,1.28-5.24,2.19c-0.81,0.45-1.47,1.07-1.89,1.8
					l-0.63,1.09c-0.06,0.1-0.23,0.1-0.26,0l-32.8-115.1c-0.15-0.51-0.08-1.06,0.18-1.57c0.4-0.78,1.07-1.46,1.91-1.96l2.58-1.52
					c2.23-1.32,4.68-2.33,7.24-2.98c0.31-0.09,0.62-0.17,0.93-0.26l4.76-1.44c0.71-0.18,1.41-0.36,2.11-0.54l0.67-0.14
					c1.54-0.32,6.31-0.77,7.86-0.74l1.24,0.41C3466.07,938.6,3466.12,938.65,3466.16,938.69z"/>
				<path class="st40" d="M3474.91,1077.52l-4.85-13.24c0.57-1.08,1.54-2.02,2.75-2.66l2.03-1.08c3.78-1.49,5.02-1.74,6.43-2.14
					l8.86-2.34c4.32-0.73,5.84-0.88,8.57-0.23l1.26,0.3l3.05,14.38c0.04,0.18-0.15,0.36-0.38,0.35l-4.52-0.24
					c-1.63-0.09-3.28,0.03-4.92,0.35l-5.67,1.11c-0.99,0.19-1.97,0.45-2.92,0.77l-2.1,0.7c-2.07,0.69-4.01,1.7-5.68,2.98l-1.42,1.08
					C3475.23,1077.74,3474.97,1077.69,3474.91,1077.52z"/>
			</g>
			<g class="st38">
				<defs>
					<path id="SVGID_96_" d="M3438.79,954.86c1.11,0.21,1.94,0.9,2.2,1.82l0.08,0.27l0,0.55c0,0.81-0.51,1.6-1.34,2.09l-1.5-4.94
						L3438.79,954.86z"/>
				</defs>
				<clipPath id="SVGID_97_">
					<use xlink:href="#SVGID_96_"  style="overflow:visible;"/>
				</clipPath>
				
					<linearGradient id="SVGID_98_" gradientUnits="userSpaceOnUse" x1="1010.5106" y1="1397.7621" x2="1012.0718" y2="1397.7621" gradientTransform="matrix(-10.3258 1.1072 -1.1072 -10.3258 15423.0342 14270.9756)">
					<stop  offset="0" style="stop-color:#000000"/>
					<stop  offset="0.1413" style="stop-color:#000000"/>
					<stop  offset="1" style="stop-color:#000000"/>
				</linearGradient>
				<polygon class="st41" points="3441.09,954.01 3438.19,954.32 3438.77,959.72 3441.67,959.41 				"/>
			</g>
			<g class="st38">
				<defs>
					
						<rect id="SVGID_99_" x="3363.54" y="878.4" transform="matrix(0.9659 -0.2588 0.2588 0.9659 -144.898 942.3907)" width="286.19" height="286.19"/>
				</defs>
				<clipPath id="SVGID_100_">
					<use xlink:href="#SVGID_99_"  style="overflow:visible;"/>
				</clipPath>
				<path class="st42" d="M3438.22,954.65l0.57,0.21c1.11,0.21,1.94,0.9,2.2,1.82l0.08,0.27l0,0.55c0,0.81-0.51,1.6-1.34,2.09
					L3438.22,954.65z"/>
				<path class="st43" d="M3499.87,1071.3l5.65,21.26l-7.19,0.94c-0.73,0.09-1.45,0.23-2.17,0.41l-3.21,0.81
					c-1.56,0.39-3.08,0.95-4.52,1.65l-4.81,2.35l-3.89-13.14l-2.61-8.82c-0.06-0.22,0.06-0.46,0.31-0.59l2.64-1.37
					c0.59-0.26,1.19-0.49,1.8-0.7l4.89-1.43c0.29-0.1,0.58-0.18,0.88-0.25l6.12-1.48c1.24-0.29,2.51-0.33,3.7-0.1L3499.87,1071.3z"
					/>
				<path class="st44" d="M3507.86,1133.34c0.68-0.2,1.22,0.37,1.62,0.8c2.78,2.95,14.22,13.5,27.9,3.71
					c15.76-11.28,6.88-65.45,0.56-76.99c-5.3-9.67-20.7-30.47-21.72-36.42c-1.02-5.95,1.55-19.18,15.82-16.29
					c14.27,2.88,2.21,6.19,2.21,6.19s-5.62-2.79-8.31,0.16c-2.69,2.95-3.91,7.26-0.71,14.16c3.2,6.9,14.19,18.76,20.02,31.33
					c4.68,10.08,13.35,54.63,2.74,74.68c0,0-11.13,14.98-25.22,12.48c-15.45-2.73-17.96-9.56-19.89-11.95
					c-0.08-0.1-0.02-0.25,0.14-0.29L3507.86,1133.34z"/>
				<path class="st44" d="M3476.84,1086.87l2.83-1.25l-2.01-7.02l-0.73,0.91c-0.58,0.64-0.87,1.42-0.81,2.17l0.39,5.05
					C3476.53,1086.87,3476.69,1086.94,3476.84,1086.87"/>
				<path class="st42" d="M3476.84,1086.87l2.83-1.25l-2.01-7.02l-0.73,0.91c-0.58,0.64-0.87,1.42-0.81,2.17l0.39,5.05
					C3476.53,1086.87,3476.69,1086.94,3476.84,1086.87z"/>
				<path class="st43" d="M3505.58,1092.85l1.7,5.17c0.3,0.85,0.51,1.73,0.62,2.62l1.08,8.6c0.02,0.19-0.14,0.37-0.37,0.41
					l-7.79,1.5c-1.23,0.24-2.43,0.58-3.59,1.04l-7.44,2.91c-0.2,0.08-0.43,0.02-0.51-0.14l-2.72-5.87c-0.47-0.9-0.93-2.07-1.18-3.05
					l-1.66-7.17l5.27-2.64c0.91-0.46,1.87-0.83,2.87-1.09l3.61-0.93c1.41-0.36,2.84-0.58,4.28-0.66L3505.58,1092.85z"/>
				<path class="st45" d="M3524.34,1000.78L3524.34,1000.78c-0.03,2.14-1.76,4.15-4.25,4.92l-30.66,9.59l-10.36-32.05l30.07-8.8
					c2.52-0.74,5.18-0.22,6.79,1.34l0.1,0.22l2.92,8.76L3524.34,1000.78z"/>
				<path class="st43" d="M3524.34,1000.78L3524.34,1000.78c-0.03,2.14-1.76,4.15-4.25,4.92l-30.66,9.59l-10.36-32.05l30.07-8.8
					c2.52-0.74,5.18-0.22,6.79,1.34l0.1,0.22l2.92,8.76L3524.34,1000.78z"/>
				<path class="st43" d="M3510.29,1130.15l-2.17-19.93l-6.24,1.12c-1.85,0.33-3.67,0.86-5.41,1.56l-6.2,2.5l9.2,17.69
					c0.08,0.15,0.3,0.21,0.49,0.13l3.61-1.55c0.74-0.32,1.52-0.54,2.32-0.66l4.16-0.61
					C3510.2,1130.38,3510.3,1130.27,3510.29,1130.15z"/>
				<path class="st45" d="M3453.52,978.5l2.74,11.09c0.08,0.34,0.49,0.53,0.91,0.42l6.86-1.81c0.55-0.15,1.12-0.26,1.68-0.35
					l12.78-1.95c1.1-0.17,2.09-0.76,2.66-1.59l0.69-1.01c0.64-0.94,0.84-2.01,0.54-2.99l-2.5-8.3c-0.3-0.99-1.28-1.69-2.52-1.8
					c-1.26-0.11-2.55-0.03-3.82,0.24l-6.7,1.41c-0.26,0.05-0.49,0.19-0.64,0.38l-1.44,1.79c-0.1,0.12-0.24,0.22-0.4,0.27
					l-10.16,3.21C3453.72,977.67,3453.42,978.1,3453.52,978.5"/>
				<path class="st43" d="M3453.52,978.5l2.74,11.09c0.08,0.34,0.49,0.53,0.91,0.42l6.86-1.81c0.55-0.15,1.12-0.26,1.68-0.35
					l12.78-1.95c1.1-0.17,2.09-0.76,2.66-1.59l0.69-1.01c0.64-0.94,0.84-2.01,0.54-2.99l-2.5-8.3c-0.3-0.99-1.28-1.69-2.52-1.8
					c-1.26-0.11-2.55-0.03-3.82,0.24l-6.7,1.41c-0.26,0.05-0.49,0.19-0.64,0.38l-1.44,1.79c-0.1,0.12-0.24,0.22-0.4,0.27
					l-10.16,3.21C3453.72,977.67,3453.42,978.1,3453.52,978.5z"/>
				<path class="st45" d="M3471.12,1032.09c-0.78,0.15-1.53-0.13-1.85-0.69c-2.03-3.56-3.78-9.22-3.78-9.22
					c-0.12-0.52,0.25-1.07,0.86-1.3l6.66-2.53c1.49-0.57,3.04-1,4.6-1.29l9.92-1.83c1.02-0.19,2.06-0.3,3.09-0.33l3.1-0.09
					c1.48-0.04,2.72,0.72,3.07,1.89l2.73,9.13c0.27,0.9-0.4,1.89-1.51,2.22l-4.62,1.4l-9.09,2.49c-0.1,0.02-0.19,0.01-0.28-0.02
					l-3.84-1.5c-0.08-0.03-0.17-0.03-0.26,0L3471.12,1032.09z"/>
				<path class="st43" d="M3471.12,1032.09c-0.78,0.15-1.53-0.13-1.85-0.69c-2.03-3.56-3.78-9.22-3.78-9.22
					c-0.12-0.52,0.25-1.07,0.86-1.3l6.66-2.53c1.49-0.57,3.04-1,4.6-1.29l9.92-1.83c1.02-0.19,2.06-0.3,3.09-0.33l3.1-0.09
					c1.48-0.04,2.72,0.72,3.07,1.89l2.73,9.13c0.27,0.9-0.4,1.89-1.51,2.22l-4.62,1.4l-9.09,2.49c-0.1,0.02-0.19,0.01-0.28-0.02
					l-3.84-1.5c-0.08-0.03-0.17-0.03-0.26,0L3471.12,1032.09z"/>
				<path class="st45" d="M3483.75,972.55l1.83,6.35c0.06,0.2-0.08,0.42-0.33,0.51l-12.33,4.39c-1.3,0.46-2.69-0.06-3.01-1.14
					l-1.52-5.11c-0.4-1.35,0.76-2.81,2.46-3.1l12.38-2.17C3483.47,972.24,3483.69,972.36,3483.75,972.55"/>
				<path class="st43" d="M3483.75,972.55l1.83,6.35c0.06,0.2-0.08,0.42-0.33,0.51l-12.33,4.39c-1.3,0.46-2.69-0.06-3.01-1.14
					l-1.52-5.11c-0.4-1.35,0.76-2.81,2.46-3.1l12.38-2.17C3483.47,972.24,3483.69,972.36,3483.75,972.55z"/>
				<path class="st45" d="M3486.94,1027.07l13.89-4.11c0.47-0.14,0.77-0.54,0.69-0.93l-1.04-5.28c-0.03-0.16-0.2-0.26-0.4-0.24
					l-15.17,1.72c-1.68,0.19-2.9,1.58-2.56,2.92l1.12,4.42C3483.8,1026.85,3485.38,1027.54,3486.94,1027.07"/>
				<path class="st43" d="M3486.94,1027.07l13.89-4.11c0.47-0.14,0.77-0.54,0.69-0.93l-1.04-5.28c-0.03-0.16-0.2-0.26-0.4-0.24
					l-15.17,1.72c-1.68,0.19-2.9,1.58-2.56,2.92l1.12,4.42C3483.8,1026.85,3485.38,1027.54,3486.94,1027.07z"/>
				<path class="st45" d="M3452.61,911.34l1.65,0.01c1.81,0.01,3.49,0.53,4.77,1.49l-1.64-5.15l-2.31-0.1
					c-2.27-0.1-4.58,0.04-6.87,0.4l-1.55,0.24c-1.55,0.24-3.09,0.58-4.61,1.01l-0.66,0.19c-3.79,1.07-7.35,2.76-10.46,4.97
					l-2.7,1.92l1.13,4.18l1.54-1.65c1.39-1.5,3.14-2.75,5.11-3.66c1.31-0.61,4.58-1.78,4.58-1.78l8.27,27.67l6.35-1.69l-8.36-27.63
					l3.01-0.28C3450.78,911.38,3451.69,911.33,3452.61,911.34"/>
				<path class="st43" d="M3452.61,911.34l1.65,0.01c1.81,0.01,3.49,0.53,4.77,1.49l-1.64-5.15l-2.31-0.1
					c-2.27-0.1-4.58,0.04-6.87,0.4l-1.55,0.24c-1.55,0.24-3.09,0.58-4.61,1.01l-0.66,0.19c-3.79,1.07-7.35,2.76-10.46,4.97
					l-2.7,1.92l1.13,4.18l1.54-1.65c1.39-1.5,3.14-2.75,5.11-3.66c1.31-0.61,4.58-1.78,4.58-1.78l8.27,27.67l6.35-1.69l-8.36-27.63
					l3.01-0.28C3450.78,911.38,3451.69,911.33,3452.61,911.34z"/>
				<path class="st45" d="M3541.9,973.45L3541.9,973.45c-3.1-1.42-6.92-1.63-10.53-0.57l-0.86,0.25c-3.15,0.92-5.91,2.73-7.78,5.09
					l-0.85,1.07c-1.1,1.39-1.45,3.05-0.94,4.53l5.24,15.26l23.24-7.29l-5.09-15.75C3543.97,974.93,3543.1,974,3541.9,973.45"/>
				<path class="st43" d="M3541.9,973.45L3541.9,973.45c-3.1-1.42-6.92-1.63-10.53-0.57l-0.86,0.25c-3.15,0.92-5.91,2.73-7.78,5.09
					l-0.85,1.07c-1.1,1.39-1.45,3.05-0.94,4.53l5.24,15.26l23.24-7.29l-5.09-15.75C3543.97,974.93,3543.1,974,3541.9,973.45z"/>
				<polygon class="st45" points="3552.24,1011.84 3545.52,993.03 3528.88,998.25 3535.47,1017.3 				"/>
				<polygon class="st43" points="3552.24,1011.84 3545.52,993.03 3528.88,998.25 3535.47,1017.3 				"/>
				<path class="st42" d="M3508.95,1130.57l0.33,2.55c0.01,0.06-0.05,0.11-0.12,0.12l-1.89,0.15c-1.2,0.1-2.38,0.46-3.42,1.05
					l-1.39,0.8c-0.12,0.07-0.27,0.04-0.33-0.05l-1.41-2.28l1.95-0.84c0.62-0.25,2.17-0.97,2.83-0.98L3508.95,1130.57z"/>
				<path class="st45" d="M3483.14,1007.09l-4.24-14c-0.33-1.08,0.24-2.29,1.41-2.99l13.76-8.33c2.98-1.8,6.36-3.02,9.85-3.54
					l14.33-2.15l8.16,23.3l-13.63,6.3c-2.81,1.3-5.88,2.06-8.96,2.23l-17.69,0.95C3484.7,1008.93,3483.48,1008.21,3483.14,1007.09"
					/>
				<path class="st43" d="M3483.14,1007.09l-4.24-14c-0.33-1.08,0.24-2.29,1.41-2.99l13.76-8.33c2.98-1.8,6.36-3.02,9.85-3.54
					l14.33-2.15l8.16,23.3l-13.63,6.3c-2.81,1.3-5.88,2.06-8.96,2.23l-17.69,0.95C3484.7,1008.93,3483.48,1008.21,3483.14,1007.09z"
					/>
				<path class="st44" d="M3474.24,978.29l12.6,11.52c0.47,0.43,0.22,1.18-0.49,1.43l-0.22,0.08c-0.41,0.15-0.86,0.07-1.14-0.18
					l-12.38-11.6c-0.51-0.47-0.15-1.28,0.64-1.46C3473.62,977.99,3474,978.07,3474.24,978.29"/>
				<path class="st42" d="M3474.24,978.29l12.6,11.52c0.47,0.43,0.22,1.18-0.49,1.43l-0.22,0.08c-0.41,0.15-0.86,0.07-1.14-0.18
					l-12.38-11.6c-0.51-0.47-0.15-1.28,0.64-1.46C3473.62,977.99,3474,978.07,3474.24,978.29z"/>
				<path class="st44" d="M3494.86,1002.77l-3.45,17.39c-0.13,0.66-1.02,1.07-1.7,0.8l-0.22-0.08c-0.4-0.16-0.61-0.51-0.52-0.89
					l3.67-17.3c0.15-0.71,1.16-1.11,1.83-0.73C3494.77,1002.13,3494.92,1002.44,3494.86,1002.77"/>
				<path class="st42" d="M3494.86,1002.77l-3.45,17.39c-0.13,0.66-1.02,1.07-1.7,0.8l-0.22-0.08c-0.4-0.16-0.61-0.51-0.52-0.89
					l3.67-17.3c0.15-0.71,1.16-1.11,1.83-0.73C3494.77,1002.13,3494.92,1002.44,3494.86,1002.77z"/>
				<path class="st44" d="M3481.45,975.98L3481.45,975.98c-0.75,0.18-1.09,0.94-0.61,1.39l11.24,10.74
					c0.26,0.25,0.69,0.32,1.09,0.18l0.15-0.05c0.67-0.24,0.92-0.94,0.48-1.36l-11.39-10.69
					C3482.18,975.98,3481.81,975.9,3481.45,975.98"/>
				<path class="st42" d="M3481.45,975.98L3481.45,975.98c-0.75,0.18-1.09,0.94-0.61,1.39l11.24,10.74
					c0.26,0.25,0.69,0.32,1.09,0.18l0.15-0.05c0.67-0.24,0.92-0.94,0.48-1.36l-11.39-10.69
					C3482.18,975.98,3481.81,975.9,3481.45,975.98z"/>
				<path class="st44" d="M3501.49,1001.45L3501.49,1001.45c-0.61-0.45-1.52-0.12-1.66,0.61l-3.43,17.22c-0.08,0.4,0.11,0.79,0.47,1
					l0.14,0.08c0.62,0.34,1.43-0.02,1.56-0.69l3.29-17.3C3501.92,1002.01,3501.78,1001.66,3501.49,1001.45"/>
				<path class="st42" d="M3501.49,1001.45L3501.49,1001.45c-0.61-0.45-1.52-0.12-1.66,0.61l-3.43,17.22c-0.08,0.4,0.11,0.79,0.47,1
					l0.14,0.08c0.62,0.34,1.43-0.02,1.56-0.69l3.29-17.3C3501.92,1002.01,3501.78,1001.66,3501.49,1001.45z"/>
			</g>
		</g>
	</g>
	<g id="_x34__1_">
		<g>
			<defs>
				
					<rect id="SVGID_101_" x="4321.54" y="614.59" transform="matrix(0.9659 -0.2588 0.2588 0.9659 -43.9735 1181.35)" width="286.19" height="286.19"/>
			</defs>
			<clipPath id="SVGID_102_">
				<use xlink:href="#SVGID_101_"  style="overflow:visible;"/>
			</clipPath>
			<g class="st46">
				<defs>
					<path id="SVGID_103_" d="M4409.15,642.55l3.62,0.25c0.96,0.07,1.73,0.6,1.97,1.37l9.15,30.09l-4.96,0.26
						c-1.19,0.06-2.39,0.23-3.56,0.51l-4.57,1.08c-0.44,0.1-0.88,0.22-1.31,0.35l-3.28,0.97c-2.14,0.63-4.21,1.49-6.14,2.55
						l-4.78,2.63l-8.62-30.96c1.21-2.19,3.13-4.09,5.52-5.48l0.09-0.05c1.5-0.87,3.11-1.58,4.8-2.11c0.47-0.15,0.95-0.29,1.42-0.42
						C4402,642.67,4405.62,642.31,4409.15,642.55"/>
				</defs>
				<clipPath id="SVGID_104_">
					<use xlink:href="#SVGID_103_"  style="overflow:visible;"/>
				</clipPath>
				
					<linearGradient id="SVGID_105_" gradientUnits="userSpaceOnUse" x1="1158.3673" y1="1487.4999" x2="1159.9285" y2="1487.4999" gradientTransform="matrix(-21.7999 -16.5755 16.5755 -21.7999 5019.0103 52302.6562)">
					<stop  offset="0" style="stop-color:#FFFFFF"/>
					<stop  offset="1" style="stop-color:#FFFFFF"/>
				</linearGradient>
				<polygon class="st47" points="4437.71,656.95 4399.85,628.16 4371.79,665.07 4409.65,693.86 				"/>
			</g>
			<g class="st46">
				<defs>
					
						<rect id="SVGID_106_" x="4321.54" y="614.59" transform="matrix(0.9659 -0.2588 0.2588 0.9659 -43.9735 1181.35)" width="286.19" height="286.19"/>
				</defs>
				<clipPath id="SVGID_107_">
					<use xlink:href="#SVGID_106_"  style="overflow:visible;"/>
				</clipPath>
				<path class="st48" d="M4423.89,674.27l-9.15-30.09c-0.23-0.77-1-1.31-1.97-1.37l-3.62-0.25c-4.01-0.28-8.14,0.22-12.07,1.47
					c-1.68,0.53-3.29,1.24-4.8,2.11l-0.09,0.05c-2.39,1.39-4.31,3.29-5.52,5.48l8.62,30.96l4.78-2.63c1.93-1.06,3.99-1.92,6.14-2.56
					l3.28-0.97c0.43-0.13,0.87-0.24,1.31-0.35l4.57-1.08c1.17-0.28,2.37-0.45,3.56-0.51L4423.89,674.27z"/>
				<path class="st48" d="M4424.16,674.87l31.93,106.45l0,0.01l2.1,9.36l0.29,1.31c0.02,0.09-0.09,0.17-0.19,0.15l0,0
					c-3.7-0.82-7.71-0.76-11.6,0.18l-3.45,0.84l-0.75,0.2l-7.13,2.13c-1.83,0.55-3.59,1.28-5.24,2.19c-0.81,0.45-1.47,1.07-1.89,1.8
					l-0.63,1.09c-0.06,0.1-0.23,0.1-0.26,0l-32.8-115.1c-0.14-0.51-0.08-1.06,0.18-1.57c0.4-0.78,1.07-1.46,1.91-1.96l2.58-1.52
					c2.23-1.32,4.68-2.33,7.24-2.98c0.31-0.09,0.62-0.17,0.93-0.26l4.76-1.44c0.71-0.18,1.41-0.36,2.11-0.54l0.67-0.14
					c1.54-0.32,6.31-0.77,7.86-0.74l1.24,0.41C4424.07,674.78,4424.12,674.83,4424.16,674.87z"/>
				<path class="st48" d="M4432.91,813.7l-4.85-13.24c0.57-1.08,1.54-2.02,2.75-2.66l2.03-1.08c3.77-1.49,5.02-1.74,6.43-2.14
					l8.86-2.34c4.32-0.73,5.84-0.88,8.57-0.23l1.26,0.3l3.05,14.38c0.04,0.18-0.16,0.36-0.38,0.35l-4.52-0.24
					c-1.62-0.09-3.28,0.03-4.92,0.35l-5.67,1.11c-0.99,0.19-1.96,0.45-2.92,0.77l-2.1,0.7c-2.07,0.69-4.01,1.7-5.68,2.98l-1.42,1.08
					C4433.23,813.92,4432.97,813.87,4432.91,813.7z"/>
			</g>
			<g class="st46">
				<defs>
					<path id="SVGID_108_" d="M4396.79,691.04c1.11,0.21,1.94,0.9,2.2,1.82l0.08,0.27l0,0.55c0,0.81-0.51,1.6-1.34,2.09l-1.5-4.94
						L4396.79,691.04z"/>
				</defs>
				<clipPath id="SVGID_109_">
					<use xlink:href="#SVGID_108_"  style="overflow:visible;"/>
				</clipPath>
				
					<linearGradient id="SVGID_110_" gradientUnits="userSpaceOnUse" x1="916.0797" y1="1413.1863" x2="917.6409" y2="1413.1863" gradientTransform="matrix(-10.3258 1.1072 -1.1072 -10.3258 15423.0342 14270.9756)">
					<stop  offset="0" style="stop-color:#000000"/>
					<stop  offset="0.1413" style="stop-color:#000000"/>
					<stop  offset="1" style="stop-color:#000000"/>
				</linearGradient>
				<polygon class="st49" points="4399.09,690.19 4396.19,690.5 4396.77,695.9 4399.67,695.59 				"/>
			</g>
			<g class="st46">
				<defs>
					
						<rect id="SVGID_111_" x="4321.54" y="614.59" transform="matrix(0.9659 -0.2588 0.2588 0.9659 -43.9735 1181.35)" width="286.19" height="286.19"/>
				</defs>
				<clipPath id="SVGID_112_">
					<use xlink:href="#SVGID_111_"  style="overflow:visible;"/>
				</clipPath>
				<path class="st50" d="M4396.22,690.83l0.57,0.21c1.11,0.21,1.94,0.9,2.2,1.82l0.08,0.27l0,0.55c0,0.81-0.51,1.6-1.34,2.09
					L4396.22,690.83z"/>
				<path class="st51" d="M4457.87,807.48l5.65,21.26l-7.19,0.94c-0.73,0.1-1.45,0.23-2.17,0.41l-3.21,0.81
					c-1.56,0.39-3.08,0.95-4.52,1.65l-4.81,2.35l-3.89-13.14l-2.61-8.82c-0.06-0.22,0.06-0.46,0.31-0.59l2.64-1.37
					c0.59-0.26,1.19-0.49,1.8-0.7l4.89-1.43c0.29-0.1,0.58-0.18,0.88-0.25l6.12-1.48c1.24-0.29,2.51-0.33,3.7-0.1L4457.87,807.48z"
					/>
				<path class="st52" d="M4465.86,869.52c0.68-0.2,1.21,0.37,1.62,0.8c2.78,2.95,14.22,13.5,27.9,3.71
					c15.76-11.28,6.88-65.45,0.56-76.99c-5.3-9.67-20.7-30.47-21.72-36.42c-1.02-5.95,1.55-19.18,15.82-16.29
					c14.27,2.88,2.21,6.19,2.21,6.19s-5.62-2.79-8.31,0.16s-3.91,7.26-0.71,14.16c3.2,6.9,14.18,18.76,20.02,31.33
					c4.68,10.08,13.35,54.63,2.74,74.68c0,0-11.13,14.98-25.22,12.48c-15.45-2.73-17.96-9.56-19.89-11.95
					c-0.08-0.1-0.02-0.25,0.14-0.29L4465.86,869.52z"/>
				<path class="st52" d="M4434.84,823.05l2.83-1.25l-2.01-7.02l-0.73,0.91c-0.58,0.64-0.87,1.42-0.81,2.17l0.39,5.05
					C4434.53,823.05,4434.69,823.12,4434.84,823.05"/>
				<path class="st50" d="M4434.84,823.05l2.83-1.25l-2.01-7.02l-0.73,0.91c-0.58,0.64-0.87,1.42-0.81,2.17l0.39,5.05
					C4434.53,823.05,4434.69,823.12,4434.84,823.05z"/>
				<path class="st51" d="M4463.58,829.03l1.7,5.17c0.3,0.85,0.51,1.73,0.62,2.62l1.08,8.6c0.02,0.19-0.14,0.37-0.37,0.41l-7.79,1.5
					c-1.23,0.24-2.43,0.58-3.59,1.04l-7.44,2.91c-0.2,0.08-0.43,0.02-0.51-0.14l-2.72-5.87c-0.47-0.9-0.93-2.07-1.18-3.05
					l-1.66-7.17l5.27-2.64c0.91-0.46,1.87-0.83,2.87-1.09l3.61-0.93c1.41-0.36,2.84-0.58,4.28-0.66L4463.58,829.03z"/>
				<path class="st53" d="M4482.34,736.96L4482.34,736.96c-0.03,2.14-1.76,4.15-4.25,4.92l-30.66,9.59l-10.36-32.05l30.07-8.8
					c2.52-0.74,5.18-0.22,6.79,1.34l0.1,0.22l2.92,8.76L4482.34,736.96z"/>
				<path class="st51" d="M4482.34,736.96L4482.34,736.96c-0.03,2.14-1.76,4.15-4.25,4.92l-30.66,9.59l-10.36-32.05l30.07-8.8
					c2.52-0.74,5.18-0.22,6.79,1.34l0.1,0.22l2.92,8.76L4482.34,736.96z"/>
				<path class="st51" d="M4468.29,866.34l-2.17-19.93l-6.24,1.12c-1.85,0.33-3.67,0.86-5.41,1.56l-6.2,2.5l9.2,17.69
					c0.08,0.15,0.3,0.21,0.49,0.13l3.61-1.55c0.74-0.32,1.52-0.54,2.32-0.66l4.16-0.61C4468.2,866.56,4468.3,866.45,4468.29,866.34z
					"/>
				<path class="st53" d="M4411.52,714.68l2.74,11.09c0.08,0.34,0.49,0.53,0.91,0.42l6.86-1.81c0.55-0.15,1.12-0.26,1.68-0.35
					l12.78-1.95c1.1-0.17,2.09-0.76,2.66-1.59l0.69-1.01c0.64-0.94,0.84-2.01,0.54-2.99l-2.5-8.3c-0.3-0.99-1.28-1.69-2.52-1.8
					c-1.26-0.11-2.55-0.03-3.82,0.24l-6.7,1.41c-0.26,0.05-0.49,0.19-0.64,0.38l-1.44,1.79c-0.1,0.12-0.24,0.22-0.4,0.27
					l-10.16,3.21C4411.72,713.85,4411.42,714.28,4411.52,714.68"/>
				<path class="st51" d="M4411.52,714.68l2.74,11.09c0.08,0.34,0.49,0.53,0.91,0.42l6.86-1.81c0.55-0.15,1.12-0.26,1.68-0.35
					l12.78-1.95c1.1-0.17,2.09-0.76,2.66-1.59l0.69-1.01c0.64-0.94,0.84-2.01,0.54-2.99l-2.5-8.3c-0.3-0.99-1.28-1.69-2.52-1.8
					c-1.26-0.11-2.55-0.03-3.82,0.24l-6.7,1.41c-0.26,0.05-0.49,0.19-0.64,0.38l-1.44,1.79c-0.1,0.12-0.24,0.22-0.4,0.27
					l-10.16,3.21C4411.72,713.85,4411.42,714.28,4411.52,714.68z"/>
				<path class="st53" d="M4429.12,768.27c-0.78,0.15-1.53-0.13-1.85-0.69c-2.03-3.56-3.78-9.22-3.78-9.22
					c-0.12-0.52,0.25-1.07,0.86-1.3l6.66-2.53c1.49-0.57,3.04-1,4.6-1.29l9.92-1.83c1.02-0.19,2.06-0.3,3.09-0.33l3.1-0.09
					c1.48-0.04,2.72,0.72,3.07,1.89l2.73,9.13c0.27,0.9-0.4,1.89-1.51,2.22l-4.62,1.4l-9.09,2.49c-0.1,0.02-0.19,0.01-0.28-0.02
					l-3.84-1.5c-0.08-0.03-0.17-0.03-0.26,0L4429.12,768.27z"/>
				<path class="st51" d="M4429.12,768.27c-0.78,0.15-1.53-0.13-1.85-0.69c-2.03-3.56-3.78-9.22-3.78-9.22
					c-0.12-0.52,0.25-1.07,0.86-1.3l6.66-2.53c1.49-0.57,3.04-1,4.6-1.29l9.92-1.83c1.02-0.19,2.06-0.3,3.09-0.33l3.1-0.09
					c1.48-0.04,2.72,0.72,3.07,1.89l2.73,9.13c0.27,0.9-0.4,1.89-1.51,2.22l-4.62,1.4l-9.09,2.49c-0.1,0.02-0.19,0.01-0.28-0.02
					l-3.84-1.5c-0.08-0.03-0.17-0.03-0.26,0L4429.12,768.27z"/>
				<path class="st53" d="M4441.75,708.73l1.83,6.35c0.06,0.2-0.08,0.42-0.33,0.51l-12.33,4.39c-1.3,0.46-2.69-0.06-3.01-1.14
					l-1.52-5.11c-0.4-1.35,0.76-2.81,2.46-3.1l12.38-2.17C4441.47,708.43,4441.69,708.54,4441.75,708.73"/>
				<path class="st51" d="M4441.75,708.73l1.83,6.35c0.06,0.2-0.08,0.42-0.33,0.51l-12.33,4.39c-1.3,0.46-2.69-0.06-3.01-1.14
					l-1.52-5.11c-0.4-1.35,0.76-2.81,2.46-3.1l12.38-2.17C4441.47,708.43,4441.69,708.54,4441.75,708.73z"/>
				<path class="st53" d="M4444.94,763.25l13.89-4.11c0.47-0.14,0.77-0.54,0.69-0.93l-1.04-5.28c-0.03-0.16-0.2-0.26-0.4-0.24
					l-15.17,1.72c-1.68,0.19-2.9,1.58-2.56,2.92l1.12,4.42C4441.8,763.03,4443.38,763.72,4444.94,763.25"/>
				<path class="st51" d="M4444.94,763.25l13.89-4.11c0.47-0.14,0.77-0.54,0.69-0.93l-1.04-5.28c-0.03-0.16-0.2-0.26-0.4-0.24
					l-15.17,1.72c-1.68,0.19-2.9,1.58-2.56,2.92l1.12,4.42C4441.8,763.03,4443.38,763.72,4444.94,763.25z"/>
				<path class="st53" d="M4410.61,647.52l1.65,0.01c1.81,0.01,3.49,0.53,4.77,1.49l-1.64-5.15l-2.31-0.1
					c-2.27-0.1-4.58,0.04-6.87,0.4l-1.55,0.24c-1.55,0.24-3.09,0.58-4.61,1.01l-0.66,0.19c-3.79,1.07-7.35,2.76-10.46,4.97
					l-2.7,1.92l1.13,4.18l1.54-1.65c1.39-1.5,3.14-2.75,5.11-3.66c1.31-0.61,4.58-1.78,4.58-1.78l8.27,27.67l6.35-1.69l-8.36-27.63
					l3.01-0.28C4408.78,647.56,4409.69,647.52,4410.61,647.52"/>
				<path class="st51" d="M4410.61,647.52l1.65,0.01c1.81,0.01,3.49,0.53,4.77,1.49l-1.64-5.15l-2.31-0.1
					c-2.27-0.1-4.58,0.04-6.87,0.4l-1.55,0.24c-1.55,0.24-3.09,0.58-4.61,1.01l-0.66,0.19c-3.79,1.07-7.35,2.76-10.46,4.97
					l-2.7,1.92l1.13,4.18l1.54-1.65c1.39-1.5,3.14-2.75,5.11-3.66c1.31-0.61,4.58-1.78,4.58-1.78l8.27,27.67l6.35-1.69l-8.36-27.63
					l3.01-0.28C4408.78,647.56,4409.69,647.52,4410.61,647.52z"/>
				<path class="st53" d="M4499.9,709.63L4499.9,709.63c-3.1-1.42-6.92-1.63-10.53-0.57l-0.86,0.25c-3.15,0.92-5.91,2.73-7.78,5.09
					l-0.85,1.07c-1.1,1.39-1.45,3.05-0.94,4.53l5.24,15.26l23.24-7.29l-5.09-15.75C4501.97,711.11,4501.1,710.18,4499.9,709.63"/>
				<path class="st51" d="M4499.9,709.63L4499.9,709.63c-3.1-1.42-6.92-1.63-10.53-0.57l-0.86,0.25c-3.15,0.92-5.91,2.73-7.78,5.09
					l-0.85,1.07c-1.1,1.39-1.45,3.05-0.94,4.53l5.24,15.26l23.24-7.29l-5.09-15.75C4501.97,711.11,4501.1,710.18,4499.9,709.63z"/>
				<polygon class="st53" points="4510.24,748.02 4503.52,729.21 4486.88,734.43 4493.47,753.48 				"/>
				<polygon class="st51" points="4510.24,748.02 4503.52,729.21 4486.88,734.43 4493.47,753.48 				"/>
				<path class="st50" d="M4466.95,866.75l0.33,2.55c0.01,0.06-0.05,0.11-0.12,0.12l-1.89,0.15c-1.2,0.1-2.38,0.46-3.42,1.05
					l-1.39,0.8c-0.12,0.07-0.27,0.04-0.33-0.05l-1.41-2.28l1.95-0.84c0.62-0.25,2.17-0.97,2.83-0.98L4466.95,866.75z"/>
				<path class="st53" d="M4441.14,743.27l-4.24-14c-0.33-1.08,0.24-2.29,1.41-2.99l13.76-8.33c2.98-1.8,6.36-3.02,9.85-3.54
					l14.33-2.15l8.16,23.3l-13.63,6.3c-2.81,1.3-5.88,2.06-8.96,2.23l-17.69,0.95C4442.7,745.12,4441.48,744.39,4441.14,743.27"/>
				<path class="st51" d="M4441.14,743.27l-4.24-14c-0.33-1.08,0.24-2.29,1.41-2.99l13.76-8.33c2.98-1.8,6.36-3.02,9.85-3.54
					l14.33-2.15l8.16,23.3l-13.63,6.3c-2.81,1.3-5.88,2.06-8.96,2.23l-17.69,0.95C4442.7,745.12,4441.48,744.39,4441.14,743.27z"/>
				<path class="st52" d="M4432.24,714.47l12.6,11.52c0.47,0.43,0.22,1.18-0.49,1.43l-0.22,0.08c-0.41,0.15-0.86,0.07-1.14-0.18
					l-12.38-11.6c-0.5-0.47-0.15-1.28,0.64-1.46C4431.62,714.17,4432,714.25,4432.24,714.47"/>
				<path class="st50" d="M4432.24,714.47l12.6,11.52c0.47,0.43,0.22,1.18-0.49,1.43l-0.22,0.08c-0.41,0.15-0.86,0.07-1.14-0.18
					l-12.38-11.6c-0.5-0.47-0.15-1.28,0.64-1.46C4431.62,714.17,4432,714.25,4432.24,714.47z"/>
				<path class="st52" d="M4452.86,738.95l-3.45,17.39c-0.13,0.66-1.02,1.07-1.7,0.8l-0.22-0.08c-0.4-0.16-0.61-0.51-0.52-0.89
					l3.67-17.3c0.15-0.71,1.16-1.11,1.83-0.73C4452.77,738.31,4452.92,738.62,4452.86,738.95"/>
				<path class="st50" d="M4452.86,738.95l-3.45,17.39c-0.13,0.66-1.02,1.07-1.7,0.8l-0.22-0.08c-0.4-0.16-0.61-0.51-0.52-0.89
					l3.67-17.3c0.15-0.71,1.16-1.11,1.83-0.73C4452.77,738.31,4452.92,738.62,4452.86,738.95z"/>
				<path class="st52" d="M4439.45,712.16L4439.45,712.16c-0.75,0.18-1.09,0.94-0.61,1.39l11.24,10.74
					c0.26,0.25,0.69,0.32,1.09,0.18l0.15-0.05c0.67-0.24,0.92-0.94,0.48-1.36l-11.39-10.69
					C4440.18,712.16,4439.81,712.08,4439.45,712.16"/>
				<path class="st50" d="M4439.45,712.16L4439.45,712.16c-0.75,0.18-1.09,0.94-0.61,1.39l11.24,10.74
					c0.26,0.25,0.69,0.32,1.09,0.18l0.15-0.05c0.67-0.24,0.92-0.94,0.48-1.36l-11.39-10.69
					C4440.18,712.16,4439.81,712.08,4439.45,712.16z"/>
				<path class="st52" d="M4459.49,737.63L4459.49,737.63c-0.61-0.45-1.52-0.12-1.66,0.61l-3.43,17.22c-0.08,0.4,0.11,0.79,0.47,1
					l0.14,0.08c0.62,0.34,1.43-0.02,1.56-0.69l3.29-17.3C4459.92,738.19,4459.78,737.84,4459.49,737.63"/>
				<path class="st50" d="M4459.49,737.63L4459.49,737.63c-0.61-0.45-1.52-0.12-1.66,0.61l-3.43,17.22c-0.08,0.4,0.11,0.79,0.47,1
					l0.14,0.08c0.62,0.34,1.43-0.02,1.56-0.69l3.29-17.3C4459.92,738.19,4459.78,737.84,4459.49,737.63z"/>
			</g>
		</g>
	</g>
</g>
<g id="Musician">
	<g>
		<g>
			<defs>
				<rect id="SVGID_113_" x="-220.09" y="1184.13" width="1356.96" height="1344"/>
			</defs>
			<clipPath id="SVGID_114_">
				<use xlink:href="#SVGID_113_"  style="overflow:visible;"/>
			</clipPath>
			<g class="st54">
				<defs>
					<rect id="SVGID_115_" x="-220.09" y="1184.13" width="1356.96" height="1344"/>
				</defs>
				<clipPath id="SVGID_116_">
					<use xlink:href="#SVGID_115_"  style="overflow:visible;"/>
				</clipPath>
				<path class="st55" d="M614.02,2416.66l4.65,25.98l79.73-1.77l16.57-20.57l-18.57-23.4l-42.03,13.38
					c-4.45,1.41-9.03,2.42-13.69,3.01L614.02,2416.66z"/>
				<line class="st56" x1="378.82" y1="1427.07" x2="405.79" y2="1472.73"/>
				<g class="st57">
					<path class="st58" d="M749.71,2377.26l-27.04-238.83L527.19,2013.3l57.01,382.24l4.32,21.07c0.16,0.79,0.93,1.34,1.79,1.3
						l33.01-1.72c11.05-0.58,21.96-2.65,32.37-6.14l92.95-31.2C749.35,2378.6,749.79,2377.95,749.71,2377.26z"/>
				</g>
				<path class="st55" d="M634.4,2486.6l227-1.33l-1.17-6.93c-1.69-10.01-7.99-18.83-17.25-24.17l-5.64-3.25
					c-11.65-6.71-24.46-11.5-37.86-14.16l-83.18-16.46l-18.2,20.91l-79.5,0.89v12.46l11.97,11.57L634.4,2486.6z"/>
				<path class="st55" d="M180.69,2037.34l4.58,21.49h337.8c3.93,0,7.78-1.01,11.13-2.9c4.3-2.43,6.79-6.88,6.48-11.54l-0.8-12.12
					L180.69,2037.34z"/>
				<path class="st55" d="M406.92,1634.68l37.92-23.66l31.69,83.6l-28.46,27.86l-27.77-7.46c-2.53-0.68-4.94-1.7-7.15-3.02
					l-14.14-8.44L406.92,1634.68z"/>
				<polygon class="st55" points="446.3,2354.97 428.83,2369.99 512.81,2419.49 550.45,2416.8 551.98,2402.71 				"/>
				<path class="st55" d="M382.78,1422.1l12.22,4.35c6.65,2.37,12.15,6.88,15.5,12.71l12.95,24.04l-12.6,6.22l-28.38-46.98
					C382.35,1422.25,382.55,1422.03,382.78,1422.1z"/>
				<path class="st55" d="M436.47,1891.57l194.32,46.03c1.39,0.35,22.11,4.09,23.29,4.87l61.46,40.99
					c6.26,4.17,11.1,9.95,13.92,16.61l9.75,23.04c8.38,19.81,9.3,41.68,2.58,62.04l-13.85,42.02c-0.8,2.44-1.82,4.8-3.03,7.07
					l-4.31,8.07l-135.75,254.19c-2.03,3.81-6.21,6.21-10.79,6.21h-9.59c-8.76,0-17.4-1.86-25.27-5.44l-89.87-40.92
					c-5.66-2.58-8.23-8.78-5.88-14.22l39.84-92.25c2.76-6.39,6.24-12.49,10.39-18.18l55.96-76.84c2.91-4,4.47-8.71,4.47-13.54
					v-19.67c0-3.82,1.58-7.5,4.43-10.27l0.92-0.9c6.6-6.42,10.59-14.78,11.28-23.63l1.69-21.59c0.59-7.53-3.28-14.77-10.09-18.89
					l-17.79-10.76c-1.97-1.2-4.29-1.83-6.64-1.81l-349.21,3.43c-5.94,0.04-9.01-5.44-9.96-10.88c-0.97-5.58-11.88-39.17-6.04-40.75
					l125.05-14.63c4.06-0.44,13.04-8.45,16.82-10l125.05-23.52c6.05-1.63,0.23-7.33-1.08-13.06
					C438.53,1924.38,436.83,1898.91,436.47,1891.57z"/>
				<path class="st55" d="M534.37,2487.32l92.55-1.22l3.68-2.77c6.3-4.75,7.07-13.42,1.69-19.06l-4.29-4.5
					c-4.2-4.4-9.15-8.11-14.67-10.99l-61.87-32.29l-26.76,1.73c-7.22,0.47-14.42-1.17-20.58-4.69l-76.23-43.45
					c-7.3,0.72-13.19,5.88-14.4,12.61l-6.9,38.44l67.57,46.9l17.09,19.79L534.37,2487.32z"/>
				<path class="st59" d="M229.25,1424.83l-2.8-26.29c-1.1-9.23-3.94-18.21-8.39-26.52l-13.59-25.37
					c-5.7-10.63-8.61-22.36-8.49-34.24l0.08-8.91c0.15-15.82,3.8-31.44,10.71-45.89c2.05-4.28,5.03-8.13,8.76-11.28l0.18-0.15
					c14.13-11.98,32.25-19.1,51.34-20.18l25.7-1.46c15.57-0.88,30.84,4.23,42.22,14.14l33.09,28.81c1.96,1.7,3.73,3.6,5.27,5.64
					l2.66,3.52c4.91,6.5,7.08,14.46,6.08,22.35l-3.3,26.08l13.26,21.48c2.46,3.98,4.01,8.37,4.56,12.93l1.13,9.23
					c0.23,1.91-1.48,3.55-3.55,3.37l-17.35-1.46l1.39,26.77c0.04,0.7-0.44,1.34-1.16,1.55l-8.7,2.57c-0.38,0.11-0.54,0.53-0.32,0.84
					l8.79,12.46l-2.77,10.95c-0.74,2.9-1.96,5.68-3.62,8.23l-1.99,3.05c-2.25,3.45-6.56,5.24-10.83,4.52l-22.03-3.75l7.28,23.9
					l-49.96-19.32c-4.02-1.55-8.31-2.4-12.66-2.51l-15.55-0.38c-5.39-0.35-9.84,0.15-15.93-4.34L229.25,1424.83z"/>
				<path class="st60" d="M256.49,1299.63l-1.9-0.22c-6.19-0.72-11.77,3.51-12.26,9.29c-1.22,14.57,1.84,29.16,8.88,42.23
					c0.56,1.05,1.41,1.94,2.46,2.59l16.64,7.02"/>
				<path class="st55" d="M230.9,1435.05c0,0-2.02-22.94-4.91-39.72c0,0-21.18-29.84-25.14-52.73c-0.44-2.53-1.02-33.95-1.22-45.05
					c-0.05-2.8,0.14-5.59,0.69-8.33c6.85-34.2,37.8-64.04,61.87-64.39l25.35-0.37c16.98,2.16,2.36-0.81,19.49,3.14
					c11.91,4.14,23.19,10.01,33.44,17.43c0.7,0.5,1.38,1.01,2.06,1.5c14.3,10.46,25.64,24.7,32.03,41.38
					c6.93,18.09,5.01,29.47,4.97,32.08l-0.2,13.51c-0.05,3.66,1.22,7.21,3.59,10c0,0,16.9,19.66,14.95,28.27
					c-1.48,6.53-14.89,4.55-14.89,4.55s-6.85,15.98-6.15,17.37l2.49,12.79c0.38,0.74,0.13,1.65-0.56,2.09l-7.1,4.52
					c-1.04,0.66-1.46,1.98-1.02,3.14l1.09,2.8c1.47,3.78,1.75,7.94,0.79,11.88l-0.51,2.1c-1.22,5.04-6.01,8.31-11.06,7.56
					l-9.22-1.38c-3.14-0.47-6.21-1.35-9.13-2.63l-21.09-9.23c-1.12-0.49-2.38,0.26-2.51,1.48l23.57,39.93L230.9,1435.05z"/>
				<path class="st55" d="M172.47,1998.48l-11.16-52.64l6.59-138.7c0.65-13.7-0.02-27.42-1.99-40.99l-8.95-61.42
					c-1-6.9-1.67-13.85-2-20.81l-3.81-81.05c-1.02-21.61,1.99-43.22,8.89-63.89l7.95-23.82c6.75-20.22,17.73-38.99,32.31-55.26
					l28.94-35.07l20.85,11.03c2.62,1.34,5.54,2.12,8.53,2.27l21.66,1.06c4.67,0.23,9.26,1.23,13.55,2.96l45.12,18.21
					c2.18,0.88,4.14,2.17,5.75,3.8l7.22,7.29c7.89,9.78,14.54,20.37,19.81,31.56l10.83,23.01c6.52,13.84,10.8,28.49,12.7,43.49
					l10.53,66.21l7.35,76.27l12.02,98.65l18.83,111.18c2.46,8.16,6.66,28.34-2.08,30.75c0,0-72.93,34.2-143.33,41.61
					C293.92,1994.67,172.47,1998.48,172.47,1998.48z"/>
				<path class="st56" d="M277.3,1328.79l-2.89-5.31c-3.19-5.87-11.15-7.51-16.05-2.96c-0.21,0.19-0.41,0.4-0.61,0.62l-2.8,3.05
					c-4.29,4.68-6.78,10.73-7.04,17.08l-0.07,1.8c-0.41,10.26,4.72,19.95,13.44,25.38l2.83,1.76l12.42-6.02"/>
				<polygon class="st61" points="446.3,2354.97 428.83,2369.99 512.81,2419.49 550.45,2416.8 551.98,2402.71 				"/>
				<path class="st55" d="M397.26,2436.95L397.26,2436.95c0.59,5.66,3.6,10.85,8.37,14.41l20.1,15.03
					c3.94,2.95,8.86,4.55,13.93,4.52l36.34-0.2l-68.62-49.83C400.63,2423.65,396.55,2430.13,397.26,2436.95z"/>
				<path class="st62" d="M229.25,1553.71l39.92,161.17c1.66,9.95,4.43,19.71,8.25,29.14l8.24,20.33c1.59,3.93,4.18,7.45,7.55,10.25
					c21.48,17.87,47.65,30.16,75.87,35.65l122.16,23.71l8.79-26.63c2.8-8.49,4.27-17.31,4.36-26.19l0.43-43.4l-75.38-20.26
					c-9.68-2.6-18.91-6.48-27.41-11.51l-23.65-14.02c-1.66-0.98-2.85-2.52-3.32-4.29l-19.51-137.19"/>
				<path class="st55" d="M229.25,1553.71l39.92,161.17c1.66,9.95,4.43,19.71,8.25,29.14l8.24,20.33c1.59,3.93,4.18,7.45,7.55,10.25
					c21.48,17.87,47.65,30.16,75.87,35.65l122.16,23.71l8.79-26.63c2.8-8.49,4.27-17.31,4.36-26.19l0.43-43.4l-75.38-20.26
					c-9.68-2.6-18.91-6.48-27.41-11.51l-23.65-14.02c-1.66-0.98-2.85-2.52-3.32-4.29l-19.51-137.19"/>
				<path class="st55" d="M449.01,1617.64l11.86-19.83l3.73-37.62l11.93-0.59l2.37,22.59l17.96-3.85c3.01-0.65,6.09,0.76,7.37,3.37
					l22.73,46.07c0.75,1.53,1.07,3.21,0.93,4.88l-1.65,18.71l-22.44,13.44l-13.81-0.95c-1.32-0.09-2.57,0.59-3.13,1.7l-12.11,24.04
					L449.01,1617.64z"/>
				<path class="st62" d="M534.37,2487.32l92.55-1.22l3.68-2.77c6.3-4.75,7.07-13.42,1.69-19.06l-4.29-4.5
					c-4.2-4.4-9.15-8.11-14.67-10.99l-61.87-32.29l-26.76,1.73c-7.22,0.47-14.42-1.17-20.58-4.69l-76.23-43.45
					c-7.3,0.72-13.19,5.88-14.4,12.61l-6.9,38.44l67.57,46.9l17.09,19.79L534.37,2487.32z"/>
				<path class="st62" d="M654.99,2016.04l26.89-7.14c9.84-2.61,18.61-7.92,25.16-15.23l17.94-17.5c0.45-0.44,0.47-1.13,0.06-1.59
					L680.5,1925l-10.05-12.45c-11.03-13.67-20.68-28.26-28.83-43.58l-86.89-163.47l-68.06-129.22l-58.62-110.69
					c-1.13-2.13-3.91-3-6.19-1.95l-16.86,7.78l130,274.86l53.76,106.76l29.57,56.04c5.26,9.96,11.72,21.52,14.6,32.29l11.16,35.21
					l9.06,38.53C653.33,2015.88,654.2,2016.32,654.99,2016.04"/>
				<path class="st55" d="M654.99,2016.04l26.89-7.14c9.84-2.61,18.61-7.92,25.16-15.23l17.94-17.5c0.45-0.44,0.47-1.13,0.06-1.59
					L680.5,1925l-10.05-12.45c-11.03-13.67-20.68-28.26-28.83-43.58l-86.89-163.47l-68.06-129.22l-58.62-110.69
					c-1.13-2.13-3.91-3-6.19-1.95l-16.86,7.78l130,274.86l53.76,106.76l29.57,56.04c5.26,9.96,11.72,21.52,14.6,32.29l11.16,35.21
					l9.06,38.53C653.33,2015.88,654.2,2016.32,654.99,2016.04z"/>
				<path class="st55" d="M504.7,1749.11l79.6-1.86c2.77-0.07,5.39,1.15,7,3.24l12.76,16.54c1.85,2.39,2.95,5.21,3.19,8.14
					l1.23,14.81c0.33,3.96-1.12,7.87-3.99,10.81l-20.6,21.05c-2.78,2.83-6.92,4.15-10.98,3.49l-31.9-5.21l-41.72-10.56l4.37-24.61
					c0.35-1.96,0.54-3.94,0.57-5.93L504.7,1749.11z"/>
				<path class="st55" d="M490.37,2485.84l-8.97-380.54l-304.95-2.78l-76.24,381.24l-44.84,1.39l82.22-429.15L59.33,1615.5
					c-0.2-1.11,0.66-2.14,1.87-2.25l6.3-0.55c9.7-0.84,19.02,3.7,23.78,11.6l1.24,2.06c1.09,1.81,1.86,3.76,2.29,5.79l90.46,426.68
					l331.21,0.3l16.86,427.47L490.37,2485.84z"/>
				<path class="st62" d="M504.7,1749.11l79.6-1.86c2.77-0.07,5.39,1.15,7,3.24l12.76,16.54c1.85,2.39,2.95,5.21,3.19,8.14
					l1.23,14.81c0.33,3.96-1.12,7.87-3.99,10.81l-20.6,21.05c-2.78,2.83-6.92,4.15-10.98,3.49l-31.9-5.21l-41.72-10.56l4.37-24.61
					c0.35-1.96,0.54-3.94,0.57-5.93L504.7,1749.11z"/>
			</g>
		</g>
	</g>
</g>
<g id="Floor">
	<line class="st63" x1="0" y1="2493.54" x2="5000" y2="2482.49"/>
</g>
</svg>
