<?xml version="1.0" encoding="utf-8"?>
<!-- Generator: Adobe Adobe Illustrator 24.2.0, SVG Export Plug-In . SVG Version: 6.00 Build 0)  -->
<svg version="1.1" xmlns="http://www.w3.org/2000/svg" xmlns:xlink="http://www.w3.org/1999/xlink" x="0px" y="0px" width="4500px"
	 height="2500px" viewBox="0 0 4500 2500" style="enable-background:new 0 0 4500 2500;" xml:space="preserve">
<style type="text/css">
	.st0{display:none;}
	.st1{display:inline;fill:none;stroke:#BDBDBD;stroke-width:20;stroke-linecap:round;stroke-linejoin:round;stroke-miterlimit:10;}
	.st2{fill:none;stroke:#000000;stroke-width:3;stroke-linecap:round;stroke-linejoin:round;stroke-miterlimit:10;}
	.st3{display:none;fill:none;stroke:#CFCCCC;stroke-width:5;stroke-linecap:round;stroke-linejoin:round;stroke-miterlimit:10;}
	.st4{fill:none;stroke:#000000;stroke-width:3;stroke-miterlimit:10;}
	.st5{font-family:'ArialMT';}
	.st6{font-size:67.5545px;}
	.st7{stroke:#000000;stroke-width:3;stroke-linecap:round;stroke-miterlimit:10;}
	.st8{fill:none;stroke:#000000;stroke-miterlimit:10;}
	.st9{fill:none;stroke:#000000;stroke-width:3;stroke-linecap:round;stroke-miterlimit:10;}
	.st10{font-size:80px;}
	.st11{clip-path:url(#SVGID_2_);}
	.st12{clip-path:url(#SVGID_4_);fill:#FFFFFF;stroke:#000000;stroke-miterlimit:10;}
	.st13{clip-path:url(#SVGID_4_);fill:#FFFFFF;}
	.st14{clip-path:url(#SVGID_6_);}
	.st15{clip-path:url(#SVGID_8_);fill:#FFFFFF;}
	.st16{clip-path:url(#SVGID_8_);fill:#FFFFFF;stroke:#000000;stroke-miterlimit:10;}
	.st17{clip-path:url(#SVGID_10_);}
	.st18{clip-path:url(#SVGID_12_);fill:#FFFFFF;stroke:#000000;stroke-miterlimit:10;}
	.st19{clip-path:url(#SVGID_12_);fill:#FFFFFF;}
	.st20{clip-path:url(#SVGID_14_);}
	.st21{clip-path:url(#SVGID_16_);fill:#FFFFFF;}
	.st22{clip-path:url(#SVGID_16_);fill:#FFFFFF;stroke:#000000;stroke-miterlimit:10;}
	.st23{clip-path:url(#SVGID_18_);}
	.st24{clip-path:url(#SVGID_20_);fill:url(#SVGID_21_);}
	.st25{clip-path:url(#SVGID_23_);fill:#FFFFFF;stroke:#000000;stroke-miterlimit:10;}
	.st26{clip-path:url(#SVGID_25_);fill:url(#SVGID_26_);}
	.st27{clip-path:url(#SVGID_28_);fill:none;stroke:#000000;stroke-miterlimit:10;}
	.st28{clip-path:url(#SVGID_28_);fill:#FFFFFF;stroke:#000000;stroke-miterlimit:10;}
	.st29{clip-path:url(#SVGID_28_);}
	.st30{clip-path:url(#SVGID_28_);fill:#FFFFFF;}
	.st31{clip-path:url(#SVGID_30_);}
	.st32{clip-path:url(#SVGID_32_);fill:url(#SVGID_33_);}
	.st33{clip-path:url(#SVGID_35_);fill:#FFFFFF;stroke:#000000;stroke-miterlimit:10;}
	.st34{clip-path:url(#SVGID_37_);fill:url(#SVGID_38_);}
	.st35{clip-path:url(#SVGID_40_);fill:none;stroke:#000000;stroke-miterlimit:10;}
	.st36{clip-path:url(#SVGID_40_);fill:#FFFFFF;stroke:#000000;stroke-miterlimit:10;}
	.st37{clip-path:url(#SVGID_40_);}
	.st38{clip-path:url(#SVGID_40_);fill:#FFFFFF;}
	.st39{clip-path:url(#SVGID_42_);}
	.st40{clip-path:url(#SVGID_44_);fill:url(#SVGID_45_);}
	.st41{clip-path:url(#SVGID_47_);fill:#FFFFFF;stroke:#000000;stroke-miterlimit:10;}
	.st42{clip-path:url(#SVGID_49_);fill:url(#SVGID_50_);}
	.st43{clip-path:url(#SVGID_52_);fill:none;stroke:#000000;stroke-miterlimit:10;}
	.st44{clip-path:url(#SVGID_52_);fill:#FFFFFF;stroke:#000000;stroke-miterlimit:10;}
	.st45{clip-path:url(#SVGID_52_);}
	.st46{clip-path:url(#SVGID_52_);fill:#FFFFFF;}
	.st47{clip-path:url(#SVGID_54_);}
	.st48{clip-path:url(#SVGID_56_);fill:url(#SVGID_57_);}
	.st49{clip-path:url(#SVGID_59_);fill:#FFFFFF;stroke:#000000;stroke-miterlimit:10;}
	.st50{clip-path:url(#SVGID_61_);fill:url(#SVGID_62_);}
	.st51{clip-path:url(#SVGID_64_);fill:none;stroke:#000000;stroke-miterlimit:10;}
	.st52{clip-path:url(#SVGID_64_);fill:#FFFFFF;stroke:#000000;stroke-miterlimit:10;}
	.st53{clip-path:url(#SVGID_64_);}
	.st54{clip-path:url(#SVGID_64_);fill:#FFFFFF;}
	.st55{clip-path:url(#SVGID_66_);}
	.st56{clip-path:url(#SVGID_68_);fill:#FFFFFF;}
	.st57{clip-path:url(#SVGID_68_);fill:#FFFFFF;stroke:#000000;stroke-width:2;stroke-miterlimit:10;}
	.st58{clip-path:url(#SVGID_68_);fill:none;stroke:#000000;stroke-width:2;stroke-miterlimit:10;}
	.st59{clip-path:url(#SVGID_68_);stroke:#000000;stroke-width:2;stroke-miterlimit:10;}
	.st60{clip-path:url(#SVGID_68_);}
	.st61{fill:#FFFFFF;stroke:#000000;stroke-width:2;stroke-miterlimit:10;}
	.st62{fill:none;stroke:#000000;stroke-width:2;stroke-miterlimit:10;}
	.st63{display:none;fill:none;stroke:#000000;stroke-width:20;stroke-miterlimit:10;}
	.st64{fill:none;stroke:#000000;stroke-width:20;stroke-miterlimit:10;}
</style>
<g id="Asix_1_" class="st0">
	<path id="Asix" class="st1" d="M1264.67,1541.38l2596.99-948.17L1264.67,1541.38z"/>
</g>
<g id="Kvoty">
	<path id="Asix_2_" class="st2" d="M505.64,1629.96L3700.29,464.27L505.64,1629.96z"/>
	<path id="Asix_4_" class="st3" d="M641.86,1376.2L4435.85-8.18L641.86,1376.2z"/>
	<line class="st2" x1="487.02" y1="1579.98" x2="624.45" y2="1948.7"/>
	<line class="st2" x1="1284.27" y1="1289.92" x2="1396.12" y2="1598.45"/>
	<line class="st2" x1="2079.2" y1="999.86" x2="2190.68" y2="1306.14"/>
	<line class="st2" x1="2885.46" y1="705.67" x2="2989.07" y2="990.32"/>
	<line class="st2" x1="3682.32" y1="414.9" x2="3775.32" y2="670.41"/>
	<line class="st2" x1="624.45" y1="1959.82" x2="1037.26" y2="1959.68"/>
	<line class="st4" x1="975.55" y1="1959.67" x2="975.55" y2="2486.81"/>
	<text transform="matrix(0.9397 -0.342 0.342 0.9397 848.7425 1475.3766)" class="st5 st6">1 m</text>
	<text transform="matrix(0.9397 -0.342 0.342 0.9397 1654.6952 1182.6134)" class="st5 st6">1 m</text>
	<text transform="matrix(0.9397 -0.342 0.342 0.9397 2442.9094 896.1938)" class="st5 st6">1 m</text>
	<text transform="matrix(0.9397 -0.342 0.342 0.9397 3243.9956 603.9995)" class="st5 st6">1 m</text>
	<g>
		<line class="st7" x1="506.54" y1="1629.67" x2="528.32" y2="1607.9"/>
		<line class="st7" x1="506.54" y1="1629.67" x2="537.22" y2="1632.35"/>
	</g>
	<g>
		<line class="st7" x1="975.38" y1="1960.87" x2="988.56" y2="1988.7"/>
		<line class="st7" x1="975.38" y1="1960.87" x2="962.53" y2="1988.86"/>
	</g>
	<g>
		<line class="st7" x1="1809.11" y1="1506.37" x2="1822.3" y2="1534.2"/>
		<line class="st7" x1="1809.11" y1="1506.37" x2="1796.27" y2="1534.36"/>
	</g>
	<g>
		<line class="st7" x1="2603.77" y1="1214.87" x2="2616.96" y2="1242.7"/>
		<line class="st7" x1="2603.77" y1="1214.87" x2="2590.93" y2="1242.86"/>
	</g>
	<g>
		<line class="st7" x1="3410.06" y1="918.87" x2="3423.24" y2="946.7"/>
		<line class="st7" x1="3410.06" y1="918.87" x2="3397.22" y2="946.86"/>
	</g>
	<g>
		<line class="st7" x1="4208.94" y1="629.93" x2="4222.12" y2="657.76"/>
		<line class="st7" x1="4208.94" y1="629.93" x2="4196.09" y2="657.91"/>
	</g>
	<g>
		<line class="st7" x1="975.71" y1="2486.46" x2="962.53" y2="2457.65"/>
		<line class="st7" x1="975.71" y1="2486.46" x2="988.56" y2="2457.48"/>
	</g>
	<g>
		<line class="st7" x1="1809.45" y1="2485.96" x2="1796.27" y2="2457.15"/>
		<line class="st7" x1="1809.45" y1="2485.96" x2="1822.3" y2="2456.98"/>
	</g>
	<g>
		<line class="st7" x1="2605.88" y1="2485.96" x2="2592.7" y2="2457.15"/>
		<line class="st7" x1="2605.88" y1="2485.96" x2="2618.73" y2="2456.98"/>
	</g>
	<g>
		<line class="st7" x1="3410.4" y1="2485.96" x2="3397.22" y2="2457.15"/>
		<line class="st7" x1="3410.4" y1="2485.96" x2="3423.24" y2="2456.98"/>
	</g>
	<g>
		<line class="st7" x1="4209.28" y1="2485.96" x2="4196.09" y2="2457.15"/>
		<line class="st7" x1="4209.28" y1="2485.96" x2="4222.12" y2="2456.98"/>
	</g>
	<g>
		<line class="st7" x1="1302" y1="1339.65" x2="1323.78" y2="1317.87"/>
		<line class="st7" x1="1302" y1="1339.65" x2="1332.68" y2="1342.33"/>
	</g>
	<g>
		<line class="st7" x1="2097.26" y1="1049.03" x2="2119.03" y2="1027.26"/>
		<line class="st7" x1="2097.26" y1="1049.03" x2="2127.94" y2="1051.71"/>
	</g>
	<g>
		<line class="st7" x1="2097.26" y1="1049.14" x2="2075.49" y2="1070.91"/>
		<line class="st7" x1="2097.26" y1="1049.14" x2="2066.58" y2="1046.45"/>
	</g>
	<g>
		<line class="st7" x1="1302" y1="1339.55" x2="1280.23" y2="1361.32"/>
		<line class="st7" x1="1302" y1="1339.55" x2="1271.33" y2="1336.86"/>
	</g>
	<g>
		<line class="st7" x1="2903.24" y1="755.08" x2="2881.47" y2="776.85"/>
		<line class="st7" x1="2903.24" y1="755.08" x2="2872.56" y2="752.4"/>
	</g>
	<g>
		<line class="st7" x1="3699.82" y1="464.29" x2="3678.04" y2="486.07"/>
		<line class="st7" x1="3699.82" y1="464.29" x2="3669.14" y2="461.61"/>
	</g>
	<g>
		<line class="st7" x1="2903.35" y1="755" x2="2925.13" y2="733.23"/>
		<line class="st7" x1="2903.35" y1="755" x2="2934.03" y2="757.69"/>
	</g>
	<line class="st8" x1="975.55" y1="2471.97" x2="975.38" y2="1960.87"/>
	<line class="st9" x1="1362.73" y1="1506.34" x2="1862.73" y2="1506.34"/>
	<line class="st9" x1="2157.21" y1="1214.19" x2="2657.21" y2="1214.19"/>
	<line class="st9" x1="2962.9" y1="918.42" x2="3462.9" y2="918.42"/>
	<line class="st9" x1="3762.8" y1="629.83" x2="4262.8" y2="629.83"/>
	<line class="st2" x1="1809.28" y1="1506.34" x2="1809.28" y2="2500"/>
	<line class="st2" x1="2603.94" y1="1214.19" x2="2605.71" y2="2492.27"/>
	<line class="st2" x1="3409.78" y1="918.42" x2="3410.23" y2="2492.27"/>
	<line class="st2" x1="4209.11" y1="629.79" x2="4209.12" y2="2492.31"/>
	<text transform="matrix(1 0 0 1 1865.5923 1996.2007)" class="st5 st10">≈ 1 m</text>
	<text transform="matrix(1 0 0 1 2657.2129 1874.5663)" class="st5 st10">≈ 1,3 m</text>
	<text transform="matrix(1 0 0 1 3462.8992 1758.5393)" class="st5 st10">≈ 1,65 m</text>
	<text transform="matrix(1 0 0 1 4274.7241 1506.7278)" class="st5 st10">≈ 2 m</text>
	<text transform="matrix(1 0 0 1 1034.2925 2244.5798)" class="st5 st10">≈ 0,6 m</text>
</g>
<g id="Stands">
	<g id="_x31_">
		<g>
			<defs>
				<rect id="SVGID_1_" x="382.87" y="1148.87" width="2055.09" height="2055.09"/>
			</defs>
			<clipPath id="SVGID_2_">
				<use xlink:href="#SVGID_1_"  style="overflow:visible;"/>
			</clipPath>
			<g class="st11">
				<defs>
					<rect id="SVGID_3_" x="416.64" y="1148.87" width="2055.09" height="2055.09"/>
				</defs>
				<clipPath id="SVGID_4_">
					<use xlink:href="#SVGID_3_"  style="overflow:visible;"/>
				</clipPath>
				<path class="st12" d="M1438.88,1877.13l2.32,500.19l10.84,4.78l11.19-2.23l2.89-502.77l-7.66,0.92c-4,0.48-8.06,0.48-12.06,0.01
					L1438.88,1877.13z"/>
				<path class="st12" d="M1434.29,1823.34l-0.14,52.7l11.73,1.46c3.86,0.48,7.78,0.4,11.61-0.24l10.32-1.72l0.49-54.3
					c0-0.28-0.27-0.51-0.58-0.47l-10.29,1.35c-4.36,0.57-8.79,0.57-13.15,0.01l-7.25-0.94
					C1435.58,1820.99,1434.29,1822.01,1434.29,1823.34z"/>
				<path class="st13" d="M1433.99,2140.04l0.42,35.5c0.01,0.42,0.35,0.76,0.78,0.74l9.45,1.72c5.21,0.95,10.54,0.99,15.77,0.13
					l10.4-1.71c0.41-0.01-0.01-1.5,0-1.91l0.55-34.32c0.08-5.26-4.17-9.56-9.43-9.53l-18.81,0.1
					C1438.02,2130.79,1433.92,2134.95,1433.99,2140.04"/>
				<path class="st12" d="M1432.72,2140.04l0.42,35.5c0.01,0.42,0.35,0.76,0.78,0.74l9.45,1.72c5.21,0.95,10.54,0.99,15.77,0.13
					l10.4-1.71c0.41-0.01-0.01-1.5,0-1.91l0.55-34.32c0.08-5.26-4.17-9.56-9.43-9.53l-18.81,0.1
					C1436.75,2130.79,1432.66,2134.95,1432.72,2140.04z"/>
				<polygon class="st12" points="1464.88,2381.29 1637.39,2335.03 1649.78,2346.88 1463.84,2399.18 				"/>
				<polygon class="st12" points="1246.05,2346.81 1260.01,2334.07 1439.63,2374.51 1439.23,2390.22 				"/>
				<path class="st12" d="M1432.72,2157.85l-326.7,295.44l1.23,2.87c1.63,3.81,4.86,6.72,8.82,7.95l1.11,0.35l315.54-288.03V2157.85
					z"/>
				<path class="st12" d="M1470.08,2157.85l304.69,289.54l-0.44,1.25c-1.54,4.48-5.84,7.43-10.58,7.23l-294.22-281.36
					L1470.08,2157.85z"/>
				<path class="st12" d="M1466.22,2414.68l15.66-6.78c0.21-0.09,0.24-0.38,0.05-0.51l-15.84-10.35L1466.22,2414.68z"/>
				<path class="st12" d="M1443.13,1605.31v134.98l5.06,2.39c2.25,1.06,4.64,1.05,6.88-0.04l3.81-1.85l-0.63-135.62
					c0-0.28-0.16-0.47-0.33-0.39l-7.23,0.04l-7.15,0C1443.34,1604.72,1443.13,1604.97,1443.13,1605.31z"/>
				<path class="st12" d="M1441.45,2421.08l0.37,64.16c0.04,0.78,14.97,1.57,18.18,0.8l1.76-0.43l-0.87-64.7l-4.13,0.41
					c-4.67,0.46-9.87,0.41-14.41-0.13L1441.45,2421.08z"/>
				<path class="st12" d="M1439.52,1821.11l-0.2-19.41l8.49,1.08c1.97,0.25,3.96,0.25,5.93,0l8.46-1.08l-0.2,19.43l-8.72,1.14
					c-1.36,0.18-2.74,0.19-4.11,0.02L1439.52,1821.11z"/>
				<path class="st12" d="M1437.6,1737.48l-1.24,63.59l12.05,1.68c1.56,0.16,3.13,0.17,4.69,0.02l13.51-1.7l-1.56-62.98
					c-0.01-0.34-0.3-0.6-0.61-0.54l-13.69,2.2l-12.64-2.71C1437.85,1736.98,1437.61,1737.19,1437.6,1737.48z"/>
				<path class="st13" d="M1436.71,2417.95l7,2.98c4.78,2.03,10.19,2.01,14.95-0.07l8.89-3.87l-1.01-39.51
					c-0.02-0.88-0.96-1.44-1.75-1.05l-6.36,2.33c-3.6,1.32-7.54,1.46-11.23,0.4l-8.7-2.49c-0.61-0.28-1.31,0.16-1.32,0.83
					L1436.71,2417.95z"/>
				<path class="st12" d="M1435.44,2417.95l7,2.98c4.78,2.03,10.19,2.01,14.95-0.07l8.89-3.87l-1.01-39.51
					c-0.02-0.88-0.96-1.44-1.75-1.05l-6.36,2.33c-3.6,1.32-7.54,1.46-11.23,0.4l-8.7-2.49c-0.61-0.28-1.31,0.16-1.32,0.83
					L1435.44,2417.95z"/>
				<path class="st12" d="M1444.38,1604.85v-5.99c0-0.32,0.24-0.57,0.54-0.57l11.25,0.06c0.1,0,0.18,0.09,0.18,0.19v6.22
					L1444.38,1604.85z"/>
				<polygon class="st12" points="1446.69,1584.17 1446.92,1598.29 1454.36,1598.27 1454.15,1583.91 1450.56,1585.55 				"/>
				<path class="st12" d="M1444.38,1571.27l0.4,12.25l4,1.37c1.25,0.43,2.6,0.35,3.8-0.22l3.29-1.57l0.48-11.87h-5.39
					L1444.38,1571.27z"/>
				<polygon class="st12" points="1448.34,1564.02 1448.18,1569.95 1453.29,1569.82 1452.78,1563.93 				"/>
			</g>
		</g>
	</g>
	<g id="_x32_">
		<g>
			<defs>
				<rect id="SVGID_5_" x="1207.33" y="1148.87" width="2055.09" height="2055.09"/>
			</defs>
			<clipPath id="SVGID_6_">
				<use xlink:href="#SVGID_5_"  style="overflow:visible;"/>
			</clipPath>
			<g class="st14">
				<defs>
					<rect id="SVGID_7_" x="1211.59" y="1148.87" width="2055.09" height="2055.09"/>
				</defs>
				<clipPath id="SVGID_8_">
					<use xlink:href="#SVGID_7_"  style="overflow:visible;"/>
				</clipPath>
				<path class="st15" d="M2259.72,2376.42l-6.36,2.33c-3.6,1.32-7.54,1.46-11.23,0.4l-8.7-2.49c-0.61-0.28-1.31,0.16-1.32,0.83
					l-0.46,40.46l7,2.98c4.78,2.03,10.19,2.01,14.95-0.07"/>
				<path class="st16" d="M2230.94,1812.79l2.38,563.92l11.12,5.38l11.48-2.51l2.97-566.83l-7.86,1.04
					c-4.11,0.54-8.27,0.54-12.37,0.01L2230.94,1812.79z"/>
				<path class="st16" d="M2227.53,1752.14l-0.14,59.41l12.03,1.64c3.96,0.54,7.98,0.45,11.91-0.27l10.59-1.94l0.51-61.22
					c0-0.32-0.28-0.57-0.6-0.53l-10.55,1.52c-4.48,0.64-9.01,0.65-13.49,0.01l-7.44-1.06
					C2228.86,1749.5,2227.53,1750.65,2227.53,1752.14z"/>
				<path class="st16" d="M2226.4,2140.04l0.42,35.5c0.01,0.42,0.35,0.76,0.78,0.74l9.45,1.72c5.21,0.95,10.54,0.99,15.77,0.13
					l10.4-1.71c0.41-0.01-0.01-1.5,0-1.91l0.55-34.32c0.08-5.26-4.17-9.56-9.43-9.53l-18.81,0.1
					C2230.43,2130.79,2226.34,2134.95,2226.4,2140.04z"/>
				<polygon class="st16" points="2258.56,2381.29 2431.07,2335.03 2443.46,2346.88 2257.94,2400.02 				"/>
				<polygon class="st16" points="2039.73,2346.81 2053.69,2334.07 2233.31,2374.51 2232.9,2390.22 				"/>
				<path class="st16" d="M2226.4,2157.85l-326.7,295.44l1.23,2.87c1.63,3.81,4.86,6.72,8.82,7.95l1.11,0.35l315.54-288.03V2157.85z
					"/>
				<path class="st16" d="M2263.76,2157.85l304.69,289.54l-0.44,1.25c-1.54,4.48-5.84,7.43-10.58,7.23l-294.22-281.36
					L2263.76,2157.85z"/>
				<path class="st16" d="M2238.41,1309.33v-5.74c0-0.3,0.25-0.55,0.55-0.55l11.55,0.06c0.1,0,0.18,0.08,0.18,0.18v5.96
					L2238.41,1309.33z"/>
				<path class="st16" d="M2259.9,2414.68l15.66-6.78c0.21-0.09,0.24-0.38,0.05-0.51l-15.84-10.35L2259.9,2414.68z"/>
				<path class="st16" d="M2235.13,2411.38l0.37,67.09c0.04,0.81,14.97,1.65,18.18,0.83l1.75-0.45l-0.87-67.66l-4.13,0.43
					c-4.67,0.48-9.87,0.43-14.41-0.14L2235.13,2411.38z"/>
				<path class="st16" d="M2232.89,1749.63l-0.21-21.89l8.71,1.22c2.02,0.28,4.06,0.28,6.08,0l8.68-1.22l-0.21,21.9l-8.94,1.29
					c-1.4,0.2-2.82,0.21-4.22,0.02L2232.89,1749.63z"/>
				<path class="st16" d="M2237.12,1310.89v384.26l4.86,6.8c2.16,3.03,4.45,2.98,6.61-0.11l3.66-5.26l-0.6-386.08
					c0-0.78-0.16-1.34-0.32-1.12l-6.94-0.05l-6.86,0.16C2237.32,1309.21,2237.12,1309.92,2237.12,1310.89z"/>
				<path class="st16" d="M2238.41,1277.13l0.41,11.75l4.11,1.32c1.28,0.41,2.67,0.33,3.9-0.21l3.37-1.51l0.49-11.38h-5.53
					L2238.41,1277.13z"/>
				<path class="st16" d="M2230.93,1666.37l-1.27,60.97l12.36,1.61c1.6,0.15,3.21,0.16,4.81,0.02l13.86-1.63l-1.6-60.38
					c-0.01-0.33-0.3-0.57-0.62-0.52l-14.04,2.11l-12.97-2.6C2231.18,1665.89,2230.93,1666.09,2230.93,1666.37z"/>
				<path class="st16" d="M2229.12,2417.95l7,2.98c4.78,2.03,10.19,2.01,14.95-0.07l8.89-3.87l-1.01-39.51
					c-0.02-0.88-0.96-1.44-1.75-1.05l-6.36,2.33c-3.6,1.32-7.54,1.46-11.23,0.4l-8.7-2.49c-0.61-0.28-1.31,0.16-1.32,0.83
					L2229.12,2417.95z"/>
				<polygon class="st16" points="2240.79,1289.5 2241.02,1303.03 2248.66,1303.02 2248.62,1289.17 2244.75,1290.83 				"/>
				<polygon class="st16" points="2242.48,1270.18 2242.32,1275.87 2247.55,1275.74 2247.03,1270.1 				"/>
			</g>
		</g>
	</g>
	<g id="_x33_">
		<g>
			<defs>
				<rect id="SVGID_9_" x="2013.78" y="679.54" width="2055.09" height="2456.97"/>
			</defs>
			<clipPath id="SVGID_10_">
				<use xlink:href="#SVGID_9_"  style="overflow:visible;"/>
			</clipPath>
			<g class="st17">
				<defs>
					<rect id="SVGID_11_" x="2015.13" y="895.29" width="2055.09" height="2308.67"/>
				</defs>
				<clipPath id="SVGID_12_">
					<use xlink:href="#SVGID_11_"  style="overflow:visible;"/>
				</clipPath>
				<path class="st18" d="M3037.02,1812.79l2.38,563.92l11.12,5.38l11.48-2.51l2.97-566.83l-7.86,1.04
					c-4.11,0.54-8.27,0.54-12.37,0.01L3037.02,1812.79z"/>
				<path class="st18" d="M3033.6,1752.14l-0.14,59.41l12.03,1.64c3.96,0.54,7.98,0.45,11.91-0.27l10.59-1.94l0.51-61.22
					c0-0.32-0.28-0.57-0.6-0.53l-10.55,1.52c-4.48,0.64-9.01,0.65-13.49,0.01l-7.44-1.06
					C3034.93,1749.5,3033.61,1750.65,3033.6,1752.14z"/>
				<path class="st19" d="M3032.47,2140.04l0.42,35.5c0.01,0.42,0.35,0.76,0.78,0.74l9.45,1.72c5.21,0.95,10.54,0.99,15.77,0.13
					l10.4-1.71c0.41-0.01-0.01-1.5,0-1.91l0.55-34.32c0.08-5.26-4.17-9.56-9.43-9.53l-18.81,0.1
					C3036.51,2130.79,3032.41,2134.95,3032.47,2140.04"/>
				<path class="st18" d="M3032.47,2140.04l0.42,35.5c0.01,0.42,0.35,0.76,0.78,0.74l9.45,1.72c5.21,0.95,10.54,0.99,15.77,0.13
					l10.4-1.71c0.41-0.01-0.01-1.5,0-1.91l0.55-34.32c0.08-5.26-4.17-9.56-9.43-9.53l-18.81,0.1
					C3036.51,2130.79,3032.41,2134.95,3032.47,2140.04z"/>
				<polygon class="st18" points="3064.63,2381.29 3237.14,2335.03 3249.54,2346.88 3065.57,2399.18 				"/>
				<polygon class="st18" points="2845.81,2346.81 2859.76,2334.07 3039.38,2374.51 3038.98,2390.22 				"/>
				<path class="st18" d="M3032.47,2157.85l-326.7,295.44l1.23,2.87c1.63,3.81,4.86,6.72,8.82,7.95l1.11,0.35l315.54-288.03V2157.85
					z"/>
				<path class="st18" d="M3069.83,2157.85l304.69,289.54l-0.44,1.25c-1.54,4.48-5.84,7.43-10.58,7.23l-294.22-281.36
					L3069.83,2157.85z"/>
				<path class="st18" d="M3065.97,2414.68l15.66-6.78c0.21-0.09,0.24-0.38,0.05-0.51l-15.84-10.35L3065.97,2414.68z"/>
				<path class="st18" d="M3041.21,2417.29l0.37,65.87c0.04,0.8,14.97,1.62,18.18,0.82l1.76-0.44l-0.87-66.42l-4.14,0.42
					c-4.67,0.47-9.87,0.42-14.41-0.14L3041.21,2417.29z"/>
				<path class="st18" d="M3038.97,1749.63l-0.21-21.89l8.71,1.22c2.02,0.28,4.06,0.28,6.08,0l8.68-1.22l-0.21,21.9l-8.94,1.29
					c-1.4,0.2-2.82,0.21-4.22,0.02L3038.97,1749.63z"/>
				<path class="st18" d="M3043.45,1016.46l-0.03,646.58l4.99,7.08c2.2,5.06,4.55,4.98,6.75-0.19l3.56-6.6l-0.44-647.53
					c0-1.31-0.88-0.1-1.05,0.28l-6.16,0.07l-6.79,0.01C3044.27,1016.15,3043.45,1014.83,3043.45,1016.46z"/>
				<path class="st18" d="M3037.01,1666.37l-1.27,60.97l12.36,1.61c1.6,0.15,3.21,0.16,4.81,0.02l13.86-1.63l-1.6-60.38
					c-0.01-0.33-0.3-0.57-0.62-0.52l-14.04,2.11l-12.97-2.6C3037.26,1665.89,3037.01,1666.09,3037.01,1666.37z"/>
				<path class="st18" d="M3044.34,983.87l0.41,11.75l4.11,1.32c1.28,0.41,2.67,0.33,3.9-0.21l3.37-1.51l0.49-11.38h-5.53
					L3044.34,983.87z"/>
				<path class="st18" d="M3044.34,1016.07v-5.74c0-0.3,0.25-0.55,0.55-0.55l11.55,0.06c0.1,0,0.18,0.08,0.18,0.18v5.96
					L3044.34,1016.07z"/>
				<path class="st19" d="M3035.19,2417.95l7,2.98c4.78,2.03,10.19,2.01,14.95-0.07l8.89-3.87l-1.01-39.51
					c-0.02-0.88-0.96-1.44-1.75-1.05l-6.36,2.33c-3.6,1.32-7.54,1.46-11.23,0.4l-8.7-2.49c-0.61-0.28-1.31,0.16-1.32,0.83
					L3035.19,2417.95z"/>
				<path class="st18" d="M3035.19,2417.95l7,2.98c4.78,2.03,10.19,2.01,14.95-0.07l8.89-3.87l-1.01-39.51
					c-0.02-0.88-0.96-1.44-1.75-1.05l-6.36,2.33c-3.6,1.32-7.54,1.46-11.23,0.4l-8.7-2.49c-0.61-0.28-1.31,0.16-1.32,0.83
					L3035.19,2417.95z"/>
				<polygon class="st18" points="3046.72,996.25 3046.95,1009.78 3054.58,1009.76 3054.62,995.89 3050.68,997.57 				"/>
				<polygon class="st18" points="3048.41,976.93 3048.25,982.61 3053.48,982.49 3052.96,976.84 				"/>
			</g>
		</g>
	</g>
	<g id="_x34_">
		<g>
			<defs>
				<rect id="SVGID_13_" x="2817.94" y="-232.77" width="2055.09" height="3369.28"/>
			</defs>
			<clipPath id="SVGID_14_">
				<use xlink:href="#SVGID_13_"  style="overflow:visible;"/>
			</clipPath>
			<g class="st20">
				<defs>
					<rect id="SVGID_15_" x="2815.49" y="535.14" width="2055.09" height="2668.4"/>
				</defs>
				<clipPath id="SVGID_16_">
					<use xlink:href="#SVGID_15_"  style="overflow:visible;"/>
				</clipPath>
				<path class="st21" d="M3863.62,2376l-6.36,2.33c-3.6,1.32-7.54,1.45-11.23,0.4l-8.7-2.49c-0.61-0.28-1.31,0.16-1.32,0.83
					l-0.46,40.46l7,2.98c4.78,2.03,10.19,2.01,14.95-0.07"/>
				<path class="st21" d="M3860.76,2130.24l-18.81,0.1c-5.09,0.03-9.18,4.19-9.12,9.28"/>
				<path class="st21" d="M3832.83,2139.62l0.42,35.5c0.01,0.42,0.35,0.76,0.78,0.74l9.45,1.72c5.21,0.95,10.54,0.99,15.77,0.13
					l10.4-1.71"/>
				<path class="st22" d="M3835.05,1812.37l2.38,563.92l11.12,5.38l11.48-2.51l2.97-566.83l-7.86,1.04
					c-4.11,0.54-8.27,0.54-12.37,0.01L3835.05,1812.37z"/>
				<path class="st22" d="M3831.63,1751.72l-0.14,59.41l12.03,1.64c3.96,0.54,7.98,0.45,11.91-0.27l10.59-1.94l0.51-61.22
					c0-0.32-0.28-0.57-0.6-0.53l-10.55,1.52c-4.48,0.64-9.01,0.65-13.49,0.01l-7.44-1.06
					C3832.97,1749.07,3831.64,1750.22,3831.63,1751.72z"/>
				<path class="st22" d="M3830.51,2139.62l0.42,35.5c0.01,0.42,0.35,0.76,0.78,0.74l9.45,1.72c5.21,0.95,10.54,0.99,15.77,0.13
					l10.4-1.71c0.41-0.01-0.01-1.5,0-1.91l0.55-34.32c0.08-5.26-4.17-9.56-9.43-9.53l-18.81,0.1
					C3834.54,2130.37,3830.45,2134.53,3830.51,2139.62z"/>
				<polygon class="st22" points="3862.67,2380.87 4035.17,2334.61 4047.57,2346.46 3858.67,2399.6 				"/>
				<polygon class="st22" points="3643.84,2346.39 3657.8,2333.65 3837.42,2374.09 3837.01,2389.8 				"/>
				<path class="st22" d="M3830.5,2157.43l-326.7,295.44l1.23,2.87c1.63,3.81,4.86,6.72,8.82,7.95l1.11,0.35L3830.5,2176V2157.43z"
					/>
				<path class="st22" d="M3867.87,2157.43l304.69,289.54l-0.44,1.25c-1.54,4.48-5.84,7.43-10.58,7.23l-294.22-281.36
					L3867.87,2157.43z"/>
				<path class="st22" d="M3864.01,2414.26l15.66-6.78c0.21-0.09,0.24-0.38,0.05-0.51l-15.84-10.35L3864.01,2414.26z"/>
				<path class="st22" d="M3839.24,2410.57l0.37,67.88c0.04,0.82,14.97,1.67,18.18,0.84l1.76-0.45l-0.87-68.46l-4.14,0.43
					c-4.67,0.48-9.87,0.43-14.41-0.14L3839.24,2410.57z"/>
				<path class="st22" d="M3837,1749.21l-0.21-21.89l8.71,1.22c2.02,0.28,4.07,0.28,6.08,0l8.68-1.22l-0.21,21.9l-8.94,1.29
					c-1.4,0.2-2.82,0.21-4.22,0.02L3837,1749.21z"/>
				<path class="st22" d="M3841.48,744.86v927.99l4.96,16.43c2.2,7.31,4.55,7.2,6.75-0.27l3.74-12.71l-0.62-932.39
					c0-1.89-0.88-0.25-1.05,0.29l-5.73,0.09l-6.54,0.1C3842.78,743.72,3841.48,742.51,3841.48,744.86z"/>
				<path class="st22" d="M3843.15,695.59l0.41,17.65l4.11,1.98c1.28,0.62,2.67,0.5,3.9-0.32l3.37-2.27l0.49-17.1h-5.53
					L3843.15,695.59z"/>
				<path class="st22" d="M3843.15,743.97v-8.63c0-0.46,0.25-0.83,0.55-0.82l11.55,0.09c0.1,0.01,0.18,0.12,0.18,0.27v8.96
					L3843.15,743.97z"/>
				<path class="st22" d="M3835.04,1665.94l-1.27,60.97l12.36,1.61c1.6,0.15,3.21,0.16,4.81,0.02l13.86-1.63l-1.6-60.38
					c-0.01-0.33-0.3-0.57-0.62-0.52l-14.04,2.11l-12.97-2.6C3835.29,1665.47,3835.04,1665.67,3835.04,1665.94z"/>
				<path class="st22" d="M3833.23,2417.53l7,2.98c4.78,2.03,10.19,2.01,14.95-0.07l8.89-3.87l-1.01-39.51
					c-0.02-0.88-0.96-1.44-1.75-1.05l-6.36,2.33c-3.6,1.32-7.54,1.45-11.23,0.4l-8.7-2.49c-0.61-0.28-1.31,0.16-1.32,0.83
					L3833.23,2417.53z"/>
				<polygon class="st22" points="3845.52,714.19 3845.75,734.51 3853.39,734.49 3853.19,713.8 3849.49,716.17 				"/>
				<polygon class="st22" points="3847.21,685.16 3847.05,693.7 3852.29,693.51 3851.76,685.03 				"/>
			</g>
		</g>
	</g>
</g>
<g id="Mics">
	<g id="_x31__1_">
		<g>
			<defs>
				
					<rect id="SVGID_17_" x="1298.94" y="1461.49" transform="matrix(0.9397 -0.342 0.342 0.9397 -455.5651 581.0196)" width="241.67" height="241.67"/>
			</defs>
			<clipPath id="SVGID_18_">
				<use xlink:href="#SVGID_17_"  style="overflow:visible;"/>
			</clipPath>
			<g class="st23">
				<defs>
					<path id="SVGID_19_" d="M1364.63,1489.56l3.07-0.05c0.82-0.01,1.5,0.38,1.76,1.01l9.91,24.64l-4.15,0.58
						c-1,0.14-1.99,0.37-2.96,0.69l-3.76,1.24c-0.36,0.12-0.72,0.25-1.07,0.39l-2.69,1.06c-1.76,0.69-3.43,1.57-4.98,2.6l-3.83,2.57
						l-9.53-25.41c0.85-1.93,2.33-3.67,4.24-5.01l0.07-0.05c1.2-0.84,2.5-1.56,3.88-2.13c0.39-0.16,0.77-0.31,1.17-0.45
						C1358.62,1490.19,1361.64,1489.62,1364.63,1489.56"/>
				</defs>
				<clipPath id="SVGID_20_">
					<use xlink:href="#SVGID_19_"  style="overflow:visible;"/>
				</clipPath>
				
					<linearGradient id="SVGID_21_" gradientUnits="userSpaceOnUse" x1="1232.8323" y1="1398.9797" x2="1234.1506" y2="1398.9797" gradientTransform="matrix(-23.1616 -14.6125 14.6125 -23.1616 9490.3408 51932.9727)">
					<stop  offset="0" style="stop-color:#FFFFFF"/>
					<stop  offset="1" style="stop-color:#FFFFFF"/>
				</linearGradient>
				<polygon class="st24" points="1389.72,1499.57 1355.75,1478.14 1334.86,1511.25 1368.83,1532.68 				"/>
			</g>
			<g class="st23">
				<defs>
					
						<rect id="SVGID_22_" x="1298.94" y="1461.49" transform="matrix(0.9397 -0.342 0.342 0.9397 -455.5651 581.0196)" width="241.67" height="241.67"/>
				</defs>
				<clipPath id="SVGID_23_">
					<use xlink:href="#SVGID_22_"  style="overflow:visible;"/>
				</clipPath>
				<path class="st25" d="M1379.36,1515.16l-9.91-24.64c-0.25-0.63-0.94-1.03-1.76-1.01l-3.07,0.05c-3.39,0.06-6.83,0.79-10.05,2.12
					c-1.38,0.57-2.68,1.29-3.88,2.13l-0.07,0.05c-1.91,1.34-3.39,3.09-4.24,5.01l9.53,25.41l3.83-2.57c1.55-1.04,3.22-1.91,4.98-2.6
					l2.69-1.06c0.35-0.14,0.71-0.27,1.07-0.39l3.76-1.24c0.97-0.32,1.96-0.55,2.96-0.69L1379.36,1515.16z"/>
				<path class="st25" d="M1379.64,1515.64l34.7,87.2l0,0.01l2.45,7.72l0.34,1.08c0.02,0.07-0.06,0.15-0.15,0.14l0,0
					c-3.18-0.42-6.55-0.07-9.75,1.01l-2.84,0.96l-0.61,0.23l-5.84,2.32c-1.5,0.59-2.93,1.34-4.25,2.22
					c-0.65,0.44-1.16,1.01-1.46,1.65l-0.45,0.96c-0.04,0.09-0.19,0.1-0.22,0.02l-36.06-94.41c-0.16-0.42-0.15-0.88,0.04-1.33
					c0.28-0.69,0.79-1.31,1.46-1.79l2.06-1.47c1.78-1.27,3.77-2.3,5.87-3.04c0.26-0.1,0.51-0.19,0.77-0.29l3.9-1.56
					c0.58-0.2,1.16-0.41,1.74-0.61l0.55-0.17c1.27-0.38,5.25-1.12,6.55-1.2l1.08,0.25
					C1379.55,1515.57,1379.6,1515.61,1379.64,1515.64z"/>
				<path class="st25" d="M1397.21,1631.79l-5.06-10.78c0.4-0.95,1.15-1.81,2.12-2.44l1.63-1.05c3.07-1.53,4.1-1.83,5.25-2.27
					l7.28-2.62c3.58-0.93,4.85-1.17,7.19-0.83l1.08,0.16l3.62,11.87c0.05,0.15-0.1,0.31-0.29,0.32l-3.82,0.13
					c-1.37,0.05-2.76,0.27-4.11,0.66l-4.69,1.35c-0.82,0.24-1.62,0.52-2.4,0.86l-1.72,0.74c-1.69,0.73-3.25,1.72-4.56,2.92
					l-1.11,1.01C1397.5,1631.95,1397.28,1631.93,1397.21,1631.79z"/>
			</g>
			<g class="st23">
				<defs>
					<path id="SVGID_24_" d="M1357.8,1531.26c0.95,0.09,1.7,0.61,1.98,1.37l0.08,0.22l0.04,0.46c0.06,0.68-0.31,1.38-0.98,1.86
						l-1.62-4.04L1357.8,1531.26z"/>
				</defs>
				<clipPath id="SVGID_25_">
					<use xlink:href="#SVGID_24_"  style="overflow:visible;"/>
				</clipPath>
				
					<linearGradient id="SVGID_26_" gradientUnits="userSpaceOnUse" x1="1218.7424" y1="1378.5637" x2="1220.0608" y2="1378.5637" gradientTransform="matrix(-10.19 2.0029 -2.0029 -10.19 16540.0762 13139.2393)">
					<stop  offset="0" style="stop-color:#000000"/>
					<stop  offset="0.1413" style="stop-color:#000000"/>
					<stop  offset="1" style="stop-color:#000000"/>
				</linearGradient>
				<polygon class="st26" points="1359.67,1530.38 1357.26,1530.85 1358.14,1535.35 1360.56,1534.88 				"/>
			</g>
			<g class="st23">
				<defs>
					
						<rect id="SVGID_27_" x="1298.94" y="1461.49" transform="matrix(0.9397 -0.342 0.342 0.9397 -455.5651 581.0196)" width="241.67" height="241.67"/>
				</defs>
				<clipPath id="SVGID_28_">
					<use xlink:href="#SVGID_27_"  style="overflow:visible;"/>
				</clipPath>
				<path class="st27" d="M1357.31,1531.13l0.49,0.14c0.95,0.09,1.7,0.61,1.98,1.37l0.08,0.22l0.04,0.46
					c0.06,0.68-0.31,1.38-0.98,1.86L1357.31,1531.13z"/>
				<path class="st28" d="M1417.75,1624.72l6.32,17.46l-5.98,1.32c-0.61,0.13-1.2,0.3-1.79,0.51l-2.64,0.92
					c-1.29,0.45-2.52,1.02-3.68,1.72l-3.87,2.33l-4.24-10.77l-2.84-7.23c-0.07-0.18,0.02-0.39,0.22-0.52l2.12-1.34
					c0.48-0.26,0.96-0.5,1.46-0.72l4.01-1.56c0.24-0.1,0.48-0.2,0.72-0.28l5.04-1.7c1.02-0.34,2.09-0.46,3.1-0.35L1417.75,1624.72z"
					/>
				<path class="st29" d="M1429.04,1676.32c0.56-0.22,1.05,0.22,1.43,0.56c2.56,2.28,12.95,10.31,23.74,1.07
					c12.43-10.65,0.97-55.56-5.2-64.81c-5.17-7.75-19.66-24.11-20.96-29.04c-1.3-4.93-0.11-16.25,12.11-14.87
					c12.22,1.37,2.32,5.05,2.32,5.05s-4.93-1.93-6.98,0.75s-2.76,6.4,0.44,11.97c3.2,5.57,13.31,14.74,19.14,24.88
					c4.68,8.13,15.25,44.98,7.8,62.62c0,0-8.26,13.42-20.29,12.36c-13.2-1.16-15.81-6.72-17.61-8.59c-0.08-0.08-0.03-0.21,0.09-0.26
					L1429.04,1676.32z"/>
				<path class="st29" d="M1399.53,1639.51l2.29-1.26l-2.21-5.76l-0.55,0.82c-0.44,0.58-0.63,1.26-0.52,1.89l0.7,4.22
					C1399.26,1639.53,1399.41,1639.58,1399.53,1639.51"/>
				<path class="st27" d="M1399.53,1639.51l2.29-1.26l-2.21-5.76l-0.55,0.82c-0.44,0.58-0.63,1.26-0.52,1.89l0.7,4.22
					C1399.26,1639.53,1399.41,1639.58,1399.53,1639.51z"/>
				<path class="st28" d="M1424.14,1642.43l1.81,4.23c0.31,0.69,0.55,1.42,0.71,2.16l1.54,7.16c0.03,0.16-0.09,0.32-0.28,0.38
					l-6.44,1.83c-1.01,0.29-2,0.67-2.94,1.14l-6.04,2.99c-0.17,0.08-0.36,0.05-0.44-0.08l-2.72-4.74c-0.46-0.73-0.94-1.68-1.22-2.48
					l-1.93-5.91l4.23-2.61c0.73-0.46,1.52-0.84,2.34-1.13l2.97-1.05c1.16-0.41,2.35-0.7,3.55-0.87L1424.14,1642.43z"/>
				<path class="st30" d="M1433.14,1563.6L1433.14,1563.6c0.13,1.8-1.18,3.62-3.21,4.46l-25.09,10.32l-11.08-26.2l24.64-9.61
					c2.07-0.81,4.34-0.56,5.81,0.62l0.1,0.18l3.1,7.16L1433.14,1563.6z"/>
				<path class="st28" d="M1433.14,1563.6L1433.14,1563.6c0.13,1.8-1.18,3.62-3.21,4.46l-25.09,10.32l-11.08-26.2l24.64-9.61
					c2.07-0.81,4.34-0.56,5.81,0.62l0.1,0.18l3.1,7.16L1433.14,1563.6z"/>
				<path class="st28" d="M1430.85,1673.46l-3.29-16.6l-5.17,1.4c-1.53,0.42-3.02,0.99-4.43,1.71l-5.03,2.56l9.04,14.2
					c0.08,0.12,0.27,0.15,0.42,0.07l2.92-1.57c0.6-0.32,1.24-0.57,1.9-0.72l3.45-0.82
					C1430.79,1673.66,1430.87,1673.56,1430.85,1673.46z"/>
				<path class="st30" d="M1371.93,1550.07l3.12,9.13c0.1,0.28,0.46,0.41,0.8,0.28l5.64-2.02c0.46-0.16,0.92-0.3,1.39-0.42
					l10.6-2.58c0.91-0.22,1.7-0.79,2.12-1.54l0.51-0.9c0.47-0.84,0.56-1.75,0.24-2.55l-2.71-6.8c-0.33-0.81-1.2-1.33-2.25-1.33
					c-1.06,0-2.15,0.16-3.2,0.48l-5.54,1.68c-0.21,0.06-0.4,0.2-0.51,0.37l-1.08,1.61c-0.07,0.11-0.19,0.2-0.32,0.26l-8.31,3.44
					C1372.04,1549.35,1371.82,1549.73,1371.93,1550.07"/>
				<path class="st28" d="M1371.93,1550.07l3.12,9.13c0.1,0.28,0.46,0.41,0.8,0.28l5.64-2.02c0.46-0.16,0.92-0.3,1.39-0.42
					l10.6-2.58c0.91-0.22,1.7-0.79,2.12-1.54l0.51-0.9c0.47-0.84,0.56-1.75,0.24-2.55l-2.71-6.8c-0.33-0.81-1.2-1.33-2.25-1.33
					c-1.06,0-2.15,0.16-3.2,0.48l-5.54,1.68c-0.21,0.06-0.4,0.2-0.51,0.37l-1.08,1.61c-0.07,0.11-0.19,0.2-0.32,0.26l-8.31,3.44
					C1372.04,1549.35,1371.82,1549.73,1371.93,1550.07z"/>
				<path class="st30" d="M1390.68,1593.85c-0.64,0.18-1.3,0.01-1.61-0.45c-1.97-2.84-3.86-7.48-3.86-7.48
					c-0.14-0.43,0.13-0.92,0.63-1.16l5.42-2.62c1.21-0.59,2.48-1.06,3.78-1.42l8.21-2.27c0.85-0.23,1.71-0.4,2.57-0.5l2.6-0.3
					c1.24-0.15,2.34,0.41,2.72,1.36l2.97,7.48c0.29,0.74-0.2,1.62-1.11,1.98l-3.78,1.52l-7.46,2.76c-0.08,0.02-0.16,0.02-0.24,0
					l-3.34-0.98c-0.07-0.02-0.15-0.01-0.22,0.02L1390.68,1593.85z"/>
				<path class="st28" d="M1390.68,1593.85c-0.64,0.18-1.3,0.01-1.61-0.45c-1.97-2.84-3.86-7.48-3.86-7.48
					c-0.14-0.43,0.13-0.92,0.63-1.16l5.42-2.62c1.21-0.59,2.48-1.06,3.78-1.42l8.21-2.27c0.85-0.23,1.71-0.4,2.57-0.5l2.6-0.3
					c1.24-0.15,2.34,0.41,2.72,1.36l2.97,7.48c0.29,0.74-0.2,1.62-1.11,1.98l-3.78,1.52l-7.46,2.76c-0.08,0.02-0.16,0.02-0.24,0
					l-3.34-0.98c-0.07-0.02-0.15-0.01-0.22,0.02L1390.68,1593.85z"/>
				<path class="st30" d="M1396.92,1542.83l2.01,5.21c0.06,0.17-0.04,0.36-0.24,0.45l-10.05,4.6c-1.06,0.49-2.27,0.15-2.62-0.73
					l-1.66-4.18c-0.44-1.1,0.43-2.42,1.84-2.79l10.26-2.74C1396.67,1542.6,1396.86,1542.68,1396.92,1542.83"/>
				<path class="st28" d="M1396.92,1542.83l2.01,5.21c0.06,0.17-0.04,0.36-0.24,0.45l-10.05,4.6c-1.06,0.49-2.27,0.15-2.62-0.73
					l-1.66-4.18c-0.44-1.1,0.43-2.42,1.84-2.79l10.26-2.74C1396.67,1542.6,1396.86,1542.68,1396.92,1542.83z"/>
				<path class="st30" d="M1403.62,1588.46l11.38-4.48c0.38-0.15,0.61-0.51,0.52-0.84l-1.26-4.37c-0.04-0.13-0.19-0.2-0.35-0.17
					l-12.64,2.56c-1.4,0.28-2.32,1.55-1.94,2.64l1.27,3.63C1400.96,1588.51,1402.34,1588.97,1403.62,1588.46"/>
				<path class="st28" d="M1403.62,1588.46l11.38-4.48c0.38-0.15,0.61-0.51,0.52-0.84l-1.26-4.37c-0.04-0.13-0.19-0.2-0.35-0.17
					l-12.64,2.56c-1.4,0.28-2.32,1.55-1.94,2.64l1.27,3.63C1400.96,1588.51,1402.34,1588.97,1403.62,1588.46z"/>
				<path class="st30" d="M1366.22,1493.63l1.39-0.12c1.52-0.13,2.98,0.19,4.12,0.9l-1.76-4.21l-1.95,0.09
					c-1.92,0.09-3.85,0.37-5.75,0.84l-1.28,0.32c-1.29,0.32-2.56,0.72-3.81,1.19l-0.54,0.2c-3.11,1.18-5.98,2.86-8.44,4.95
					l-2.13,1.81l1.26,3.43l1.17-1.5c1.06-1.36,2.44-2.54,4.03-3.46c1.05-0.61,3.72-1.83,3.72-1.83l8.99,22.67l5.22-1.89l-9.06-22.63
					l2.51-0.45C1364.68,1493.8,1365.45,1493.7,1366.22,1493.63"/>
				<path class="st28" d="M1366.22,1493.63l1.39-0.12c1.52-0.13,2.98,0.19,4.12,0.9l-1.76-4.21l-1.95,0.09
					c-1.92,0.09-3.85,0.37-5.75,0.84l-1.28,0.32c-1.29,0.32-2.56,0.72-3.81,1.19l-0.54,0.2c-3.11,1.18-5.98,2.86-8.44,4.95
					l-2.13,1.81l1.26,3.43l1.17-1.5c1.06-1.36,2.44-2.54,4.03-3.46c1.05-0.61,3.72-1.83,3.72-1.83l8.99,22.67l5.22-1.89l-9.06-22.63
					l2.51-0.45C1364.68,1493.8,1365.45,1493.7,1366.22,1493.63z"/>
				<path class="st30" d="M1445.91,1539.31L1445.91,1539.31c-2.72-0.97-5.94-0.86-8.9,0.3l-0.71,0.28
					c-2.58,1.01-4.77,2.73-6.17,4.85l-0.64,0.96c-0.82,1.25-0.99,2.67-0.46,3.88l5.53,12.45l19.01-7.84l-5.44-12.88
					C1447.76,1540.4,1446.96,1539.69,1445.91,1539.31"/>
				<path class="st28" d="M1445.91,1539.31L1445.91,1539.31c-2.72-0.97-5.94-0.86-8.9,0.3l-0.71,0.28
					c-2.58,1.01-4.77,2.73-6.17,4.85l-0.64,0.96c-0.82,1.25-0.99,2.67-0.46,3.88l5.53,12.45l19.01-7.84l-5.44-12.88
					C1447.76,1540.4,1446.96,1539.69,1445.91,1539.31z"/>
				<polygon class="st30" points="1457.43,1570.84 1450.4,1555.51 1436.78,1561.13 1443.73,1576.67 				"/>
				<polygon class="st28" points="1457.43,1570.84 1450.4,1555.51 1436.78,1561.13 1443.73,1576.67 				"/>
				<path class="st28" d="M1429.75,1673.9l0.47,2.12c0.01,0.05-0.03,0.1-0.09,0.11l-1.58,0.27c-1,0.17-1.97,0.56-2.8,1.14
					l-1.11,0.77c-0.09,0.07-0.23,0.06-0.28-0.02l-1.35-1.82l1.58-0.85c0.5-0.26,1.75-0.98,2.31-1.03L1429.75,1673.9z"/>
				<path class="st30" d="M1398.95,1571.93l-4.6-11.46c-0.35-0.88,0.03-1.94,0.96-2.62l10.96-8.02c2.37-1.73,5.13-3,8.03-3.7
					l11.9-2.86l8.58,19l-11,6.3c-2.27,1.3-4.79,2.17-7.37,2.53l-14.81,2.1C1400.4,1573.37,1399.32,1572.85,1398.95,1571.93"/>
				<path class="st28" d="M1398.95,1571.93l-4.6-11.46c-0.35-0.88,0.03-1.94,0.96-2.62l10.96-8.02c2.37-1.73,5.13-3,8.03-3.7
					l11.9-2.86l8.58,19l-11,6.3c-2.27,1.3-4.79,2.17-7.37,2.53l-14.81,2.1C1400.4,1573.37,1399.32,1572.85,1398.95,1571.93z"/>
				<path class="st29" d="M1389.35,1548.36l11.45,8.76c0.43,0.33,0.27,0.98-0.31,1.24l-0.18,0.08c-0.34,0.15-0.72,0.12-0.97-0.07
					l-11.27-8.85c-0.46-0.36-0.22-1.07,0.43-1.28C1388.81,1548.15,1389.13,1548.19,1389.35,1548.36"/>
				<path class="st27" d="M1389.35,1548.36l11.45,8.76c0.43,0.33,0.27,0.98-0.31,1.24l-0.18,0.08c-0.34,0.15-0.72,0.12-0.97-0.07
					l-11.27-8.85c-0.46-0.36-0.22-1.07,0.43-1.28C1388.81,1548.15,1389.13,1548.19,1389.35,1548.36z"/>
				<path class="st29" d="M1408.49,1567.44l-1.63,14.88c-0.06,0.56-0.78,0.98-1.37,0.8l-0.19-0.06c-0.35-0.1-0.55-0.39-0.51-0.71
					l1.81-14.82c0.07-0.61,0.89-1.02,1.48-0.75C1408.37,1566.9,1408.52,1567.16,1408.49,1567.44"/>
				<path class="st27" d="M1408.49,1567.44l-1.63,14.88c-0.06,0.56-0.78,0.98-1.37,0.8l-0.19-0.06c-0.35-0.1-0.55-0.39-0.51-0.71
					l1.81-14.82c0.07-0.61,0.89-1.02,1.48-0.75C1408.37,1566.9,1408.52,1567.16,1408.49,1567.44z"/>
				<path class="st29" d="M1395.25,1545.89L1395.25,1545.89c-0.62,0.2-0.85,0.87-0.41,1.22l10.25,8.21
					c0.24,0.19,0.61,0.22,0.93,0.07l0.12-0.06c0.55-0.25,0.71-0.86,0.3-1.18l-10.37-8.15
					C1395.86,1545.83,1395.54,1545.79,1395.25,1545.89"/>
				<path class="st27" d="M1395.25,1545.89L1395.25,1545.89c-0.62,0.2-0.85,0.87-0.41,1.22l10.25,8.21
					c0.24,0.19,0.61,0.22,0.93,0.07l0.12-0.06c0.55-0.25,0.71-0.86,0.3-1.18l-10.37-8.15
					C1395.86,1545.83,1395.54,1545.79,1395.25,1545.89z"/>
				<path class="st29" d="M1413.97,1565.84L1413.97,1565.84c-0.54-0.33-1.29,0.01-1.36,0.64l-1.62,14.74
					c-0.04,0.34,0.15,0.66,0.47,0.8l0.12,0.05c0.55,0.24,1.2-0.12,1.26-0.7l1.5-14.79C1414.38,1566.28,1414.23,1566,1413.97,1565.84
					"/>
				<path class="st27" d="M1413.97,1565.84L1413.97,1565.84c-0.54-0.33-1.29,0.01-1.36,0.64l-1.62,14.74
					c-0.04,0.34,0.15,0.66,0.47,0.8l0.12,0.05c0.55,0.24,1.2-0.12,1.26-0.7l1.5-14.79C1414.38,1566.28,1414.23,1566,1413.97,1565.84
					z"/>
			</g>
		</g>
	</g>
	<g id="_x32__1_">
		<g>
			<defs>
				
					<rect id="SVGID_29_" x="2092.96" y="1168.88" transform="matrix(0.9397 -0.342 0.342 0.9397 -307.5996 834.9415)" width="241.67" height="241.67"/>
			</defs>
			<clipPath id="SVGID_30_">
				<use xlink:href="#SVGID_29_"  style="overflow:visible;"/>
			</clipPath>
			<g class="st31">
				<defs>
					<path id="SVGID_31_" d="M2158.64,1196.95l3.07-0.05c0.82-0.01,1.5,0.38,1.76,1.01l9.91,24.64l-4.15,0.58
						c-1,0.14-1.99,0.37-2.96,0.69l-3.76,1.24c-0.36,0.12-0.72,0.25-1.07,0.39l-2.69,1.06c-1.76,0.69-3.43,1.57-4.98,2.6l-3.83,2.57
						l-9.53-25.41c0.85-1.93,2.33-3.67,4.24-5.01l0.07-0.05c1.2-0.84,2.5-1.56,3.88-2.13c0.39-0.16,0.77-0.31,1.17-0.45
						C2152.64,1197.57,2155.66,1197,2158.64,1196.95"/>
				</defs>
				<clipPath id="SVGID_32_">
					<use xlink:href="#SVGID_31_"  style="overflow:visible;"/>
				</clipPath>
				
					<linearGradient id="SVGID_33_" gradientUnits="userSpaceOnUse" x1="1214.0121" y1="1423.4868" x2="1215.3304" y2="1423.4868" gradientTransform="matrix(-23.1616 -14.6125 14.6125 -23.1616 9490.3408 51932.9727)">
					<stop  offset="0" style="stop-color:#FFFFFF"/>
					<stop  offset="1" style="stop-color:#FFFFFF"/>
				</linearGradient>
				<polygon class="st32" points="2183.73,1206.96 2149.76,1185.52 2128.87,1218.63 2162.84,1240.07 				"/>
			</g>
			<g class="st31">
				<defs>
					
						<rect id="SVGID_34_" x="2092.96" y="1168.88" transform="matrix(0.9397 -0.342 0.342 0.9397 -307.5996 834.9415)" width="241.67" height="241.67"/>
				</defs>
				<clipPath id="SVGID_35_">
					<use xlink:href="#SVGID_34_"  style="overflow:visible;"/>
				</clipPath>
				<path class="st33" d="M2173.37,1222.55l-9.91-24.64c-0.25-0.63-0.94-1.03-1.76-1.01l-3.07,0.05c-3.39,0.06-6.83,0.79-10.05,2.12
					c-1.38,0.57-2.68,1.29-3.88,2.13l-0.07,0.05c-1.91,1.34-3.39,3.09-4.24,5.01l9.53,25.41l3.83-2.57c1.55-1.04,3.22-1.91,4.98-2.6
					l2.69-1.06c0.35-0.14,0.71-0.27,1.07-0.39l3.76-1.24c0.97-0.32,1.96-0.55,2.96-0.69L2173.37,1222.55z"/>
				<path class="st33" d="M2173.65,1223.03l34.7,87.2l0,0.01l2.45,7.72l0.34,1.08c0.02,0.07-0.06,0.15-0.15,0.14l0,0
					c-3.18-0.42-6.55-0.07-9.75,1.01l-2.84,0.96l-0.61,0.23l-5.84,2.32c-1.5,0.59-2.93,1.34-4.25,2.22
					c-0.65,0.44-1.16,1.01-1.46,1.65l-0.45,0.96c-0.04,0.09-0.19,0.1-0.22,0.02l-36.06-94.41c-0.16-0.42-0.15-0.88,0.04-1.33
					c0.28-0.69,0.79-1.31,1.46-1.79l2.06-1.47c1.78-1.27,3.77-2.3,5.87-3.04c0.26-0.1,0.51-0.19,0.77-0.29l3.9-1.56
					c0.58-0.2,1.16-0.41,1.74-0.61l0.55-0.17c1.27-0.38,5.25-1.12,6.55-1.2l1.08,0.25C2173.56,1222.96,2173.61,1223,2173.65,1223.03
					z"/>
				<path class="st33" d="M2191.22,1339.17l-5.06-10.78c0.4-0.95,1.15-1.81,2.12-2.44l1.63-1.05c3.07-1.53,4.1-1.83,5.25-2.27
					l7.28-2.62c3.58-0.93,4.85-1.17,7.19-0.83l1.08,0.16l3.62,11.87c0.05,0.15-0.1,0.31-0.29,0.32l-3.82,0.13
					c-1.37,0.05-2.76,0.27-4.11,0.66l-4.69,1.35c-0.82,0.24-1.62,0.52-2.4,0.86l-1.72,0.74c-1.69,0.73-3.25,1.72-4.56,2.92
					l-1.11,1.01C2191.51,1339.33,2191.29,1339.31,2191.22,1339.17z"/>
			</g>
			<g class="st31">
				<defs>
					<path id="SVGID_36_" d="M2151.82,1238.65c0.95,0.09,1.7,0.61,1.98,1.37l0.08,0.22l0.04,0.46c0.06,0.68-0.31,1.38-0.98,1.86
						l-1.62-4.04L2151.82,1238.65z"/>
				</defs>
				<clipPath id="SVGID_37_">
					<use xlink:href="#SVGID_36_"  style="overflow:visible;"/>
				</clipPath>
				
					<linearGradient id="SVGID_38_" gradientUnits="userSpaceOnUse" x1="1138.286" y1="1391.4653" x2="1139.6044" y2="1391.4653" gradientTransform="matrix(-10.19 2.0029 -2.0029 -10.19 16540.0762 13139.2393)">
					<stop  offset="0" style="stop-color:#000000"/>
					<stop  offset="0.1413" style="stop-color:#000000"/>
					<stop  offset="1" style="stop-color:#000000"/>
				</linearGradient>
				<polygon class="st34" points="2153.69,1237.76 2151.27,1238.24 2152.15,1242.74 2154.57,1242.26 				"/>
			</g>
			<g class="st31">
				<defs>
					
						<rect id="SVGID_39_" x="2092.96" y="1168.88" transform="matrix(0.9397 -0.342 0.342 0.9397 -307.5996 834.9415)" width="241.67" height="241.67"/>
				</defs>
				<clipPath id="SVGID_40_">
					<use xlink:href="#SVGID_39_"  style="overflow:visible;"/>
				</clipPath>
				<path class="st35" d="M2151.32,1238.51l0.49,0.14c0.95,0.09,1.7,0.61,1.98,1.37l0.08,0.22l0.04,0.46
					c0.06,0.68-0.31,1.38-0.98,1.86L2151.32,1238.51z"/>
				<path class="st36" d="M2211.76,1332.1l6.32,17.46l-5.98,1.32c-0.61,0.13-1.21,0.3-1.79,0.51l-2.64,0.92
					c-1.29,0.45-2.52,1.02-3.68,1.72l-3.87,2.33l-4.24-10.77l-2.84-7.23c-0.07-0.18,0.02-0.39,0.22-0.52l2.12-1.34
					c0.48-0.26,0.96-0.5,1.46-0.72l4.01-1.56c0.24-0.1,0.48-0.2,0.72-0.28l5.04-1.7c1.02-0.34,2.09-0.46,3.1-0.35L2211.76,1332.1z"
					/>
				<path class="st37" d="M2223.05,1383.7c0.56-0.22,1.05,0.22,1.43,0.56c2.56,2.28,12.95,10.31,23.74,1.07
					c12.43-10.65,0.97-55.56-5.2-64.81c-5.17-7.75-19.66-24.11-20.96-29.04c-1.3-4.93-0.11-16.25,12.11-14.87
					c12.22,1.37,2.32,5.05,2.32,5.05s-4.93-1.93-6.98,0.75c-2.05,2.68-2.76,6.4,0.44,11.97c3.2,5.57,13.31,14.74,19.14,24.88
					c4.68,8.13,15.25,44.98,7.8,62.62c0,0-8.26,13.42-20.29,12.36c-13.2-1.16-15.81-6.72-17.61-8.59c-0.08-0.08-0.03-0.21,0.09-0.26
					L2223.05,1383.7z"/>
				<path class="st37" d="M2193.54,1346.9l2.29-1.26l-2.21-5.76l-0.55,0.82c-0.44,0.58-0.63,1.26-0.52,1.89l0.7,4.22
					C2193.27,1346.92,2193.42,1346.96,2193.54,1346.9"/>
				<path class="st35" d="M2193.54,1346.9l2.29-1.26l-2.21-5.76l-0.55,0.82c-0.44,0.58-0.63,1.26-0.52,1.89l0.7,4.22
					C2193.27,1346.92,2193.42,1346.96,2193.54,1346.9z"/>
				<path class="st36" d="M2218.16,1349.81l1.81,4.23c0.31,0.69,0.55,1.42,0.72,2.16l1.54,7.16c0.03,0.16-0.09,0.32-0.28,0.38
					l-6.44,1.83c-1.01,0.29-2,0.67-2.94,1.14l-6.04,2.99c-0.17,0.08-0.36,0.05-0.44-0.08l-2.72-4.74c-0.46-0.73-0.94-1.68-1.22-2.48
					l-1.93-5.91l4.23-2.61c0.73-0.46,1.52-0.84,2.34-1.13l2.97-1.05c1.16-0.41,2.35-0.7,3.55-0.87L2218.16,1349.81z"/>
				<path class="st38" d="M2227.16,1270.98L2227.16,1270.98c0.13,1.8-1.18,3.62-3.21,4.46l-25.09,10.32l-11.08-26.2l24.64-9.61
					c2.07-0.81,4.34-0.56,5.81,0.62l0.1,0.18l3.1,7.16L2227.16,1270.98z"/>
				<path class="st36" d="M2227.16,1270.98L2227.16,1270.98c0.13,1.8-1.18,3.62-3.21,4.46l-25.09,10.32l-11.08-26.2l24.64-9.61
					c2.07-0.81,4.34-0.56,5.81,0.62l0.1,0.18l3.1,7.16L2227.16,1270.98z"/>
				<path class="st36" d="M2224.86,1380.85l-3.29-16.6l-5.17,1.4c-1.53,0.42-3.02,0.99-4.44,1.71l-5.03,2.56l9.04,14.2
					c0.08,0.12,0.27,0.15,0.42,0.07l2.92-1.57c0.6-0.32,1.24-0.57,1.9-0.72l3.45-0.82
					C2224.8,1381.04,2224.88,1380.94,2224.86,1380.85z"/>
				<path class="st38" d="M2165.95,1257.45l3.12,9.13c0.1,0.28,0.46,0.41,0.8,0.28l5.64-2.02c0.46-0.16,0.92-0.3,1.39-0.42
					l10.6-2.58c0.91-0.22,1.7-0.79,2.12-1.54l0.51-0.9c0.47-0.84,0.56-1.75,0.24-2.55l-2.72-6.8c-0.32-0.81-1.2-1.33-2.25-1.33
					c-1.06,0-2.15,0.16-3.2,0.48l-5.54,1.68c-0.21,0.06-0.4,0.2-0.51,0.37l-1.08,1.61c-0.07,0.11-0.19,0.2-0.32,0.26l-8.31,3.44
					C2166.06,1256.73,2165.83,1257.12,2165.95,1257.45"/>
				<path class="st36" d="M2165.95,1257.45l3.12,9.13c0.1,0.28,0.46,0.41,0.8,0.28l5.64-2.02c0.46-0.16,0.92-0.3,1.39-0.42
					l10.6-2.58c0.91-0.22,1.7-0.79,2.12-1.54l0.51-0.9c0.47-0.84,0.56-1.75,0.24-2.55l-2.72-6.8c-0.32-0.81-1.2-1.33-2.25-1.33
					c-1.06,0-2.15,0.16-3.2,0.48l-5.54,1.68c-0.21,0.06-0.4,0.2-0.51,0.37l-1.08,1.61c-0.07,0.11-0.19,0.2-0.32,0.26l-8.31,3.44
					C2166.06,1256.73,2165.83,1257.12,2165.95,1257.45z"/>
				<path class="st38" d="M2184.7,1301.23c-0.64,0.18-1.3,0.01-1.61-0.45c-1.97-2.84-3.86-7.48-3.86-7.48
					c-0.14-0.43,0.13-0.92,0.63-1.16l5.42-2.62c1.21-0.59,2.48-1.06,3.78-1.42l8.21-2.27c0.85-0.23,1.71-0.4,2.57-0.5l2.6-0.3
					c1.24-0.15,2.34,0.41,2.72,1.36l2.97,7.48c0.29,0.74-0.2,1.62-1.11,1.98l-3.78,1.52l-7.46,2.76c-0.08,0.02-0.16,0.02-0.24,0
					l-3.34-0.98c-0.07-0.02-0.15-0.01-0.22,0.02L2184.7,1301.23z"/>
				<path class="st36" d="M2184.7,1301.23c-0.64,0.18-1.3,0.01-1.61-0.45c-1.97-2.84-3.86-7.48-3.86-7.48
					c-0.14-0.43,0.13-0.92,0.63-1.16l5.42-2.62c1.21-0.59,2.48-1.06,3.78-1.42l8.21-2.27c0.85-0.23,1.71-0.4,2.57-0.5l2.6-0.3
					c1.24-0.15,2.34,0.41,2.72,1.36l2.97,7.48c0.29,0.74-0.2,1.62-1.11,1.98l-3.78,1.52l-7.46,2.76c-0.08,0.02-0.16,0.02-0.24,0
					l-3.34-0.98c-0.07-0.02-0.15-0.01-0.22,0.02L2184.7,1301.23z"/>
				<path class="st38" d="M2190.93,1250.22l2.01,5.21c0.06,0.17-0.04,0.36-0.24,0.45l-10.05,4.6c-1.06,0.49-2.27,0.15-2.62-0.73
					l-1.66-4.18c-0.44-1.1,0.43-2.42,1.84-2.79l10.26-2.74C2190.68,1249.98,2190.87,1250.06,2190.93,1250.22"/>
				<path class="st36" d="M2190.93,1250.22l2.01,5.21c0.06,0.17-0.04,0.36-0.24,0.45l-10.05,4.6c-1.06,0.49-2.27,0.15-2.62-0.73
					l-1.66-4.18c-0.44-1.1,0.43-2.42,1.84-2.79l10.26-2.74C2190.68,1249.98,2190.87,1250.06,2190.93,1250.22z"/>
				<path class="st38" d="M2197.64,1295.85l11.38-4.48c0.38-0.15,0.61-0.51,0.51-0.84l-1.26-4.37c-0.04-0.13-0.19-0.2-0.35-0.17
					l-12.64,2.56c-1.4,0.28-2.32,1.55-1.94,2.64l1.27,3.63C2194.98,1295.9,2196.35,1296.35,2197.64,1295.85"/>
				<path class="st36" d="M2197.64,1295.85l11.38-4.48c0.38-0.15,0.61-0.51,0.51-0.84l-1.26-4.37c-0.04-0.13-0.19-0.2-0.35-0.17
					l-12.64,2.56c-1.4,0.28-2.32,1.55-1.94,2.64l1.27,3.63C2194.98,1295.9,2196.35,1296.35,2197.64,1295.85z"/>
				<path class="st38" d="M2160.24,1201.02l1.39-0.12c1.52-0.13,2.98,0.19,4.12,0.9l-1.76-4.21l-1.95,0.09
					c-1.92,0.09-3.85,0.37-5.75,0.84l-1.28,0.32c-1.29,0.32-2.56,0.72-3.81,1.19l-0.54,0.2c-3.11,1.18-5.98,2.86-8.44,4.95
					l-2.13,1.81l1.26,3.43l1.17-1.5c1.06-1.36,2.44-2.54,4.03-3.46c1.05-0.61,3.72-1.83,3.72-1.83l8.99,22.67l5.22-1.89l-9.06-22.63
					l2.51-0.45C2158.7,1201.18,2159.47,1201.08,2160.24,1201.02"/>
				<path class="st36" d="M2160.24,1201.02l1.39-0.12c1.52-0.13,2.98,0.19,4.12,0.9l-1.76-4.21l-1.95,0.09
					c-1.92,0.09-3.85,0.37-5.75,0.84l-1.28,0.32c-1.29,0.32-2.56,0.72-3.81,1.19l-0.54,0.2c-3.11,1.18-5.98,2.86-8.44,4.95
					l-2.13,1.81l1.26,3.43l1.17-1.5c1.06-1.36,2.44-2.54,4.03-3.46c1.05-0.61,3.72-1.83,3.72-1.83l8.99,22.67l5.22-1.89l-9.06-22.63
					l2.51-0.45C2158.7,1201.18,2159.47,1201.08,2160.24,1201.02z"/>
				<path class="st38" d="M2239.92,1246.7L2239.92,1246.7c-2.72-0.97-5.94-0.86-8.9,0.3l-0.71,0.28c-2.58,1.01-4.77,2.73-6.17,4.85
					l-0.64,0.96c-0.82,1.25-0.99,2.67-0.46,3.88l5.53,12.45l19.01-7.84l-5.44-12.88C2241.77,1247.79,2240.97,1247.07,2239.92,1246.7
					"/>
				<path class="st36" d="M2239.92,1246.7L2239.92,1246.7c-2.72-0.97-5.94-0.86-8.9,0.3l-0.71,0.28c-2.58,1.01-4.77,2.73-6.17,4.85
					l-0.64,0.96c-0.82,1.25-0.99,2.67-0.46,3.88l5.53,12.45l19.01-7.84l-5.44-12.88C2241.77,1247.79,2240.97,1247.07,2239.92,1246.7
					z"/>
				<polygon class="st38" points="2251.44,1278.23 2244.41,1262.9 2230.79,1268.52 2237.74,1284.06 				"/>
				<polygon class="st36" points="2251.44,1278.23 2244.41,1262.9 2230.79,1268.52 2237.74,1284.06 				"/>
				<path class="st35" d="M2223.76,1381.29l0.47,2.12c0.01,0.05-0.03,0.1-0.09,0.11l-1.58,0.27c-1,0.17-1.97,0.56-2.8,1.14
					l-1.11,0.77c-0.09,0.07-0.23,0.06-0.28-0.02l-1.35-1.82l1.58-0.85c0.5-0.26,1.75-0.98,2.31-1.03L2223.76,1381.29z"/>
				<path class="st38" d="M2192.97,1279.32l-4.6-11.46c-0.35-0.88,0.03-1.94,0.96-2.62l10.96-8.02c2.37-1.73,5.13-3,8.03-3.7
					l11.9-2.86l8.58,19l-11,6.3c-2.27,1.3-4.79,2.17-7.37,2.53l-14.81,2.1C2194.42,1280.76,2193.34,1280.24,2192.97,1279.32"/>
				<path class="st36" d="M2192.97,1279.32l-4.6-11.46c-0.35-0.88,0.03-1.94,0.96-2.62l10.96-8.02c2.37-1.73,5.13-3,8.03-3.7
					l11.9-2.86l8.58,19l-11,6.3c-2.27,1.3-4.79,2.17-7.37,2.53l-14.81,2.1C2194.42,1280.76,2193.34,1280.24,2192.97,1279.32z"/>
				<path class="st37" d="M2183.36,1255.75l11.45,8.76c0.43,0.33,0.27,0.98-0.31,1.24l-0.18,0.08c-0.34,0.15-0.72,0.12-0.97-0.07
					l-11.27-8.85c-0.46-0.36-0.22-1.07,0.43-1.28C2182.82,1255.54,2183.14,1255.58,2183.36,1255.75"/>
				<path class="st35" d="M2183.36,1255.75l11.45,8.76c0.43,0.33,0.27,0.98-0.31,1.24l-0.18,0.08c-0.34,0.15-0.72,0.12-0.97-0.07
					l-11.27-8.85c-0.46-0.36-0.22-1.07,0.43-1.28C2182.82,1255.54,2183.14,1255.58,2183.36,1255.75z"/>
				<path class="st37" d="M2202.5,1274.82l-1.63,14.88c-0.06,0.56-0.78,0.98-1.37,0.8l-0.19-0.06c-0.35-0.1-0.55-0.39-0.51-0.71
					l1.81-14.82c0.07-0.61,0.89-1.02,1.48-0.75C2202.38,1274.29,2202.54,1274.54,2202.5,1274.82"/>
				<path class="st35" d="M2202.5,1274.82l-1.63,14.88c-0.06,0.56-0.78,0.98-1.37,0.8l-0.19-0.06c-0.35-0.1-0.55-0.39-0.51-0.71
					l1.81-14.82c0.07-0.61,0.89-1.02,1.48-0.75C2202.38,1274.29,2202.54,1274.54,2202.5,1274.82z"/>
				<path class="st37" d="M2189.26,1253.27L2189.26,1253.27c-0.62,0.2-0.85,0.87-0.41,1.22l10.25,8.21
					c0.24,0.19,0.61,0.22,0.93,0.07l0.12-0.06c0.55-0.25,0.71-0.86,0.3-1.18l-10.37-8.15
					C2189.87,1253.22,2189.56,1253.18,2189.26,1253.27"/>
				<path class="st35" d="M2189.26,1253.27L2189.26,1253.27c-0.62,0.2-0.85,0.87-0.41,1.22l10.25,8.21
					c0.24,0.19,0.61,0.22,0.93,0.07l0.12-0.06c0.55-0.25,0.71-0.86,0.3-1.18l-10.37-8.15
					C2189.87,1253.22,2189.56,1253.18,2189.26,1253.27z"/>
				<path class="st37" d="M2207.98,1273.22L2207.98,1273.22c-0.54-0.33-1.29,0.01-1.36,0.64l-1.62,14.74
					c-0.04,0.34,0.15,0.66,0.47,0.8l0.12,0.05c0.55,0.24,1.2-0.12,1.26-0.7l1.5-14.79
					C2208.39,1273.67,2208.25,1273.38,2207.98,1273.22"/>
				<path class="st35" d="M2207.98,1273.22L2207.98,1273.22c-0.54-0.33-1.29,0.01-1.36,0.64l-1.62,14.74
					c-0.04,0.34,0.15,0.66,0.47,0.8l0.12,0.05c0.55,0.24,1.2-0.12,1.26-0.7l1.5-14.79
					C2208.39,1273.67,2208.25,1273.38,2207.98,1273.22z"/>
			</g>
		</g>
	</g>
	<g id="_x33__1_">
		<g>
			<defs>
				
					<rect id="SVGID_41_" x="2899.4" y="873.16" transform="matrix(0.9397 -0.342 0.342 0.9397 -157.8248 1092.9288)" width="241.67" height="241.67"/>
			</defs>
			<clipPath id="SVGID_42_">
				<use xlink:href="#SVGID_41_"  style="overflow:visible;"/>
			</clipPath>
			<g class="st39">
				<defs>
					<path id="SVGID_43_" d="M2965.09,901.24l3.07-0.05c0.82-0.01,1.5,0.38,1.76,1.01l9.91,24.64l-4.15,0.58
						c-1,0.14-1.99,0.37-2.96,0.69l-3.76,1.24c-0.36,0.12-0.72,0.25-1.07,0.39l-2.69,1.06c-1.76,0.69-3.43,1.57-4.98,2.6l-3.83,2.57
						l-9.53-25.41c0.85-1.93,2.33-3.67,4.24-5.01l0.07-0.05c1.2-0.84,2.5-1.56,3.88-2.13c0.39-0.16,0.77-0.31,1.17-0.45
						C2959.08,901.86,2962.1,901.29,2965.09,901.24"/>
				</defs>
				<clipPath id="SVGID_44_">
					<use xlink:href="#SVGID_43_"  style="overflow:visible;"/>
				</clipPath>
				
					<linearGradient id="SVGID_45_" gradientUnits="userSpaceOnUse" x1="1194.8684" y1="1448.3318" x2="1196.1868" y2="1448.3318" gradientTransform="matrix(-23.1616 -14.6125 14.6125 -23.1616 9490.3408 51932.9727)">
					<stop  offset="0" style="stop-color:#FFFFFF"/>
					<stop  offset="1" style="stop-color:#FFFFFF"/>
				</linearGradient>
				<polygon class="st40" points="2990.18,911.24 2956.21,889.81 2935.32,922.92 2969.29,944.35 				"/>
			</g>
			<g class="st39">
				<defs>
					
						<rect id="SVGID_46_" x="2899.4" y="873.16" transform="matrix(0.9397 -0.342 0.342 0.9397 -157.8248 1092.9288)" width="241.67" height="241.67"/>
				</defs>
				<clipPath id="SVGID_47_">
					<use xlink:href="#SVGID_46_"  style="overflow:visible;"/>
				</clipPath>
				<path class="st41" d="M2979.82,926.83l-9.91-24.64c-0.25-0.63-0.94-1.03-1.76-1.01l-3.07,0.05c-3.39,0.06-6.83,0.79-10.05,2.12
					c-1.38,0.57-2.68,1.29-3.88,2.13l-0.07,0.05c-1.91,1.34-3.39,3.09-4.24,5.01l9.53,25.41l3.83-2.57c1.55-1.04,3.22-1.91,4.98-2.6
					l2.69-1.06c0.35-0.14,0.71-0.27,1.07-0.39l3.76-1.24c0.97-0.32,1.96-0.55,2.96-0.69L2979.82,926.83z"/>
				<path class="st41" d="M2980.09,927.31l34.7,87.2l0,0.01l2.45,7.72l0.34,1.08c0.02,0.07-0.06,0.15-0.15,0.14l0,0
					c-3.18-0.42-6.55-0.07-9.75,1.01l-2.84,0.96l-0.61,0.23l-5.84,2.32c-1.5,0.59-2.93,1.34-4.25,2.22
					c-0.65,0.44-1.16,1.01-1.46,1.65l-0.45,0.96c-0.04,0.09-0.19,0.1-0.22,0.02l-36.06-94.41c-0.16-0.42-0.15-0.88,0.04-1.33
					c0.28-0.69,0.79-1.31,1.46-1.79l2.06-1.47c1.78-1.27,3.77-2.3,5.87-3.04c0.26-0.1,0.51-0.19,0.77-0.29l3.9-1.56
					c0.58-0.2,1.16-0.41,1.74-0.61l0.55-0.17c1.27-0.38,5.25-1.12,6.55-1.2l1.08,0.25C2980.01,927.24,2980.06,927.28,2980.09,927.31
					z"/>
				<path class="st41" d="M2997.67,1043.46l-5.06-10.78c0.4-0.95,1.15-1.81,2.12-2.44l1.63-1.05c3.07-1.53,4.1-1.83,5.25-2.27
					l7.28-2.62c3.58-0.93,4.85-1.17,7.19-0.83l1.08,0.16l3.62,11.87c0.05,0.15-0.1,0.31-0.29,0.32l-3.82,0.13
					c-1.37,0.05-2.76,0.27-4.11,0.66l-4.69,1.35c-0.82,0.24-1.62,0.52-2.4,0.86l-1.72,0.74c-1.69,0.73-3.25,1.72-4.56,2.92
					l-1.11,1.01C2997.96,1043.62,2997.74,1043.6,2997.67,1043.46z"/>
			</g>
			<g class="st39">
				<defs>
					<path id="SVGID_48_" d="M2958.26,942.94c0.95,0.09,1.7,0.61,1.98,1.37l0.08,0.22l0.04,0.46c0.06,0.68-0.31,1.38-0.98,1.86
						l-1.62-4.04L2958.26,942.94z"/>
				</defs>
				<clipPath id="SVGID_49_">
					<use xlink:href="#SVGID_48_"  style="overflow:visible;"/>
				</clipPath>
				
					<linearGradient id="SVGID_50_" gradientUnits="userSpaceOnUse" x1="1056.5974" y1="1404.4287" x2="1057.9156" y2="1404.4287" gradientTransform="matrix(-10.19 2.0029 -2.0029 -10.19 16540.0762 13139.2393)">
					<stop  offset="0" style="stop-color:#000000"/>
					<stop  offset="0.1413" style="stop-color:#000000"/>
					<stop  offset="1" style="stop-color:#000000"/>
				</linearGradient>
				<polygon class="st42" points="2960.13,942.05 2957.71,942.53 2958.6,947.02 2961.02,946.55 				"/>
			</g>
			<g class="st39">
				<defs>
					
						<rect id="SVGID_51_" x="2899.4" y="873.16" transform="matrix(0.9397 -0.342 0.342 0.9397 -157.8248 1092.9288)" width="241.67" height="241.67"/>
				</defs>
				<clipPath id="SVGID_52_">
					<use xlink:href="#SVGID_51_"  style="overflow:visible;"/>
				</clipPath>
				<path class="st43" d="M2957.77,942.8l0.49,0.14c0.95,0.09,1.7,0.61,1.98,1.37l0.08,0.22l0.04,0.46
					c0.06,0.68-0.31,1.38-0.98,1.86L2957.77,942.8z"/>
				<path class="st44" d="M3018.21,1036.39l6.32,17.46l-5.98,1.32c-0.61,0.13-1.21,0.3-1.79,0.51l-2.64,0.92
					c-1.29,0.45-2.52,1.02-3.68,1.72l-3.87,2.33l-4.24-10.77l-2.84-7.23c-0.07-0.18,0.02-0.39,0.22-0.52l2.12-1.34
					c0.48-0.26,0.96-0.5,1.46-0.72l4.01-1.56c0.24-0.1,0.48-0.2,0.72-0.28l5.04-1.7c1.02-0.34,2.08-0.46,3.1-0.35L3018.21,1036.39z"
					/>
				<path class="st45" d="M3029.5,1087.99c0.56-0.22,1.05,0.22,1.43,0.56c2.56,2.28,12.95,10.31,23.74,1.07
					c12.43-10.65,0.97-55.56-5.2-64.81c-5.17-7.75-19.66-24.11-20.96-29.04c-1.3-4.93-0.11-16.25,12.11-14.87
					c12.22,1.37,2.32,5.05,2.32,5.05s-4.93-1.93-6.98,0.75c-2.05,2.68-2.76,6.4,0.44,11.97c3.2,5.57,13.31,14.74,19.14,24.88
					c4.68,8.13,15.25,44.98,7.8,62.62c0,0-8.26,13.42-20.29,12.36c-13.2-1.16-15.81-6.72-17.61-8.59c-0.08-0.08-0.03-0.21,0.09-0.26
					L3029.5,1087.99z"/>
				<path class="st45" d="M2999.99,1051.18l2.29-1.26l-2.21-5.76l-0.55,0.82c-0.44,0.58-0.63,1.26-0.52,1.89l0.7,4.22
					C2999.72,1051.2,2999.87,1051.25,2999.99,1051.18"/>
				<path class="st43" d="M2999.99,1051.18l2.29-1.26l-2.21-5.76l-0.55,0.82c-0.44,0.58-0.63,1.26-0.52,1.89l0.7,4.22
					C2999.72,1051.2,2999.87,1051.25,2999.99,1051.18z"/>
				<path class="st44" d="M3024.6,1054.1l1.81,4.23c0.31,0.69,0.55,1.42,0.71,2.16l1.54,7.16c0.03,0.16-0.09,0.32-0.28,0.38
					l-6.44,1.83c-1.01,0.29-2,0.67-2.94,1.14l-6.04,2.99c-0.17,0.08-0.36,0.05-0.44-0.08l-2.72-4.74c-0.46-0.73-0.94-1.68-1.22-2.48
					l-1.93-5.91l4.23-2.61c0.73-0.46,1.52-0.84,2.34-1.13l2.97-1.05c1.16-0.41,2.35-0.7,3.55-0.87L3024.6,1054.1z"/>
				<path class="st46" d="M3033.6,975.27L3033.6,975.27c0.13,1.8-1.18,3.62-3.21,4.46l-25.09,10.32l-11.08-26.2l24.64-9.61
					c2.07-0.81,4.34-0.56,5.81,0.62l0.1,0.18l3.1,7.16L3033.6,975.27z"/>
				<path class="st44" d="M3033.6,975.27L3033.6,975.27c0.13,1.8-1.18,3.62-3.21,4.46l-25.09,10.32l-11.08-26.2l24.64-9.61
					c2.07-0.81,4.34-0.56,5.81,0.62l0.1,0.18l3.1,7.16L3033.6,975.27z"/>
				<path class="st44" d="M3031.31,1085.13l-3.29-16.6l-5.17,1.4c-1.53,0.42-3.02,0.99-4.44,1.71l-5.03,2.56l9.04,14.2
					c0.08,0.12,0.27,0.15,0.42,0.07l2.92-1.57c0.6-0.32,1.24-0.57,1.9-0.72l3.45-0.82
					C3031.25,1085.33,3031.33,1085.23,3031.31,1085.13z"/>
				<path class="st46" d="M2972.39,961.74l3.12,9.13c0.1,0.28,0.46,0.41,0.8,0.28l5.64-2.02c0.46-0.16,0.92-0.3,1.39-0.42l10.6-2.58
					c0.91-0.22,1.7-0.79,2.12-1.54l0.51-0.9c0.47-0.84,0.56-1.75,0.24-2.55l-2.72-6.8c-0.32-0.81-1.2-1.33-2.25-1.33
					c-1.06,0-2.15,0.16-3.2,0.48l-5.54,1.68c-0.21,0.06-0.4,0.2-0.51,0.37l-1.08,1.61c-0.07,0.11-0.19,0.2-0.32,0.26l-8.31,3.44
					C2972.5,961.02,2972.28,961.4,2972.39,961.74"/>
				<path class="st44" d="M2972.39,961.74l3.12,9.13c0.1,0.28,0.46,0.41,0.8,0.28l5.64-2.02c0.46-0.16,0.92-0.3,1.39-0.42l10.6-2.58
					c0.91-0.22,1.7-0.79,2.12-1.54l0.51-0.9c0.47-0.84,0.56-1.75,0.24-2.55l-2.72-6.8c-0.32-0.81-1.2-1.33-2.25-1.33
					c-1.06,0-2.15,0.16-3.2,0.48l-5.54,1.68c-0.21,0.06-0.4,0.2-0.51,0.37l-1.08,1.61c-0.07,0.11-0.19,0.2-0.32,0.26l-8.31,3.44
					C2972.5,961.02,2972.28,961.4,2972.39,961.74z"/>
				<path class="st46" d="M2991.14,1005.52c-0.64,0.18-1.3,0.01-1.61-0.45c-1.97-2.84-3.86-7.48-3.86-7.48
					c-0.14-0.43,0.13-0.92,0.63-1.16l5.42-2.62c1.21-0.59,2.48-1.06,3.78-1.42l8.21-2.27c0.85-0.23,1.71-0.4,2.57-0.5l2.6-0.3
					c1.24-0.15,2.34,0.41,2.72,1.36l2.97,7.48c0.29,0.74-0.2,1.62-1.11,1.98l-3.78,1.52l-7.46,2.76c-0.08,0.02-0.16,0.02-0.24,0
					l-3.34-0.98c-0.07-0.02-0.15-0.01-0.22,0.02L2991.14,1005.52z"/>
				<path class="st44" d="M2991.14,1005.52c-0.64,0.18-1.3,0.01-1.61-0.45c-1.97-2.84-3.86-7.48-3.86-7.48
					c-0.14-0.43,0.13-0.92,0.63-1.16l5.42-2.62c1.21-0.59,2.48-1.06,3.78-1.42l8.21-2.27c0.85-0.23,1.71-0.4,2.57-0.5l2.6-0.3
					c1.24-0.15,2.34,0.41,2.72,1.36l2.97,7.48c0.29,0.74-0.2,1.62-1.11,1.98l-3.78,1.52l-7.46,2.76c-0.08,0.02-0.16,0.02-0.24,0
					l-3.34-0.98c-0.07-0.02-0.15-0.01-0.22,0.02L2991.14,1005.52z"/>
				<path class="st46" d="M2997.38,954.5l2.01,5.21c0.06,0.17-0.04,0.36-0.24,0.45l-10.05,4.6c-1.06,0.49-2.27,0.15-2.62-0.73
					l-1.66-4.18c-0.44-1.1,0.43-2.42,1.84-2.79l10.26-2.74C2997.12,954.27,2997.32,954.35,2997.38,954.5"/>
				<path class="st44" d="M2997.38,954.5l2.01,5.21c0.06,0.17-0.04,0.36-0.24,0.45l-10.05,4.6c-1.06,0.49-2.27,0.15-2.62-0.73
					l-1.66-4.18c-0.44-1.1,0.43-2.42,1.84-2.79l10.26-2.74C2997.12,954.27,2997.32,954.35,2997.38,954.5z"/>
				<path class="st46" d="M3004.08,1000.14l11.38-4.48c0.38-0.15,0.61-0.51,0.52-0.84l-1.26-4.37c-0.04-0.13-0.19-0.2-0.35-0.17
					l-12.64,2.56c-1.4,0.28-2.32,1.55-1.94,2.64l1.27,3.63C3001.42,1000.18,3002.8,1000.64,3004.08,1000.14"/>
				<path class="st44" d="M3004.08,1000.14l11.38-4.48c0.38-0.15,0.61-0.51,0.52-0.84l-1.26-4.37c-0.04-0.13-0.19-0.2-0.35-0.17
					l-12.64,2.56c-1.4,0.28-2.32,1.55-1.94,2.64l1.27,3.63C3001.42,1000.18,3002.8,1000.64,3004.08,1000.14z"/>
				<path class="st46" d="M2966.68,905.3l1.39-0.12c1.52-0.13,2.98,0.19,4.12,0.9l-1.76-4.21l-1.95,0.09
					c-1.92,0.09-3.85,0.37-5.75,0.84l-1.28,0.32c-1.29,0.32-2.56,0.72-3.81,1.19l-0.54,0.2c-3.11,1.18-5.98,2.86-8.44,4.95
					l-2.13,1.81l1.26,3.43l1.17-1.5c1.06-1.36,2.44-2.54,4.03-3.46c1.05-0.61,3.72-1.83,3.72-1.83l8.99,22.67l5.22-1.89l-9.06-22.63
					l2.51-0.45C2965.14,905.47,2965.91,905.37,2966.68,905.3"/>
				<path class="st44" d="M2966.68,905.3l1.39-0.12c1.52-0.13,2.98,0.19,4.12,0.9l-1.76-4.21l-1.95,0.09
					c-1.92,0.09-3.85,0.37-5.75,0.84l-1.28,0.32c-1.29,0.32-2.56,0.72-3.81,1.19l-0.54,0.2c-3.11,1.18-5.98,2.86-8.44,4.95
					l-2.13,1.81l1.26,3.43l1.17-1.5c1.06-1.36,2.44-2.54,4.03-3.46c1.05-0.61,3.72-1.83,3.72-1.83l8.99,22.67l5.22-1.89l-9.06-22.63
					l2.51-0.45C2965.14,905.47,2965.91,905.37,2966.68,905.3z"/>
				<path class="st46" d="M3046.37,950.98L3046.37,950.98c-2.72-0.97-5.94-0.86-8.9,0.3l-0.71,0.28c-2.58,1.01-4.77,2.73-6.17,4.85
					l-0.64,0.96c-0.83,1.25-0.99,2.67-0.46,3.88l5.53,12.45l19.01-7.84l-5.44-12.88C3048.22,952.07,3047.42,951.36,3046.37,950.98"
					/>
				<path class="st44" d="M3046.37,950.98L3046.37,950.98c-2.72-0.97-5.94-0.86-8.9,0.3l-0.71,0.28c-2.58,1.01-4.77,2.73-6.17,4.85
					l-0.64,0.96c-0.83,1.25-0.99,2.67-0.46,3.88l5.53,12.45l19.01-7.84l-5.44-12.88C3048.22,952.07,3047.42,951.36,3046.37,950.98z"
					/>
				<polygon class="st46" points="3057.89,982.51 3050.85,967.18 3037.23,972.8 3044.18,988.35 				"/>
				<polygon class="st44" points="3057.89,982.51 3050.85,967.18 3037.23,972.8 3044.18,988.35 				"/>
				<path class="st43" d="M3030.21,1085.58l0.47,2.12c0.01,0.05-0.03,0.1-0.09,0.11l-1.58,0.27c-1,0.17-1.97,0.56-2.8,1.14
					l-1.11,0.77c-0.09,0.07-0.23,0.06-0.28-0.02l-1.35-1.82l1.58-0.85c0.5-0.26,1.75-0.98,2.31-1.03L3030.21,1085.58z"/>
				<path class="st46" d="M2999.41,983.6l-4.6-11.46c-0.35-0.88,0.03-1.94,0.96-2.62l10.96-8.02c2.37-1.73,5.13-3,8.03-3.7
					l11.9-2.86l8.58,19l-11,6.3c-2.27,1.3-4.79,2.17-7.37,2.53l-14.81,2.1C3000.86,985.04,2999.78,984.53,2999.41,983.6"/>
				<path class="st44" d="M2999.41,983.6l-4.6-11.46c-0.35-0.88,0.03-1.94,0.96-2.62l10.96-8.02c2.37-1.73,5.13-3,8.03-3.7
					l11.9-2.86l8.58,19l-11,6.3c-2.27,1.3-4.79,2.17-7.37,2.53l-14.81,2.1C3000.86,985.04,2999.78,984.53,2999.41,983.6z"/>
				<path class="st45" d="M2989.81,960.03l11.45,8.76c0.43,0.33,0.27,0.98-0.31,1.24l-0.18,0.08c-0.34,0.15-0.72,0.12-0.97-0.07
					l-11.27-8.85c-0.46-0.36-0.22-1.07,0.43-1.28C2989.26,959.82,2989.59,959.87,2989.81,960.03"/>
				<path class="st43" d="M2989.81,960.03l11.45,8.76c0.43,0.33,0.27,0.98-0.31,1.24l-0.18,0.08c-0.34,0.15-0.72,0.12-0.97-0.07
					l-11.27-8.85c-0.46-0.36-0.22-1.07,0.43-1.28C2989.26,959.82,2989.59,959.87,2989.81,960.03z"/>
				<path class="st45" d="M3008.95,979.11l-1.63,14.88c-0.06,0.56-0.78,0.98-1.37,0.8l-0.19-0.06c-0.35-0.1-0.55-0.39-0.51-0.71
					l1.81-14.82c0.07-0.61,0.89-1.02,1.48-0.75C3008.83,978.58,3008.98,978.83,3008.95,979.11"/>
				<path class="st43" d="M3008.95,979.11l-1.63,14.88c-0.06,0.56-0.78,0.98-1.37,0.8l-0.19-0.06c-0.35-0.1-0.55-0.39-0.51-0.71
					l1.81-14.82c0.07-0.61,0.89-1.02,1.48-0.75C3008.83,978.58,3008.98,978.83,3008.95,979.11z"/>
				<path class="st45" d="M2995.7,957.56L2995.7,957.56c-0.62,0.2-0.84,0.87-0.41,1.22l10.25,8.21c0.24,0.19,0.61,0.22,0.93,0.07
					l0.12-0.06c0.55-0.25,0.71-0.86,0.3-1.18l-10.37-8.15C2996.32,957.5,2996,957.46,2995.7,957.56"/>
				<path class="st43" d="M2995.7,957.56L2995.7,957.56c-0.62,0.2-0.84,0.87-0.41,1.22l10.25,8.21c0.24,0.19,0.61,0.22,0.93,0.07
					l0.12-0.06c0.55-0.25,0.71-0.86,0.3-1.18l-10.37-8.15C2996.32,957.5,2996,957.46,2995.7,957.56z"/>
				<path class="st45" d="M3014.43,977.51L3014.43,977.51c-0.54-0.33-1.29,0.01-1.36,0.64l-1.62,14.74
					c-0.04,0.34,0.15,0.66,0.47,0.8l0.12,0.05c0.55,0.24,1.2-0.12,1.26-0.7l1.5-14.79C3014.83,977.95,3014.69,977.67,3014.43,977.51
					"/>
				<path class="st43" d="M3014.43,977.51L3014.43,977.51c-0.54-0.33-1.29,0.01-1.36,0.64l-1.62,14.74
					c-0.04,0.34,0.15,0.66,0.47,0.8l0.12,0.05c0.55,0.24,1.2-0.12,1.26-0.7l1.5-14.79C3014.83,977.95,3014.69,977.67,3014.43,977.51
					z"/>
			</g>
		</g>
	</g>
	<g id="_x34__1_">
		<g>
			<defs>
				
					<rect id="SVGID_53_" x="3697.7" y="585.33" transform="matrix(0.9397 -0.342 0.342 0.9397 -11.2374 1348.6028)" width="241.67" height="241.67"/>
			</defs>
			<clipPath id="SVGID_54_">
				<use xlink:href="#SVGID_53_"  style="overflow:visible;"/>
			</clipPath>
			<g class="st47">
				<defs>
					<path id="SVGID_55_" d="M3763.38,613.4l3.07-0.05c0.82-0.01,1.5,0.38,1.76,1.01l9.91,24.64l-4.15,0.58
						c-1,0.14-1.99,0.37-2.96,0.69l-3.76,1.24c-0.36,0.12-0.72,0.25-1.07,0.39l-2.69,1.06c-1.76,0.69-3.43,1.57-4.98,2.6l-3.83,2.57
						l-9.53-25.41c0.85-1.93,2.33-3.67,4.24-5.01l0.07-0.05c1.2-0.84,2.5-1.56,3.88-2.13c0.39-0.16,0.77-0.31,1.17-0.45
						C3757.37,614.03,3760.39,613.46,3763.38,613.4"/>
				</defs>
				<clipPath id="SVGID_56_">
					<use xlink:href="#SVGID_55_"  style="overflow:visible;"/>
				</clipPath>
				
					<linearGradient id="SVGID_57_" gradientUnits="userSpaceOnUse" x1="1175.823" y1="1472.7745" x2="1177.1412" y2="1472.7745" gradientTransform="matrix(-23.1616 -14.6125 14.6125 -23.1616 9490.3408 51932.9727)">
					<stop  offset="0" style="stop-color:#FFFFFF"/>
					<stop  offset="1" style="stop-color:#FFFFFF"/>
				</linearGradient>
				<polygon class="st48" points="3788.47,623.41 3754.5,601.98 3733.61,635.09 3767.58,656.52 				"/>
			</g>
			<g class="st47">
				<defs>
					
						<rect id="SVGID_58_" x="3697.7" y="585.33" transform="matrix(0.9397 -0.342 0.342 0.9397 -11.2374 1348.6028)" width="241.67" height="241.67"/>
				</defs>
				<clipPath id="SVGID_59_">
					<use xlink:href="#SVGID_58_"  style="overflow:visible;"/>
				</clipPath>
				<path class="st49" d="M3778.11,639l-9.91-24.64c-0.25-0.63-0.94-1.03-1.76-1.01l-3.07,0.05c-3.39,0.06-6.83,0.79-10.05,2.12
					c-1.38,0.57-2.68,1.29-3.88,2.13l-0.07,0.05c-1.91,1.34-3.39,3.09-4.24,5.01l9.53,25.41l3.83-2.57c1.55-1.04,3.22-1.91,4.98-2.6
					l2.69-1.06c0.35-0.14,0.71-0.27,1.07-0.39l3.76-1.24c0.97-0.32,1.96-0.55,2.96-0.69L3778.11,639z"/>
				<path class="st49" d="M3778.39,639.48l34.7,87.2l0,0.01l2.45,7.72l0.34,1.08c0.02,0.07-0.06,0.15-0.15,0.14l0,0
					c-3.18-0.42-6.55-0.07-9.75,1.01l-2.84,0.96l-0.61,0.23l-5.84,2.32c-1.5,0.59-2.93,1.34-4.25,2.22
					c-0.65,0.44-1.16,1.01-1.46,1.65l-0.45,0.96c-0.04,0.09-0.19,0.1-0.22,0.02l-36.06-94.41c-0.16-0.42-0.15-0.88,0.04-1.33
					c0.28-0.69,0.79-1.31,1.46-1.79l2.06-1.47c1.78-1.27,3.77-2.3,5.87-3.04c0.26-0.1,0.51-0.19,0.77-0.29l3.9-1.56
					c0.58-0.2,1.16-0.41,1.74-0.61l0.55-0.17c1.27-0.38,5.25-1.12,6.55-1.2l1.08,0.25C3778.3,639.41,3778.35,639.45,3778.39,639.48z
					"/>
				<path class="st49" d="M3795.96,755.63l-5.06-10.78c0.4-0.95,1.15-1.81,2.12-2.44l1.63-1.05c3.07-1.53,4.1-1.83,5.25-2.27
					l7.28-2.62c3.58-0.93,4.85-1.17,7.19-0.83l1.08,0.16l3.62,11.87c0.05,0.15-0.1,0.31-0.29,0.32l-3.82,0.13
					c-1.37,0.05-2.76,0.27-4.11,0.66l-4.69,1.35c-0.82,0.24-1.62,0.52-2.4,0.86l-1.72,0.74c-1.69,0.73-3.25,1.72-4.56,2.92
					l-1.11,1.01C3796.25,755.79,3796.03,755.77,3795.96,755.63z"/>
			</g>
			<g class="st47">
				<defs>
					<path id="SVGID_60_" d="M3756.55,655.1c0.95,0.09,1.7,0.61,1.98,1.37l0.08,0.22l0.04,0.46c0.06,0.68-0.31,1.38-0.98,1.86
						l-1.62-4.04L3756.55,655.1z"/>
				</defs>
				<clipPath id="SVGID_61_">
					<use xlink:href="#SVGID_60_"  style="overflow:visible;"/>
				</clipPath>
				
					<linearGradient id="SVGID_62_" gradientUnits="userSpaceOnUse" x1="975.8255" y1="1416.7988" x2="977.1438" y2="1416.7988" gradientTransform="matrix(-10.19 2.0029 -2.0029 -10.19 16540.0762 13139.2393)">
					<stop  offset="0" style="stop-color:#000000"/>
					<stop  offset="0.1413" style="stop-color:#000000"/>
					<stop  offset="1" style="stop-color:#000000"/>
				</linearGradient>
				<polygon class="st50" points="3758.42,654.22 3756.01,654.69 3756.89,659.19 3759.31,658.72 				"/>
			</g>
			<g class="st47">
				<defs>
					
						<rect id="SVGID_63_" x="3697.7" y="585.33" transform="matrix(0.9397 -0.342 0.342 0.9397 -11.2374 1348.6028)" width="241.67" height="241.67"/>
				</defs>
				<clipPath id="SVGID_64_">
					<use xlink:href="#SVGID_63_"  style="overflow:visible;"/>
				</clipPath>
				<path class="st51" d="M3756.06,654.97l0.49,0.14c0.95,0.09,1.7,0.61,1.98,1.37l0.08,0.22l0.04,0.46
					c0.06,0.68-0.31,1.38-0.98,1.86L3756.06,654.97z"/>
				<path class="st52" d="M3816.5,748.56l6.32,17.46l-5.98,1.32c-0.61,0.13-1.21,0.3-1.79,0.51l-2.64,0.92
					c-1.29,0.45-2.52,1.02-3.68,1.72l-3.87,2.33l-4.24-10.77l-2.84-7.23c-0.07-0.18,0.02-0.39,0.22-0.52l2.12-1.34
					c0.48-0.26,0.96-0.5,1.46-0.72l4.01-1.56c0.24-0.1,0.48-0.2,0.72-0.28l5.04-1.7c1.02-0.34,2.09-0.46,3.1-0.35L3816.5,748.56z"/>
				<path class="st53" d="M3827.79,800.16c0.56-0.22,1.05,0.22,1.43,0.56c2.56,2.28,12.95,10.31,23.74,1.07
					c12.43-10.65,0.97-55.56-5.2-64.81c-5.17-7.75-19.66-24.11-20.96-29.04c-1.3-4.93-0.11-16.25,12.11-14.87
					c12.22,1.37,2.32,5.05,2.32,5.05s-4.93-1.93-6.98,0.75c-2.05,2.68-2.76,6.4,0.44,11.97c3.2,5.57,13.31,14.74,19.14,24.88
					c4.68,8.13,15.25,44.98,7.8,62.62c0,0-8.26,13.42-20.29,12.36c-13.2-1.16-15.81-6.72-17.61-8.59c-0.08-0.08-0.03-0.21,0.09-0.26
					L3827.79,800.16z"/>
				<path class="st53" d="M3798.28,763.35l2.29-1.26l-2.21-5.76l-0.55,0.82c-0.44,0.58-0.63,1.26-0.52,1.89l0.7,4.22
					C3798.01,763.37,3798.16,763.42,3798.28,763.35"/>
				<path class="st51" d="M3798.28,763.35l2.29-1.26l-2.21-5.76l-0.55,0.82c-0.44,0.58-0.63,1.26-0.52,1.89l0.7,4.22
					C3798.01,763.37,3798.16,763.42,3798.28,763.35z"/>
				<path class="st52" d="M3822.89,766.27l1.81,4.23c0.31,0.69,0.55,1.42,0.72,2.16l1.54,7.16c0.03,0.16-0.09,0.32-0.28,0.38
					l-6.44,1.83c-1.01,0.29-2,0.67-2.94,1.14l-6.04,2.99c-0.17,0.08-0.36,0.05-0.44-0.08l-2.72-4.74c-0.46-0.73-0.94-1.68-1.22-2.48
					l-1.93-5.91l4.23-2.61c0.73-0.46,1.52-0.84,2.34-1.13l2.97-1.05c1.16-0.41,2.35-0.7,3.55-0.87L3822.89,766.27z"/>
				<path class="st54" d="M3831.9,687.44L3831.9,687.44c0.13,1.8-1.18,3.62-3.21,4.46l-25.09,10.32l-11.08-26.2l24.64-9.61
					c2.07-0.81,4.34-0.56,5.81,0.62l0.1,0.18l3.1,7.16L3831.9,687.44z"/>
				<path class="st52" d="M3831.9,687.44L3831.9,687.44c0.13,1.8-1.18,3.62-3.21,4.46l-25.09,10.32l-11.08-26.2l24.64-9.61
					c2.07-0.81,4.34-0.56,5.81,0.62l0.1,0.18l3.1,7.16L3831.9,687.44z"/>
				<path class="st52" d="M3829.6,797.3l-3.29-16.6l-5.17,1.4c-1.53,0.42-3.02,0.99-4.44,1.71l-5.03,2.56l9.04,14.2
					c0.08,0.12,0.27,0.15,0.42,0.07l2.92-1.57c0.6-0.32,1.24-0.57,1.9-0.72l3.45-0.82C3829.54,797.5,3829.62,797.4,3829.6,797.3z"/>
				<path class="st54" d="M3770.68,673.91l3.12,9.13c0.1,0.28,0.46,0.41,0.8,0.28l5.64-2.02c0.46-0.16,0.92-0.3,1.39-0.42l10.6-2.58
					c0.91-0.22,1.7-0.79,2.12-1.54l0.51-0.9c0.47-0.84,0.56-1.75,0.24-2.55l-2.72-6.8c-0.32-0.81-1.2-1.33-2.25-1.33
					c-1.06,0-2.15,0.16-3.2,0.48l-5.54,1.68c-0.21,0.06-0.4,0.2-0.51,0.37l-1.08,1.61c-0.07,0.11-0.19,0.2-0.32,0.26l-8.31,3.44
					C3770.79,673.19,3770.57,673.57,3770.68,673.91"/>
				<path class="st52" d="M3770.68,673.91l3.12,9.13c0.1,0.28,0.46,0.41,0.8,0.28l5.64-2.02c0.46-0.16,0.92-0.3,1.39-0.42l10.6-2.58
					c0.91-0.22,1.7-0.79,2.12-1.54l0.51-0.9c0.47-0.84,0.56-1.75,0.24-2.55l-2.72-6.8c-0.32-0.81-1.2-1.33-2.25-1.33
					c-1.06,0-2.15,0.16-3.2,0.48l-5.54,1.68c-0.21,0.06-0.4,0.2-0.51,0.37l-1.08,1.61c-0.07,0.11-0.19,0.2-0.32,0.26l-8.31,3.44
					C3770.79,673.19,3770.57,673.57,3770.68,673.91z"/>
				<path class="st54" d="M3789.43,717.69c-0.64,0.18-1.3,0.01-1.61-0.45c-1.97-2.84-3.86-7.48-3.86-7.48
					c-0.14-0.43,0.13-0.92,0.63-1.16l5.42-2.62c1.21-0.59,2.48-1.06,3.78-1.42l8.21-2.27c0.85-0.23,1.71-0.4,2.57-0.5l2.6-0.3
					c1.24-0.15,2.34,0.41,2.72,1.36l2.97,7.48c0.29,0.74-0.2,1.62-1.11,1.98l-3.78,1.52l-7.46,2.76c-0.08,0.02-0.16,0.02-0.24,0
					l-3.34-0.98c-0.07-0.02-0.15-0.01-0.22,0.02L3789.43,717.69z"/>
				<path class="st52" d="M3789.43,717.69c-0.64,0.18-1.3,0.01-1.61-0.45c-1.97-2.84-3.86-7.48-3.86-7.48
					c-0.14-0.43,0.13-0.92,0.63-1.16l5.42-2.62c1.21-0.59,2.48-1.06,3.78-1.42l8.21-2.27c0.85-0.23,1.71-0.4,2.57-0.5l2.6-0.3
					c1.24-0.15,2.34,0.41,2.72,1.36l2.97,7.48c0.29,0.74-0.2,1.62-1.11,1.98l-3.78,1.52l-7.46,2.76c-0.08,0.02-0.16,0.02-0.24,0
					l-3.34-0.98c-0.07-0.02-0.15-0.01-0.22,0.02L3789.43,717.69z"/>
				<path class="st54" d="M3795.67,666.67l2.01,5.21c0.06,0.17-0.04,0.36-0.24,0.45l-10.05,4.6c-1.06,0.49-2.27,0.15-2.62-0.73
					l-1.66-4.18c-0.44-1.1,0.43-2.42,1.84-2.79l10.26-2.74C3795.42,666.44,3795.61,666.51,3795.67,666.67"/>
				<path class="st52" d="M3795.67,666.67l2.01,5.21c0.06,0.17-0.04,0.36-0.24,0.45l-10.05,4.6c-1.06,0.49-2.27,0.15-2.62-0.73
					l-1.66-4.18c-0.44-1.1,0.43-2.42,1.84-2.79l10.26-2.74C3795.42,666.44,3795.61,666.51,3795.67,666.67z"/>
				<path class="st54" d="M3802.37,712.3l11.38-4.48c0.38-0.15,0.61-0.51,0.51-0.84l-1.26-4.37c-0.04-0.13-0.19-0.2-0.35-0.17
					l-12.64,2.56c-1.4,0.28-2.32,1.55-1.94,2.64l1.27,3.63C3799.71,712.35,3801.09,712.81,3802.37,712.3"/>
				<path class="st52" d="M3802.37,712.3l11.38-4.48c0.38-0.15,0.61-0.51,0.51-0.84l-1.26-4.37c-0.04-0.13-0.19-0.2-0.35-0.17
					l-12.64,2.56c-1.4,0.28-2.32,1.55-1.94,2.64l1.27,3.63C3799.71,712.35,3801.09,712.81,3802.37,712.3z"/>
				<path class="st54" d="M3764.97,617.47l1.39-0.12c1.52-0.13,2.98,0.19,4.12,0.9l-1.76-4.21l-1.95,0.09
					c-1.92,0.09-3.85,0.37-5.75,0.84l-1.28,0.32c-1.29,0.32-2.56,0.72-3.81,1.19l-0.54,0.2c-3.11,1.18-5.98,2.86-8.44,4.95
					l-2.13,1.81l1.26,3.43l1.17-1.5c1.06-1.36,2.44-2.54,4.03-3.46c1.05-0.61,3.72-1.83,3.72-1.83l8.99,22.67l5.22-1.89l-9.06-22.63
					l2.51-0.45C3763.43,617.64,3764.2,617.54,3764.97,617.47"/>
				<path class="st52" d="M3764.97,617.47l1.39-0.12c1.52-0.13,2.98,0.19,4.12,0.9l-1.76-4.21l-1.95,0.09
					c-1.92,0.09-3.85,0.37-5.75,0.84l-1.28,0.32c-1.29,0.32-2.56,0.72-3.81,1.19l-0.54,0.2c-3.11,1.18-5.98,2.86-8.44,4.95
					l-2.13,1.81l1.26,3.43l1.17-1.5c1.06-1.36,2.44-2.54,4.03-3.46c1.05-0.61,3.72-1.83,3.72-1.83l8.99,22.67l5.22-1.89l-9.06-22.63
					l2.51-0.45C3763.43,617.64,3764.2,617.54,3764.97,617.47z"/>
				<path class="st54" d="M3844.66,663.15L3844.66,663.15c-2.72-0.97-5.94-0.86-8.9,0.3l-0.71,0.28c-2.58,1.01-4.77,2.73-6.17,4.85
					l-0.64,0.96c-0.82,1.25-0.99,2.67-0.46,3.88l5.53,12.45l19.01-7.84l-5.44-12.88C3846.51,664.24,3845.71,663.53,3844.66,663.15"
					/>
				<path class="st52" d="M3844.66,663.15L3844.66,663.15c-2.72-0.97-5.94-0.86-8.9,0.3l-0.71,0.28c-2.58,1.01-4.77,2.73-6.17,4.85
					l-0.64,0.96c-0.82,1.25-0.99,2.67-0.46,3.88l5.53,12.45l19.01-7.84l-5.44-12.88C3846.51,664.24,3845.71,663.53,3844.66,663.15z"
					/>
				<polygon class="st54" points="3856.18,694.68 3849.15,679.35 3835.53,684.97 3842.48,700.51 				"/>
				<polygon class="st52" points="3856.18,694.68 3849.15,679.35 3835.53,684.97 3842.48,700.51 				"/>
				<path class="st51" d="M3828.5,797.74l0.47,2.12c0.01,0.05-0.03,0.1-0.09,0.11l-1.58,0.27c-1,0.17-1.97,0.56-2.8,1.14l-1.11,0.77
					c-0.09,0.07-0.23,0.06-0.28-0.02l-1.35-1.82l1.58-0.85c0.5-0.26,1.75-0.98,2.31-1.03L3828.5,797.74z"/>
				<path class="st54" d="M3797.7,695.77l-4.6-11.46c-0.35-0.88,0.03-1.94,0.96-2.62l10.96-8.02c2.37-1.73,5.13-3,8.03-3.7
					l11.9-2.86l8.58,19l-11,6.3c-2.27,1.3-4.79,2.17-7.37,2.53l-14.81,2.1C3799.15,697.21,3798.07,696.69,3797.7,695.77"/>
				<path class="st52" d="M3797.7,695.77l-4.6-11.46c-0.35-0.88,0.03-1.94,0.96-2.62l10.96-8.02c2.37-1.73,5.13-3,8.03-3.7
					l11.9-2.86l8.58,19l-11,6.3c-2.27,1.3-4.79,2.17-7.37,2.53l-14.81,2.1C3799.15,697.21,3798.07,696.69,3797.7,695.77z"/>
				<path class="st53" d="M3788.1,672.2l11.45,8.76c0.43,0.33,0.27,0.98-0.31,1.24l-0.18,0.08c-0.34,0.15-0.72,0.12-0.97-0.07
					l-11.27-8.85c-0.46-0.36-0.22-1.07,0.43-1.28C3787.56,671.99,3787.88,672.03,3788.1,672.2"/>
				<path class="st51" d="M3788.1,672.2l11.45,8.76c0.43,0.33,0.27,0.98-0.31,1.24l-0.18,0.08c-0.34,0.15-0.72,0.12-0.97-0.07
					l-11.27-8.85c-0.46-0.36-0.22-1.07,0.43-1.28C3787.56,671.99,3787.88,672.03,3788.1,672.2z"/>
				<path class="st53" d="M3807.24,691.28l-1.63,14.88c-0.06,0.56-0.78,0.98-1.37,0.8l-0.19-0.06c-0.35-0.1-0.55-0.39-0.51-0.71
					l1.81-14.82c0.07-0.61,0.89-1.02,1.48-0.75C3807.12,690.74,3807.27,691,3807.24,691.28"/>
				<path class="st51" d="M3807.24,691.28l-1.63,14.88c-0.06,0.56-0.78,0.98-1.37,0.8l-0.19-0.06c-0.35-0.1-0.55-0.39-0.51-0.71
					l1.81-14.82c0.07-0.61,0.89-1.02,1.48-0.75C3807.12,690.74,3807.27,691,3807.24,691.28z"/>
				<path class="st53" d="M3794,669.73L3794,669.73c-0.62,0.2-0.85,0.87-0.41,1.22l10.25,8.21c0.24,0.19,0.61,0.22,0.93,0.07
					l0.12-0.06c0.55-0.25,0.71-0.86,0.3-1.18l-10.37-8.15C3794.61,669.67,3794.29,669.63,3794,669.73"/>
				<path class="st51" d="M3794,669.73L3794,669.73c-0.62,0.2-0.85,0.87-0.41,1.22l10.25,8.21c0.24,0.19,0.61,0.22,0.93,0.07
					l0.12-0.06c0.55-0.25,0.71-0.86,0.3-1.18l-10.37-8.15C3794.61,669.67,3794.29,669.63,3794,669.73z"/>
				<path class="st53" d="M3812.72,689.68L3812.72,689.68c-0.54-0.33-1.29,0.01-1.36,0.64l-1.62,14.74
					c-0.04,0.34,0.15,0.66,0.47,0.8l0.12,0.05c0.55,0.24,1.2-0.12,1.26-0.7l1.5-14.79C3813.13,690.12,3812.98,689.84,3812.72,689.68
					"/>
				<path class="st51" d="M3812.72,689.68L3812.72,689.68c-0.54-0.33-1.29,0.01-1.36,0.64l-1.62,14.74
					c-0.04,0.34,0.15,0.66,0.47,0.8l0.12,0.05c0.55,0.24,1.2-0.12,1.26-0.7l1.5-14.79C3813.13,690.12,3812.98,689.84,3812.72,689.68
					z"/>
			</g>
		</g>
	</g>
</g>
<g id="Layer_7">
	<g>
		<g>
			<defs>
				<rect id="SVGID_65_" x="-182.29" y="1307.46" width="1244.4" height="1244.4"/>
			</defs>
			<clipPath id="SVGID_66_">
				<use xlink:href="#SVGID_65_"  style="overflow:visible;"/>
			</clipPath>
			<g class="st55">
				<defs>
					<rect id="SVGID_67_" x="-182.29" y="1307.46" width="1244.4" height="1244.4"/>
				</defs>
				<clipPath id="SVGID_68_">
					<use xlink:href="#SVGID_67_"  style="overflow:visible;"/>
				</clipPath>
				<polygon class="st57" points="432.94,1705.28 625.25,1955.99 773.38,2203.42 				"/>
				<path class="st57" d="M91.73,1760.03c-1.33-6.74-5.23-12.79-11.06-16.42c-7.58-4.73-14.37-2.74-18.84-2.5
					c-0.67,0.04-1.17,0.64-1.05,1.3l65.41,372.41l-69.56,364.81h37.4l64.97-325.53l257.51,2.34l8.32,323.01l36.41-0.41l-15.72-362.1
					l-279.07,0.27L91.73,1760.03z"/>
				<path class="st58" d="M271.63,1503.03l2.96-0.45c1.8-0.27,3.62,0.38,4.85,1.74l388.84,429l38.71,96.79"/>
				<polygon class="st57" points="536.44,2361.07 533.19,2388.47 484.95,2385.66 472.67,2379.02 501.44,2339.57 				"/>
				<path class="st57" d="M626.11,1966.25l35.51-32.22c0.15-0.14,0-0.39-0.19-0.32l-44.98,17.29c-0.63,0.24-0.87,1.01-0.5,1.58
					l8.85,13.5C625.1,1966.53,625.72,1966.61,626.11,1966.25z"/>
				<path class="st57" d="M566.33,1898.46l-84.95,60.76c-0.36,0.26-0.87,0.15-1.09-0.23l-109.13-184.22
					c-1.15-1.94-0.93-4.4,0.55-6.09l44.65-44.26c1.8-2.06,4.76-6.47,5.41-9.14l-2.21-12.05c-0.16-0.89-0.09-1.8,0.22-2.65l3.96-9.83
					l142.74,206.75C566.71,1897.8,566.64,1898.23,566.33,1898.46z"/>
				<polygon class="st57" points="727.83,2226.02 871.74,2474.97 716.23,2236.75 				"/>
				<path class="st57" d="M650.92,2020.41l-92.18,65.72c-0.32,0.22-0.39,0.67-0.17,0.98l129.63,185.92c0.23,0.33,0.7,0.4,1.01,0.14
					l84.28-68.68c0.28-0.23,0.34-0.64,0.14-0.95L651.9,2020.59C651.68,2020.26,651.24,2020.18,650.92,2020.41z"/>
				<polygon class="st57" points="565.41,1899.12 649.16,2021.66 563.83,2082.49 483.94,1957.38 				"/>
				<path class="st57" d="M275.44,1505.15l327.8,361.28l-16.79-2.31c-2.04,0.1-4.03-0.7-5.44-2.2l-140.8-149.54l-30.85-22.21
					l-146.19-173.59L275.44,1505.15z"/>
				<polygon class="st57" points="467.31,2370.9 453.1,2387.33 404.86,2384.51 392.57,2377.88 421.34,2338.42 				"/>
				<path class="st57" d="M516.97,2019.6l36.12,21.49c6.97,1.05,44.95,28.89,44.95,71.43c0,112.83-55.46,256.11-55.46,256.11
					c-0.85,2.57-94.2-34.57-94.2-34.57c-1.87-1.05,41.61-137.2,41.61-137.2c2.59-4.06-9-59.94-9-59.94
					c-2.95-40.49-28.89-62.96-37.46-64.45c-66.67-11.55-185.97-6.07-185.97-6.07c-1.88-0.03-25.21,13.62-36.83,4.58
					c-12.07-9.39-13.9-29.45-13.9-29.45l37.03-75.09l175.38,27.97C452.75,1996.65,486.93,2005.97,516.97,2019.6z"/>
				<path class="st57" d="M473.16,2378.36l-16.16,16.5c-2.55,1.65-2.24-3.08-4.06-0.78c0,0-12.94,12.5-13.29,22.96l-0.17,5.1
					c-0.11,3.17,2.09,6.03,5.41,7.05l39.32,12.02l50.43,12.28c3.28,0.8,0.23,11.26,3.19,12.76l23.52,1.01
					c2.22,0.09,4.38,0.66,6.3,1.65c8.42,4.33,18.02,6.41,27.7,6l5.17-0.22c6.4-0.27,12.46-2.73,16.95-6.87l0.47-0.43
					c2.4-2.22,3.43-5.38,2.74-8.42l-0.33-1.47c-0.69-3.05-2.92-5.64-6.03-7l-43.92-19.17c-4.28-1.87-8-4.65-10.83-8.11L546.28,2407
					c-1.45-1.77-2.52-3.76-3.16-5.88l-3.83-12.65l-41.38-1.92c-4.01-0.19-7.94-1.08-11.58-2.61L473.16,2378.36z"/>
				<path class="st57" d="M409.48,1975.96l110.55,27.3c6.97,1.09,58.2,21.01,86.38,56.39c14.51,18.22,19.38,41.31,14.47,63.31
					l-24.26,63.42c-14.47,37.81-32.81,74.32-54.79,109.05l-64.66,84.63c-2.57,4.6-75.61-45.75-75.61-45.75
					c-1.87-1.09,11.03-21.87,12.11-23.62l86.12-159.17c5.59-20.25,3.71-27.77,0-33.86c-6.67-10.95-79.26-22.47-87.91-21.21
					c-74.72,10.85-205.21,6.16-205.21,6.16c-1.88-0.03-17.67,4.8-38.7-8.2c-13.2-8.16-8.84-63.65-8.84-63.65l226.84-37.26
					L409.48,1975.96z"/>
				<path class="st59" d="M479.75,1961.41l-2.65-7.12l288.81-107.64l0.2,0.55c1.35,3.63-0.49,7.67-4.12,9.02L479.75,1961.41z"/>
				<path class="st57" d="M417.4,1959.83l45.01,18.27c0.58,0.25,1.06,0.69,1.35,1.25l11.64,22.37c2.06,2.33,5.28,3.28,8.29,2.45
					l12.22-3.4c5.91-1.64,11.18-4.99,15.13-9.62l11.11-13c1.81-2.12,2.3-5.04,1.29-7.63l-5.63-14.42c-1.29-3.31-9.1-4.26-11.74-6.66
					l-3.71-10.61c-1.6-1.45-3.59-2.41-5.72-2.78l-30.39-9.05c-0.8-0.13-15.18-9.16-15.18-9.16L417.4,1959.83z"/>
				<path class="st57" d="M466,2096.21l0.41,7.87c0.13,2.45-0.51,4.9-1.92,6.9c-3.78,5.38-10.15,5.95-12.71,5.95l-285.32,0.27
					l-3.86-18.15L466,2096.21z"/>
				<path class="st57" d="M394.49,2366.14l-12.53,15.74c-2.55,1.65-7.31,8.74-9.13,11.04c0,0-12.94,12.5-13.29,22.96l-0.17,5.1
					c-0.11,3.17,2.09,6.03,5.41,7.05l39.32,12.02l50.43,12.28c3.28,0.8,6.43,1.96,9.39,3.46l20.68,10.46l2.93,1.51
					c8.42,4.33,18.02,6.41,27.7,6l5.17-0.22c6.4-0.27,12.46-2.73,16.95-6.87l0.47-0.43c2.4-2.22,3.43-5.38,2.74-8.42l-0.33-1.47
					c-0.69-3.05-2.92-5.64-6.03-7l-43.92-19.17c-4.28-1.87-8-4.65-10.83-8.11l-13.28-16.23c-1.45-1.77-2.52-3.76-3.16-5.88
					l-3.83-12.65l-27.87-3.61c-1.73-0.08-5.47-0.92-9.47-1.96c-8.11-2.13-15.39-6.64-20.92-12.94l-2.43-2.77
					C397.42,2364.82,395.5,2364.87,394.49,2366.14z"/>
				<path class="st57" d="M241.87,1460.07c2.56-2.71,5.14-11.09,2.64-18.59c-2.8-8.42-10.97-13.88-20.35-14.56
					c-15-1.09-29.04,16.04-25.33,30.86c3.05,12.17,9.77,20.03,22.41,30.93c9.07,7.82,29.68,11.31,33.77,32.21
					c0.53,2.72,1.66-3.27,8.73-5c1.01-0.24,12.28-10.02,11.7-10.78c-5.82-7.64-3.62-3.97-8.13-9.24
					c-7.07-8.26-22.4-13.58-26.88-14.14c-16.89-2.13-23.69-17.36-21.03-16.11C229.25,1470.28,236.98,1465.26,241.87,1460.07z"/>
				<line class="st57" x1="751.16" y1="2148.72" x2="773.34" y2="2203.06"/>
				<polygon class="st57" points="710.59,2024.68 700.21,2032.39 751.2,2149.41 				"/>
				<g id="Hlava" class="st60">
					<path class="st61" d="M247.19,1580.47l9.61-64.75c0.54-4.26,0.45-8.59-0.28-12.82c0,0-0.97-5.65-4.3-24.98
						c-0.37-2.14-0.86-28.67-1.03-38.04c-0.04-2.36,0.12-4.72,0.58-7.04c5.79-28.88,31.92-54.07,52.25-54.37l21.41-0.31
						c14.34,1.82,1.99-0.68,16.45,2.65c10.06,3.49,19.58,8.45,28.24,14.72c0.59,0.43,1.17,0.85,1.74,1.27
						c12.07,8.83,21.65,20.86,27.05,34.94c5.85,15.28,4.23,24.88,4.19,27.09l-0.17,11.41c-0.05,3.09,1.03,6.09,3.03,8.45
						c0,0,14.27,16.6,12.63,23.87c-1.25,5.51-12.57,3.85-12.57,3.85s-5.79,13.5-5.19,14.67l2.1,10.8c0.32,0.62,0.11,1.39-0.47,1.76
						l-5.99,3.82c-0.88,0.56-1.24,1.67-0.86,2.65l0.92,2.37c1.24,3.19,1.48,6.7,0.67,10.04l-0.43,1.78
						c-1.03,4.25-5.07,7.02-9.34,6.38l-7.78-1.16c-2.65-0.4-5.24-1.14-7.71-2.22l-17.81-7.79c-0.94-0.41-2.01,0.22-2.12,1.25
						l-11.34,70.88L247.19,1580.47z"/>
					<path class="st62" d="M316.77,1466.25l-2.44-4.49c-2.69-4.96-9.42-6.34-13.55-2.5c-0.18,0.16-0.35,0.34-0.52,0.52l-2.36,2.58
						c-3.62,3.95-5.73,9.06-5.94,14.42l-0.06,1.52c-0.35,8.67,3.99,16.85,11.35,21.43l2.39,1.49l10.49-5.09"/>
				</g>
				<path class="st57" d="M412.44,1980.42l-10.92-49.15c-0.73-3.29-1.15-6.64-1.27-10.01l-9.94-73.91
					c-1.64-12.21-2.29-24.53-1.92-36.84c0.59-19.39,1.67-43.53,1.04-65.29c-0.61-20.77-5.62-41.14-14.38-59.89
					c-1.77-3.78-3.45-7.6-4.93-11.5l-23.58-73.78c-0.31-0.98-1.04-1.78-1.99-2.18l-94.34-39.55c-0.93-0.39-2.02-0.13-2.67,0.65
					l-28.83,34.41l-11.75,14.85c-5.53,5.29-9.86,11.72-12.65,18.85c-11.99,30.61-18.23,65.17-20.82,84.07
					c-12.05,87.74-11.81,226.34-11.86,249.89c-0.02,7.44-1.22,35.89-1.92,43.3l-6.19,25.78c-0.25,2.63,1.59,5,4.17,5.33
					c28.14,3.64,177.59,10.04,213.08-11.52c0,0,24.7-15.65,36.94-27.46C411.96,1992.35,413.73,1986.24,412.44,1980.42z"/>
				<path class="st57" d="M218.72,1593.38c0,0-45.15,25.93-35.38,88.56c13.83,50.08,40.34,116.76,53.6,149.01
					c5.08,12.36,13.74,22.92,24.86,30.35l158.1,105.52l39.63-48.13L346.07,1814.9c-14.52-13.29-28.54-50.38-32.08-69.74"/>
			</g>
		</g>
	</g>
</g>
<g id="Floor">
	<line class="st63" x1="4.79" y1="2484.3" x2="4226.94" y2="2474.97"/>
	<line class="st64" x1="4.79" y1="2492.26" x2="4262.8" y2="2492.3"/>
</g>
</svg>
