<?xml version="1.0" encoding="utf-8"?>
<!-- Generator: Adobe Adobe Illustrator 24.2.0, SVG Export Plug-In . SVG Version: 6.00 Build 0)  -->
<svg version="1.1" xmlns="http://www.w3.org/2000/svg" xmlns:xlink="http://www.w3.org/1999/xlink" x="0px" y="0px" width="5000px"
	 height="2500px" viewBox="0 0 5000 2500" style="enable-background:new 0 0 5000 2500;" xml:space="preserve">
<style type="text/css">
	.st0{fill:none;stroke:#BDBDBD;stroke-width:20;stroke-linecap:round;stroke-linejoin:round;stroke-miterlimit:10;}
	.st1{clip-path:url(#SVGID_2_);}
	.st2{clip-path:url(#SVGID_4_);fill:#FFFFFF;stroke:#000000;stroke-miterlimit:10;}
	.st3{clip-path:url(#SVGID_4_);fill:#FFFFFF;}
	.st4{clip-path:url(#SVGID_6_);}
	.st5{clip-path:url(#SVGID_8_);fill:#FFFFFF;}
	.st6{clip-path:url(#SVGID_8_);fill:#FFFFFF;stroke:#000000;stroke-miterlimit:10;}
	.st7{clip-path:url(#SVGID_10_);}
	.st8{clip-path:url(#SVGID_12_);fill:#FFFFFF;stroke:#000000;stroke-miterlimit:10;}
	.st9{clip-path:url(#SVGID_12_);fill:#FFFFFF;}
	.st10{clip-path:url(#SVGID_14_);}
	.st11{clip-path:url(#SVGID_16_);fill:#FFFFFF;}
	.st12{clip-path:url(#SVGID_16_);fill:#FFFFFF;stroke:#000000;stroke-miterlimit:10;}
	.st13{clip-path:url(#SVGID_18_);}
	.st14{clip-path:url(#SVGID_20_);fill:url(#SVGID_21_);}
	.st15{clip-path:url(#SVGID_23_);fill:#FFFFFF;stroke:#000000;stroke-miterlimit:10;}
	.st16{clip-path:url(#SVGID_25_);fill:url(#SVGID_26_);}
	.st17{clip-path:url(#SVGID_28_);fill:none;stroke:#000000;stroke-miterlimit:10;}
	.st18{clip-path:url(#SVGID_28_);fill:#FFFFFF;stroke:#000000;stroke-miterlimit:10;}
	.st19{clip-path:url(#SVGID_28_);}
	.st20{clip-path:url(#SVGID_28_);fill:#FFFFFF;}
	.st21{clip-path:url(#SVGID_30_);}
	.st22{clip-path:url(#SVGID_32_);fill:url(#SVGID_33_);}
	.st23{clip-path:url(#SVGID_35_);fill:#FFFFFF;stroke:#000000;stroke-miterlimit:10;}
	.st24{clip-path:url(#SVGID_37_);fill:url(#SVGID_38_);}
	.st25{clip-path:url(#SVGID_40_);fill:none;stroke:#000000;stroke-miterlimit:10;}
	.st26{clip-path:url(#SVGID_40_);fill:#FFFFFF;stroke:#000000;stroke-miterlimit:10;}
	.st27{clip-path:url(#SVGID_40_);}
	.st28{clip-path:url(#SVGID_40_);fill:#FFFFFF;}
	.st29{clip-path:url(#SVGID_42_);}
	.st30{clip-path:url(#SVGID_44_);fill:url(#SVGID_45_);}
	.st31{clip-path:url(#SVGID_47_);fill:#FFFFFF;stroke:#000000;stroke-miterlimit:10;}
	.st32{clip-path:url(#SVGID_49_);fill:url(#SVGID_50_);}
	.st33{clip-path:url(#SVGID_52_);fill:none;stroke:#000000;stroke-miterlimit:10;}
	.st34{clip-path:url(#SVGID_52_);fill:#FFFFFF;stroke:#000000;stroke-miterlimit:10;}
	.st35{clip-path:url(#SVGID_52_);}
	.st36{clip-path:url(#SVGID_52_);fill:#FFFFFF;}
	.st37{clip-path:url(#SVGID_54_);}
	.st38{clip-path:url(#SVGID_56_);fill:url(#SVGID_57_);}
	.st39{clip-path:url(#SVGID_59_);fill:#FFFFFF;stroke:#000000;stroke-miterlimit:10;}
	.st40{clip-path:url(#SVGID_61_);fill:url(#SVGID_62_);}
	.st41{clip-path:url(#SVGID_64_);fill:none;stroke:#000000;stroke-miterlimit:10;}
	.st42{clip-path:url(#SVGID_64_);fill:#FFFFFF;stroke:#000000;stroke-miterlimit:10;}
	.st43{clip-path:url(#SVGID_64_);}
	.st44{clip-path:url(#SVGID_64_);fill:#FFFFFF;}
	.st45{clip-path:url(#SVGID_66_);}
	.st46{clip-path:url(#SVGID_68_);fill:#FFFFFF;}
	.st47{clip-path:url(#SVGID_68_);fill:#FFFFFF;stroke:#000000;stroke-width:2;stroke-miterlimit:10;}
	.st48{clip-path:url(#SVGID_68_);fill:none;stroke:#000000;stroke-width:2;stroke-miterlimit:10;}
	.st49{clip-path:url(#SVGID_68_);stroke:#000000;stroke-width:2;stroke-miterlimit:10;}
	.st50{fill:none;stroke:#000000;stroke-width:20;stroke-miterlimit:10;}
</style>
<g id="Asix_1_">
	<path id="asix" class="st1" x1="1406.69" y1="1386.41" x2="4554.63" y2="237.15"/>
</g>
<g id="Stands">
	<g id="_x31_">
		<g>
			<defs>
				<rect id="SVGID_1_" x="388.56" y="912.09" width="2433.7" height="2433.7"/>
			</defs>
			<clipPath id="SVGID_2_">
				<use xlink:href="#SVGID_1_"  style="overflow:visible;"/>
			</clipPath>
			<g class="st1">
				<defs>
					<rect id="SVGID_3_" x="428.56" y="912.09" width="2433.7" height="2433.7"/>
				</defs>
				<clipPath id="SVGID_4_">
					<use xlink:href="#SVGID_3_"  style="overflow:visible;"/>
				</clipPath>
				<path class="st2" d="M1639.12,1774.51l2.75,592.33l12.84,5.66l13.26-2.64l3.43-595.4l-9.08,1.09
					c-4.74,0.57-9.54,0.57-14.28,0.01L1639.12,1774.51z"/>
				<path class="st2" d="M1633.68,1710.81l-0.17,62.41l13.89,1.73c4.57,0.57,9.21,0.47,13.74-0.29l12.23-2.04l0.58-64.31
					c0-0.34-0.32-0.6-0.69-0.55l-12.18,1.59c-5.17,0.67-10.4,0.68-15.57,0.01l-8.59-1.11
					C1635.22,1708.03,1633.68,1709.24,1633.68,1710.81z"/>
				<path class="st3" d="M1633.32,2085.86l0.5,42.04c0.01,0.5,0.42,0.9,0.92,0.88l11.19,2.03c6.17,1.12,12.48,1.17,18.68,0.15
					l12.31-2.03c0.48-0.01-0.01-1.78,0-2.26l0.65-40.65c0.09-6.23-4.94-11.32-11.17-11.28l-22.28,0.12
					C1638.1,2074.91,1633.25,2079.84,1633.32,2085.86"/>
				<path class="st2" d="M1631.82,2085.86l0.5,42.04c0.01,0.5,0.42,0.9,0.92,0.88l11.19,2.03c6.17,1.12,12.48,1.17,18.68,0.15
					l12.31-2.03c0.48-0.01-0.01-1.78,0-2.26l0.65-40.65c0.09-6.23-4.94-11.32-11.17-11.28l-22.28,0.12
					C1636.6,2074.91,1631.75,2079.84,1631.82,2085.86z"/>
				<polygon class="st2" points="1669.91,2371.56 1874.2,2316.77 1888.88,2330.81 1668.67,2392.74 				"/>
				<polygon class="st2" points="1410.77,2330.73 1427.3,2315.64 1640.01,2363.53 1639.53,2382.13 				"/>
				<path class="st2" d="M1631.82,2106.95l-386.89,349.86l1.46,3.4c1.93,4.52,5.75,7.96,10.45,9.42l1.32,0.41l373.67-341.09V2106.95
					z"/>
				<path class="st2" d="M1676.07,2106.95l360.82,342.88l-0.52,1.48c-1.83,5.31-6.92,8.8-12.53,8.56l-348.42-333.19L1676.07,2106.95
					z"/>
				<path class="st2" d="M1671.5,2411.09l18.54-8.03c0.25-0.11,0.29-0.45,0.05-0.6l-18.76-12.26L1671.5,2411.09z"/>
				<path class="st2" d="M1644.15,1452.62v159.85l5.99,2.83c2.66,1.26,5.49,1.24,8.15-0.05l4.51-2.19l-0.74-160.6
					c0-0.33-0.19-0.56-0.39-0.47l-8.57,0.05l-8.46,0C1644.4,1451.92,1644.15,1452.21,1644.15,1452.62z"/>
				<path class="st2" d="M1642.16,2418.68l0.44,75.98c0.05,0.92,17.72,1.86,21.52,0.94l2.08-0.51l-1.03-76.62l-4.9,0.49
					c-5.53,0.54-11.69,0.48-17.06-0.16L1642.16,2418.68z"/>
				<path class="st2" d="M1639.87,1708.17l-0.24-22.99l10.06,1.28c2.33,0.3,4.69,0.3,7.02,0l10.02-1.28l-0.24,23.01l-10.32,1.35
					c-1.61,0.21-3.25,0.22-4.87,0.02L1639.87,1708.17z"/>
				<path class="st2" d="M1637.61,1609.13l-1.47,75.31l14.27,1.99c1.85,0.19,3.71,0.2,5.55,0.03l16-2.01l-1.85-74.58
					c-0.01-0.41-0.35-0.71-0.72-0.64l-16.21,2.61l-14.97-3.21C1637.9,1608.55,1637.61,1608.8,1637.61,1609.13z"/>
				<path class="st3" d="M1636.55,2414.97l8.28,3.52c5.66,2.4,12.07,2.38,17.7-0.08l10.53-4.58l-1.2-46.79
					c-0.03-1.05-1.14-1.71-2.07-1.25l-7.53,2.76c-4.27,1.56-8.93,1.72-13.3,0.48l-10.3-2.94c-0.73-0.33-1.55,0.19-1.56,0.98
					L1636.55,2414.97z"/>
				<path class="st2" d="M1635.05,2414.97l8.28,3.52c5.66,2.4,12.07,2.38,17.7-0.08l10.53-4.58l-1.2-46.79
					c-0.03-1.05-1.14-1.71-2.07-1.25l-7.53,2.76c-4.27,1.56-8.93,1.72-13.3,0.48l-10.3-2.94c-0.73-0.33-1.55,0.19-1.56,0.98
					L1635.05,2414.97z"/>
				<path class="st2" d="M1645.63,1452.07v-7.09c0-0.38,0.29-0.68,0.64-0.68l13.33,0.07c0.12,0,0.21,0.1,0.21,0.22v7.37
					L1645.63,1452.07z"/>
				<polygon class="st2" points="1648.37,1427.59 1648.64,1444.3 1657.45,1444.28 1657.2,1427.28 1652.95,1429.22 				"/>
				<path class="st2" d="M1645.63,1412.3l0.47,14.51l4.74,1.62c1.48,0.51,3.08,0.41,4.5-0.26l3.9-1.86l0.56-14.06h-6.38
					L1645.63,1412.3z"/>
				<polygon class="st2" points="1650.32,1403.72 1650.14,1410.74 1656.18,1410.59 1655.57,1403.62 				"/>
			</g>
		</g>
	</g>
	<g id="_x32_">
		<g>
			<defs>
				<rect id="SVGID_5_" x="1364.91" y="912.09" width="2433.7" height="2433.7"/>
			</defs>
			<clipPath id="SVGID_6_">
				<use xlink:href="#SVGID_5_"  style="overflow:visible;"/>
			</clipPath>
			<g class="st4">
				<defs>
					<rect id="SVGID_7_" x="1369.95" y="912.09" width="2433.7" height="2433.7"/>
				</defs>
				<clipPath id="SVGID_8_">
					<use xlink:href="#SVGID_7_"  style="overflow:visible;"/>
				</clipPath>
				<path class="st5" d="M2611.19,2365.79l-7.53,2.76c-4.27,1.56-8.93,1.72-13.3,0.48l-10.3-2.94c-0.73-0.33-1.55,0.19-1.56,0.98
					l-0.55,47.91l8.28,3.52c5.66,2.4,12.07,2.38,17.7-0.08"/>
				<path class="st6" d="M2577.1,1698.32l2.82,667.81l13.17,6.38l13.6-2.97l3.51-671.26l-9.31,1.23c-4.86,0.64-9.79,0.64-14.65,0.01
					L2577.1,1698.32z"/>
				<path class="st6" d="M2573.06,1626.5l-0.17,70.36l14.25,1.95c4.69,0.64,9.45,0.53,14.1-0.32l12.54-2.3l0.6-72.5
					c0-0.38-0.33-0.68-0.71-0.62l-12.5,1.8c-5.3,0.76-10.67,0.76-15.97,0.01l-8.81-1.25
					C2574.63,1623.37,2573.06,1624.73,2573.06,1626.5z"/>
				<path class="st6" d="M2571.72,2085.86l0.5,42.04c0.01,0.5,0.42,0.9,0.92,0.88l11.19,2.03c6.17,1.12,12.48,1.17,18.68,0.15
					l12.31-2.03c0.48-0.01-0.01-1.78,0-2.26l0.65-40.65c0.09-6.23-4.94-11.32-11.17-11.28l-22.28,0.12
					C2576.5,2074.91,2571.65,2079.84,2571.72,2085.86z"/>
				<polygon class="st6" points="2609.8,2371.56 2814.09,2316.77 2828.77,2330.81 2609.07,2393.74 				"/>
				<polygon class="st6" points="2350.66,2330.73 2367.19,2315.64 2579.9,2363.53 2579.43,2382.13 				"/>
				<path class="st6" d="M2571.72,2106.95l-386.89,349.86l1.46,3.4c1.93,4.52,5.75,7.96,10.45,9.42l1.32,0.41l373.67-341.09V2106.95
					z"/>
				<path class="st6" d="M2615.96,2106.95l360.82,342.88l-0.52,1.48c-1.83,5.31-6.92,8.8-12.53,8.56l-348.42-333.19L2615.96,2106.95
					z"/>
				<path class="st6" d="M2585.95,1102.11v-6.8c0-0.36,0.3-0.65,0.65-0.65l13.67,0.07c0.12,0,0.21,0.1,0.21,0.21v7.06
					L2585.95,1102.11z"/>
				<path class="st6" d="M2611.39,2411.09l18.54-8.03c0.25-0.11,0.29-0.45,0.05-0.6l-18.76-12.26L2611.39,2411.09z"/>
				<path class="st6" d="M2582.06,2407.19l0.44,79.45c0.05,0.96,17.72,1.95,21.52,0.99l2.08-0.53l-1.03-80.12l-4.9,0.51
					c-5.53,0.56-11.69,0.5-17.06-0.16L2582.06,2407.19z"/>
				<path class="st6" d="M2579.41,1623.53l-0.24-25.92l10.32,1.45c2.39,0.34,4.81,0.34,7.2,0l10.28-1.45l-0.24,25.94l-10.59,1.52
					c-1.65,0.24-3.33,0.25-4.99,0.02L2579.41,1623.53z"/>
				<path class="st6" d="M2584.42,1103.96v455.05l5.75,8.06c2.55,3.59,5.27,3.53,7.82-0.13l4.33-6.23l-0.72-457.21
					c0-0.93-0.19-1.59-0.38-1.32l-8.22-0.06l-8.13,0.19C2584.65,1101.97,2584.42,1102.8,2584.42,1103.96z"/>
				<path class="st6" d="M2585.95,1063.97l0.49,13.91l4.86,1.56c1.51,0.49,3.16,0.39,4.61-0.25l4-1.79l0.58-13.48h-6.55
					L2585.95,1063.97z"/>
				<path class="st6" d="M2577.09,1524.92l-1.5,72.2l14.64,1.9c1.9,0.18,3.8,0.19,5.69,0.02l16.41-1.93l-1.89-71.51
					c-0.01-0.39-0.36-0.68-0.74-0.62l-16.63,2.5l-15.36-3.08C2577.39,1524.36,2577.09,1524.6,2577.09,1524.92z"/>
				<path class="st6" d="M2574.94,2414.97l8.28,3.52c5.66,2.4,12.07,2.38,17.7-0.08l10.53-4.58l-1.2-46.79
					c-0.03-1.05-1.14-1.71-2.07-1.25l-7.53,2.76c-4.27,1.56-8.93,1.72-13.3,0.48l-10.3-2.94c-0.73-0.33-1.55,0.19-1.56,0.98
					L2574.94,2414.97z"/>
				<polygon class="st6" points="2588.76,1078.63 2589.04,1094.65 2598.08,1094.63 2598.03,1078.24 2593.46,1080.2 				"/>
				<polygon class="st6" points="2590.76,1055.74 2590.57,1062.48 2596.78,1062.33 2596.15,1055.65 				"/>
			</g>
		</g>
	</g>
	<g id="_x33_">
		<g>
			<defs>
				<rect id="SVGID_9_" x="2319.94" y="356.3" width="2433.7" height="2909.62"/>
			</defs>
			<clipPath id="SVGID_10_">
				<use xlink:href="#SVGID_9_"  style="overflow:visible;"/>
			</clipPath>
			<g class="st7">
				<defs>
					<rect id="SVGID_11_" x="2321.53" y="611.79" width="2433.7" height="2734"/>
				</defs>
				<clipPath id="SVGID_12_">
					<use xlink:href="#SVGID_11_"  style="overflow:visible;"/>
				</clipPath>
				<path class="st8" d="M3531.68,1698.32l2.82,667.81l13.17,6.38l13.6-2.97l3.51-671.26l-9.31,1.23
					c-4.86,0.64-9.79,0.64-14.65,0.01L3531.68,1698.32z"/>
				<path class="st8" d="M3527.64,1626.5l-0.17,70.36l14.25,1.95c4.69,0.64,9.45,0.53,14.1-0.32l12.54-2.3l0.6-72.5
					c0-0.38-0.33-0.68-0.71-0.62l-12.5,1.8c-5.3,0.76-10.67,0.76-15.97,0.01l-8.81-1.25
					C3529.21,1623.37,3527.64,1624.73,3527.64,1626.5z"/>
				<path class="st9" d="M3526.3,2085.86l0.5,42.04c0.01,0.5,0.42,0.9,0.92,0.88l11.19,2.03c6.17,1.12,12.48,1.17,18.68,0.15
					l12.31-2.03c0.48-0.01-0.01-1.78,0-2.26l0.65-40.65c0.09-6.23-4.94-11.32-11.17-11.28l-22.28,0.12
					C3531.07,2074.91,3526.23,2079.84,3526.3,2085.86"/>
				<path class="st8" d="M3526.3,2085.86l0.5,42.04c0.01,0.5,0.42,0.9,0.92,0.88l11.19,2.03c6.17,1.12,12.48,1.17,18.68,0.15
					l12.31-2.03c0.48-0.01-0.01-1.78,0-2.26l0.65-40.65c0.09-6.23-4.94-11.32-11.17-11.28l-22.28,0.12
					C3531.07,2074.91,3526.23,2079.84,3526.3,2085.86z"/>
				<polygon class="st8" points="3564.38,2371.56 3768.67,2316.77 3783.35,2330.81 3565.5,2392.74 				"/>
				<polygon class="st8" points="3305.24,2330.73 3321.77,2315.64 3534.48,2363.53 3534,2382.13 				"/>
				<path class="st8" d="M3526.3,2106.95l-386.89,349.86l1.46,3.4c1.93,4.52,5.75,7.96,10.45,9.42l1.32,0.41l373.67-341.09V2106.95z
					"/>
				<path class="st8" d="M3570.54,2106.95l360.82,342.88l-0.52,1.48c-1.83,5.31-6.92,8.8-12.53,8.56l-348.42-333.19L3570.54,2106.95
					z"/>
				<path class="st8" d="M3565.97,2411.09l18.54-8.03c0.25-0.11,0.29-0.45,0.05-0.6l-18.76-12.26L3565.97,2411.09z"/>
				<path class="st8" d="M3536.64,2414.19l0.44,78c0.05,0.94,17.72,1.91,21.52,0.97l2.08-0.52l-1.03-78.66l-4.9,0.5
					c-5.53,0.55-11.69,0.49-17.06-0.16L3536.64,2414.19z"/>
				<path class="st8" d="M3533.99,1623.53l-0.24-25.92l10.32,1.45c2.39,0.34,4.81,0.34,7.2,0l10.28-1.45l-0.24,25.94l-10.59,1.52
					c-1.65,0.24-3.33,0.25-4.99,0.02L3533.99,1623.53z"/>
				<path class="st8" d="M3539.29,755.28l-0.03,765.7l5.91,8.38c2.61,5.99,5.39,5.9,7.99-0.22l4.22-7.82l-0.52-766.83
					c0-1.55-1.05-0.12-1.24,0.33l-7.3,0.08l-8.04,0.01C3540.27,754.92,3539.29,753.35,3539.29,755.28z"/>
				<path class="st8" d="M3531.67,1524.92l-1.5,72.2l14.64,1.9c1.9,0.18,3.8,0.19,5.69,0.02l16.41-1.93l-1.89-71.51
					c-0.01-0.39-0.36-0.68-0.74-0.62l-16.63,2.5l-15.36-3.08C3531.97,1524.36,3531.67,1524.6,3531.67,1524.92z"/>
				<path class="st8" d="M3540.35,716.69l0.49,13.91l4.86,1.56c1.51,0.49,3.16,0.39,4.61-0.25l4-1.79l0.58-13.48h-6.55
					L3540.35,716.69z"/>
				<path class="st8" d="M3540.35,754.83v-6.8c0-0.36,0.3-0.65,0.65-0.65l13.67,0.07c0.12,0,0.21,0.1,0.21,0.21v7.06L3540.35,754.83
					z"/>
				<path class="st9" d="M3529.52,2414.97l8.28,3.52c5.66,2.4,12.07,2.38,17.7-0.08l10.53-4.58l-1.2-46.79
					c-0.03-1.05-1.14-1.71-2.07-1.25l-7.53,2.76c-4.27,1.56-8.93,1.72-13.3,0.48l-10.3-2.94c-0.73-0.33-1.55,0.19-1.56,0.98
					L3529.52,2414.97z"/>
				<path class="st8" d="M3529.52,2414.97l8.28,3.52c5.66,2.4,12.07,2.38,17.7-0.08l10.53-4.58l-1.2-46.79
					c-0.03-1.05-1.14-1.71-2.07-1.25l-7.53,2.76c-4.27,1.56-8.93,1.72-13.3,0.48l-10.3-2.94c-0.73-0.33-1.55,0.19-1.56,0.98
					L3529.52,2414.97z"/>
				<polygon class="st8" points="3543.17,731.35 3543.44,747.37 3552.48,747.35 3552.53,730.92 3547.86,732.92 				"/>
				<polygon class="st8" points="3545.17,708.47 3544.98,715.2 3551.18,715.05 3550.56,708.37 				"/>
			</g>
		</g>
	</g>
	<g id="_x34_">
		<g>
			<defs>
				<rect id="SVGID_13_" x="3272.24" y="-724.09" width="2433.7" height="3990"/>
			</defs>
			<clipPath id="SVGID_14_">
				<use xlink:href="#SVGID_13_"  style="overflow:visible;"/>
			</clipPath>
			<g class="st10">
				<defs>
					<rect id="SVGID_15_" x="3269.34" y="185.29" width="2433.7" height="3160"/>
				</defs>
				<clipPath id="SVGID_16_">
					<use xlink:href="#SVGID_15_"  style="overflow:visible;"/>
				</clipPath>
				<path class="st11" d="M4510.57,2365.29l-7.53,2.76c-4.27,1.56-8.93,1.72-13.3,0.48l-10.3-2.94c-0.73-0.33-1.55,0.19-1.56,0.98
					l-0.55,47.91l8.28,3.52c5.66,2.4,12.07,2.38,17.7-0.08"/>
				<path class="st11" d="M4507.18,2074.25l-22.28,0.12c-6.03,0.03-10.87,4.96-10.8,10.99"/>
				<path class="st11" d="M4474.1,2085.36l0.5,42.04c0.01,0.5,0.42,0.9,0.92,0.88l11.19,2.03c6.17,1.12,12.48,1.17,18.68,0.15
					l12.31-2.03"/>
				<path class="st12" d="M4476.73,1697.82l2.82,667.81l13.17,6.38l13.6-2.97l3.51-671.26l-9.31,1.23
					c-4.86,0.64-9.79,0.64-14.65,0.01L4476.73,1697.82z"/>
				<path class="st12" d="M4472.69,1626l-0.17,70.36l14.25,1.95c4.69,0.64,9.45,0.53,14.1-0.32l12.54-2.3l0.6-72.5
					c0-0.38-0.33-0.68-0.71-0.62l-12.5,1.8c-5.3,0.76-10.67,0.76-15.98,0.01l-8.81-1.25
					C4474.27,1622.87,4472.69,1624.23,4472.69,1626z"/>
				<path class="st12" d="M4471.35,2085.36l0.5,42.04c0.01,0.5,0.42,0.9,0.92,0.88l11.19,2.03c6.17,1.12,12.48,1.17,18.68,0.15
					l12.31-2.03c0.48-0.01-0.01-1.78,0-2.26l0.65-40.65c0.09-6.23-4.94-11.32-11.17-11.28l-22.28,0.12
					C4476.13,2074.41,4471.28,2079.34,4471.35,2085.36z"/>
				<polygon class="st12" points="4509.44,2371.06 4713.73,2316.27 4728.41,2330.31 4504.7,2393.24 				"/>
				<polygon class="st12" points="4250.3,2330.23 4266.83,2315.14 4479.54,2363.03 4479.06,2381.63 				"/>
				<path class="st12" d="M4471.35,2106.45l-386.89,349.86l1.46,3.4c1.93,4.52,5.75,7.96,10.45,9.42l1.32,0.41l373.67-341.09
					V2106.45z"/>
				<path class="st12" d="M4515.6,2106.45l360.82,342.88l-0.52,1.48c-1.83,5.31-6.92,8.8-12.53,8.56l-348.42-333.19L4515.6,2106.45z
					"/>
				<path class="st12" d="M4511.03,2410.59l18.54-8.03c0.25-0.11,0.29-0.45,0.05-0.6l-18.76-12.26L4511.03,2410.59z"/>
				<path class="st12" d="M4481.7,2406.23l0.44,80.39c0.05,0.97,17.72,1.97,21.52,1l2.08-0.54l-1.03-81.07l-4.9,0.52
					c-5.53,0.57-11.69,0.51-17.06-0.16L4481.7,2406.23z"/>
				<path class="st12" d="M4479.05,1623.03l-0.24-25.92l10.32,1.45c2.39,0.34,4.81,0.34,7.2,0l10.28-1.45l-0.24,25.94l-10.59,1.52
					c-1.65,0.24-3.33,0.25-4.99,0.02L4479.05,1623.03z"/>
				<path class="st12" d="M4484.35,433.64V1532.6l5.88,19.46c2.61,8.66,5.39,8.53,7.99-0.32l4.42-15.06l-0.73-1104.17
					c0-2.24-1.05-0.29-1.24,0.35l-6.79,0.11l-7.75,0.12C4485.89,432.3,4484.35,430.86,4484.35,433.64z"/>
				<path class="st12" d="M4486.32,375.3l0.49,20.9l4.86,2.34c1.51,0.73,3.16,0.59,4.61-0.38l4-2.68l0.58-20.25h-6.55L4486.32,375.3
					z"/>
				<path class="st12" d="M4486.32,432.59v-10.21c0-0.54,0.3-0.98,0.65-0.97l13.67,0.1c0.12,0.01,0.21,0.15,0.21,0.32v10.61
					L4486.32,432.59z"/>
				<path class="st12" d="M4476.72,1524.42l-1.5,72.2l14.64,1.9c1.9,0.18,3.8,0.19,5.69,0.02l16.41-1.93l-1.89-71.51
					c-0.01-0.39-0.36-0.68-0.74-0.62l-16.63,2.5l-15.36-3.08C4477.02,1523.86,4476.73,1524.1,4476.72,1524.42z"/>
				<path class="st12" d="M4474.58,2414.47l8.28,3.52c5.66,2.4,12.07,2.38,17.7-0.08l10.53-4.58l-1.2-46.79
					c-0.03-1.05-1.14-1.71-2.07-1.25l-7.53,2.76c-4.27,1.56-8.93,1.72-13.3,0.48l-10.3-2.94c-0.73-0.33-1.55,0.19-1.56,0.98
					L4474.58,2414.47z"/>
				<polygon class="st12" points="4489.14,397.32 4489.41,421.39 4498.45,421.36 4498.22,396.86 4493.83,399.68 				"/>
				<polygon class="st12" points="4491.14,362.94 4490.95,373.06 4497.15,372.84 4496.53,362.8 				"/>
			</g>
		</g>
	</g>
</g>
<g id="Mics">
	<g id="_x31__1_">
		<g>
			<defs>
				
					<rect id="SVGID_17_" x="1473.4" y="1282.3" transform="matrix(0.9397 -0.342 0.342 0.9397 -390.029 638.838)" width="286.19" height="286.19"/>
			</defs>
			<clipPath id="SVGID_18_">
				<use xlink:href="#SVGID_17_"  style="overflow:visible;"/>
			</clipPath>
			<g class="st13">
				<defs>
					<path id="SVGID_19_" d="M1551.19,1315.55l3.63-0.06c0.97-0.02,1.78,0.45,2.08,1.2l11.73,29.18l-4.92,0.69
						c-1.18,0.17-2.36,0.44-3.5,0.82l-4.45,1.47c-0.43,0.14-0.85,0.29-1.27,0.46l-3.19,1.25c-2.08,0.82-4.06,1.85-5.89,3.08
						l-4.53,3.04l-11.29-30.09c1.01-2.28,2.76-4.35,5.02-5.94l0.09-0.06c1.42-1,2.96-1.84,4.59-2.52c0.46-0.19,0.92-0.37,1.38-0.54
						C1544.08,1316.28,1547.65,1315.61,1551.19,1315.55"/>
				</defs>
				<clipPath id="SVGID_20_">
					<use xlink:href="#SVGID_19_"  style="overflow:visible;"/>
				</clipPath>
				
					<linearGradient id="SVGID_21_" gradientUnits="userSpaceOnUse" x1="1230.2888" y1="1407.8901" x2="1231.85" y2="1407.8901" gradientTransform="matrix(-23.1616 -14.6125 14.6125 -23.1616 9490.3408 51932.9727)">
					<stop  offset="0" style="stop-color:#FFFFFF"/>
					<stop  offset="1" style="stop-color:#FFFFFF"/>
				</linearGradient>
				<polygon class="st14" points="1580.9,1327.4 1540.67,1302.02 1515.93,1341.23 1556.16,1366.61 				"/>
			</g>
			<g class="st13">
				<defs>
					
						<rect id="SVGID_22_" x="1473.4" y="1282.3" transform="matrix(0.9397 -0.342 0.342 0.9397 -390.029 638.838)" width="286.19" height="286.19"/>
				</defs>
				<clipPath id="SVGID_23_">
					<use xlink:href="#SVGID_22_"  style="overflow:visible;"/>
				</clipPath>
				<path class="st15" d="M1568.63,1345.86l-11.73-29.18c-0.3-0.75-1.11-1.21-2.08-1.2l-3.63,0.06c-4.02,0.07-8.09,0.93-11.9,2.51
					c-1.63,0.68-3.17,1.52-4.59,2.52l-0.09,0.06c-2.26,1.59-4.01,3.66-5.02,5.94l11.29,30.09l4.53-3.04
					c1.83-1.23,3.81-2.26,5.89-3.08l3.19-1.25c0.42-0.16,0.84-0.32,1.27-0.46l4.45-1.47c1.15-0.38,2.32-0.65,3.5-0.82
					L1568.63,1345.86z"/>
				<path class="st15" d="M1568.96,1346.43l41.09,103.26l0,0.01l2.9,9.14l0.41,1.28c0.03,0.09-0.07,0.18-0.17,0.16l0,0
					c-3.76-0.5-7.75-0.09-11.54,1.19l-3.37,1.13l-0.73,0.27l-6.92,2.75c-1.77,0.7-3.46,1.59-5.03,2.63
					c-0.77,0.52-1.37,1.2-1.73,1.96l-0.53,1.14c-0.05,0.11-0.22,0.12-0.26,0.02l-42.7-111.8c-0.19-0.49-0.17-1.05,0.04-1.58
					c0.33-0.81,0.93-1.55,1.73-2.12l2.43-1.74c2.11-1.51,4.46-2.73,6.96-3.6c0.3-0.11,0.6-0.23,0.91-0.34l4.62-1.85
					c0.69-0.24,1.37-0.48,2.06-0.72l0.65-0.2c1.51-0.45,6.22-1.32,7.76-1.42l1.27,0.3
					C1568.86,1346.35,1568.92,1346.39,1568.96,1346.43z"/>
				<path class="st15" d="M1589.77,1483.97l-5.99-12.77c0.48-1.13,1.36-2.15,2.51-2.89l1.93-1.25c3.63-1.81,4.85-2.17,6.22-2.69
					l8.62-3.11c4.24-1.11,5.74-1.39,8.52-0.98l1.28,0.19l4.29,14.06c0.05,0.18-0.12,0.37-0.35,0.38l-4.53,0.15
					c-1.63,0.05-3.27,0.32-4.87,0.78l-5.56,1.6c-0.97,0.28-1.92,0.62-2.84,1.02l-2.04,0.88c-2.01,0.86-3.84,2.04-5.4,3.46l-1.32,1.2
					C1590.11,1484.16,1589.85,1484.14,1589.77,1483.97z"/>
			</g>
			<g class="st13">
				<defs>
					<path id="SVGID_24_" d="M1543.11,1364.93c1.12,0.11,2.01,0.72,2.35,1.62l0.1,0.26l0.05,0.55c0.07,0.8-0.37,1.64-1.16,2.2
						l-1.92-4.79L1543.11,1364.93z"/>
				</defs>
				<clipPath id="SVGID_25_">
					<use xlink:href="#SVGID_24_"  style="overflow:visible;"/>
				</clipPath>
				
					<linearGradient id="SVGID_26_" gradientUnits="userSpaceOnUse" x1="1198.1136" y1="1390.8069" x2="1199.6748" y2="1390.8069" gradientTransform="matrix(-10.19 2.0029 -2.0029 -10.19 16540.0762 13139.2393)">
					<stop  offset="0" style="stop-color:#000000"/>
					<stop  offset="0.1413" style="stop-color:#000000"/>
					<stop  offset="1" style="stop-color:#000000"/>
				</linearGradient>
				<polygon class="st16" points="1545.32,1363.88 1542.46,1364.44 1543.5,1369.77 1546.37,1369.21 				"/>
			</g>
			<g class="st13">
				<defs>
					
						<rect id="SVGID_27_" x="1473.4" y="1282.3" transform="matrix(0.9397 -0.342 0.342 0.9397 -390.029 638.838)" width="286.19" height="286.19"/>
				</defs>
				<clipPath id="SVGID_28_">
					<use xlink:href="#SVGID_27_"  style="overflow:visible;"/>
				</clipPath>
				<path class="st17" d="M1542.52,1364.77l0.58,0.16c1.12,0.11,2.01,0.73,2.35,1.62l0.1,0.26l0.05,0.55
					c0.07,0.8-0.37,1.64-1.16,2.2L1542.52,1364.77z"/>
				<path class="st18" d="M1614.09,1475.6l7.48,20.68l-7.08,1.56c-0.72,0.16-1.43,0.36-2.12,0.6l-3.13,1.09
					c-1.52,0.53-2.99,1.21-4.35,2.04l-4.59,2.76l-5.02-12.75l-3.37-8.56c-0.08-0.21,0.02-0.46,0.26-0.61l2.51-1.59
					c0.57-0.31,1.14-0.59,1.73-0.86l4.75-1.85c0.28-0.12,0.57-0.23,0.85-0.33l5.97-2.01c1.21-0.4,2.47-0.54,3.67-0.42
					L1614.09,1475.6z"/>
				<path class="st19" d="M1627.47,1536.71c0.66-0.26,1.24,0.26,1.69,0.66c3.03,2.7,15.34,12.21,28.11,1.27
					c14.72-12.61,1.15-65.8-6.16-76.75c-6.12-9.18-23.28-28.55-24.82-34.39c-1.54-5.84-0.13-19.24,14.34-17.61
					c14.47,1.63,2.74,5.98,2.74,5.98s-5.84-2.29-8.26,0.89c-2.42,3.17-3.27,7.58,0.52,14.17c3.79,6.59,15.77,17.46,22.67,29.47
					c5.54,9.63,18.06,53.26,9.24,74.16c0,0-9.78,15.89-24.03,14.63c-15.63-1.38-18.73-7.95-20.86-10.17
					c-0.09-0.09-0.04-0.25,0.11-0.3L1627.47,1536.71z"/>
				<path class="st19" d="M1592.52,1493.12l2.71-1.49l-2.62-6.82l-0.65,0.97c-0.52,0.69-0.74,1.49-0.62,2.24l0.83,5
					C1592.2,1493.14,1592.37,1493.2,1592.52,1493.12"/>
				<path class="st17" d="M1592.52,1493.12l2.71-1.49l-2.62-6.82l-0.65,0.97c-0.52,0.69-0.74,1.49-0.62,2.24l0.83,5
					C1592.2,1493.14,1592.37,1493.2,1592.52,1493.12z"/>
				<path class="st18" d="M1621.67,1496.57l2.15,5.01c0.37,0.82,0.66,1.68,0.85,2.56l1.83,8.48c0.04,0.18-0.11,0.38-0.33,0.44
					l-7.63,2.17c-1.2,0.34-2.37,0.79-3.48,1.35l-7.16,3.54c-0.2,0.1-0.43,0.05-0.52-0.1l-3.22-5.61c-0.55-0.86-1.11-1.98-1.45-2.94
					l-2.28-7l5.02-3.09c0.86-0.54,1.79-0.99,2.77-1.33l3.52-1.24c1.37-0.48,2.78-0.83,4.21-1.03L1621.67,1496.57z"/>
				<path class="st20" d="M1632.33,1403.22L1632.33,1403.22c0.16,2.13-1.4,4.29-3.8,5.28l-29.71,12.22l-13.12-31.02l29.18-11.38
					c2.45-0.96,5.14-0.67,6.88,0.74l0.12,0.21l3.68,8.48L1632.33,1403.22z"/>
				<path class="st18" d="M1632.33,1403.22L1632.33,1403.22c0.16,2.13-1.4,4.29-3.8,5.28l-29.71,12.22l-13.12-31.02l29.18-11.38
					c2.45-0.96,5.14-0.67,6.88,0.74l0.12,0.21l3.68,8.48L1632.33,1403.22z"/>
				<path class="st18" d="M1629.61,1533.32l-3.9-19.66l-6.12,1.66c-1.81,0.49-3.58,1.17-5.25,2.02l-5.96,3.03l10.71,16.82
					c0.09,0.15,0.32,0.18,0.5,0.08l3.46-1.86c0.71-0.38,1.47-0.67,2.25-0.86l4.09-0.97
					C1629.54,1533.56,1629.63,1533.44,1629.61,1533.32z"/>
				<path class="st20" d="M1559.84,1387.19l3.69,10.81c0.11,0.33,0.54,0.48,0.95,0.34l6.68-2.4c0.54-0.19,1.09-0.36,1.64-0.49
					l12.56-3.06c1.08-0.26,2.02-0.94,2.51-1.82l0.6-1.07c0.56-0.99,0.66-2.08,0.28-3.02l-3.22-8.05c-0.39-0.96-1.42-1.57-2.66-1.57
					c-1.26,0-2.54,0.19-3.79,0.57l-6.56,1.99c-0.25,0.08-0.47,0.23-0.6,0.43l-1.28,1.91c-0.09,0.13-0.22,0.24-0.38,0.3l-9.84,4.08
					C1559.97,1386.34,1559.71,1386.8,1559.84,1387.19"/>
				<path class="st18" d="M1559.84,1387.19l3.69,10.81c0.11,0.33,0.54,0.48,0.95,0.34l6.68-2.4c0.54-0.19,1.09-0.36,1.64-0.49
					l12.56-3.06c1.08-0.26,2.02-0.94,2.51-1.82l0.6-1.07c0.56-0.99,0.66-2.08,0.28-3.02l-3.22-8.05c-0.39-0.96-1.42-1.57-2.66-1.57
					c-1.26,0-2.54,0.19-3.79,0.57l-6.56,1.99c-0.25,0.08-0.47,0.23-0.6,0.43l-1.28,1.91c-0.09,0.13-0.22,0.24-0.38,0.3l-9.84,4.08
					C1559.97,1386.34,1559.71,1386.8,1559.84,1387.19z"/>
				<path class="st20" d="M1582.04,1439.04c-0.76,0.21-1.54,0.01-1.91-0.53c-2.33-3.37-4.57-8.85-4.57-8.85
					c-0.16-0.51,0.15-1.09,0.74-1.37l6.42-3.1c1.44-0.69,2.94-1.26,4.48-1.68l9.72-2.69c1-0.28,2.02-0.48,3.05-0.6l3.08-0.36
					c1.47-0.17,2.77,0.48,3.22,1.61l3.51,8.86c0.35,0.87-0.24,1.91-1.31,2.35l-4.48,1.8l-8.84,3.27c-0.09,0.03-0.19,0.03-0.28,0
					l-3.95-1.16c-0.08-0.02-0.18-0.01-0.26,0.02L1582.04,1439.04z"/>
				<path class="st18" d="M1582.04,1439.04c-0.76,0.21-1.54,0.01-1.91-0.53c-2.33-3.37-4.57-8.85-4.57-8.85
					c-0.16-0.51,0.15-1.09,0.74-1.37l6.42-3.1c1.44-0.69,2.94-1.26,4.48-1.68l9.72-2.69c1-0.28,2.02-0.48,3.05-0.6l3.08-0.36
					c1.47-0.17,2.77,0.48,3.22,1.61l3.51,8.86c0.35,0.87-0.24,1.91-1.31,2.35l-4.48,1.8l-8.84,3.27c-0.09,0.03-0.19,0.03-0.28,0
					l-3.95-1.16c-0.08-0.02-0.18-0.01-0.26,0.02L1582.04,1439.04z"/>
				<path class="st20" d="M1589.43,1378.63l2.38,6.17c0.08,0.2-0.05,0.43-0.28,0.54l-11.9,5.45c-1.26,0.58-2.69,0.18-3.1-0.87
					l-1.96-4.95c-0.52-1.31,0.51-2.86,2.18-3.31l12.15-3.24C1589.13,1378.35,1589.36,1378.44,1589.43,1378.63"/>
				<path class="st18" d="M1589.43,1378.63l2.38,6.17c0.08,0.2-0.05,0.43-0.28,0.54l-11.9,5.45c-1.26,0.58-2.69,0.18-3.1-0.87
					l-1.96-4.95c-0.52-1.31,0.51-2.86,2.18-3.31l12.15-3.24C1589.13,1378.35,1589.36,1378.44,1589.43,1378.63z"/>
				<path class="st20" d="M1597.37,1432.67l13.48-5.3c0.46-0.18,0.72-0.61,0.61-0.99l-1.5-5.17c-0.05-0.15-0.22-0.24-0.42-0.2
					l-14.97,3.04c-1.65,0.34-2.75,1.83-2.3,3.13l1.5,4.3C1594.22,1432.72,1595.85,1433.27,1597.37,1432.67"/>
				<path class="st18" d="M1597.37,1432.67l13.48-5.3c0.46-0.18,0.72-0.61,0.61-0.99l-1.5-5.17c-0.05-0.15-0.22-0.24-0.42-0.2
					l-14.97,3.04c-1.65,0.34-2.75,1.83-2.3,3.13l1.5,4.3C1594.22,1432.72,1595.85,1433.27,1597.37,1432.67z"/>
				<path class="st20" d="M1553.08,1320.37l1.64-0.14c1.8-0.15,3.52,0.22,4.88,1.07l-2.08-4.99l-2.31,0.1
					c-2.27,0.1-4.56,0.44-6.81,0.99l-1.52,0.38c-1.53,0.38-3.03,0.85-4.51,1.41l-0.64,0.24c-3.68,1.39-7.08,3.39-9.99,5.87
					l-2.52,2.14l1.49,4.07l1.39-1.78c1.26-1.61,2.89-3.01,4.77-4.1c1.25-0.72,4.4-2.17,4.4-2.17l10.65,26.84l6.18-2.24l-10.73-26.8
					l2.97-0.54C1551.25,1320.56,1552.17,1320.44,1553.08,1320.37"/>
				<path class="st18" d="M1553.08,1320.37l1.64-0.14c1.8-0.15,3.52,0.22,4.88,1.07l-2.08-4.99l-2.31,0.1
					c-2.27,0.1-4.56,0.44-6.81,0.99l-1.52,0.38c-1.53,0.38-3.03,0.85-4.51,1.41l-0.64,0.24c-3.68,1.39-7.08,3.39-9.99,5.87
					l-2.52,2.14l1.49,4.07l1.39-1.78c1.26-1.61,2.89-3.01,4.77-4.1c1.25-0.72,4.4-2.17,4.4-2.17l10.65,26.84l6.18-2.24l-10.73-26.8
					l2.97-0.54C1551.25,1320.56,1552.17,1320.44,1553.08,1320.37z"/>
				<path class="st20" d="M1647.44,1374.46L1647.44,1374.46c-3.22-1.14-7.04-1.02-10.54,0.35l-0.84,0.33
					c-3.05,1.19-5.65,3.23-7.3,5.75l-0.75,1.14c-0.98,1.48-1.17,3.17-0.54,4.6l6.55,14.75l22.51-9.29l-6.44-15.25
					C1649.63,1375.75,1648.69,1374.9,1647.44,1374.46"/>
				<path class="st18" d="M1647.44,1374.46L1647.44,1374.46c-3.22-1.14-7.04-1.02-10.54,0.35l-0.84,0.33
					c-3.05,1.19-5.65,3.23-7.3,5.75l-0.75,1.14c-0.98,1.48-1.17,3.17-0.54,4.6l6.55,14.75l22.51-9.29l-6.44-15.25
					C1649.63,1375.75,1648.69,1374.9,1647.44,1374.46z"/>
				<polygon class="st20" points="1661.09,1411.8 1652.76,1393.64 1636.63,1400.3 1644.86,1418.71 				"/>
				<polygon class="st18" points="1661.09,1411.8 1652.76,1393.64 1636.63,1400.3 1644.86,1418.71 				"/>
				<path class="st18" d="M1628.31,1533.85l0.55,2.51c0.01,0.06-0.04,0.12-0.11,0.13l-1.87,0.32c-1.19,0.2-2.33,0.67-3.31,1.35
					l-1.32,0.92c-0.11,0.08-0.27,0.07-0.34-0.03l-1.6-2.15l1.87-1c0.6-0.31,2.07-1.16,2.73-1.22L1628.31,1533.85z"/>
				<path class="st20" d="M1591.84,1413.09l-5.44-13.57c-0.42-1.05,0.04-2.3,1.14-3.1l12.98-9.49c2.81-2.05,6.07-3.56,9.51-4.39
					l14.09-3.39l10.16,22.5l-13.03,7.46c-2.69,1.54-5.67,2.56-8.73,3l-17.54,2.49C1593.55,1414.79,1592.27,1414.18,1591.84,1413.09"
					/>
				<path class="st18" d="M1591.84,1413.09l-5.44-13.57c-0.42-1.05,0.04-2.3,1.14-3.1l12.98-9.49c2.81-2.05,6.07-3.56,9.51-4.39
					l14.09-3.39l10.16,22.5l-13.03,7.46c-2.69,1.54-5.67,2.56-8.73,3l-17.54,2.49C1593.55,1414.79,1592.27,1414.18,1591.84,1413.09z
					"/>
				<path class="st19" d="M1580.46,1385.18l13.56,10.38c0.51,0.39,0.32,1.16-0.37,1.47l-0.22,0.1c-0.4,0.18-0.85,0.15-1.15-0.08
					l-13.34-10.48c-0.54-0.43-0.26-1.26,0.51-1.51C1579.82,1384.93,1580.2,1384.98,1580.46,1385.18"/>
				<path class="st17" d="M1580.46,1385.18l13.56,10.38c0.51,0.39,0.32,1.16-0.37,1.47l-0.22,0.1c-0.4,0.18-0.85,0.15-1.15-0.08
					l-13.34-10.48c-0.54-0.43-0.26-1.26,0.51-1.51C1579.82,1384.93,1580.2,1384.98,1580.46,1385.18z"/>
				<path class="st19" d="M1603.13,1407.77l-1.92,17.62c-0.07,0.66-0.92,1.16-1.62,0.95l-0.22-0.07c-0.41-0.12-0.65-0.46-0.6-0.84
					l2.15-17.55c0.09-0.72,1.06-1.21,1.76-0.89C1602.99,1407.14,1603.17,1407.43,1603.13,1407.77"/>
				<path class="st17" d="M1603.13,1407.77l-1.92,17.62c-0.07,0.66-0.92,1.16-1.62,0.95l-0.22-0.07c-0.41-0.12-0.65-0.46-0.6-0.84
					l2.15-17.55c0.09-0.72,1.06-1.21,1.76-0.89C1602.99,1407.14,1603.17,1407.43,1603.13,1407.77z"/>
				<path class="st19" d="M1587.45,1382.25L1587.45,1382.25c-0.73,0.24-1,1.03-0.49,1.44l12.14,9.72c0.28,0.22,0.72,0.26,1.1,0.08
					l0.14-0.07c0.65-0.3,0.84-1.02,0.36-1.4l-12.28-9.65C1588.17,1382.18,1587.8,1382.13,1587.45,1382.25"/>
				<path class="st17" d="M1587.45,1382.25L1587.45,1382.25c-0.73,0.24-1,1.03-0.49,1.44l12.14,9.72c0.28,0.22,0.72,0.26,1.1,0.08
					l0.14-0.07c0.65-0.3,0.84-1.02,0.36-1.4l-12.28-9.65C1588.17,1382.18,1587.8,1382.13,1587.45,1382.25z"/>
				<path class="st19" d="M1609.62,1405.87L1609.62,1405.87c-0.64-0.4-1.52,0.02-1.61,0.75l-1.92,17.46
					c-0.04,0.4,0.18,0.78,0.56,0.95l0.14,0.06c0.65,0.29,1.42-0.14,1.49-0.82l1.77-17.52
					C1610.1,1406.4,1609.93,1406.06,1609.62,1405.87"/>
				<path class="st17" d="M1609.62,1405.87L1609.62,1405.87c-0.64-0.4-1.52,0.02-1.61,0.75l-1.92,17.46
					c-0.04,0.4,0.18,0.78,0.56,0.95l0.14,0.06c0.65,0.29,1.42-0.14,1.49-0.82l1.77-17.52
					C1610.1,1406.4,1609.93,1406.06,1609.62,1405.87z"/>
			</g>
		</g>
	</g>
	<g id="_x32__1_">
		<g>
			<defs>
				
					<rect id="SVGID_29_" x="2413.7" y="935.78" transform="matrix(0.9397 -0.342 0.342 0.9397 -214.8039 939.5398)" width="286.19" height="286.19"/>
			</defs>
			<clipPath id="SVGID_30_">
				<use xlink:href="#SVGID_29_"  style="overflow:visible;"/>
			</clipPath>
			<g class="st21">
				<defs>
					<path id="SVGID_31_" d="M2491.48,969.02l3.63-0.06c0.97-0.02,1.78,0.45,2.08,1.2l11.73,29.18l-4.92,0.69
						c-1.18,0.17-2.36,0.44-3.5,0.82l-4.45,1.47c-0.43,0.14-0.85,0.29-1.27,0.46l-3.19,1.25c-2.08,0.82-4.06,1.85-5.89,3.08
						l-4.53,3.04l-11.29-30.09c1.01-2.28,2.76-4.35,5.02-5.94l0.09-0.06c1.42-1,2.96-1.84,4.59-2.52c0.46-0.19,0.92-0.37,1.38-0.54
						C2484.37,969.76,2487.95,969.09,2491.48,969.02"/>
				</defs>
				<clipPath id="SVGID_32_">
					<use xlink:href="#SVGID_31_"  style="overflow:visible;"/>
				</clipPath>
				
					<linearGradient id="SVGID_33_" gradientUnits="userSpaceOnUse" x1="1208.0015" y1="1436.9121" x2="1209.5626" y2="1436.9121" gradientTransform="matrix(-23.1616 -14.6125 14.6125 -23.1616 9490.3408 51932.9727)">
					<stop  offset="0" style="stop-color:#FFFFFF"/>
					<stop  offset="1" style="stop-color:#FFFFFF"/>
				</linearGradient>
				<polygon class="st22" points="2521.19,980.88 2480.96,955.49 2456.23,994.7 2496.46,1020.09 				"/>
			</g>
			<g class="st21">
				<defs>
					
						<rect id="SVGID_34_" x="2413.7" y="935.78" transform="matrix(0.9397 -0.342 0.342 0.9397 -214.8039 939.5398)" width="286.19" height="286.19"/>
				</defs>
				<clipPath id="SVGID_35_">
					<use xlink:href="#SVGID_34_"  style="overflow:visible;"/>
				</clipPath>
				<path class="st23" d="M2508.93,999.34l-11.73-29.18c-0.3-0.75-1.11-1.21-2.08-1.2l-3.63,0.06c-4.02,0.07-8.09,0.93-11.9,2.51
					c-1.63,0.68-3.17,1.52-4.59,2.52l-0.09,0.06c-2.26,1.59-4.01,3.66-5.02,5.94l11.29,30.09l4.53-3.04
					c1.83-1.23,3.81-2.26,5.89-3.08l3.19-1.25c0.42-0.16,0.84-0.32,1.27-0.46l4.45-1.47c1.15-0.38,2.32-0.65,3.5-0.82
					L2508.93,999.34z"/>
				<path class="st23" d="M2509.25,999.9l41.09,103.26l0,0.01l2.9,9.14l0.41,1.28c0.03,0.09-0.07,0.18-0.17,0.16l0,0
					c-3.76-0.5-7.75-0.09-11.54,1.19l-3.37,1.13l-0.73,0.27l-6.92,2.75c-1.77,0.7-3.46,1.59-5.03,2.63
					c-0.77,0.52-1.37,1.2-1.73,1.96l-0.53,1.14c-0.05,0.11-0.22,0.12-0.26,0.02l-42.7-111.8c-0.19-0.49-0.17-1.05,0.04-1.58
					c0.33-0.81,0.93-1.55,1.73-2.12l2.43-1.74c2.11-1.51,4.46-2.73,6.96-3.6c0.3-0.11,0.6-0.23,0.91-0.34l4.62-1.85
					c0.69-0.24,1.37-0.48,2.06-0.72l0.65-0.2c1.51-0.45,6.22-1.32,7.76-1.42l1.27,0.3C2509.15,999.82,2509.21,999.87,2509.25,999.9z
					"/>
				<path class="st23" d="M2530.07,1137.45l-5.99-12.77c0.48-1.13,1.36-2.15,2.51-2.89l1.93-1.25c3.63-1.81,4.85-2.17,6.22-2.69
					l8.62-3.11c4.24-1.11,5.74-1.39,8.52-0.98l1.28,0.19l4.29,14.06c0.05,0.18-0.12,0.37-0.35,0.38l-4.53,0.15
					c-1.63,0.05-3.27,0.32-4.87,0.78l-5.56,1.6c-0.97,0.28-1.92,0.62-2.84,1.02l-2.03,0.88c-2.01,0.86-3.84,2.04-5.4,3.46l-1.32,1.2
					C2530.41,1137.64,2530.14,1137.61,2530.07,1137.45z"/>
			</g>
			<g class="st21">
				<defs>
					<path id="SVGID_36_" d="M2483.4,1018.41c1.12,0.11,2.01,0.72,2.35,1.62l0.1,0.26l0.05,0.55c0.07,0.8-0.37,1.64-1.16,2.2
						l-1.92-4.79L2483.4,1018.41z"/>
				</defs>
				<clipPath id="SVGID_37_">
					<use xlink:href="#SVGID_36_"  style="overflow:visible;"/>
				</clipPath>
				
					<linearGradient id="SVGID_38_" gradientUnits="userSpaceOnUse" x1="1102.8348" y1="1406.0852" x2="1104.396" y2="1406.0852" gradientTransform="matrix(-10.19 2.0029 -2.0029 -10.19 16540.0762 13139.2393)">
					<stop  offset="0" style="stop-color:#000000"/>
					<stop  offset="0.1413" style="stop-color:#000000"/>
					<stop  offset="1" style="stop-color:#000000"/>
				</linearGradient>
				<polygon class="st24" points="2485.61,1017.36 2482.75,1017.92 2483.8,1023.25 2486.66,1022.68 				"/>
			</g>
			<g class="st21">
				<defs>
					
						<rect id="SVGID_39_" x="2413.7" y="935.78" transform="matrix(0.9397 -0.342 0.342 0.9397 -214.8039 939.5398)" width="286.19" height="286.19"/>
				</defs>
				<clipPath id="SVGID_40_">
					<use xlink:href="#SVGID_39_"  style="overflow:visible;"/>
				</clipPath>
				<path class="st25" d="M2482.81,1018.25l0.58,0.16c1.12,0.11,2.01,0.73,2.35,1.62l0.1,0.26l0.05,0.55
					c0.07,0.8-0.37,1.64-1.16,2.2L2482.81,1018.25z"/>
				<path class="st26" d="M2554.39,1129.07l7.48,20.68l-7.08,1.56c-0.72,0.16-1.43,0.36-2.12,0.6l-3.13,1.08
					c-1.52,0.53-2.99,1.21-4.35,2.04l-4.59,2.76l-5.02-12.75l-3.37-8.56c-0.08-0.21,0.02-0.46,0.26-0.61l2.51-1.59
					c0.56-0.31,1.14-0.59,1.73-0.86l4.75-1.85c0.28-0.12,0.57-0.23,0.85-0.33l5.97-2.01c1.21-0.4,2.47-0.54,3.67-0.42
					L2554.39,1129.07z"/>
				<path class="st27" d="M2567.76,1190.18c0.66-0.26,1.24,0.26,1.69,0.66c3.03,2.7,15.34,12.21,28.11,1.27
					c14.72-12.61,1.15-65.8-6.16-76.75c-6.12-9.18-23.28-28.55-24.82-34.39c-1.54-5.84-0.13-19.24,14.34-17.61
					c14.47,1.63,2.74,5.98,2.74,5.98s-5.84-2.29-8.26,0.89c-2.42,3.18-3.27,7.58,0.52,14.17c3.79,6.59,15.77,17.46,22.67,29.47
					c5.54,9.63,18.06,53.26,9.24,74.16c0,0-9.78,15.89-24.03,14.63c-15.63-1.38-18.73-7.95-20.86-10.17
					c-0.09-0.09-0.04-0.25,0.11-0.3L2567.76,1190.18z"/>
				<path class="st27" d="M2532.81,1146.6l2.71-1.49l-2.62-6.82l-0.65,0.97c-0.52,0.69-0.74,1.49-0.62,2.24l0.83,5
					C2532.49,1146.62,2532.67,1146.67,2532.81,1146.6"/>
				<path class="st25" d="M2532.81,1146.6l2.71-1.49l-2.62-6.82l-0.65,0.97c-0.52,0.69-0.74,1.49-0.62,2.24l0.83,5
					C2532.49,1146.62,2532.67,1146.67,2532.81,1146.6z"/>
				<path class="st26" d="M2561.96,1150.05l2.15,5.01c0.37,0.82,0.66,1.68,0.85,2.56l1.83,8.48c0.04,0.18-0.11,0.38-0.33,0.44
					l-7.63,2.17c-1.2,0.34-2.37,0.79-3.48,1.35l-7.16,3.54c-0.2,0.1-0.43,0.05-0.52-0.1l-3.22-5.61c-0.55-0.86-1.11-1.98-1.45-2.94
					l-2.28-7l5.02-3.09c0.86-0.54,1.79-0.99,2.77-1.33l3.52-1.24c1.37-0.48,2.78-0.83,4.21-1.03L2561.96,1150.05z"/>
				<path class="st28" d="M2572.62,1056.69L2572.62,1056.69c0.16,2.13-1.4,4.29-3.8,5.28l-29.71,12.22l-13.12-31.02l29.19-11.38
					c2.45-0.96,5.14-0.67,6.88,0.74l0.12,0.21l3.68,8.48L2572.62,1056.69z"/>
				<path class="st26" d="M2572.62,1056.69L2572.62,1056.69c0.16,2.13-1.4,4.29-3.8,5.28l-29.71,12.22l-13.12-31.02l29.19-11.38
					c2.45-0.96,5.14-0.67,6.88,0.74l0.12,0.21l3.68,8.48L2572.62,1056.69z"/>
				<path class="st26" d="M2569.9,1186.8l-3.9-19.66l-6.12,1.66c-1.81,0.49-3.58,1.17-5.25,2.02l-5.96,3.03l10.71,16.82
					c0.09,0.15,0.32,0.18,0.5,0.08l3.46-1.86c0.71-0.38,1.47-0.67,2.25-0.86l4.09-0.97
					C2569.83,1187.03,2569.93,1186.91,2569.9,1186.8z"/>
				<path class="st28" d="M2500.13,1040.67l3.69,10.81c0.11,0.33,0.54,0.48,0.95,0.34l6.68-2.4c0.54-0.19,1.09-0.36,1.64-0.49
					l12.56-3.06c1.08-0.26,2.02-0.94,2.51-1.82l0.6-1.07c0.56-0.99,0.66-2.08,0.28-3.02l-3.22-8.05c-0.39-0.96-1.42-1.57-2.66-1.57
					c-1.26,0-2.54,0.19-3.79,0.57l-6.56,1.99c-0.25,0.08-0.47,0.23-0.6,0.43l-1.28,1.91c-0.09,0.13-0.22,0.24-0.38,0.3l-9.84,4.08
					C2500.26,1039.82,2500,1040.28,2500.13,1040.67"/>
				<path class="st26" d="M2500.13,1040.67l3.69,10.81c0.11,0.33,0.54,0.48,0.95,0.34l6.68-2.4c0.54-0.19,1.09-0.36,1.64-0.49
					l12.56-3.06c1.08-0.26,2.02-0.94,2.51-1.82l0.6-1.07c0.56-0.99,0.66-2.08,0.28-3.02l-3.22-8.05c-0.39-0.96-1.42-1.57-2.66-1.57
					c-1.26,0-2.54,0.19-3.79,0.57l-6.56,1.99c-0.25,0.08-0.47,0.23-0.6,0.43l-1.28,1.91c-0.09,0.13-0.22,0.24-0.38,0.3l-9.84,4.08
					C2500.26,1039.82,2500,1040.28,2500.13,1040.67z"/>
				<path class="st28" d="M2522.34,1092.52c-0.76,0.21-1.54,0.01-1.91-0.53c-2.33-3.37-4.57-8.85-4.57-8.85
					c-0.16-0.51,0.15-1.09,0.74-1.37l6.42-3.1c1.44-0.69,2.94-1.26,4.48-1.68l9.72-2.69c1-0.28,2.02-0.48,3.05-0.6l3.08-0.36
					c1.47-0.17,2.78,0.48,3.22,1.61l3.51,8.86c0.35,0.87-0.24,1.91-1.31,2.35l-4.48,1.8l-8.84,3.27c-0.09,0.03-0.19,0.03-0.28,0
					l-3.95-1.16c-0.08-0.02-0.18-0.01-0.26,0.02L2522.34,1092.52z"/>
				<path class="st26" d="M2522.34,1092.52c-0.76,0.21-1.54,0.01-1.91-0.53c-2.33-3.37-4.57-8.85-4.57-8.85
					c-0.16-0.51,0.15-1.09,0.74-1.37l6.42-3.1c1.44-0.69,2.94-1.26,4.48-1.68l9.72-2.69c1-0.28,2.02-0.48,3.05-0.6l3.08-0.36
					c1.47-0.17,2.78,0.48,3.22,1.61l3.51,8.86c0.35,0.87-0.24,1.91-1.31,2.35l-4.48,1.8l-8.84,3.27c-0.09,0.03-0.19,0.03-0.28,0
					l-3.95-1.16c-0.08-0.02-0.18-0.01-0.26,0.02L2522.34,1092.52z"/>
				<path class="st28" d="M2529.72,1032.1l2.38,6.17c0.08,0.2-0.05,0.43-0.28,0.54l-11.9,5.45c-1.26,0.58-2.69,0.18-3.1-0.87
					l-1.96-4.95c-0.52-1.31,0.51-2.86,2.18-3.31l12.15-3.24C2529.42,1031.83,2529.65,1031.92,2529.72,1032.1"/>
				<path class="st26" d="M2529.72,1032.1l2.38,6.17c0.08,0.2-0.05,0.43-0.28,0.54l-11.9,5.45c-1.26,0.58-2.69,0.18-3.1-0.87
					l-1.96-4.95c-0.52-1.31,0.51-2.86,2.18-3.31l12.15-3.24C2529.42,1031.83,2529.65,1031.92,2529.72,1032.1z"/>
				<path class="st28" d="M2537.66,1086.14l13.48-5.3c0.46-0.18,0.72-0.61,0.61-0.99l-1.5-5.17c-0.05-0.15-0.22-0.24-0.42-0.2
					l-14.97,3.04c-1.65,0.34-2.75,1.83-2.3,3.13l1.5,4.3C2534.51,1086.2,2536.14,1086.74,2537.66,1086.14"/>
				<path class="st26" d="M2537.66,1086.14l13.48-5.3c0.46-0.18,0.72-0.61,0.61-0.99l-1.5-5.17c-0.05-0.15-0.22-0.24-0.42-0.2
					l-14.97,3.04c-1.65,0.34-2.75,1.83-2.3,3.13l1.5,4.3C2534.51,1086.2,2536.14,1086.74,2537.66,1086.14z"/>
				<path class="st28" d="M2493.37,973.84l1.64-0.14c1.8-0.15,3.52,0.22,4.88,1.07l-2.08-4.99l-2.31,0.1
					c-2.27,0.1-4.56,0.44-6.81,0.99l-1.52,0.38c-1.53,0.38-3.03,0.85-4.51,1.41l-0.64,0.24c-3.68,1.39-7.08,3.39-9.99,5.87
					l-2.52,2.14l1.49,4.07l1.39-1.78c1.26-1.61,2.89-3.01,4.77-4.1c1.25-0.72,4.4-2.17,4.4-2.17l10.65,26.84l6.18-2.24l-10.73-26.8
					l2.97-0.54C2491.55,974.04,2492.46,973.92,2493.37,973.84"/>
				<path class="st26" d="M2493.37,973.84l1.64-0.14c1.8-0.15,3.52,0.22,4.88,1.07l-2.08-4.99l-2.31,0.1
					c-2.27,0.1-4.56,0.44-6.81,0.99l-1.52,0.38c-1.53,0.38-3.03,0.85-4.51,1.41l-0.64,0.24c-3.68,1.39-7.08,3.39-9.99,5.87
					l-2.52,2.14l1.49,4.07l1.39-1.78c1.26-1.61,2.89-3.01,4.77-4.1c1.25-0.72,4.4-2.17,4.4-2.17l10.65,26.84l6.18-2.24l-10.73-26.8
					l2.97-0.54C2491.55,974.04,2492.46,973.92,2493.37,973.84z"/>
				<path class="st28" d="M2587.74,1027.94L2587.74,1027.94c-3.22-1.14-7.04-1.02-10.54,0.35l-0.84,0.33
					c-3.05,1.19-5.65,3.23-7.3,5.75l-0.75,1.14c-0.98,1.48-1.17,3.17-0.54,4.6l6.55,14.75l22.51-9.29l-6.44-15.25
					C2589.92,1029.23,2588.98,1028.38,2587.74,1027.94"/>
				<path class="st26" d="M2587.74,1027.94L2587.74,1027.94c-3.22-1.14-7.04-1.02-10.54,0.35l-0.84,0.33
					c-3.05,1.19-5.65,3.23-7.3,5.75l-0.75,1.14c-0.98,1.48-1.17,3.17-0.54,4.6l6.55,14.75l22.51-9.29l-6.44-15.25
					C2589.92,1029.23,2588.98,1028.38,2587.74,1027.94z"/>
				<polygon class="st28" points="2601.38,1065.28 2593.05,1047.12 2576.92,1053.77 2585.15,1072.18 				"/>
				<polygon class="st26" points="2601.38,1065.28 2593.05,1047.12 2576.92,1053.77 2585.15,1072.18 				"/>
				<path class="st25" d="M2568.6,1187.33l0.55,2.51c0.01,0.06-0.04,0.12-0.11,0.13l-1.87,0.32c-1.19,0.2-2.33,0.67-3.31,1.35
					l-1.32,0.92c-0.11,0.08-0.27,0.07-0.34-0.03l-1.6-2.15l1.87-1c0.6-0.31,2.07-1.16,2.73-1.22L2568.6,1187.33z"/>
				<path class="st28" d="M2532.13,1066.57l-5.44-13.57c-0.42-1.05,0.04-2.3,1.14-3.1l12.98-9.49c2.81-2.05,6.07-3.56,9.51-4.39
					l14.09-3.39l10.16,22.5l-13.03,7.46c-2.69,1.54-5.67,2.56-8.73,3l-17.54,2.49C2533.85,1068.27,2532.57,1067.66,2532.13,1066.57"
					/>
				<path class="st26" d="M2532.13,1066.57l-5.44-13.57c-0.42-1.05,0.04-2.3,1.14-3.1l12.98-9.49c2.81-2.05,6.07-3.56,9.51-4.39
					l14.09-3.39l10.16,22.5l-13.03,7.46c-2.69,1.54-5.67,2.56-8.73,3l-17.54,2.49C2533.85,1068.27,2532.57,1067.66,2532.13,1066.57z
					"/>
				<path class="st27" d="M2520.75,1038.65l13.56,10.38c0.51,0.39,0.32,1.16-0.36,1.47l-0.22,0.1c-0.4,0.18-0.85,0.15-1.15-0.08
					l-13.34-10.48c-0.54-0.43-0.26-1.26,0.51-1.51C2520.11,1038.41,2520.5,1038.45,2520.75,1038.65"/>
				<path class="st25" d="M2520.75,1038.65l13.56,10.38c0.51,0.39,0.32,1.16-0.36,1.47l-0.22,0.1c-0.4,0.18-0.85,0.15-1.15-0.08
					l-13.34-10.48c-0.54-0.43-0.26-1.26,0.51-1.51C2520.11,1038.41,2520.5,1038.45,2520.75,1038.65z"/>
				<path class="st27" d="M2543.43,1061.25l-1.92,17.62c-0.07,0.66-0.92,1.16-1.62,0.95l-0.22-0.07c-0.41-0.12-0.65-0.46-0.6-0.84
					l2.15-17.55c0.09-0.72,1.06-1.21,1.76-0.89C2543.28,1060.61,2543.46,1060.91,2543.43,1061.25"/>
				<path class="st25" d="M2543.43,1061.25l-1.92,17.62c-0.07,0.66-0.92,1.16-1.62,0.95l-0.22-0.07c-0.41-0.12-0.65-0.46-0.6-0.84
					l2.15-17.55c0.09-0.72,1.06-1.21,1.76-0.89C2543.28,1060.61,2543.46,1060.91,2543.43,1061.25z"/>
				<path class="st27" d="M2527.74,1035.72L2527.74,1035.72c-0.73,0.24-1,1.03-0.49,1.44l12.14,9.72c0.28,0.22,0.72,0.26,1.1,0.08
					l0.14-0.07c0.65-0.3,0.84-1.02,0.36-1.4l-12.28-9.65C2528.46,1035.66,2528.09,1035.61,2527.74,1035.72"/>
				<path class="st25" d="M2527.74,1035.72L2527.74,1035.72c-0.73,0.24-1,1.03-0.49,1.44l12.14,9.72c0.28,0.22,0.72,0.26,1.1,0.08
					l0.14-0.07c0.65-0.3,0.84-1.02,0.36-1.4l-12.28-9.65C2528.46,1035.66,2528.09,1035.61,2527.74,1035.72z"/>
				<path class="st27" d="M2549.92,1059.35L2549.92,1059.35c-0.64-0.4-1.52,0.02-1.61,0.75l-1.92,17.46
					c-0.04,0.4,0.18,0.78,0.56,0.95l0.14,0.06c0.65,0.29,1.42-0.14,1.49-0.82l1.77-17.52
					C2550.39,1059.88,2550.22,1059.54,2549.92,1059.35"/>
				<path class="st25" d="M2549.92,1059.35L2549.92,1059.35c-0.64-0.4-1.52,0.02-1.61,0.75l-1.92,17.46
					c-0.04,0.4,0.18,0.78,0.56,0.95l0.14,0.06c0.65,0.29,1.42-0.14,1.49-0.82l1.77-17.52
					C2550.39,1059.88,2550.22,1059.54,2549.92,1059.35z"/>
			</g>
		</g>
	</g>
	<g id="_x33__1_">
		<g>
			<defs>
				
					<rect id="SVGID_41_" x="3368.71" y="585.59" transform="matrix(0.9397 -0.342 0.342 0.9397 -37.4362 1245.0562)" width="286.19" height="286.19"/>
			</defs>
			<clipPath id="SVGID_42_">
				<use xlink:href="#SVGID_41_"  style="overflow:visible;"/>
			</clipPath>
			<g class="st29">
				<defs>
					<path id="SVGID_43_" d="M3446.5,618.83l3.63-0.06c0.97-0.02,1.78,0.45,2.08,1.2l11.73,29.18l-4.92,0.69
						c-1.18,0.17-2.36,0.44-3.5,0.82l-4.45,1.47c-0.43,0.14-0.85,0.29-1.27,0.46l-3.19,1.25c-2.08,0.82-4.06,1.85-5.89,3.08
						l-4.53,3.04l-11.29-30.09c1.01-2.28,2.76-4.35,5.02-5.94l0.09-0.06c1.42-1,2.96-1.84,4.59-2.52c0.46-0.19,0.92-0.37,1.38-0.54
						C3439.39,619.57,3442.96,618.89,3446.5,618.83"/>
				</defs>
				<clipPath id="SVGID_44_">
					<use xlink:href="#SVGID_43_"  style="overflow:visible;"/>
				</clipPath>
				
					<linearGradient id="SVGID_45_" gradientUnits="userSpaceOnUse" x1="1185.3309" y1="1466.3344" x2="1186.8921" y2="1466.3344" gradientTransform="matrix(-23.1616 -14.6125 14.6125 -23.1616 9490.3408 51932.9727)">
					<stop  offset="0" style="stop-color:#FFFFFF"/>
					<stop  offset="1" style="stop-color:#FFFFFF"/>
				</linearGradient>
				<polygon class="st30" points="3476.21,630.68 3435.98,605.3 3411.24,644.51 3451.47,669.89 				"/>
			</g>
			<g class="st29">
				<defs>
					
						<rect id="SVGID_46_" x="3368.71" y="585.59" transform="matrix(0.9397 -0.342 0.342 0.9397 -37.4362 1245.0562)" width="286.19" height="286.19"/>
				</defs>
				<clipPath id="SVGID_47_">
					<use xlink:href="#SVGID_46_"  style="overflow:visible;"/>
				</clipPath>
				<path class="st31" d="M3463.95,649.14l-11.73-29.18c-0.3-0.75-1.11-1.21-2.08-1.2l-3.63,0.06c-4.02,0.07-8.09,0.93-11.9,2.51
					c-1.63,0.68-3.17,1.52-4.59,2.52l-0.09,0.06c-2.26,1.59-4.01,3.66-5.02,5.94l11.29,30.09l4.53-3.04
					c1.83-1.23,3.81-2.26,5.89-3.08l3.19-1.25c0.42-0.16,0.84-0.32,1.27-0.46l4.45-1.47c1.15-0.38,2.32-0.65,3.5-0.82
					L3463.95,649.14z"/>
				<path class="st31" d="M3464.27,649.71l41.09,103.26l0,0.01l2.9,9.14l0.41,1.28c0.03,0.09-0.07,0.18-0.17,0.16l0,0
					c-3.76-0.5-7.75-0.09-11.54,1.19l-3.37,1.13l-0.73,0.27l-6.92,2.75c-1.77,0.7-3.46,1.59-5.03,2.63
					c-0.77,0.52-1.37,1.2-1.73,1.96l-0.53,1.14c-0.05,0.11-0.22,0.12-0.26,0.02l-42.7-111.8c-0.19-0.49-0.17-1.05,0.04-1.58
					c0.33-0.81,0.93-1.55,1.73-2.12l2.43-1.74c2.11-1.51,4.46-2.73,6.96-3.6c0.3-0.11,0.6-0.23,0.91-0.34l4.62-1.85
					c0.69-0.24,1.37-0.48,2.06-0.72l0.65-0.2c1.51-0.45,6.22-1.32,7.76-1.42l1.27,0.3C3464.17,649.63,3464.23,649.68,3464.27,649.71
					z"/>
				<path class="st31" d="M3485.08,787.26l-5.99-12.77c0.48-1.13,1.36-2.15,2.51-2.89l1.93-1.25c3.63-1.81,4.85-2.17,6.22-2.69
					l8.62-3.11c4.24-1.11,5.74-1.39,8.52-0.98l1.28,0.19l4.29,14.06c0.05,0.18-0.12,0.37-0.35,0.38l-4.53,0.15
					c-1.63,0.05-3.27,0.32-4.87,0.78l-5.56,1.6c-0.97,0.28-1.92,0.62-2.84,1.02l-2.03,0.88c-2.01,0.86-3.84,2.04-5.4,3.46l-1.32,1.2
					C3485.42,787.44,3485.16,787.42,3485.08,787.26z"/>
			</g>
			<g class="st29">
				<defs>
					<path id="SVGID_48_" d="M3438.42,668.21c1.12,0.11,2.01,0.72,2.35,1.62l0.1,0.26l0.05,0.55c0.07,0.8-0.37,1.64-1.16,2.2
						l-1.92-4.79L3438.42,668.21z"/>
				</defs>
				<clipPath id="SVGID_49_">
					<use xlink:href="#SVGID_48_"  style="overflow:visible;"/>
				</clipPath>
				
					<linearGradient id="SVGID_50_" gradientUnits="userSpaceOnUse" x1="1006.0966" y1="1421.4369" x2="1007.6578" y2="1421.4369" gradientTransform="matrix(-10.19 2.0029 -2.0029 -10.19 16540.0762 13139.2393)">
					<stop  offset="0" style="stop-color:#000000"/>
					<stop  offset="0.1413" style="stop-color:#000000"/>
					<stop  offset="1" style="stop-color:#000000"/>
				</linearGradient>
				<polygon class="st32" points="3440.63,667.16 3437.77,667.73 3438.81,673.05 3441.68,672.49 				"/>
			</g>
			<g class="st29">
				<defs>
					
						<rect id="SVGID_51_" x="3368.71" y="585.59" transform="matrix(0.9397 -0.342 0.342 0.9397 -37.4362 1245.0562)" width="286.19" height="286.19"/>
				</defs>
				<clipPath id="SVGID_52_">
					<use xlink:href="#SVGID_51_"  style="overflow:visible;"/>
				</clipPath>
				<path class="st33" d="M3437.83,668.05l0.58,0.16c1.12,0.11,2.01,0.73,2.35,1.62l0.1,0.26l0.05,0.55c0.07,0.8-0.37,1.64-1.16,2.2
					L3437.83,668.05z"/>
				<path class="st34" d="M3509.41,778.88l7.48,20.68l-7.08,1.56c-0.72,0.16-1.43,0.36-2.12,0.6l-3.13,1.09
					c-1.52,0.53-2.99,1.21-4.35,2.04l-4.59,2.76l-5.02-12.75l-3.37-8.56c-0.08-0.21,0.02-0.46,0.26-0.61l2.51-1.59
					c0.56-0.31,1.14-0.59,1.73-0.86l4.75-1.85c0.28-0.12,0.57-0.23,0.85-0.33l5.97-2.01c1.21-0.4,2.47-0.54,3.67-0.42
					L3509.41,778.88z"/>
				<path class="st35" d="M3522.78,839.99c0.66-0.26,1.24,0.26,1.69,0.66c3.03,2.7,15.34,12.21,28.11,1.27
					c14.72-12.61,1.15-65.8-6.16-76.75c-6.12-9.18-23.28-28.55-24.82-34.39c-1.54-5.84-0.13-19.24,14.34-17.61
					c14.47,1.63,2.74,5.98,2.74,5.98s-5.84-2.29-8.26,0.89s-3.27,7.58,0.52,14.17c3.79,6.59,15.77,17.46,22.67,29.47
					c5.54,9.63,18.06,53.26,9.24,74.16c0,0-9.78,15.89-24.03,14.63c-15.63-1.38-18.73-7.95-20.86-10.17
					c-0.09-0.09-0.04-0.25,0.11-0.3L3522.78,839.99z"/>
				<path class="st35" d="M3487.83,796.4l2.71-1.49l-2.62-6.82l-0.65,0.97c-0.52,0.69-0.74,1.49-0.62,2.24l0.83,5
					C3487.51,796.43,3487.69,796.48,3487.83,796.4"/>
				<path class="st33" d="M3487.83,796.4l2.71-1.49l-2.62-6.82l-0.65,0.97c-0.52,0.69-0.74,1.49-0.62,2.24l0.83,5
					C3487.51,796.43,3487.69,796.48,3487.83,796.4z"/>
				<path class="st34" d="M3516.98,799.86l2.15,5.01c0.37,0.82,0.66,1.68,0.85,2.56l1.83,8.48c0.04,0.18-0.11,0.38-0.33,0.44
					l-7.63,2.17c-1.2,0.34-2.37,0.79-3.48,1.35l-7.16,3.54c-0.2,0.1-0.43,0.05-0.52-0.1l-3.22-5.61c-0.55-0.86-1.11-1.98-1.45-2.94
					l-2.28-7l5.02-3.09c0.86-0.54,1.79-0.99,2.77-1.33l3.52-1.24c1.37-0.48,2.78-0.83,4.21-1.03L3516.98,799.86z"/>
				<path class="st36" d="M3527.64,706.5L3527.64,706.5c0.16,2.13-1.4,4.29-3.8,5.28L3494.13,724l-13.12-31.02l29.19-11.38
					c2.45-0.96,5.14-0.67,6.88,0.74l0.12,0.21l3.68,8.48L3527.64,706.5z"/>
				<path class="st34" d="M3527.64,706.5L3527.64,706.5c0.16,2.13-1.4,4.29-3.8,5.28L3494.13,724l-13.12-31.02l29.19-11.38
					c2.45-0.96,5.14-0.67,6.88,0.74l0.12,0.21l3.68,8.48L3527.64,706.5z"/>
				<path class="st34" d="M3524.92,836.61l-3.9-19.66l-6.12,1.66c-1.81,0.49-3.58,1.17-5.25,2.02l-5.96,3.03l10.71,16.82
					c0.09,0.15,0.32,0.18,0.5,0.08l3.46-1.86c0.71-0.38,1.47-0.67,2.25-0.86l4.09-0.97
					C3524.85,836.84,3524.94,836.72,3524.92,836.61z"/>
				<path class="st36" d="M3455.15,690.48l3.69,10.81c0.11,0.33,0.54,0.48,0.95,0.34l6.68-2.4c0.54-0.19,1.09-0.36,1.64-0.49
					l12.56-3.06c1.08-0.26,2.02-0.94,2.51-1.82l0.6-1.07c0.56-0.99,0.66-2.08,0.28-3.02l-3.22-8.05c-0.39-0.96-1.42-1.57-2.66-1.57
					c-1.26,0-2.54,0.19-3.79,0.57l-6.56,1.99c-0.25,0.08-0.47,0.23-0.6,0.43l-1.28,1.91c-0.09,0.13-0.22,0.24-0.38,0.3l-9.84,4.08
					C3455.28,689.63,3455.02,690.08,3455.15,690.48"/>
				<path class="st34" d="M3455.15,690.48l3.69,10.81c0.11,0.33,0.54,0.48,0.95,0.34l6.68-2.4c0.54-0.19,1.09-0.36,1.64-0.49
					l12.56-3.06c1.08-0.26,2.02-0.94,2.51-1.82l0.6-1.07c0.56-0.99,0.66-2.08,0.28-3.02l-3.22-8.05c-0.39-0.96-1.42-1.57-2.66-1.57
					c-1.26,0-2.54,0.19-3.79,0.57l-6.56,1.99c-0.25,0.08-0.47,0.23-0.6,0.43l-1.28,1.91c-0.09,0.13-0.22,0.24-0.38,0.3l-9.84,4.08
					C3455.28,689.63,3455.02,690.08,3455.15,690.48z"/>
				<path class="st36" d="M3477.35,742.33c-0.76,0.21-1.54,0.01-1.91-0.53c-2.33-3.37-4.57-8.85-4.57-8.85
					c-0.16-0.51,0.15-1.09,0.74-1.37l6.42-3.1c1.44-0.69,2.94-1.26,4.48-1.68l9.72-2.69c1-0.28,2.02-0.48,3.05-0.6l3.08-0.36
					c1.47-0.17,2.77,0.48,3.22,1.61l3.51,8.86c0.35,0.87-0.24,1.91-1.31,2.35l-4.48,1.8l-8.84,3.27c-0.09,0.03-0.19,0.03-0.28,0
					l-3.95-1.16c-0.08-0.02-0.18-0.01-0.26,0.02L3477.35,742.33z"/>
				<path class="st34" d="M3477.35,742.33c-0.76,0.21-1.54,0.01-1.91-0.53c-2.33-3.37-4.57-8.85-4.57-8.85
					c-0.16-0.51,0.15-1.09,0.74-1.37l6.42-3.1c1.44-0.69,2.94-1.26,4.48-1.68l9.72-2.69c1-0.28,2.02-0.48,3.05-0.6l3.08-0.36
					c1.47-0.17,2.77,0.48,3.22,1.61l3.51,8.86c0.35,0.87-0.24,1.91-1.31,2.35l-4.48,1.8l-8.84,3.27c-0.09,0.03-0.19,0.03-0.28,0
					l-3.95-1.16c-0.08-0.02-0.18-0.01-0.26,0.02L3477.35,742.33z"/>
				<path class="st36" d="M3484.74,681.91l2.38,6.17c0.08,0.2-0.05,0.43-0.28,0.54l-11.9,5.45c-1.26,0.58-2.69,0.18-3.1-0.87
					l-1.96-4.95c-0.52-1.31,0.51-2.86,2.18-3.31l12.15-3.24C3484.44,681.63,3484.67,681.73,3484.74,681.91"/>
				<path class="st34" d="M3484.74,681.91l2.38,6.17c0.08,0.2-0.05,0.43-0.28,0.54l-11.9,5.45c-1.26,0.58-2.69,0.18-3.1-0.87
					l-1.96-4.95c-0.52-1.31,0.51-2.86,2.18-3.31l12.15-3.24C3484.44,681.63,3484.67,681.73,3484.74,681.91z"/>
				<path class="st36" d="M3492.68,735.95l13.48-5.3c0.46-0.18,0.72-0.61,0.61-0.99l-1.5-5.17c-0.05-0.15-0.22-0.24-0.42-0.2
					l-14.97,3.04c-1.65,0.34-2.75,1.83-2.3,3.13l1.5,4.3C3489.53,736.01,3491.16,736.55,3492.68,735.95"/>
				<path class="st34" d="M3492.68,735.95l13.48-5.3c0.46-0.18,0.72-0.61,0.61-0.99l-1.5-5.17c-0.05-0.15-0.22-0.24-0.42-0.2
					l-14.97,3.04c-1.65,0.34-2.75,1.83-2.3,3.13l1.5,4.3C3489.53,736.01,3491.16,736.55,3492.68,735.95z"/>
				<path class="st36" d="M3448.39,623.65l1.64-0.14c1.8-0.15,3.52,0.22,4.88,1.07l-2.08-4.99l-2.31,0.1
					c-2.27,0.1-4.56,0.44-6.81,0.99l-1.52,0.38c-1.53,0.38-3.03,0.85-4.51,1.41l-0.64,0.24c-3.68,1.39-7.08,3.39-9.99,5.87
					l-2.52,2.14l1.49,4.07l1.39-1.78c1.26-1.61,2.89-3.01,4.77-4.1c1.25-0.72,4.4-2.17,4.4-2.17l10.65,26.84l6.18-2.24l-10.73-26.8
					l2.97-0.54C3446.56,623.85,3447.48,623.73,3448.39,623.65"/>
				<path class="st34" d="M3448.39,623.65l1.64-0.14c1.8-0.15,3.52,0.22,4.88,1.07l-2.08-4.99l-2.31,0.1
					c-2.27,0.1-4.56,0.44-6.81,0.99l-1.52,0.38c-1.53,0.38-3.03,0.85-4.51,1.41l-0.64,0.24c-3.68,1.39-7.08,3.39-9.99,5.87
					l-2.52,2.14l1.49,4.07l1.39-1.78c1.26-1.61,2.89-3.01,4.77-4.1c1.25-0.72,4.4-2.17,4.4-2.17l10.65,26.84l6.18-2.24l-10.73-26.8
					l2.97-0.54C3446.56,623.85,3447.48,623.73,3448.39,623.65z"/>
				<path class="st36" d="M3542.75,677.74L3542.75,677.74c-3.22-1.14-7.04-1.02-10.54,0.35l-0.84,0.33
					c-3.05,1.19-5.65,3.23-7.3,5.75l-0.75,1.14c-0.98,1.48-1.17,3.17-0.54,4.6l6.55,14.75l22.51-9.29l-6.44-15.25
					C3544.94,679.03,3544,678.19,3542.75,677.74"/>
				<path class="st34" d="M3542.75,677.74L3542.75,677.74c-3.22-1.14-7.04-1.02-10.54,0.35l-0.84,0.33
					c-3.05,1.19-5.65,3.23-7.3,5.75l-0.75,1.14c-0.98,1.48-1.17,3.17-0.54,4.6l6.55,14.75l22.51-9.29l-6.44-15.25
					C3544.94,679.03,3544,678.19,3542.75,677.74z"/>
				<polygon class="st36" points="3556.4,715.08 3548.07,696.93 3531.94,703.58 3540.17,721.99 				"/>
				<polygon class="st34" points="3556.4,715.08 3548.07,696.93 3531.94,703.58 3540.17,721.99 				"/>
				<path class="st33" d="M3523.62,837.13l0.55,2.51c0.01,0.06-0.04,0.12-0.11,0.13l-1.87,0.32c-1.19,0.2-2.33,0.67-3.31,1.35
					l-1.32,0.92c-0.11,0.08-0.27,0.07-0.34-0.03l-1.6-2.15l1.87-1c0.6-0.31,2.07-1.16,2.73-1.22L3523.62,837.13z"/>
				<path class="st36" d="M3487.15,716.37l-5.44-13.57c-0.42-1.05,0.04-2.3,1.14-3.1l12.98-9.49c2.81-2.05,6.07-3.56,9.51-4.39
					l14.09-3.39l10.16,22.5l-13.03,7.46c-2.69,1.54-5.67,2.56-8.73,3l-17.54,2.49C3488.86,718.08,3487.58,717.47,3487.15,716.37"/>
				<path class="st34" d="M3487.15,716.37l-5.44-13.57c-0.42-1.05,0.04-2.3,1.14-3.1l12.98-9.49c2.81-2.05,6.07-3.56,9.51-4.39
					l14.09-3.39l10.16,22.5l-13.03,7.46c-2.69,1.54-5.67,2.56-8.73,3l-17.54,2.49C3488.86,718.08,3487.58,717.47,3487.15,716.37z"/>
				<path class="st35" d="M3475.77,688.46l13.56,10.38c0.51,0.39,0.32,1.16-0.37,1.47l-0.22,0.1c-0.4,0.18-0.85,0.15-1.15-0.08
					l-13.34-10.48c-0.54-0.43-0.26-1.26,0.51-1.51C3475.13,688.21,3475.51,688.26,3475.77,688.46"/>
				<path class="st33" d="M3475.77,688.46l13.56,10.38c0.51,0.39,0.32,1.16-0.37,1.47l-0.22,0.1c-0.4,0.18-0.85,0.15-1.15-0.08
					l-13.34-10.48c-0.54-0.43-0.26-1.26,0.51-1.51C3475.13,688.21,3475.51,688.26,3475.77,688.46z"/>
				<path class="st35" d="M3498.44,711.05l-1.92,17.62c-0.07,0.66-0.92,1.16-1.62,0.95l-0.22-0.07c-0.41-0.12-0.65-0.46-0.6-0.84
					l2.15-17.55c0.09-0.72,1.06-1.21,1.76-0.89C3498.3,710.42,3498.48,710.72,3498.44,711.05"/>
				<path class="st33" d="M3498.44,711.05l-1.92,17.62c-0.07,0.66-0.92,1.16-1.62,0.95l-0.22-0.07c-0.41-0.12-0.65-0.46-0.6-0.84
					l2.15-17.55c0.09-0.72,1.06-1.21,1.76-0.89C3498.3,710.42,3498.48,710.72,3498.44,711.05z"/>
				<path class="st35" d="M3482.76,685.53L3482.76,685.53c-0.73,0.24-1,1.03-0.49,1.44l12.14,9.72c0.28,0.22,0.72,0.26,1.1,0.08
					l0.14-0.07c0.65-0.3,0.84-1.02,0.36-1.4l-12.28-9.65C3483.48,685.47,3483.11,685.42,3482.76,685.53"/>
				<path class="st33" d="M3482.76,685.53L3482.76,685.53c-0.73,0.24-1,1.03-0.49,1.44l12.14,9.72c0.28,0.22,0.72,0.26,1.1,0.08
					l0.14-0.07c0.65-0.3,0.84-1.02,0.36-1.4l-12.28-9.65C3483.48,685.47,3483.11,685.42,3482.76,685.53z"/>
				<path class="st35" d="M3504.93,709.15L3504.93,709.15c-0.64-0.4-1.52,0.02-1.61,0.75l-1.92,17.46c-0.04,0.4,0.18,0.78,0.56,0.95
					l0.14,0.06c0.65,0.29,1.42-0.14,1.49-0.82l1.77-17.52C3505.41,709.68,3505.24,709.34,3504.93,709.15"/>
				<path class="st33" d="M3504.93,709.15L3504.93,709.15c-0.64-0.4-1.52,0.02-1.61,0.75l-1.92,17.46c-0.04,0.4,0.18,0.78,0.56,0.95
					l0.14,0.06c0.65,0.29,1.42-0.14,1.49-0.82l1.77-17.52C3505.41,709.68,3505.24,709.34,3504.93,709.15z"/>
			</g>
		</g>
	</g>
	<g id="_x34__1_">
		<g>
			<defs>
				
					<rect id="SVGID_53_" x="4314.07" y="244.73" transform="matrix(0.9397 -0.342 0.342 0.9397 136.157 1547.8326)" width="286.19" height="286.19"/>
			</defs>
			<clipPath id="SVGID_54_">
				<use xlink:href="#SVGID_53_"  style="overflow:visible;"/>
			</clipPath>
			<g class="st37">
				<defs>
					<path id="SVGID_55_" d="M4391.86,277.97l3.63-0.06c0.97-0.02,1.78,0.45,2.08,1.2l11.73,29.18l-4.92,0.69
						c-1.18,0.17-2.36,0.44-3.5,0.82l-4.45,1.47c-0.43,0.14-0.85,0.29-1.27,0.46l-3.19,1.25c-2.08,0.82-4.06,1.85-5.89,3.08
						l-4.53,3.04L4370.26,289c1.01-2.28,2.76-4.35,5.02-5.94l0.09-0.06c1.42-1,2.96-1.84,4.59-2.52c0.46-0.19,0.92-0.37,1.38-0.54
						C4384.75,278.71,4388.32,278.03,4391.86,277.97"/>
				</defs>
				<clipPath id="SVGID_56_">
					<use xlink:href="#SVGID_55_"  style="overflow:visible;"/>
				</clipPath>
				
					<linearGradient id="SVGID_57_" gradientUnits="userSpaceOnUse" x1="1162.7767" y1="1495.2802" x2="1164.3379" y2="1495.2802" gradientTransform="matrix(-23.1616 -14.6125 14.6125 -23.1616 9490.3408 51932.9727)">
					<stop  offset="0" style="stop-color:#FFFFFF"/>
					<stop  offset="1" style="stop-color:#FFFFFF"/>
				</linearGradient>
				<polygon class="st38" points="4421.57,289.82 4381.34,264.44 4356.6,303.65 4396.84,329.03 				"/>
			</g>
			<g class="st37">
				<defs>
					
						<rect id="SVGID_58_" x="4314.07" y="244.73" transform="matrix(0.9397 -0.342 0.342 0.9397 136.157 1547.8326)" width="286.19" height="286.19"/>
				</defs>
				<clipPath id="SVGID_59_">
					<use xlink:href="#SVGID_58_"  style="overflow:visible;"/>
				</clipPath>
				<path class="st39" d="M4409.31,308.29l-11.73-29.18c-0.3-0.75-1.11-1.21-2.08-1.2l-3.63,0.06c-4.02,0.07-8.09,0.93-11.9,2.51
					c-1.63,0.68-3.17,1.52-4.59,2.52l-0.09,0.06c-2.26,1.59-4.01,3.66-5.02,5.94l11.29,30.09l4.53-3.04
					c1.83-1.23,3.81-2.26,5.89-3.08l3.19-1.25c0.42-0.16,0.84-0.32,1.27-0.46l4.45-1.47c1.15-0.38,2.32-0.65,3.5-0.82
					L4409.31,308.29z"/>
				<path class="st39" d="M4409.63,308.85l41.09,103.26l0,0.01l2.91,9.14l0.41,1.28c0.03,0.09-0.07,0.18-0.17,0.16l0,0
					c-3.76-0.5-7.75-0.09-11.54,1.19l-3.37,1.13l-0.73,0.27l-6.92,2.75c-1.77,0.7-3.46,1.59-5.03,2.63
					c-0.77,0.52-1.37,1.2-1.73,1.96l-0.53,1.14c-0.05,0.11-0.22,0.12-0.26,0.02l-42.7-111.8c-0.19-0.49-0.17-1.05,0.04-1.58
					c0.33-0.81,0.93-1.55,1.73-2.12l2.43-1.74c2.11-1.51,4.46-2.73,6.96-3.6c0.3-0.11,0.6-0.23,0.91-0.34l4.62-1.85
					c0.69-0.24,1.37-0.48,2.06-0.72l0.65-0.2c1.51-0.45,6.22-1.32,7.76-1.42l1.27,0.3C4409.53,308.77,4409.59,308.82,4409.63,308.85
					z"/>
				<path class="st39" d="M4430.45,446.4l-5.99-12.77c0.48-1.13,1.36-2.15,2.51-2.89l1.93-1.25c3.63-1.81,4.85-2.17,6.22-2.69
					l8.62-3.11c4.24-1.11,5.74-1.39,8.52-0.98l1.28,0.19l4.29,14.06c0.05,0.18-0.12,0.37-0.35,0.38l-4.53,0.15
					c-1.63,0.05-3.27,0.32-4.87,0.78l-5.56,1.6c-0.97,0.28-1.92,0.62-2.84,1.02l-2.04,0.88c-2.01,0.86-3.84,2.04-5.4,3.46l-1.32,1.2
					C4430.78,446.59,4430.52,446.56,4430.45,446.4z"/>
			</g>
			<g class="st37">
				<defs>
					<path id="SVGID_60_" d="M4383.78,327.35c1.12,0.11,2.01,0.72,2.35,1.62l0.1,0.26l0.05,0.55c0.07,0.8-0.37,1.64-1.16,2.2
						l-1.92-4.79L4383.78,327.35z"/>
				</defs>
				<clipPath id="SVGID_61_">
					<use xlink:href="#SVGID_60_"  style="overflow:visible;"/>
				</clipPath>
				
					<linearGradient id="SVGID_62_" gradientUnits="userSpaceOnUse" x1="910.4442" y1="1436.0859" x2="912.0054" y2="1436.0859" gradientTransform="matrix(-10.19 2.0029 -2.0029 -10.19 16540.0762 13139.2393)">
					<stop  offset="0" style="stop-color:#000000"/>
					<stop  offset="0.1413" style="stop-color:#000000"/>
					<stop  offset="1" style="stop-color:#000000"/>
				</linearGradient>
				<polygon class="st40" points="4385.99,326.31 4383.13,326.87 4384.18,332.19 4387.04,331.63 				"/>
			</g>
			<g class="st37">
				<defs>
					
						<rect id="SVGID_63_" x="4314.07" y="244.73" transform="matrix(0.9397 -0.342 0.342 0.9397 136.157 1547.8326)" width="286.19" height="286.19"/>
				</defs>
				<clipPath id="SVGID_64_">
					<use xlink:href="#SVGID_63_"  style="overflow:visible;"/>
				</clipPath>
				<path class="st41" d="M4383.19,327.19l0.58,0.16c1.12,0.11,2.01,0.73,2.35,1.62l0.1,0.26l0.05,0.55c0.07,0.8-0.37,1.64-1.16,2.2
					L4383.19,327.19z"/>
				<path class="st42" d="M4454.77,438.02l7.48,20.68l-7.08,1.56c-0.72,0.16-1.43,0.36-2.12,0.6l-3.13,1.08
					c-1.52,0.53-2.99,1.21-4.35,2.04l-4.59,2.76l-5.02-12.75l-3.37-8.56c-0.08-0.21,0.02-0.46,0.26-0.61l2.51-1.59
					c0.57-0.31,1.14-0.59,1.73-0.86l4.75-1.85c0.28-0.12,0.56-0.23,0.85-0.33l5.97-2.01c1.21-0.4,2.47-0.54,3.67-0.42
					L4454.77,438.02z"/>
				<path class="st43" d="M4468.14,499.13c0.66-0.26,1.24,0.26,1.69,0.66c3.03,2.7,15.34,12.21,28.11,1.27
					c14.72-12.61,1.15-65.8-6.16-76.75c-6.12-9.18-23.28-28.55-24.82-34.39c-1.54-5.84-0.13-19.24,14.34-17.61
					c14.47,1.63,2.74,5.98,2.74,5.98s-5.84-2.29-8.26,0.89c-2.42,3.17-3.27,7.58,0.52,14.17c3.79,6.59,15.77,17.46,22.67,29.47
					c5.54,9.63,18.06,53.26,9.24,74.16c0,0-9.78,15.89-24.03,14.63c-15.63-1.38-18.73-7.95-20.86-10.17
					c-0.09-0.09-0.04-0.25,0.11-0.3L4468.14,499.13z"/>
				<path class="st43" d="M4433.19,455.54l2.71-1.49l-2.62-6.82l-0.65,0.97c-0.52,0.69-0.74,1.49-0.62,2.24l0.83,5
					C4432.87,455.57,4433.05,455.62,4433.19,455.54"/>
				<path class="st41" d="M4433.19,455.54l2.71-1.49l-2.62-6.82l-0.65,0.97c-0.52,0.69-0.74,1.49-0.62,2.24l0.83,5
					C4432.87,455.57,4433.05,455.62,4433.19,455.54z"/>
				<path class="st42" d="M4462.34,459l2.15,5.01c0.37,0.82,0.66,1.68,0.85,2.56l1.83,8.48c0.04,0.18-0.11,0.38-0.33,0.44
					l-7.63,2.17c-1.2,0.34-2.37,0.79-3.48,1.35l-7.16,3.54c-0.2,0.1-0.43,0.05-0.52-0.1l-3.22-5.61c-0.55-0.86-1.11-1.98-1.45-2.94
					l-2.28-7l5.02-3.09c0.86-0.54,1.79-0.99,2.77-1.33l3.52-1.24c1.37-0.48,2.78-0.83,4.21-1.03L4462.34,459z"/>
				<path class="st44" d="M4473,365.64L4473,365.64c0.16,2.13-1.4,4.29-3.8,5.28l-29.71,12.22l-13.12-31.02l29.18-11.38
					c2.45-0.96,5.14-0.67,6.88,0.74l0.12,0.21l3.68,8.48L4473,365.64z"/>
				<path class="st42" d="M4473,365.64L4473,365.64c0.16,2.13-1.4,4.29-3.8,5.28l-29.71,12.22l-13.12-31.02l29.18-11.38
					c2.45-0.96,5.14-0.67,6.88,0.74l0.12,0.21l3.68,8.48L4473,365.64z"/>
				<path class="st42" d="M4470.28,495.75l-3.9-19.66l-6.12,1.66c-1.81,0.49-3.58,1.17-5.25,2.02l-5.96,3.03l10.71,16.82
					c0.09,0.15,0.32,0.18,0.5,0.08l3.46-1.86c0.71-0.38,1.47-0.67,2.25-0.86l4.09-0.97C4470.21,495.98,4470.3,495.86,4470.28,495.75
					z"/>
				<path class="st44" d="M4400.51,349.62l3.69,10.81c0.11,0.33,0.54,0.48,0.95,0.34l6.68-2.4c0.54-0.19,1.09-0.36,1.64-0.49
					l12.56-3.06c1.08-0.26,2.02-0.94,2.51-1.82l0.6-1.07c0.56-0.99,0.66-2.08,0.28-3.02l-3.22-8.05c-0.38-0.96-1.42-1.57-2.66-1.57
					c-1.26,0-2.54,0.19-3.79,0.57l-6.56,1.99c-0.25,0.08-0.47,0.23-0.6,0.43l-1.28,1.91c-0.09,0.13-0.22,0.24-0.38,0.3l-9.84,4.08
					C4400.64,348.77,4400.38,349.23,4400.51,349.62"/>
				<path class="st42" d="M4400.51,349.62l3.69,10.81c0.11,0.33,0.54,0.48,0.95,0.34l6.68-2.4c0.54-0.19,1.09-0.36,1.64-0.49
					l12.56-3.06c1.08-0.26,2.02-0.94,2.51-1.82l0.6-1.07c0.56-0.99,0.66-2.08,0.28-3.02l-3.22-8.05c-0.38-0.96-1.42-1.57-2.66-1.57
					c-1.26,0-2.54,0.19-3.79,0.57l-6.56,1.99c-0.25,0.08-0.47,0.23-0.6,0.43l-1.28,1.91c-0.09,0.13-0.22,0.24-0.38,0.3l-9.84,4.08
					C4400.64,348.77,4400.38,349.23,4400.51,349.62z"/>
				<path class="st44" d="M4422.71,401.47c-0.76,0.21-1.54,0.01-1.91-0.53c-2.33-3.37-4.57-8.85-4.57-8.85
					c-0.16-0.51,0.15-1.09,0.74-1.37l6.42-3.1c1.44-0.69,2.94-1.26,4.48-1.68l9.72-2.69c1-0.28,2.02-0.48,3.05-0.6l3.08-0.36
					c1.47-0.17,2.77,0.48,3.22,1.61l3.51,8.86c0.35,0.87-0.24,1.91-1.31,2.35l-4.48,1.8l-8.84,3.27c-0.09,0.03-0.19,0.03-0.28,0
					l-3.95-1.16c-0.08-0.02-0.18-0.01-0.26,0.02L4422.71,401.47z"/>
				<path class="st42" d="M4422.71,401.47c-0.76,0.21-1.54,0.01-1.91-0.53c-2.33-3.37-4.57-8.85-4.57-8.85
					c-0.16-0.51,0.15-1.09,0.74-1.37l6.42-3.1c1.44-0.69,2.94-1.26,4.48-1.68l9.72-2.69c1-0.28,2.02-0.48,3.05-0.6l3.08-0.36
					c1.47-0.17,2.77,0.48,3.22,1.61l3.51,8.86c0.35,0.87-0.24,1.91-1.31,2.35l-4.48,1.8l-8.84,3.27c-0.09,0.03-0.19,0.03-0.28,0
					l-3.95-1.16c-0.08-0.02-0.18-0.01-0.26,0.02L4422.71,401.47z"/>
				<path class="st44" d="M4430.1,341.05l2.38,6.17c0.08,0.2-0.05,0.43-0.28,0.54l-11.9,5.45c-1.26,0.58-2.69,0.18-3.1-0.87
					l-1.96-4.95c-0.52-1.31,0.51-2.86,2.18-3.31l12.15-3.24C4429.8,340.78,4430.03,340.87,4430.1,341.05"/>
				<path class="st42" d="M4430.1,341.05l2.38,6.17c0.08,0.2-0.05,0.43-0.28,0.54l-11.9,5.45c-1.26,0.58-2.69,0.18-3.1-0.87
					l-1.96-4.95c-0.52-1.31,0.51-2.86,2.18-3.31l12.15-3.24C4429.8,340.78,4430.03,340.87,4430.1,341.05z"/>
				<path class="st44" d="M4438.04,395.09l13.48-5.3c0.46-0.18,0.72-0.61,0.61-0.99l-1.5-5.17c-0.04-0.15-0.22-0.24-0.42-0.2
					l-14.97,3.04c-1.65,0.34-2.75,1.83-2.3,3.13l1.5,4.3C4434.89,395.15,4436.52,395.69,4438.04,395.09"/>
				<path class="st42" d="M4438.04,395.09l13.48-5.3c0.46-0.18,0.72-0.61,0.61-0.99l-1.5-5.17c-0.04-0.15-0.22-0.24-0.42-0.2
					l-14.97,3.04c-1.65,0.34-2.75,1.83-2.3,3.13l1.5,4.3C4434.89,395.15,4436.52,395.69,4438.04,395.09z"/>
				<path class="st44" d="M4393.75,282.79l1.64-0.14c1.8-0.15,3.52,0.22,4.88,1.07l-2.08-4.99l-2.31,0.1
					c-2.27,0.1-4.56,0.44-6.81,0.99l-1.52,0.38c-1.53,0.38-3.03,0.85-4.51,1.41l-0.64,0.24c-3.68,1.39-7.08,3.39-9.99,5.87
					l-2.52,2.14l1.49,4.07l1.39-1.78c1.26-1.61,2.89-3.01,4.77-4.1c1.25-0.72,4.4-2.17,4.4-2.17l10.65,26.84l6.18-2.24l-10.73-26.8
					l2.97-0.54C4391.93,282.99,4392.84,282.87,4393.75,282.79"/>
				<path class="st42" d="M4393.75,282.79l1.64-0.14c1.8-0.15,3.52,0.22,4.88,1.07l-2.08-4.99l-2.31,0.1
					c-2.27,0.1-4.56,0.44-6.81,0.99l-1.52,0.38c-1.53,0.38-3.03,0.85-4.51,1.41l-0.64,0.24c-3.68,1.39-7.08,3.39-9.99,5.87
					l-2.52,2.14l1.49,4.07l1.39-1.78c1.26-1.61,2.89-3.01,4.77-4.1c1.25-0.72,4.4-2.17,4.4-2.17l10.65,26.84l6.18-2.24l-10.73-26.8
					l2.97-0.54C4391.93,282.99,4392.84,282.87,4393.75,282.79z"/>
				<path class="st44" d="M4488.12,336.89L4488.12,336.89c-3.22-1.14-7.04-1.02-10.54,0.35l-0.84,0.33
					c-3.05,1.19-5.65,3.23-7.3,5.75l-0.75,1.14c-0.98,1.48-1.17,3.17-0.54,4.6l6.55,14.75l22.51-9.29l-6.44-15.25
					C4490.3,338.17,4489.36,337.33,4488.12,336.89"/>
				<path class="st42" d="M4488.12,336.89L4488.12,336.89c-3.22-1.14-7.04-1.02-10.54,0.35l-0.84,0.33
					c-3.05,1.19-5.65,3.23-7.3,5.75l-0.75,1.14c-0.98,1.48-1.17,3.17-0.54,4.6l6.55,14.75l22.51-9.29l-6.44-15.25
					C4490.3,338.17,4489.36,337.33,4488.12,336.89z"/>
				<polygon class="st44" points="4501.76,374.22 4493.43,356.07 4477.3,362.72 4485.53,381.13 				"/>
				<polygon class="st42" points="4501.76,374.22 4493.43,356.07 4477.3,362.72 4485.53,381.13 				"/>
				<path class="st41" d="M4468.98,496.27l0.55,2.51c0.01,0.06-0.04,0.12-0.11,0.13l-1.87,0.32c-1.19,0.2-2.33,0.67-3.31,1.35
					l-1.32,0.92c-0.11,0.08-0.27,0.07-0.34-0.03l-1.6-2.15l1.87-1c0.6-0.31,2.07-1.16,2.73-1.22L4468.98,496.27z"/>
				<path class="st44" d="M4432.51,375.52l-5.44-13.57c-0.42-1.05,0.04-2.3,1.14-3.1l12.98-9.49c2.81-2.05,6.07-3.56,9.51-4.39
					l14.09-3.39l10.16,22.5l-13.03,7.46c-2.69,1.54-5.67,2.56-8.73,3l-17.54,2.49C4434.23,377.22,4432.95,376.61,4432.51,375.52"/>
				<path class="st42" d="M4432.51,375.52l-5.44-13.57c-0.42-1.05,0.04-2.3,1.14-3.1l12.98-9.49c2.81-2.05,6.07-3.56,9.51-4.39
					l14.09-3.39l10.16,22.5l-13.03,7.46c-2.69,1.54-5.67,2.56-8.73,3l-17.54,2.49C4434.23,377.22,4432.95,376.61,4432.51,375.52z"/>
				<path class="st43" d="M4421.13,347.6l13.56,10.38c0.51,0.39,0.32,1.16-0.37,1.47l-0.22,0.1c-0.4,0.18-0.85,0.15-1.15-0.08
					l-13.34-10.48c-0.54-0.43-0.26-1.26,0.51-1.51C4420.49,347.35,4420.87,347.4,4421.13,347.6"/>
				<path class="st41" d="M4421.13,347.6l13.56,10.38c0.51,0.39,0.32,1.16-0.37,1.47l-0.22,0.1c-0.4,0.18-0.85,0.15-1.15-0.08
					l-13.34-10.48c-0.54-0.43-0.26-1.26,0.51-1.51C4420.49,347.35,4420.87,347.4,4421.13,347.6z"/>
				<path class="st43" d="M4443.8,370.19l-1.92,17.62c-0.07,0.66-0.92,1.16-1.62,0.95l-0.22-0.07c-0.41-0.12-0.65-0.46-0.6-0.84
					l2.15-17.55c0.09-0.72,1.06-1.21,1.76-0.89C4443.66,369.56,4443.84,369.86,4443.8,370.19"/>
				<path class="st41" d="M4443.8,370.19l-1.92,17.62c-0.07,0.66-0.92,1.16-1.62,0.95l-0.22-0.07c-0.41-0.12-0.65-0.46-0.6-0.84
					l2.15-17.55c0.09-0.72,1.06-1.21,1.76-0.89C4443.66,369.56,4443.84,369.86,4443.8,370.19z"/>
				<path class="st43" d="M4428.12,344.67L4428.12,344.67c-0.73,0.24-1,1.03-0.49,1.44l12.14,9.72c0.28,0.22,0.72,0.26,1.1,0.08
					l0.14-0.07c0.65-0.3,0.84-1.02,0.36-1.4l-12.28-9.65C4428.84,344.61,4428.47,344.56,4428.12,344.67"/>
				<path class="st41" d="M4428.12,344.67L4428.12,344.67c-0.73,0.24-1,1.03-0.49,1.44l12.14,9.72c0.28,0.22,0.72,0.26,1.1,0.08
					l0.14-0.07c0.65-0.3,0.84-1.02,0.36-1.4l-12.28-9.65C4428.84,344.61,4428.47,344.56,4428.12,344.67z"/>
				<path class="st43" d="M4450.29,368.3L4450.29,368.3c-0.64-0.4-1.52,0.02-1.61,0.75l-1.92,17.46c-0.04,0.4,0.18,0.78,0.56,0.95
					l0.14,0.06c0.65,0.29,1.42-0.14,1.49-0.82l1.77-17.52C4450.77,368.82,4450.6,368.49,4450.29,368.3"/>
				<path class="st41" d="M4450.29,368.3L4450.29,368.3c-0.64-0.4-1.52,0.02-1.61,0.75l-1.92,17.46c-0.04,0.4,0.18,0.78,0.56,0.95
					l0.14,0.06c0.65,0.29,1.42-0.14,1.49-0.82l1.77-17.52C4450.77,368.82,4450.6,368.49,4450.29,368.3z"/>
			</g>
		</g>
	</g>
</g>
<g id="Layer_7">
	<g>
		<g>
			<defs>
				<rect id="SVGID_65_" x="-192.73" y="1099.89" width="1473.65" height="1473.65"/>
			</defs>
			<clipPath id="SVGID_66_">
				<use xlink:href="#SVGID_65_"  style="overflow:visible;"/>
			</clipPath>
			<g class="st45">
				<defs>
					<rect id="SVGID_67_" x="-192.73" y="1099.89" width="1473.65" height="1473.65"/>
				</defs>
				<clipPath id="SVGID_68_">
					<use xlink:href="#SVGID_67_"  style="overflow:visible;"/>
				</clipPath>
				<polygon class="st47" points="535.83,1571.01 763.58,1867.9 939,2160.92 				"/>
				<path class="st47" d="M96.77,1635.84c-1.57-7.98-6.19-15.14-13.09-19.45c-8.98-5.6-17.02-3.24-22.32-2.96
					c-0.8,0.04-1.38,0.76-1.24,1.54l77.46,441.01l-82.37,432.02h44.3l76.94-385.5l304.95,2.78l9.85,382.52l43.12-0.49l-18.62-428.81
					l-330.48,0.32L96.77,1635.84z"/>
				<path class="st48" d="M344.82,1331.5l3.51-0.53c2.13-0.32,4.28,0.45,5.75,2.06l460.48,508.03l45.85,114.62"/>
				<polygon class="st47" points="658.4,2347.61 654.56,2380.06 597.44,2376.73 582.89,2368.87 616.96,2322.15 				"/>
				<path class="st47" d="M764.6,1880.06l42.05-38.15c0.18-0.17,0-0.46-0.23-0.38l-53.27,20.48c-0.74,0.29-1.03,1.2-0.59,1.87
					l10.48,15.98C763.4,1880.39,764.13,1880.48,764.6,1880.06z"/>
				<path class="st47" d="M693.81,1799.77l-100.59,71.95c-0.43,0.31-1.03,0.18-1.29-0.28l-129.24-218.16
					c-1.36-2.29-1.1-5.21,0.65-7.21l52.87-52.41c2.14-2.44,5.63-7.66,6.41-10.83l-2.62-14.27c-0.19-1.05-0.1-2.14,0.26-3.14
					l4.69-11.64L694,1798.62C694.26,1798.99,694.17,1799.51,693.81,1799.77z"/>
				<polygon class="st47" points="885.05,2187.68 1055.48,2482.49 871.32,2200.39 				"/>
				<path class="st47" d="M793.97,1944.19l-109.16,77.82c-0.37,0.26-0.46,0.79-0.2,1.17l153.52,220.18c0.28,0.4,0.83,0.47,1.2,0.17
					l99.81-81.34c0.34-0.27,0.41-0.76,0.17-1.12l-144.16-216.66C794.88,1944.02,794.35,1943.92,793.97,1944.19z"/>
				<polygon class="st47" points="692.71,1800.55 791.89,1945.67 690.84,2017.71 596.24,1869.55 				"/>
				<path class="st47" d="M349.33,1334l388.19,427.84l-19.88-2.74c-2.42,0.12-4.77-0.83-6.44-2.6l-166.74-177.09l-36.53-26.3
					L334.8,1347.55L349.33,1334z"/>
				<polygon class="st47" points="576.55,2359.25 559.71,2378.7 502.58,2375.37 488.04,2367.51 522.1,2320.79 				"/>
				<path class="st47" d="M635.35,1943.23l42.77,25.45c8.26,1.24,53.23,34.21,53.23,84.59c0,133.62-65.67,303.3-65.67,303.3
					c-1,3.05-111.55-40.94-111.55-40.94c-2.21-1.24,49.27-162.47,49.27-162.47c3.07-4.81-10.65-70.98-10.65-70.98
					c-3.5-47.95-34.21-74.56-44.37-76.32c-78.95-13.68-220.23-7.19-220.23-7.19c-2.23-0.04-29.86,16.13-43.61,5.42
					c-14.29-11.12-16.46-34.88-16.46-34.88l43.85-88.92l207.69,33.13C559.3,1916.05,599.78,1927.09,635.35,1943.23z"/>
				<path class="st47" d="M583.47,2368.08l-19.14,19.54c-3.02,1.96-2.66-3.65-4.81-0.92c0,0-15.32,14.8-15.74,27.2l-0.2,6.04
					c-0.13,3.75,2.48,7.14,6.41,8.34l46.57,14.24l59.72,14.54c3.88,0.94,0.27,13.34,3.78,15.11l27.85,1.2
					c2.63,0.11,5.18,0.78,7.46,1.96c9.97,5.13,21.34,7.59,32.8,7.11l6.12-0.26c7.58-0.32,14.75-3.23,20.07-8.13l0.56-0.51
					c2.85-2.63,4.06-6.37,3.24-9.97l-0.4-1.74c-0.82-3.62-3.46-6.68-7.14-8.29l-52.01-22.7c-5.07-2.22-9.47-5.51-12.82-9.6
					L670.06,2402c-1.71-2.09-2.98-4.45-3.74-6.96l-4.54-14.98l-49.01-2.28c-4.75-0.22-9.41-1.27-13.71-3.09L583.47,2368.08z"/>
				<path class="st47" d="M508.06,1891.55l130.92,32.33c8.26,1.29,68.92,24.88,102.29,66.78c17.18,21.57,22.95,48.92,17.14,74.98
					l-28.73,75.11c-17.13,44.78-38.85,88.01-64.88,129.14l-76.57,100.22c-3.05,5.44-89.53-54.18-89.53-54.18
					c-2.21-1.29,13.06-25.9,14.34-27.97L615,2099.46c6.62-23.98,4.4-32.88,0-40.1c-7.9-12.96-93.86-26.61-104.1-25.12
					c-88.49,12.84-243.01,7.29-243.01,7.29c-2.23-0.04-20.93,5.68-45.83-9.71c-15.63-9.66-10.46-75.38-10.46-75.38l268.63-44.13
					L508.06,1891.55z"/>
				<path class="st49" d="M591.27,1874.32l-3.14-8.43l342.02-127.47l0,0c1.74,4.66-0.63,9.84-5.29,11.58L591.27,1874.32z"/>
				<path class="st47" d="M517.44,1872.45l53.31,21.64c0.69,0.29,1.25,0.82,1.6,1.48l13.78,26.49c2.44,2.76,6.26,3.89,9.81,2.9
					l14.47-4.02c7-1.94,13.24-5.91,17.92-11.4l13.15-15.4c2.14-2.51,2.73-5.97,1.53-9.04l-6.67-17.08
					c-1.53-3.91-10.77-5.05-13.9-7.89l-4.39-12.56c-1.89-1.72-4.25-2.86-6.78-3.29l-35.98-10.72c-0.94-0.16-17.98-10.84-17.98-10.84
					L517.44,1872.45z"/>
				<path class="st47" d="M539.99,2033.96l0.49,9.32c0.15,2.9-0.6,5.8-2.27,8.18c-4.47,6.38-12.01,7.05-15.05,7.05l-337.88,0.32
					l-4.57-21.49L539.99,2033.96z"/>
				<path class="st47" d="M490.31,2353.62l-14.83,18.64c-3.02,1.96-8.66,10.35-10.81,13.08c0,0-15.32,14.8-15.74,27.2l-0.2,6.04
					c-0.13,3.75,2.48,7.14,6.41,8.34l46.56,14.24l59.72,14.54c3.88,0.94,7.62,2.32,11.12,4.09l24.49,12.39l3.47,1.79
					c9.97,5.13,21.34,7.59,32.8,7.11l6.12-0.26c7.58-0.32,14.75-3.23,20.07-8.13l0.56-0.51c2.85-2.63,4.06-6.37,3.24-9.97l-0.4-1.74
					c-0.82-3.62-3.46-6.68-7.14-8.29l-52.01-22.7c-5.07-2.22-9.47-5.51-12.82-9.6l-15.73-19.22c-1.71-2.09-2.98-4.45-3.74-6.96
					l-4.54-14.98l-33.01-4.28c-2.04-0.09-6.48-1.08-11.21-2.33c-9.6-2.52-18.23-7.87-24.78-15.32l-2.88-3.27
					C493.78,2352.06,491.51,2352.11,490.31,2353.62z"/>
				<path class="st47" d="M309.57,1280.62c3.03-3.21,6.09-13.13,3.13-22.02c-3.32-9.97-13-16.44-24.1-17.24
					c-17.77-1.29-34.38,19-29.99,36.55c3.61,14.41,11.57,23.72,26.54,36.63c10.74,9.26,35.15,13.39,40,38.14
					c0.63,3.23,1.96-3.87,10.34-5.92c1.19-0.29,14.55-11.86,13.86-12.76c-6.89-9.04-4.29-4.7-9.62-10.94
					c-8.37-9.78-26.52-16.08-31.83-16.75c-20-2.52-28.06-20.56-24.9-19.08C294.63,1292.71,303.77,1286.76,309.57,1280.62z"/>
				<line class="st47" x1="912.68" y1="2096.14" x2="938.95" y2="2160.49"/>
				<path class="st47" d="M315.87,1423.21l11.38-76.68c0.64-5.05,0.53-10.17-0.33-15.18c0,0-1.14-6.69-5.09-29.58
					c-0.44-2.53-1.02-33.95-1.22-45.05c-0.05-2.79,0.14-5.59,0.69-8.33c6.85-34.2,37.8-64.04,61.87-64.39l25.35-0.37
					c16.98,2.16,2.36-0.81,19.49,3.14c11.91,4.14,23.19,10.01,33.44,17.43c0.7,0.5,1.38,1.01,2.06,1.5
					c14.3,10.46,25.64,24.7,32.03,41.38c6.93,18.09,5,29.47,4.96,32.08l-0.2,13.51c-0.05,3.66,1.22,7.21,3.59,10
					c0,0,16.9,19.66,14.95,28.27c-1.48,6.53-14.88,4.55-14.88,4.55s-6.85,15.98-6.15,17.37l2.49,12.79
					c0.38,0.74,0.13,1.65-0.56,2.09l-7.1,4.52c-1.04,0.66-1.47,1.98-1.02,3.14l1.09,2.8c1.47,3.78,1.75,7.94,0.79,11.88l-0.5,2.1
					c-1.22,5.04-6.01,8.31-11.06,7.56l-9.22-1.37c-3.14-0.47-6.21-1.35-9.13-2.63l-21.09-9.23c-1.12-0.49-2.38,0.26-2.51,1.48
					l-13.43,83.93L315.87,1423.21z"/>
				<polygon class="st47" points="864.65,1949.24 852.35,1958.37 912.74,2096.96 				"/>
				<path class="st47" d="M511.56,1896.83l-12.93-58.21c-0.87-3.89-1.37-7.86-1.5-11.85l-11.77-87.53
					c-1.94-14.46-2.72-29.05-2.27-43.63c0.7-22.96,1.98-51.55,1.23-77.31c-0.72-24.6-6.66-48.72-17.03-70.92
					c-2.09-4.48-4.08-9-5.84-13.61l-27.92-87.37c-0.37-1.16-1.23-2.11-2.36-2.58l-111.72-46.83c-1.11-0.46-2.39-0.15-3.16,0.77
					l-34.14,40.74l-13.92,17.59c-6.55,6.27-11.68,13.88-14.98,22.32c-14.2,36.24-21.59,77.17-24.66,99.56
					c-14.27,103.9-13.98,268.04-14.05,295.93c-0.02,8.81-1.45,42.51-2.28,51.27l-7.34,30.53c-0.29,3.12,1.88,5.92,4.94,6.31
					c33.32,4.31,210.31,11.89,252.33-13.64c0,0,29.25-18.53,43.74-32.52C510.99,1910.96,513.09,1903.73,511.56,1896.83z"/>
				<path class="st48" d="M398.27,1287.94l-2.88-5.31c-3.19-5.87-11.15-7.51-16.05-2.96c-0.21,0.2-0.41,0.4-0.61,0.62l-2.8,3.05
					c-4.29,4.68-6.78,10.73-7.04,17.07l-0.07,1.8c-0.41,10.26,4.72,19.95,13.44,25.38l2.83,1.76l12.42-6.02"/>
				<path class="st47" d="M282.15,1438.49c0,0-53.47,30.7-41.9,104.88c16.38,59.3,47.77,138.27,63.48,176.46
					c6.02,14.64,16.27,27.15,29.43,35.94l187.23,124.96l46.93-57l-134.35-122.91c-17.2-15.74-33.8-59.66-37.99-82.59"/>
			</g>
		</g>
	</g>
</g>
<g id="Floor">
	<line class="st50" x1="0" y1="2493.54" x2="5000" y2="2482.49"/>
</g>
</svg>
